  0
SECTION
  2
HEADER
  9
$ACADVER
  1
AC1024
  9
$ACADMAINTVER
 70
6
  9
$DWGCODEPAGE
  3
ANSI_1252
  9
$LASTSAVEDBY
  1
ezdxf
  9
$INSBASE
 10
0.0
 20
0.0
 30
0.0
  9
$EXTMIN
 10
1e+20
 20
1e+20
 30
1e+20
  9
$EXTMAX
 10
-1e+20
 20
-1e+20
 30
-1e+20
  9
$LIMMIN
 10
0.0
 20
0.0
  9
$LIMMAX
 10
420.0
 20
297.0
  9
$ORTHOMODE
 70
0
  9
$REGENMODE
 70
1
  9
$FILLMODE
 70
1
  9
$QTEXTMODE
 70
0
  9
$MIRRTEXT
 70
1
  9
$LTSCALE
 40
1.0
  9
$ATTMODE
 70
1
  9
$TEXTSIZE
 40
2.5
  9
$TRACEWID
 40
1.0
  9
$TEXTSTYLE
  7
OpenSans
  9
$CLAYER
  8
0
  9
$CELTYPE
  6
ByLayer
  9
$CECOLOR
 62
256
  9
$CELTSCALE
 40
1.0
  9
$DISPSILH
 70
0
  9
$DIMSCALE
 40
1.0
  9
$DIMASZ
 40
0.175
  9
$DIMEXO
 40
0.125
  9
$DIMDLI
 40
3.75
  9
$DIMRND
 40
0.0
  9
$DIMDLE
 40
0.0
  9
$DIMEXE
 40
0.375
  9
$DIMTP
 40
0.0
  9
$DIMTM
 40
0.0
  9
$DIMTXT
 40
0.25
  9
$DIMCEN
 40
2.5
  9
$DIMTSZ
 40
0.0
  9
$DIMTOL
 70
0
  9
$DIMLIM
 70
0
  9
$DIMTIH
 70
0
  9
$DIMTOH
 70
0
  9
$DIMSE1
 70
0
  9
$DIMSE2
 70
0
  9
$DIMTAD
 70
1
  9
$DIMZIN
 70
12
  9
$DIMBLK
  1
ARCHTICK
  9
$DIMASO
 70
1
  9
$DIMSHO
 70
1
  9
$DIMPOST
  1

  9
$DIMAPOST
  1

  9
$DIMALT
 70
0
  9
$DIMALTD
 70
3
  9
$DIMALTF
 40
0.03937007874
  9
$DIMLFAC
 40
100.0
  9
$DIMTOFL
 70
1
  9
$DIMTVP
 40
0.0
  9
$DIMTIX
 70
0
  9
$DIMSOXD
 70
0
  9
$DIMSAH
 70
0
  9
$DIMBLK1
  1

  9
$DIMBLK2
  1

  9
$DIMSTYLE
  2
EZDXF
  9
$DIMCLRD
 70
0
  9
$DIMCLRE
 70
0
  9
$DIMCLRT
 70
0
  9
$DIMTFAC
 40
0.5
  9
$DIMGAP
 40
0.1
  9
$DIMJUST
 70
0
  9
$DIMSD1
 70
0
  9
$DIMSD2
 70
0
  9
$DIMTOLJ
 70
0
  9
$DIMTZIN
 70
8
  9
$DIMALTZ
 70
0
  9
$DIMALTTZ
 70
0
  9
$DIMUPT
 70
1
  9
$DIMDEC
 70
2
  9
$DIMTDEC
 70
2
  9
$DIMALTU
 70
2
  9
$DIMALTTD
 70
3
  9
$DIMTXSTY
  7
OpenSansCondensed-Light
  9
$DIMAUNIT
 70
0
  9
$DIMADEC
 70
2
  9
$DIMALTRND
 40
0.0
  9
$DIMAZIN
 70
3
  9
$DIMDSEP
 70
46
  9
$DIMATFIT
 70
3
  9
$DIMFRAC
 70
0
  9
$DIMLDRBLK
  1

  9
$DIMLUNIT
 70
2
  9
$DIMLWD
 70
-2
  9
$DIMLWE
 70
-2
  9
$DIMTMOVE
 70
2
  9
$DIMFXL
 40
1.0
  9
$DIMFXLON
 70
0
  9
$DIMJOGANG
 40
0.785398163397
  9
$DIMTFILL
 70
0
  9
$DIMTFILLCLR
 70
0
  9
$DIMARCSYM
 70
0
  9
$DIMLTYPE
  6

  9
$DIMLTEX1
  6

  9
$DIMLTEX2
  6

  9
$DIMTXTDIRECTION
 70
0
  9
$LUNITS
 70
2
  9
$LUPREC
 70
4
  9
$SKETCHINC
 40
1.0
  9
$FILLETRAD
 40
10.0
  9
$AUNITS
 70
0
  9
$AUPREC
 70
2
  9
$MENU
  1
.
  9
$ELEVATION
 40
0.0
  9
$PELEVATION
 40
0.0
  9
$THICKNESS
 40
0.0
  9
$LIMCHECK
 70
0
  9
$CHAMFERA
 40
0.0
  9
$CHAMFERB
 40
0.0
  9
$CHAMFERC
 40
0.0
  9
$CHAMFERD
 40
0.0
  9
$SKPOLY
 70
0
  9
$TDCREATE
 40
2461312.8480787035
  9
$TDUCREATE
 40
2458532.153996898
  9
$TDUPDATE
 40
2461312.8480787035
  9
$TDUUPDATE
 40
2458532.1544311
  9
$TDINDWG
 40
0.0
  9
$TDUSRTIMER
 40
0.0
  9
$USRTIMER
 70
1
  9
$ANGBASE
 50
0.0
  9
$ANGDIR
 70
0
  9
$PDMODE
 70
0
  9
$PDSIZE
 40
0.0
  9
$PLINEWID
 40
0.0
  9
$SPLFRAME
 70
0
  9
$SPLINETYPE
 70
6
  9
$SPLINESEGS
 70
8
  9
$HANDSEED
  5
29F
  9
$SURFTAB1
 70
6
  9
$SURFTAB2
 70
6
  9
$SURFTYPE
 70
6
  9
$SURFU
 70
6
  9
$SURFV
 70
6
  9
$UCSBASE
  2

  9
$UCSNAME
  2

  9
$UCSORG
 10
0.0
 20
0.0
 30
0.0
  9
$UCSXDIR
 10
1.0
 20
0.0
 30
0.0
  9
$UCSYDIR
 10
0.0
 20
1.0
 30
0.0
  9
$UCSORTHOREF
  2

  9
$UCSORTHOVIEW
 70
0
  9
$UCSORGTOP
 10
0.0
 20
0.0
 30
0.0
  9
$UCSORGBOTTOM
 10
0.0
 20
0.0
 30
0.0
  9
$UCSORGLEFT
 10
0.0
 20
0.0
 30
0.0
  9
$UCSORGRIGHT
 10
0.0
 20
0.0
 30
0.0
  9
$UCSORGFRONT
 10
0.0
 20
0.0
 30
0.0
  9
$UCSORGBACK
 10
0.0
 20
0.0
 30
0.0
  9
$PUCSBASE
  2

  9
$PUCSNAME
  2

  9
$PUCSORG
 10
0.0
 20
0.0
 30
0.0
  9
$PUCSXDIR
 10
1.0
 20
0.0
 30
0.0
  9
$PUCSYDIR
 10
0.0
 20
1.0
 30
0.0
  9
$PUCSORTHOREF
  2

  9
$PUCSORTHOVIEW
 70
0
  9
$PUCSORGTOP
 10
0.0
 20
0.0
 30
0.0
  9
$PUCSORGBOTTOM
 10
0.0
 20
0.0
 30
0.0
  9
$PUCSORGLEFT
 10
0.0
 20
0.0
 30
0.0
  9
$PUCSORGRIGHT
 10
0.0
 20
0.0
 30
0.0
  9
$PUCSORGFRONT
 10
0.0
 20
0.0
 30
0.0
  9
$PUCSORGBACK
 10
0.0
 20
0.0
 30
0.0
  9
$USERI1
 70
0
  9
$USERI2
 70
0
  9
$USERI3
 70
0
  9
$USERI4
 70
0
  9
$USERI5
 70
0
  9
$USERR1
 40
0.0
  9
$USERR2
 40
0.0
  9
$USERR3
 40
0.0
  9
$USERR4
 40
0.0
  9
$USERR5
 40
0.0
  9
$WORLDVIEW
 70
1
  9
$SHADEDGE
 70
3
  9
$SHADEDIF
 70
70
  9
$TILEMODE
 70
1
  9
$MAXACTVP
 70
64
  9
$PINSBASE
 10
0.0
 20
0.0
 30
0.0
  9
$PLIMCHECK
 70
0
  9
$PEXTMIN
 10
1e+20
 20
1e+20
 30
1e+20
  9
$PEXTMAX
 10
-1e+20
 20
-1e+20
 30
-1e+20
  9
$PLIMMIN
 10
0.0
 20
0.0
  9
$PLIMMAX
 10
420.0
 20
297.0
  9
$UNITMODE
 70
0
  9
$VISRETAIN
 70
1
  9
$PLINEGEN
 70
0
  9
$PSLTSCALE
 70
1
  9
$TREEDEPTH
 70
3020
  9
$CMLSTYLE
  2
Standard
  9
$CMLJUST
 70
0
  9
$CMLSCALE
 40
20.0
  9
$PROXYGRAPHICS
 70
1
  9
$MEASUREMENT
 70
1
  9
$CELWEIGHT
370
-1
  9
$ENDCAPS
280
0
  9
$JOINSTYLE
280
0
  9
$LWDISPLAY
290
0
  9
$INSUNITS
 70
6
  9
$HYPERLINKBASE
  1

  9
$STYLESHEET
  1

  9
$XEDIT
290
1
  9
$CEPSNTYPE
380
0
  9
$PSTYLEMODE
290
1
  9
$FINGERPRINTGUID
  2
{8C5ACA4B-1560-4912-8320-6DBD3281C5D1}
  9
$VERSIONGUID
  2
{C4B5E8F8-1355-4C3A-9CB7-3B2FBCEC5D2D}
  9
$EXTNAMES
290
1
  9
$PSVPSCALE
 40
0.0
  9
$OLESTARTUP
290
0
  9
$SORTENTS
280
127
  9
$INDEXCTL
280
0
  9
$HIDETEXT
280
1
  9
$XCLIPFRAME
280
1
  9
$HALOGAP
280
0
  9
$OBSCOLOR
 70
257
  9
$OBSLTYPE
280
0
  9
$INTERSECTIONDISPLAY
280
0
  9
$INTERSECTIONCOLOR
 70
257
  9
$DIMASSOC
280
2
  9
$PROJECTNAME
  1

  9
$CAMERADISPLAY
290
0
  9
$LENSLENGTH
 40
50.0
  9
$CAMERAHEIGHT
 40
0.0
  9
$STEPSPERSEC
 40
24.0
  9
$STEPSIZE
 40
100.0
  9
$3DDWFPREC
 40
2.0
  9
$PSOLWIDTH
 40
0.005
  9
$PSOLHEIGHT
 40
0.08
  9
$LOFTANG1
 40
1.570796326795
  9
$LOFTANG2
 40
1.570796326795
  9
$LOFTMAG1
 40
0.0
  9
$LOFTMAG2
 40
0.0
  9
$LOFTPARAM
 70
7
  9
$LOFTNORMALS
280
1
  9
$LATITUDE
 40
37.795
  9
$LONGITUDE
 40
-122.394
  9
$NORTHDIRECTION
 40
0.0
  9
$TIMEZONE
 70
-8000
  9
$LIGHTGLYPHDISPLAY
280
1
  9
$TILEMODELIGHTSYNCH
280
1
  9
$CMATERIAL
347
20
  9
$SOLIDHIST
280
0
  9
$SHOWHIST
280
1
  9
$DWFFRAME
280
2
  9
$DGNFRAME
280
2
  9
$REALWORLDSCALE
290
1
  9
$INTERFERECOLOR
 62
256
  9
$CSHADOW
280
0
  9
$SHADOWPLANELOCATION
 40
0.0
  0
ENDSEC
  0
SECTION
  2
CLASSES
  0
CLASS
  1
ACDBDICTIONARYWDFLT
  2
AcDbDictionaryWithDefault
  3
ObjectDBX Classes
 90
0
 91
0
280
0
281
0
  0
CLASS
  1
SUN
  2
AcDbSun
  3
SCENEOE
 90
1153
 91
0
280
0
281
0
  0
CLASS
  1
VISUALSTYLE
  2
AcDbVisualStyle
  3
ObjectDBX Classes
 90
4095
 91
0
280
0
281
0
  0
CLASS
  1
MATERIAL
  2
AcDbMaterial
  3
ObjectDBX Classes
 90
1153
 91
0
280
0
281
0
  0
CLASS
  1
SCALE
  2
AcDbScale
  3
ObjectDBX Classes
 90
1153
 91
0
280
0
281
0
  0
CLASS
  1
TABLESTYLE
  2
AcDbTableStyle
  3
ObjectDBX Classes
 90
4095
 91
0
280
0
281
0
  0
CLASS
  1
MLEADERSTYLE
  2
AcDbMLeaderStyle
  3
ACDB_MLEADERSTYLE_CLASS
 90
4095
 91
0
280
0
281
0
  0
CLASS
  1
DICTIONARYVAR
  2
AcDbDictionaryVar
  3
ObjectDBX Classes
 90
0
 91
0
280
0
281
0
  0
CLASS
  1
CELLSTYLEMAP
  2
AcDbCellStyleMap
  3
ObjectDBX Classes
 90
1152
 91
0
280
0
281
0
  0
CLASS
  1
MENTALRAYRENDERSETTINGS
  2
AcDbMentalRayRenderSettings
  3
SCENEOE
 90
1024
 91
0
280
0
281
0
  0
CLASS
  1
ACDBDETAILVIEWSTYLE
  2
AcDbDetailViewStyle
  3
ObjectDBX Classes
 90
1025
 91
0
280
0
281
0
  0
CLASS
  1
ACDBSECTIONVIEWSTYLE
  2
AcDbSectionViewStyle
  3
ObjectDBX Classes
 90
1025
 91
0
280
0
281
0
  0
CLASS
  1
RASTERVARIABLES
  2
AcDbRasterVariables
  3
ISM
 90
0
 91
0
280
0
281
0
  0
CLASS
  1
ACDBPLACEHOLDER
  2
AcDbPlaceHolder
  3
ObjectDBX Classes
 90
0
 91
0
280
0
281
0
  0
CLASS
  1
LAYOUT
  2
AcDbLayout
  3
ObjectDBX Classes
 90
0
 91
0
280
0
281
0
  0
ENDSEC
  0
SECTION
  2
TABLES
  0
TABLE
  2
VPORT
  5
8
330
0
100
AcDbSymbolTable
 70
1
  0
VPORT
  5
23
330
8
100
AcDbSymbolTableRecord
100
AcDbViewportTableRecord
  2
*Active
 70
0
 10
0.0
 20
0.0
 11
1.0
 21
1.0
 12
0.0
 22
0.0
 13
0.0
 23
0.0
 14
0.5
 24
0.5
 15
0.5
 25
0.5
 16
0.0
 26
0.0
 36
1.0
 17
0.0
 27
0.0
 37
0.0
 40
1000.0
 41
1.34
 42
50.0
 43
0.0
 44
0.0
 50
0.0
 51
0.0
 71
0
 72
1000
 73
1
 74
3
 75
0
 76
0
 77
0
 78
0
281
0
 65
0
146
0.0
  0
ENDTAB
  0
TABLE
  2
LTYPE
  5
2
330
0
100
AcDbSymbolTable
 70
21
  0
LTYPE
  5
24
330
2
100
AcDbSymbolTableRecord
100
AcDbLinetypeTableRecord
  2
ByBlock
 70
0
  3

 72
65
 73
0
 40
0.0
  0
LTYPE
  5
25
330
2
100
AcDbSymbolTableRecord
100
AcDbLinetypeTableRecord
  2
ByLayer
 70
0
  3

 72
65
 73
0
 40
0.0
  0
LTYPE
  5
26
330
2
100
AcDbSymbolTableRecord
100
AcDbLinetypeTableRecord
  2
Continuous
 70
0
  3

 72
65
 73
0
 40
0.0
  0
LTYPE
  5
2F
330
2
100
AcDbSymbolTableRecord
100
AcDbLinetypeTableRecord
  2
CENTER
 70
0
  3
Center ____ _ ____ _ ____ _ ____ _ ____ _ ____
 72
65
 73
4
 40
5.08
 49
3.175
 74
0
 49
-0.635
 74
0
 49
0.635
 74
0
 49
-0.635
 74
0
  0
LTYPE
  5
30
330
2
100
AcDbSymbolTableRecord
100
AcDbLinetypeTableRecord
  2
CENTERX2
 70
0
  3
Center (2x) ________  __  ________  __  ________
 72
65
 73
4
 40
8.89
 49
6.35
 74
0
 49
-0.635
 74
0
 49
1.27
 74
0
 49
-0.635
 74
0
  0
LTYPE
  5
31
330
2
100
AcDbSymbolTableRecord
100
AcDbLinetypeTableRecord
  2
CENTER2
 70
0
  3
Center (.5x) ____ _ ____ _ ____ _ ____ _ ____
 72
65
 73
4
 40
2.54
 49
1.587
 74
0
 49
-0.318
 74
0
 49
0.318
 74
0
 49
-0.318
 74
0
  0
LTYPE
  5
32
330
2
100
AcDbSymbolTableRecord
100
AcDbLinetypeTableRecord
  2
DASHED
 70
0
  3
Dashed __ __ __ __ __ __ __ __ __ __ __ __ __ _
 72
65
 73
2
 40
1.524
 49
1.27
 74
0
 49
-0.254
 74
0
  0
LTYPE
  5
33
330
2
100
AcDbSymbolTableRecord
100
AcDbLinetypeTableRecord
  2
DASHEDX2
 70
0
  3
Dashed (2x) ____  ____  ____  ____  ____  ____
 72
65
 73
2
 40
3.048
 49
2.54
 74
0
 49
-0.508
 74
0
  0
LTYPE
  5
34
330
2
100
AcDbSymbolTableRecord
100
AcDbLinetypeTableRecord
  2
DASHED2
 70
0
  3
Dashed (.5x) _ _ _ _ _ _ _ _ _ _ _ _ _ _
 72
65
 73
2
 40
0.762
 49
0.635
 74
0
 49
-0.127
 74
0
  0
LTYPE
  5
35
330
2
100
AcDbSymbolTableRecord
100
AcDbLinetypeTableRecord
  2
PHANTOM
 70
0
  3
Phantom ______  __  __  ______  __  __  ______
 72
65
 73
6
 40
6.35
 49
3.175
 74
0
 49
-0.635
 74
0
 49
0.635
 74
0
 49
-0.635
 74
0
 49
0.635
 74
0
 49
-0.635
 74
0
  0
LTYPE
  5
36
330
2
100
AcDbSymbolTableRecord
100
AcDbLinetypeTableRecord
  2
PHANTOMX2
 70
0
  3
Phantom (2x)____________    ____    ____    ____________
 72
65
 73
6
 40
10.795
 49
6.35
 74
0
 49
-0.635
 74
0
 49
1.27
 74
0
 49
-0.635
 74
0
 49
1.27
 74
0
 49
-0.635
 74
0
  0
LTYPE
  5
37
330
2
100
AcDbSymbolTableRecord
100
AcDbLinetypeTableRecord
  2
PHANTOM2
 70
0
  3
Phantom (.5x) ___ _ _ ___ _ _ ___ _ _ ___ _ _ ___
 72
65
 73
6
 40
3.175
 49
1.587
 74
0
 49
-0.318
 74
0
 49
0.318
 74
0
 49
-0.318
 74
0
 49
0.318
 74
0
 49
-0.318
 74
0
  0
LTYPE
  5
38
330
2
100
AcDbSymbolTableRecord
100
AcDbLinetypeTableRecord
  2
DASHDOT
 70
0
  3
Dash dot __ . __ . __ . __ . __ . __ . __ . __
 72
65
 73
4
 40
3.556
 49
2.54
 74
0
 49
-0.508
 74
0
 49
0.0
 74
0
 49
-0.508
 74
0
  0
LTYPE
  5
39
330
2
100
AcDbSymbolTableRecord
100
AcDbLinetypeTableRecord
  2
DASHDOTX2
 70
0
  3
Dash dot (2x) ____  .  ____  .  ____  .  ____
 72
65
 73
4
 40
6.096
 49
5.08
 74
0
 49
-0.508
 74
0
 49
0.0
 74
0
 49
-0.508
 74
0
  0
LTYPE
  5
3A
330
2
100
AcDbSymbolTableRecord
100
AcDbLinetypeTableRecord
  2
DASHDOT2
 70
0
  3
Dash dot (.5x) _ . _ . _ . _ . _ . _ . _ . _
 72
65
 73
4
 40
1.778
 49
1.27
 74
0
 49
-0.254
 74
0
 49
0.0
 74
0
 49
-0.254
 74
0
  0
LTYPE
  5
3B
330
2
100
AcDbSymbolTableRecord
100
AcDbLinetypeTableRecord
  2
DOT
 70
0
  3
Dot .  .  .  .  .  .  .  .  .  .  .  .  .  .  .  .
 72
65
 73
2
 40
0.508
 49
0.0
 74
0
 49
-0.508
 74
0
  0
LTYPE
  5
3C
330
2
100
AcDbSymbolTableRecord
100
AcDbLinetypeTableRecord
  2
DOTX2
 70
0
  3
Dot (2x) .    .    .    .    .    .    .    . 
 72
65
 73
2
 40
1.016
 49
0.0
 74
0
 49
-1.016
 74
0
  0
LTYPE
  5
3D
330
2
100
AcDbSymbolTableRecord
100
AcDbLinetypeTableRecord
  2
DOT2
 70
0
  3
Dot (.5) . . . . . . . . . . . . . . . . . . . 
 72
65
 73
2
 40
0.254
 49
0.0
 74
0
 49
-0.254
 74
0
  0
LTYPE
  5
3E
330
2
100
AcDbSymbolTableRecord
100
AcDbLinetypeTableRecord
  2
DIVIDE
 70
0
  3
Divide __ . . __ . . __ . . __ . . __ . . __
 72
65
 73
6
 40
4.064
 49
2.54
 74
0
 49
-0.508
 74
0
 49
0.0
 74
0
 49
-0.508
 74
0
 49
0.0
 74
0
 49
-0.508
 74
0
  0
LTYPE
  5
3F
330
2
100
AcDbSymbolTableRecord
100
AcDbLinetypeTableRecord
  2
DIVIDEX2
 70
0
  3
Divide (2x) ____  . .  ____  . .  ____  . .  ____
 72
65
 73
6
 40
6.604
 49
5.08
 74
0
 49
-0.508
 74
0
 49
0.0
 74
0
 49
-0.508
 74
0
 49
0.0
 74
0
 49
-0.508
 74
0
  0
LTYPE
  5
40
330
2
100
AcDbSymbolTableRecord
100
AcDbLinetypeTableRecord
  2
DIVIDE2
 70
0
  3
Divide(.5x) _ . _ . _ . _ . _ . _ . _ . _
 72
65
 73
6
 40
2.032
 49
1.27
 74
0
 49
-0.254
 74
0
 49
0.0
 74
0
 49
-0.254
 74
0
 49
0.0
 74
0
 49
-0.254
 74
0
  0
ENDTAB
  0
TABLE
  2
LAYER
  5
1
330
0
100
AcDbSymbolTable
 70
11
  0
LAYER
  5
27
330
1
100
AcDbSymbolTableRecord
100
AcDbLayerTableRecord
  2
0
 70
0
 62
7
  6
Continuous
370
-3
390
13
347
21
  0
LAYER
  5
28
330
1
100
AcDbSymbolTableRecord
100
AcDbLayerTableRecord
  2
Defpoints
 70
0
 62
7
  6
Continuous
290
0
370
-3
390
13
347
21
  0
LAYER
  5
8A
330
1
100
AcDbSymbolTableRecord
100
AcDbLayerTableRecord
  2
VIA
 70
0
 62
8
  6
Continuous
370
-3
390
13
347
21
  0
LAYER
  5
8B
330
1
100
AcDbSymbolTableRecord
100
AcDbLayerTableRecord
  2
MARQUESINA
 70
0
 62
5
  6
Continuous
370
-3
390
13
347
21
  0
LAYER
  5
8C
330
1
100
AcDbSymbolTableRecord
100
AcDbLayerTableRecord
  2
ZAPATAS
 70
0
 62
3
  6
Continuous
370
-3
390
13
347
21
  0
LAYER
  5
8D
330
1
100
AcDbSymbolTableRecord
100
AcDbLayerTableRecord
  2
EDIFICIO
 70
0
 62
6
  6
Continuous
370
-3
390
13
347
21
  0
LAYER
  5
8E
330
1
100
AcDbSymbolTableRecord
100
AcDbLayerTableRecord
  2
RAMPA
 70
0
 62
30
  6
Continuous
370
-3
390
13
347
21
  0
LAYER
  5
8F
330
1
100
AcDbSymbolTableRecord
100
AcDbLayerTableRecord
  2
TERRENO
 70
0
 62
32
  6
Continuous
370
-3
390
13
347
21
  0
LAYER
  5
90
330
1
100
AcDbSymbolTableRecord
100
AcDbLayerTableRecord
  2
CONCRETO
 70
0
 62
250
  6
Continuous
370
-3
390
13
347
21
  0
LAYER
  5
91
330
1
100
AcDbSymbolTableRecord
100
AcDbLayerTableRecord
  2
COTAS
 70
0
 62
7
  6
Continuous
370
-3
390
13
347
21
  0
LAYER
  5
92
330
1
100
AcDbSymbolTableRecord
100
AcDbLayerTableRecord
  2
TEXTO
 70
0
 62
7
  6
Continuous
370
-3
390
13
347
21
  0
ENDTAB
  0
TABLE
  2
STYLE
  5
5
330
0
100
AcDbSymbolTable
 70
26
  0
STYLE
  5
29
330
5
100
AcDbSymbolTableRecord
100
AcDbTextStyleTableRecord
  2
Standard
 70
0
 40
0.0
 41
1.0
 50
0.0
 71
0
 42
2.5
  3
txt
  4

  0
STYLE
  5
41
330
5
100
AcDbSymbolTableRecord
100
AcDbTextStyleTableRecord
  2
OpenSans-Light
 70
0
 40
0.0
 41
1.0
 50
0.0
 71
0
 42
2.5
  3
OpenSans-Light.ttf
  4

  0
STYLE
  5
42
330
5
100
AcDbSymbolTableRecord
100
AcDbTextStyleTableRecord
  2
OpenSans-Light-Italic
 70
0
 40
0.0
 41
1.0
 50
0.0
 71
0
 42
2.5
  3
OpenSans-LightItalic.ttf
  4

  0
STYLE
  5
43
330
5
100
AcDbSymbolTableRecord
100
AcDbTextStyleTableRecord
  2
OpenSans
 70
0
 40
0.0
 41
1.0
 50
0.0
 71
0
 42
2.5
  3
OpenSans-Regular.ttf
  4

  0
STYLE
  5
44
330
5
100
AcDbSymbolTableRecord
100
AcDbTextStyleTableRecord
  2
OpenSans-Italic
 70
0
 40
0.0
 41
1.0
 50
0.0
 71
0
 42
2.5
  3
OpenSans-Italic.ttf
  4

  0
STYLE
  5
45
330
5
100
AcDbSymbolTableRecord
100
AcDbTextStyleTableRecord
  2
OpenSans-SemiBold
 70
0
 40
0.0
 41
1.0
 50
0.0
 71
0
 42
2.5
  3
OpenSans-SemiBold.ttf
  4

  0
STYLE
  5
46
330
5
100
AcDbSymbolTableRecord
100
AcDbTextStyleTableRecord
  2
OpenSans-SemiBoldItalic
 70
0
 40
0.0
 41
1.0
 50
0.0
 71
0
 42
2.5
  3
OpenSans-SemiBoldItalic.ttf
  4

  0
STYLE
  5
47
330
5
100
AcDbSymbolTableRecord
100
AcDbTextStyleTableRecord
  2
OpenSans-Bold
 70
0
 40
0.0
 41
1.0
 50
0.0
 71
0
 42
2.5
  3
OpenSans-Bold.ttf
  4

  0
STYLE
  5
48
330
5
100
AcDbSymbolTableRecord
100
AcDbTextStyleTableRecord
  2
OpenSans-BoldItalic
 70
0
 40
0.0
 41
1.0
 50
0.0
 71
0
 42
2.5
  3
OpenSans-BoldItalic.ttf
  4

  0
STYLE
  5
49
330
5
100
AcDbSymbolTableRecord
100
AcDbTextStyleTableRecord
  2
OpenSans-ExtraBold
 70
0
 40
0.0
 41
1.0
 50
0.0
 71
0
 42
2.5
  3
OpenSans-ExtraBold.ttf
  4

  0
STYLE
  5
4A
330
5
100
AcDbSymbolTableRecord
100
AcDbTextStyleTableRecord
  2
OpenSans-ExtraBoldItalic
 70
0
 40
0.0
 41
1.0
 50
0.0
 71
0
 42
2.5
  3
OpenSans-ExtraBoldItalic.ttf
  4

  0
STYLE
  5
4B
330
5
100
AcDbSymbolTableRecord
100
AcDbTextStyleTableRecord
  2
OpenSansCondensed-Bold
 70
0
 40
0.0
 41
1.0
 50
0.0
 71
0
 42
2.5
  3
OpenSansCondensed-Bold.ttf
  4

  0
STYLE
  5
4C
330
5
100
AcDbSymbolTableRecord
100
AcDbTextStyleTableRecord
  2
OpenSansCondensed-Light
 70
0
 40
0.0
 41
1.0
 50
0.0
 71
0
 42
2.5
  3
OpenSansCondensed-Light.ttf
  4

  0
STYLE
  5
4D
330
5
100
AcDbSymbolTableRecord
100
AcDbTextStyleTableRecord
  2
OpenSansCondensed-Italic
 70
0
 40
0.0
 41
1.0
 50
0.0
 71
0
 42
2.5
  3
OpenSansCondensed-LightItalic.ttf
  4

  0
STYLE
  5
4E
330
5
100
AcDbSymbolTableRecord
100
AcDbTextStyleTableRecord
  2
LiberationSans
 70
0
 40
0.0
 41
1.0
 50
0.0
 71
0
 42
2.5
  3
LiberationSans-Regular.ttf
  4

  0
STYLE
  5
4F
330
5
100
AcDbSymbolTableRecord
100
AcDbTextStyleTableRecord
  2
LiberationSans-Bold
 70
0
 40
0.0
 41
1.0
 50
0.0
 71
0
 42
2.5
  3
LiberationSans-Bold.ttf
  4

  0
STYLE
  5
50
330
5
100
AcDbSymbolTableRecord
100
AcDbTextStyleTableRecord
  2
LiberationSans-BoldItalic
 70
0
 40
0.0
 41
1.0
 50
0.0
 71
0
 42
2.5
  3
LiberationSans-BoldItalic.ttf
  4

  0
STYLE
  5
51
330
5
100
AcDbSymbolTableRecord
100
AcDbTextStyleTableRecord
  2
LiberationSans-Italic
 70
0
 40
0.0
 41
1.0
 50
0.0
 71
0
 42
2.5
  3
LiberationSans-Italic.ttf
  4

  0
STYLE
  5
52
330
5
100
AcDbSymbolTableRecord
100
AcDbTextStyleTableRecord
  2
LiberationSerif
 70
0
 40
0.0
 41
1.0
 50
0.0
 71
0
 42
2.5
  3
LiberationSerif-Regular.ttf
  4

  0
STYLE
  5
53
330
5
100
AcDbSymbolTableRecord
100
AcDbTextStyleTableRecord
  2
LiberationSerif-Bold
 70
0
 40
0.0
 41
1.0
 50
0.0
 71
0
 42
2.5
  3
LiberationSerif-Bold.ttf
  4

  0
STYLE
  5
54
330
5
100
AcDbSymbolTableRecord
100
AcDbTextStyleTableRecord
  2
LiberationSerif-BoldItalic
 70
0
 40
0.0
 41
1.0
 50
0.0
 71
0
 42
2.5
  3
LiberationSerif-BoldItalic.ttf
  4

  0
STYLE
  5
55
330
5
100
AcDbSymbolTableRecord
100
AcDbTextStyleTableRecord
  2
LiberationSerif-Italic
 70
0
 40
0.0
 41
1.0
 50
0.0
 71
0
 42
2.5
  3
LiberationSerif-Italic.ttf
  4

  0
STYLE
  5
56
330
5
100
AcDbSymbolTableRecord
100
AcDbTextStyleTableRecord
  2
LiberationMono
 70
0
 40
0.0
 41
1.0
 50
0.0
 71
0
 42
2.5
  3
LiberationMono-Regular.ttf
  4

  0
STYLE
  5
57
330
5
100
AcDbSymbolTableRecord
100
AcDbTextStyleTableRecord
  2
LiberationMono-Bold
 70
0
 40
0.0
 41
1.0
 50
0.0
 71
0
 42
2.5
  3
LiberationMono-Bold.ttf
  4

  0
STYLE
  5
58
330
5
100
AcDbSymbolTableRecord
100
AcDbTextStyleTableRecord
  2
LiberationMono-BoldItalic
 70
0
 40
0.0
 41
1.0
 50
0.0
 71
0
 42
2.5
  3
LiberationMono-BoldItalic.ttf
  4

  0
STYLE
  5
59
330
5
100
AcDbSymbolTableRecord
100
AcDbTextStyleTableRecord
  2
LiberationMono-Italic
 70
0
 40
0.0
 41
1.0
 50
0.0
 71
0
 42
2.5
  3
LiberationMono-Italic.ttf
  4

  0
ENDTAB
  0
TABLE
  2
VIEW
  5
7
330
0
100
AcDbSymbolTable
 70
0
  0
ENDTAB
  0
TABLE
  2
UCS
  5
6
330
0
100
AcDbSymbolTable
 70
0
  0
ENDTAB
  0
TABLE
  2
APPID
  5
3
330
0
100
AcDbSymbolTable
 70
3
  0
APPID
  5
2A
330
3
100
AcDbSymbolTableRecord
100
AcDbRegAppTableRecord
  2
ACAD
 70
0
  0
APPID
  5
29C
330
3
100
AcDbSymbolTableRecord
100
AcDbRegAppTableRecord
  2
HATCHBACKGROUNDCOLOR
 70
0
  0
APPID
  5
29D
330
3
100
AcDbSymbolTableRecord
100
AcDbRegAppTableRecord
  2
EZDXF
 70
0
  0
ENDTAB
  0
TABLE
  2
DIMSTYLE
  5
4
330
0
100
AcDbSymbolTable
 70
12
100
AcDbDimStyleTable
  0
DIMSTYLE
105
2B
330
4
100
AcDbSymbolTableRecord
100
AcDbDimStyleTableRecord
  2
Standard
 70
0
 40
1.0
 41
2.5
 42
0.625
 43
3.75
 44
1.25
 45
0.0
 46
0.0
 47
0.0
 48
0.0
 49
2.5
140
2.5
141
2.5
142
0.0
143
0.03937007874
144
1.0
145
0.0
146
1.0
147
0.625
148
0.0
 69
0
 70
0
 71
0
 72
0
 73
0
 74
0
 75
0
 76
0
 77
1
 78
8
 79
3
170
0
171
3
172
1
173
0
174
0
175
0
176
0
177
0
178
0
179
2
271
2
272
2
273
2
274
3
275
0
276
0
277
2
278
44
279
0
280
0
281
0
282
0
283
0
284
8
285
0
286
0
288
0
289
3
290
0
371
-2
372
-2
  0
DIMSTYLE
105
73
330
4
100
AcDbSymbolTableRecord
100
AcDbDimStyleTableRecord
  2
EZDXF
 70
0
 40
1.0
 41
0.175
 42
0.125
 43
3.75
 44
0.375
 45
0.0
 46
0.0
 47
0.0
 48
0.0
 49
2.5
140
0.25
141
2.5
142
0.0
143
0.03937007874
144
100.0
145
0.0
146
0.5
147
0.1
148
0.0
 69
0
 70
0
 71
0
 72
0
 73
0
 74
0
 75
0
 76
0
 77
1
 78
12
 79
3
170
0
171
3
172
1
173
0
174
0
175
0
176
0
177
0
178
0
179
2
271
2
272
2
273
2
274
3
275
0
276
0
277
2
278
46
279
2
280
0
281
0
282
0
283
0
284
8
285
0
286
0
288
1
289
3
290
0
340
4C
342
74
371
-2
372
-2
  0
DIMSTYLE
105
7C
330
4
100
AcDbSymbolTableRecord
100
AcDbDimStyleTableRecord
  2
EZ_M_100_H25_CM
 70
0
 40
1.0
 41
0.25
 42
0.125
 43
3.75
 44
0.375
 45
0.0
 46
0.0
 47
0.0
 48
0.0
 49
2.5
140
0.25
141
2.5
142
0.125
143
0.03937007874
144
100.0
145
0.0
146
0.5
147
0.1
148
0.0
 69
0
 70
0
 71
0
 72
0
 73
0
 74
0
 75
0
 76
0
 77
1
 78
12
 79
3
170
0
171
3
172
1
173
0
174
0
175
0
176
0
177
0
178
0
179
2
271
2
272
2
273
2
274
3
275
0
276
0
277
2
278
46
279
2
280
0
281
0
282
0
283
0
284
8
285
0
286
0
288
1
289
3
290
0
340
4C
371
-2
372
-2
  0
DIMSTYLE
105
7D
330
4
100
AcDbSymbolTableRecord
100
AcDbDimStyleTableRecord
  2
EZ_M_50_H25_CM
 70
0
 40
1.0
 41
0.125
 42
0.0625
 43
3.75
 44
0.1875
 45
0.0
 46
0.0
 47
0.0
 48
0.0
 49
2.5
140
0.125
141
2.5
142
0.0625
143
0.03937007874
144
100.0
145
0.0
146
0.5
147
0.05
148
0.0
 69
0
 70
0
 71
0
 72
0
 73
0
 74
0
 75
0
 76
0
 77
1
 78
12
 79
3
170
0
171
3
172
1
173
0
174
0
175
0
176
0
177
0
178
0
179
2
271
2
272
2
273
2
274
3
275
0
276
0
277
2
278
46
279
2
280
0
281
0
282
0
283
0
284
8
285
0
286
0
288
1
289
3
290
0
340
4C
371
-2
372
-2
  0
DIMSTYLE
105
7E
330
4
100
AcDbSymbolTableRecord
100
AcDbDimStyleTableRecord
  2
EZ_M_25_H25_CM
 70
0
 40
1.0
 41
0.0625
 42
0.03125
 43
3.75
 44
0.09375
 45
0.0
 46
0.0
 47
0.0
 48
0.0
 49
2.5
140
0.0625
141
2.5
142
0.03125
143
0.03937007874
144
100.0
145
0.0
146
0.5
147
0.025
148
0.0
 69
0
 70
0
 71
0
 72
0
 73
0
 74
0
 75
0
 76
0
 77
1
 78
12
 79
3
170
0
171
3
172
1
173
0
174
0
175
0
176
0
177
0
178
0
179
2
271
2
272
2
273
2
274
3
275
0
276
0
277
2
278
46
279
2
280
0
281
0
282
0
283
0
284
8
285
0
286
0
288
1
289
3
290
0
340
4C
371
-2
372
-2
  0
DIMSTYLE
105
7F
330
4
100
AcDbSymbolTableRecord
100
AcDbDimStyleTableRecord
  2
EZ_M_20_H25_CM
 70
0
 40
1.0
 41
0.05
 42
0.025
 43
3.75
 44
0.07500000000000001
 45
0.0
 46
0.0
 47
0.0
 48
0.0
 49
2.5
140
0.05
141
2.5
142
0.025
143
0.03937007874
144
100.0
145
0.0
146
0.5
147
0.020000000000000004
148
0.0
 69
0
 70
0
 71
0
 72
0
 73
0
 74
0
 75
0
 76
0
 77
1
 78
12
 79
3
170
0
171
3
172
1
173
0
174
0
175
0
176
0
177
0
178
0
179
2
271
2
272
2
273
2
274
3
275
0
276
0
277
2
278
46
279
2
280
0
281
0
282
0
283
0
284
8
285
0
286
0
288
1
289
3
290
0
340
4C
371
-2
372
-2
  0
DIMSTYLE
105
80
330
4
100
AcDbSymbolTableRecord
100
AcDbDimStyleTableRecord
  2
EZ_M_10_H25_CM
 70
0
 40
1.0
 41
0.025
 42
0.0125
 43
3.75
 44
0.037500000000000006
 45
0.0
 46
0.0
 47
0.0
 48
0.0
 49
2.5
140
0.025
141
2.5
142
0.0125
143
0.03937007874
144
100.0
145
0.0
146
0.5
147
0.010000000000000002
148
0.0
 69
0
 70
0
 71
0
 72
0
 73
0
 74
0
 75
0
 76
0
 77
1
 78
12
 79
3
170
0
171
3
172
1
173
0
174
0
175
0
176
0
177
0
178
0
179
2
271
2
272
2
273
2
274
3
275
0
276
0
277
2
278
46
279
2
280
0
281
0
282
0
283
0
284
8
285
0
286
0
288
1
289
3
290
0
340
4C
371
-2
372
-2
  0
DIMSTYLE
105
81
330
4
100
AcDbSymbolTableRecord
100
AcDbDimStyleTableRecord
  2
EZ_M_5_H25_CM
 70
0
 40
1.0
 41
0.0125
 42
0.00625
 43
3.75
 44
0.018750000000000003
 45
0.0
 46
0.0
 47
0.0
 48
0.0
 49
2.5
140
0.0125
141
2.5
142
0.00625
143
0.03937007874
144
100.0
145
0.0
146
0.5
147
0.005000000000000001
148
0.0
 69
0
 70
0
 71
0
 72
0
 73
0
 74
0
 75
0
 76
0
 77
1
 78
12
 79
3
170
0
171
3
172
1
173
0
174
0
175
0
176
0
177
0
178
0
179
2
271
2
272
2
273
2
274
3
275
0
276
0
277
2
278
46
279
2
280
0
281
0
282
0
283
0
284
8
285
0
286
0
288
1
289
3
290
0
340
4C
371
-2
372
-2
  0
DIMSTYLE
105
82
330
4
100
AcDbSymbolTableRecord
100
AcDbDimStyleTableRecord
  2
EZ_M_1_H25_CM
 70
0
 40
1.0
 41
0.0025
 42
0.00125
 43
3.75
 44
0.00375
 45
0.0
 46
0.0
 47
0.0
 48
0.0
 49
2.5
140
0.0025
141
2.5
142
0.00125
143
0.03937007874
144
100.0
145
0.0
146
0.5
147
0.001
148
0.0
 69
0
 70
0
 71
0
 72
0
 73
0
 74
0
 75
0
 76
0
 77
1
 78
12
 79
3
170
0
171
3
172
1
173
0
174
0
175
0
176
0
177
0
178
0
179
2
271
2
272
2
273
2
274
3
275
0
276
0
277
2
278
46
279
2
280
0
281
0
282
0
283
0
284
8
285
0
286
0
288
1
289
3
290
0
340
4C
371
-2
372
-2
  0
DIMSTYLE
105
83
330
4
100
AcDbSymbolTableRecord
100
AcDbDimStyleTableRecord
  2
EZ_RADIUS
 70
0
 40
1.0
 41
0.25
 42
0.125
 43
3.75
 44
0.375
 45
0.0
 46
0.0
 47
0.0
 48
0.0
 49
2.5
140
0.25
141
0.0
142
0.0
143
0.03937007874
144
100.0
145
0.0
146
0.5
147
0.1
148
0.0
 69
0
 70
0
 71
0
 72
0
 73
0
 74
0
 75
0
 76
0
 77
1
 78
12
 79
3
170
0
171
3
172
0
173
0
174
0
175
0
176
0
177
0
178
0
179
2
271
2
272
2
273
2
274
3
275
0
276
0
277
2
278
46
279
1
280
0
281
0
282
0
283
0
284
8
285
0
286
0
288
1
289
3
290
0
340
4C
342
84
371
-2
372
-2
  0
DIMSTYLE
105
88
330
4
100
AcDbSymbolTableRecord
100
AcDbDimStyleTableRecord
  2
EZ_RADIUS_INSIDE
 70
0
 40
1.0
 41
0.25
 42
0.125
 43
3.75
 44
0.375
 45
0.0
 46
0.0
 47
0.0
 48
0.0
 49
2.5
140
0.25
141
0.0
142
0.0
143
0.03937007874
144
100.0
145
0.0
146
0.5
147
0.1
148
0.0
 69
0
 70
0
 71
0
 72
0
 73
0
 74
0
 75
0
 76
0
 77
0
 78
12
 79
3
170
0
171
3
172
0
173
0
174
1
175
0
176
0
177
0
178
0
179
2
271
2
272
2
273
2
274
3
275
0
276
0
277
2
278
46
279
0
280
0
281
0
282
0
283
0
284
8
285
0
286
0
288
1
289
0
290
0
340
4C
342
84
371
-2
372
-2
  0
DIMSTYLE
105
89
330
4
100
AcDbSymbolTableRecord
100
AcDbDimStyleTableRecord
  2
EZ_CURVED
 70
0
 40
1.0
 41
0.25
 42
0.125
 43
3.75
 44
0.375
 45
0.0
 46
0.0
 47
0.0
 48
0.0
 49
2.5
140
0.25
141
2.5
142
0.0
143
0.03937007874
144
100.0
145
0.0
146
0.5
147
0.1
148
0.0
 69
0
 70
0
 71
0
 72
0
 73
0
 74
0
 75
0
 76
0
 77
1
 78
12
 79
2
 90
2
170
0
171
3
172
1
173
0
174
0
175
0
176
0
177
0
178
0
179
2
271
2
272
2
273
2
274
3
275
0
276
0
277
2
278
46
279
2
280
0
281
0
282
0
283
0
284
8
285
0
286
0
288
1
289
3
290
0
340
4C
371
-2
372
-2
  0
ENDTAB
  0
TABLE
  2
BLOCK_RECORD
  5
9
330
0
100
AcDbSymbolTable
 70
14
  0
BLOCK_RECORD
  5
17
330
9
100
AcDbSymbolTableRecord
100
AcDbBlockTableRecord
  2
*Model_Space
340
1A
 70
0
280
1
281
0
  0
BLOCK_RECORD
  5
1B
330
9
100
AcDbSymbolTableRecord
100
AcDbBlockTableRecord
  2
*Paper_Space
340
1E
 70
0
280
1
281
0
  0
BLOCK_RECORD
  5
74
330
9
100
AcDbSymbolTableRecord
100
AcDbBlockTableRecord
  2
_ARCHTICK
340
0
 70
0
280
1
281
0
  0
BLOCK_RECORD
  5
78
330
9
100
AcDbSymbolTableRecord
100
AcDbBlockTableRecord
  2
_CLOSEDFILLED
340
0
 70
0
280
1
281
0
  0
BLOCK_RECORD
  5
84
330
9
100
AcDbSymbolTableRecord
100
AcDbBlockTableRecord
  2
_CLOSEDBLANK
340
0
 70
0
280
1
281
0
  0
BLOCK_RECORD
  5
1EB
330
9
100
AcDbSymbolTableRecord
100
AcDbBlockTableRecord
  2
*D1
340
0
 70
0
280
1
281
0
  0
BLOCK_RECORD
  5
1FD
330
9
100
AcDbSymbolTableRecord
100
AcDbBlockTableRecord
  2
*D2
340
0
 70
0
280
1
281
0
  0
BLOCK_RECORD
  5
214
330
9
100
AcDbSymbolTableRecord
100
AcDbBlockTableRecord
  2
*D3
340
0
 70
0
280
1
281
0
  0
BLOCK_RECORD
  5
223
330
9
100
AcDbSymbolTableRecord
100
AcDbBlockTableRecord
  2
*D4
340
0
 70
0
280
1
281
0
  0
BLOCK_RECORD
  5
238
330
9
100
AcDbSymbolTableRecord
100
AcDbBlockTableRecord
  2
*D5
340
0
 70
0
280
1
281
0
  0
BLOCK_RECORD
  5
24F
330
9
100
AcDbSymbolTableRecord
100
AcDbBlockTableRecord
  2
*D6
340
0
 70
0
280
1
281
0
  0
BLOCK_RECORD
  5
25E
330
9
100
AcDbSymbolTableRecord
100
AcDbBlockTableRecord
  2
*D7
340
0
 70
0
280
1
281
0
  0
BLOCK_RECORD
  5
273
330
9
100
AcDbSymbolTableRecord
100
AcDbBlockTableRecord
  2
*D8
340
0
 70
0
280
1
281
0
  0
BLOCK_RECORD
  5
282
330
9
100
AcDbSymbolTableRecord
100
AcDbBlockTableRecord
  2
*D9
340
0
 70
0
280
1
281
0
  0
ENDTAB
  0
ENDSEC
  0
SECTION
  2
BLOCKS
  0
BLOCK
  5
18
330
17
100
AcDbEntity
  8
0
100
AcDbBlockBegin
  2
*Model_Space
 70
0
 10
0.0
 20
0.0
 30
0.0
  3
*Model_Space
  1

  0
ENDBLK
  5
19
330
17
100
AcDbEntity
  8
0
100
AcDbBlockEnd
  0
BLOCK
  5
1C
330
1B
100
AcDbEntity
  8
0
100
AcDbBlockBegin
  2
*Paper_Space
 70
0
 10
0.0
 20
0.0
 30
0.0
  3
*Paper_Space
  1

  0
ENDBLK
  5
1D
330
1B
100
AcDbEntity
  8
0
100
AcDbBlockEnd
  0
BLOCK
  5
75
330
74
100
AcDbEntity
  8
0
100
AcDbBlockBegin
  2
_ARCHTICK
 70
0
 10
0.0
 20
0.0
 30
0.0
  3
_ARCHTICK
  1

  0
LWPOLYLINE
  5
77
330
74
100
AcDbEntity
  8
0
  6
BYBLOCK
 62
0
100
AcDbPolyline
 90
2
 70
0
 43
0.15
 10
-0.5
 20
-0.5
 10
0.5
 20
0.5
  0
ENDBLK
  5
76
330
74
100
AcDbEntity
  8
0
100
AcDbBlockEnd
  0
BLOCK
  5
79
330
78
100
AcDbEntity
  8
0
100
AcDbBlockBegin
  2
_CLOSEDFILLED
 70
0
 10
0.0
 20
0.0
 30
0.0
  3
_CLOSEDFILLED
  1

  0
SOLID
  5
7B
330
78
100
AcDbEntity
  8
0
  6
BYBLOCK
 62
0
100
AcDbTrace
 10
-1.0
 20
0.16439898372402537
 30
0.0
 11
0.0
 21
0.0
 31
0.0
 12
-1.0
 22
-0.16439898372402537
 32
0.0
 13
-1.0
 23
-0.16439898372402537
 33
0.0
  0
ENDBLK
  5
7A
330
78
100
AcDbEntity
  8
0
100
AcDbBlockEnd
  0
BLOCK
  5
85
330
84
100
AcDbEntity
  8
0
100
AcDbBlockBegin
  2
_CLOSEDBLANK
 70
0
 10
0.0
 20
0.0
 30
0.0
  3
_CLOSEDBLANK
  1

  0
LWPOLYLINE
  5
87
330
84
100
AcDbEntity
  8
0
  6
BYBLOCK
 62
0
100
AcDbPolyline
 90
3
 70
1
 10
-1.0
 20
0.16439898372402537
 10
0.0
 20
0.0
 10
-1.0
 20
-0.16439898372402537
  0
ENDBLK
  5
86
330
84
100
AcDbEntity
  8
0
100
AcDbBlockEnd
  0
BLOCK
  5
1EC
330
1EB
100
AcDbEntity
  8
0
100
AcDbBlockBegin
  2
*D1
 70
1
 10
0.0
 20
0.0
 30
0.0
  3
*D1
  1

  0
LINE
  5
1EE
330
1EB
100
AcDbEntity
  8
0
100
AcDbLine
 10
-0.000166666518518716
 20
-30.875000111110964
 30
0.0
 11
-0.0007666659851860932
 21
-30.42500051111043
 31
0.0
  0
LINE
  5
1EF
330
1EB
100
AcDbEntity
  8
0
100
AcDbLine
 10
749.9998333334814
 20
-29.875000111110964
 30
0.0
 11
749.9992333340148
 21
-29.42500051111043
 31
0.0
  0
INSERT
  5
1F0
330
1EB
100
AcDbEntity
  8
COTAS
100
AcDbBlockReference
  2
_ARCHTICK
 10
-0.0002666664296299453
 20
-30.80000017777754
 30
0.0
 41
2.0
 42
2.0
 50
180.07639432741342
  0
INSERT
  5
1F2
330
1EB
100
AcDbEntity
  8
COTAS
100
AcDbBlockReference
  2
_ARCHTICK
 10
749.9997333335704
 20
-29.80000017777754
 30
0.0
 41
2.0
 42
2.0
 50
0.07639432741341867
  0
LINE
  5
1F4
330
1EB
100
AcDbEntity
  8
0
100
AcDbLine
 10
-0.0002666664296299453
 20
-30.80000017777754
 30
0.0
 11
749.9997333335704
 21
-29.80000017777754
 31
0.0
  0
MTEXT
  5
1F5
330
1EB
100
AcDbEntity
  8
COTAS
100
AcDbMText
 10
374.9976000021333
 20
-28.70000159999787
 30
0.0
 40
3.0
 71
5
  1
750 m (tren de hasta 750 m [F, dia. 23])
  7
OpenSansCondensed-Light
 50
0.07639432741341867
  0
POINT
  5
1F6
330
1EB
100
AcDbEntity
  8
Defpoints
100
AcDbPoint
 10
-0.0002666664296299453
 20
-30.80000017777754
 30
0.0
  0
POINT
  5
1F7
330
1EB
100
AcDbEntity
  8
Defpoints
100
AcDbPoint
 10
0.0
 20
-31.0
 30
0.0
  0
POINT
  5
1F8
330
1EB
100
AcDbEntity
  8
Defpoints
100
AcDbPoint
 10
750.0
 20
-30.0
 30
0.0
  0
ENDBLK
  5
1ED
330
1EB
100
AcDbEntity
  8
0
100
AcDbBlockEnd
  0
BLOCK
  5
1FE
330
1FD
100
AcDbEntity
  8
0
100
AcDbBlockBegin
  2
*D2
 70
1
 10
0.0
 20
0.0
 30
0.0
  3
*D2
  1

  0
LINE
  5
200
330
1FD
100
AcDbEntity
  8
0
100
AcDbLine
 10
-0.5
 20
-90.725
 30
0.0
 11
-0.5
 21
-90.27499999999999
 31
0.0
  0
LINE
  5
201
330
1FD
100
AcDbEntity
  8
0
100
AcDbLine
 10
0.5
 20
-90.725
 30
0.0
 11
0.5
 21
-90.27499999999999
 31
0.0
  0
INSERT
  5
202
330
1FD
100
AcDbEntity
  8
COTAS
100
AcDbBlockReference
  2
_ARCHTICK
 10
-0.5
 20
-90.64999999999999
 30
0.0
 41
0.12
 42
0.12
 50
180.0
  0
INSERT
  5
204
330
1FD
100
AcDbEntity
  8
COTAS
100
AcDbBlockReference
  2
_ARCHTICK
 10
0.5
 20
-90.64999999999999
 30
0.0
 41
0.12
 42
0.12
  0
LINE
  5
206
330
1FD
100
AcDbEntity
  8
0
100
AcDbLine
 10
-0.5
 20
-90.64999999999999
 30
0.0
 11
0.5
 21
-90.64999999999999
 31
0.0
  0
MTEXT
  5
207
330
1FD
100
AcDbEntity
  8
COTAS
100
AcDbMText
 10
0.0
 20
-90.085
 30
0.0
 40
0.18
 71
5
  1
B (ver cuadro)
  7
OpenSansCondensed-Light
  0
POINT
  5
208
330
1FD
100
AcDbEntity
  8
Defpoints
100
AcDbPoint
 10
-0.5
 20
-90.64999999999999
 30
0.0
  0
POINT
  5
209
330
1FD
100
AcDbEntity
  8
Defpoints
100
AcDbPoint
 10
-0.5
 20
-90.85
 30
0.0
  0
POINT
  5
20A
330
1FD
100
AcDbEntity
  8
Defpoints
100
AcDbPoint
 10
0.5
 20
-90.85
 30
0.0
  0
ENDBLK
  5
1FF
330
1FD
100
AcDbEntity
  8
0
100
AcDbBlockEnd
  0
BLOCK
  5
215
330
214
100
AcDbEntity
  8
0
100
AcDbBlockBegin
  2
*D3
 70
1
 10
0.0
 20
0.0
 30
0.0
  3
*D3
  1

  0
LINE
  5
217
330
214
100
AcDbEntity
  8
0
100
AcDbLine
 10
3.325
 20
-91.5
 30
0.0
 11
2.875
 21
-91.5
 31
0.0
  0
LINE
  5
218
330
214
100
AcDbEntity
  8
0
100
AcDbLine
 10
3.325
 20
-90.0
 30
0.0
 11
2.875
 21
-90.0
 31
0.0
  0
INSERT
  5
219
330
214
100
AcDbEntity
  8
COTAS
100
AcDbBlockReference
  2
_ARCHTICK
 10
3.25
 20
-91.5
 30
0.0
 41
0.12
 42
0.12
 50
270.0
  0
INSERT
  5
21B
330
214
100
AcDbEntity
  8
COTAS
100
AcDbBlockReference
  2
_ARCHTICK
 10
3.25
 20
-90.0
 30
0.0
 41
0.12
 42
0.12
 50
90.0
  0
LINE
  5
21D
330
214
100
AcDbEntity
  8
0
100
AcDbLine
 10
3.25
 20
-91.5
 30
0.0
 11
3.25
 21
-90.0
 31
0.0
  0
MTEXT
  5
21E
330
214
100
AcDbEntity
  8
COTAS
100
AcDbMText
 10
2.685
 20
-90.75
 30
0.0
 40
0.18
 71
5
  1
Df = 1,50 m
  7
OpenSansCondensed-Light
 50
90.0
  0
POINT
  5
21F
330
214
100
AcDbEntity
  8
Defpoints
100
AcDbPoint
 10
3.25
 20
-91.5
 30
0.0
  0
POINT
  5
220
330
214
100
AcDbEntity
  8
Defpoints
100
AcDbPoint
 10
3.45
 20
-91.5
 30
0.0
  0
POINT
  5
221
330
214
100
AcDbEntity
  8
Defpoints
100
AcDbPoint
 10
3.45
 20
-90.0
 30
0.0
  0
ENDBLK
  5
216
330
214
100
AcDbEntity
  8
0
100
AcDbBlockEnd
  0
BLOCK
  5
224
330
223
100
AcDbEntity
  8
0
100
AcDbBlockBegin
  2
*D4
 70
1
 10
0.0
 20
0.0
 30
0.0
  3
*D4
  1

  0
LINE
  5
226
330
223
100
AcDbEntity
  8
0
100
AcDbLine
 10
1.625
 20
-91.5
 30
0.0
 11
1.175
 21
-91.5
 31
0.0
  0
LINE
  5
227
330
223
100
AcDbEntity
  8
0
100
AcDbLine
 10
1.625
 20
-91.1
 30
0.0
 11
1.175
 21
-91.1
 31
0.0
  0
INSERT
  5
228
330
223
100
AcDbEntity
  8
COTAS
100
AcDbBlockReference
  2
_ARCHTICK
 10
1.55
 20
-91.5
 30
0.0
 41
0.12
 42
0.12
 50
270.0
  0
INSERT
  5
22A
330
223
100
AcDbEntity
  8
COTAS
100
AcDbBlockReference
  2
_ARCHTICK
 10
1.55
 20
-91.1
 30
0.0
 41
0.12
 42
0.12
 50
90.0
  0
LINE
  5
22C
330
223
100
AcDbEntity
  8
0
100
AcDbLine
 10
1.55
 20
-91.5
 30
0.0
 11
1.55
 21
-91.1
 31
0.0
  0
MTEXT
  5
22D
330
223
100
AcDbEntity
  8
COTAS
100
AcDbMText
 10
0.9850000000000001
 20
-91.3
 30
0.0
 40
0.18
 71
5
  1
h = 0,40 m
  7
OpenSansCondensed-Light
 50
90.0
  0
POINT
  5
22E
330
223
100
AcDbEntity
  8
Defpoints
100
AcDbPoint
 10
1.55
 20
-91.5
 30
0.0
  0
POINT
  5
22F
330
223
100
AcDbEntity
  8
Defpoints
100
AcDbPoint
 10
1.75
 20
-91.5
 30
0.0
  0
POINT
  5
230
330
223
100
AcDbEntity
  8
Defpoints
100
AcDbPoint
 10
1.75
 20
-91.1
 30
0.0
  0
ENDBLK
  5
225
330
223
100
AcDbEntity
  8
0
100
AcDbBlockEnd
  0
BLOCK
  5
239
330
238
100
AcDbEntity
  8
0
100
AcDbBlockBegin
  2
*D5
 70
1
 10
0.0
 20
0.0
 30
0.0
  3
*D5
  1

  0
LINE
  5
23B
330
238
100
AcDbEntity
  8
0
100
AcDbLine
 10
18.5
 20
-91.725
 30
0.0
 11
18.5
 21
-91.27499999999999
 31
0.0
  0
LINE
  5
23C
330
238
100
AcDbEntity
  8
0
100
AcDbLine
 10
21.5
 20
-91.725
 30
0.0
 11
21.5
 21
-91.27499999999999
 31
0.0
  0
INSERT
  5
23D
330
238
100
AcDbEntity
  8
COTAS
100
AcDbBlockReference
  2
_ARCHTICK
 10
18.5
 20
-91.64999999999999
 30
0.0
 41
0.12
 42
0.12
 50
180.0
  0
INSERT
  5
23F
330
238
100
AcDbEntity
  8
COTAS
100
AcDbBlockReference
  2
_ARCHTICK
 10
21.5
 20
-91.64999999999999
 30
0.0
 41
0.12
 42
0.12
  0
LINE
  5
241
330
238
100
AcDbEntity
  8
0
100
AcDbLine
 10
18.5
 20
-91.64999999999999
 30
0.0
 11
21.5
 21
-91.64999999999999
 31
0.0
  0
MTEXT
  5
242
330
238
100
AcDbEntity
  8
COTAS
100
AcDbMText
 10
20.0
 20
-91.46
 30
0.0
 40
0.18
 71
5
  1
B (ver cuadro)
  7
OpenSansCondensed-Light
  0
POINT
  5
243
330
238
100
AcDbEntity
  8
Defpoints
100
AcDbPoint
 10
18.5
 20
-91.64999999999999
 30
0.0
  0
POINT
  5
244
330
238
100
AcDbEntity
  8
Defpoints
100
AcDbPoint
 10
18.5
 20
-91.85
 30
0.0
  0
POINT
  5
245
330
238
100
AcDbEntity
  8
Defpoints
100
AcDbPoint
 10
21.5
 20
-91.85
 30
0.0
  0
ENDBLK
  5
23A
330
238
100
AcDbEntity
  8
0
100
AcDbBlockEnd
  0
BLOCK
  5
250
330
24F
100
AcDbEntity
  8
0
100
AcDbBlockBegin
  2
*D6
 70
1
 10
0.0
 20
0.0
 30
0.0
  3
*D6
  1

  0
LINE
  5
252
330
24F
100
AcDbEntity
  8
0
100
AcDbLine
 10
26.325
 20
-91.5
 30
0.0
 11
25.875
 21
-91.5
 31
0.0
  0
LINE
  5
253
330
24F
100
AcDbEntity
  8
0
100
AcDbLine
 10
26.325
 20
-90.0
 30
0.0
 11
25.875
 21
-90.0
 31
0.0
  0
INSERT
  5
254
330
24F
100
AcDbEntity
  8
COTAS
100
AcDbBlockReference
  2
_ARCHTICK
 10
26.25
 20
-91.5
 30
0.0
 41
0.12
 42
0.12
 50
270.0
  0
INSERT
  5
256
330
24F
100
AcDbEntity
  8
COTAS
100
AcDbBlockReference
  2
_ARCHTICK
 10
26.25
 20
-90.0
 30
0.0
 41
0.12
 42
0.12
 50
90.0
  0
LINE
  5
258
330
24F
100
AcDbEntity
  8
0
100
AcDbLine
 10
26.25
 20
-91.5
 30
0.0
 11
26.25
 21
-90.0
 31
0.0
  0
MTEXT
  5
259
330
24F
100
AcDbEntity
  8
COTAS
100
AcDbMText
 10
25.685
 20
-90.75
 30
0.0
 40
0.18
 71
5
  1
Df = 1,50 m
  7
OpenSansCondensed-Light
 50
90.0
  0
POINT
  5
25A
330
24F
100
AcDbEntity
  8
Defpoints
100
AcDbPoint
 10
26.25
 20
-91.5
 30
0.0
  0
POINT
  5
25B
330
24F
100
AcDbEntity
  8
Defpoints
100
AcDbPoint
 10
26.45
 20
-91.5
 30
0.0
  0
POINT
  5
25C
330
24F
100
AcDbEntity
  8
Defpoints
100
AcDbPoint
 10
26.45
 20
-90.0
 30
0.0
  0
ENDBLK
  5
251
330
24F
100
AcDbEntity
  8
0
100
AcDbBlockEnd
  0
BLOCK
  5
25F
330
25E
100
AcDbEntity
  8
0
100
AcDbBlockBegin
  2
*D7
 70
1
 10
0.0
 20
0.0
 30
0.0
  3
*D7
  1

  0
LINE
  5
261
330
25E
100
AcDbEntity
  8
0
100
AcDbLine
 10
22.625
 20
-91.5
 30
0.0
 11
22.175
 21
-91.5
 31
0.0
  0
LINE
  5
262
330
25E
100
AcDbEntity
  8
0
100
AcDbLine
 10
22.625
 20
-90.9
 30
0.0
 11
22.175
 21
-90.9
 31
0.0
  0
INSERT
  5
263
330
25E
100
AcDbEntity
  8
COTAS
100
AcDbBlockReference
  2
_ARCHTICK
 10
22.55
 20
-91.5
 30
0.0
 41
0.12
 42
0.12
 50
270.0
  0
INSERT
  5
265
330
25E
100
AcDbEntity
  8
COTAS
100
AcDbBlockReference
  2
_ARCHTICK
 10
22.55
 20
-90.9
 30
0.0
 41
0.12
 42
0.12
 50
90.0
  0
LINE
  5
267
330
25E
100
AcDbEntity
  8
0
100
AcDbLine
 10
22.55
 20
-91.5
 30
0.0
 11
22.55
 21
-90.9
 31
0.0
  0
MTEXT
  5
268
330
25E
100
AcDbEntity
  8
COTAS
100
AcDbMText
 10
21.985
 20
-91.2
 30
0.0
 40
0.18
 71
5
  1
h = 0,60 m
  7
OpenSansCondensed-Light
 50
90.0
  0
POINT
  5
269
330
25E
100
AcDbEntity
  8
Defpoints
100
AcDbPoint
 10
22.55
 20
-91.5
 30
0.0
  0
POINT
  5
26A
330
25E
100
AcDbEntity
  8
Defpoints
100
AcDbPoint
 10
22.75
 20
-91.5
 30
0.0
  0
POINT
  5
26B
330
25E
100
AcDbEntity
  8
Defpoints
100
AcDbPoint
 10
22.75
 20
-90.9
 30
0.0
  0
ENDBLK
  5
260
330
25E
100
AcDbEntity
  8
0
100
AcDbBlockEnd
  0
BLOCK
  5
274
330
273
100
AcDbEntity
  8
0
100
AcDbBlockBegin
  2
*D8
 70
1
 10
0.0
 20
0.0
 30
0.0
  3
*D8
  1

  0
LINE
  5
276
330
273
100
AcDbEntity
  8
0
100
AcDbLine
 10
45.0
 20
-90.975
 30
0.0
 11
45.0
 21
-90.52499999999999
 31
0.0
  0
LINE
  5
277
330
273
100
AcDbEntity
  8
0
100
AcDbLine
 10
57.5
 20
-90.975
 30
0.0
 11
57.5
 21
-90.52499999999999
 31
0.0
  0
INSERT
  5
278
330
273
100
AcDbEntity
  8
COTAS
100
AcDbBlockReference
  2
_ARCHTICK
 10
45.0
 20
-90.89999999999999
 30
0.0
 41
0.12
 42
0.12
 50
180.0
  0
INSERT
  5
27A
330
273
100
AcDbEntity
  8
COTAS
100
AcDbBlockReference
  2
_ARCHTICK
 10
57.5
 20
-90.89999999999999
 30
0.0
 41
0.12
 42
0.12
  0
LINE
  5
27C
330
273
100
AcDbEntity
  8
0
100
AcDbLine
 10
45.0
 20
-90.89999999999999
 30
0.0
 11
57.5
 21
-90.89999999999999
 31
0.0
  0
MTEXT
  5
27D
330
273
100
AcDbEntity
  8
COTAS
100
AcDbMText
 10
51.25
 20
-90.71
 30
0.0
 40
0.18
 71
5
  1
12,5 m · pendiente 8 %
  7
OpenSansCondensed-Light
  0
POINT
  5
27E
330
273
100
AcDbEntity
  8
Defpoints
100
AcDbPoint
 10
45.0
 20
-90.89999999999999
 30
0.0
  0
POINT
  5
27F
330
273
100
AcDbEntity
  8
Defpoints
100
AcDbPoint
 10
45.0
 20
-91.1
 30
0.0
  0
POINT
  5
280
330
273
100
AcDbEntity
  8
Defpoints
100
AcDbPoint
 10
57.5
 20
-91.1
 30
0.0
  0
ENDBLK
  5
275
330
273
100
AcDbEntity
  8
0
100
AcDbBlockEnd
  0
BLOCK
  5
283
330
282
100
AcDbEntity
  8
0
100
AcDbBlockBegin
  2
*D9
 70
1
 10
0.0
 20
0.0
 30
0.0
  3
*D9
  1

  0
LINE
  5
285
330
282
100
AcDbEntity
  8
0
100
AcDbLine
 10
61.975
 20
-90.0
 30
0.0
 11
61.525
 21
-90.0
 31
0.0
  0
LINE
  5
286
330
282
100
AcDbEntity
  8
0
100
AcDbLine
 10
61.975
 20
-89.0
 30
0.0
 11
61.525
 21
-89.0
 31
0.0
  0
INSERT
  5
287
330
282
100
AcDbEntity
  8
COTAS
100
AcDbBlockReference
  2
_ARCHTICK
 10
61.9
 20
-90.0
 30
0.0
 41
0.12
 42
0.12
 50
270.0
  0
INSERT
  5
289
330
282
100
AcDbEntity
  8
COTAS
100
AcDbBlockReference
  2
_ARCHTICK
 10
61.9
 20
-89.0
 30
0.0
 41
0.12
 42
0.12
 50
90.0
  0
LINE
  5
28B
330
282
100
AcDbEntity
  8
0
100
AcDbLine
 10
61.9
 20
-90.0
 30
0.0
 11
61.9
 21
-89.0
 31
0.0
  0
MTEXT
  5
28C
330
282
100
AcDbEntity
  8
COTAS
100
AcDbMText
 10
61.335
 20
-89.5
 30
0.0
 40
0.18
 71
5
  1
1,00 m
  7
OpenSansCondensed-Light
 50
90.0
  0
POINT
  5
28D
330
282
100
AcDbEntity
  8
Defpoints
100
AcDbPoint
 10
61.9
 20
-90.0
 30
0.0
  0
POINT
  5
28E
330
282
100
AcDbEntity
  8
Defpoints
100
AcDbPoint
 10
62.1
 20
-90.0
 30
0.0
  0
POINT
  5
28F
330
282
100
AcDbEntity
  8
Defpoints
100
AcDbPoint
 10
62.1
 20
-89.0
 30
0.0
  0
ENDBLK
  5
284
330
282
100
AcDbEntity
  8
0
100
AcDbBlockEnd
  0
ENDSEC
  0
SECTION
  2
ENTITIES
  0
LINE
  5
93
330
17
100
AcDbEntity
  8
VIA
  6
CONTINUOUS
100
AcDbLine
 10
-42.5
 20
-0.72
 30
0.0
 11
792.5
 21
-0.72
 31
0.0
  0
LINE
  5
94
330
17
100
AcDbEntity
  8
VIA
  6
CONTINUOUS
100
AcDbLine
 10
-42.5
 20
0.72
 30
0.0
 11
792.5
 21
0.72
 31
0.0
  0
LWPOLYLINE
  5
95
330
17
100
AcDbEntity
  8
MARQUESINA
100
AcDbPolyline
 90
4
 70
1
 10
0.0
 20
-6.0
 10
750.0
 20
-6.0
 10
750.0
 20
6.0
 10
0.0
 20
6.0
  0
LWPOLYLINE
  5
96
330
17
100
AcDbEntity
  8
ZAPATAS
100
AcDbPolyline
 90
4
 70
1
 10
-0.5
 20
-6.5
 10
0.5
 20
-6.5
 10
0.5
 20
-5.5
 10
-0.5
 20
-5.5
  0
HATCH
  5
97
330
17
100
AcDbEntity
  8
ZAPATAS
 62
3
100
AcDbHatch
 10
0.0
 20
0.0
 30
0.0
210
0.0
220
0.0
230
1.0
  2
SOLID
 70
1
 71
0
 91
1
 92
3
 72
0
 73
1
 93
4
 10
-0.5
 20
-6.5
 10
0.5
 20
-6.5
 10
0.5
 20
-5.5
 10
-0.5
 20
-5.5
 97
0
 75
0
 76
1
 98
0
  0
LWPOLYLINE
  5
98
330
17
100
AcDbEntity
  8
ZAPATAS
100
AcDbPolyline
 90
4
 70
1
 10
-0.5
 20
5.5
 10
0.5
 20
5.5
 10
0.5
 20
6.5
 10
-0.5
 20
6.5
  0
HATCH
  5
99
330
17
100
AcDbEntity
  8
ZAPATAS
 62
3
100
AcDbHatch
 10
0.0
 20
0.0
 30
0.0
210
0.0
220
0.0
230
1.0
  2
SOLID
 70
1
 71
0
 91
1
 92
3
 72
0
 73
1
 93
4
 10
-0.5
 20
5.5
 10
0.5
 20
5.5
 10
0.5
 20
6.5
 10
-0.5
 20
6.5
 97
0
 75
0
 76
1
 98
0
  0
LWPOLYLINE
  5
9A
330
17
100
AcDbEntity
  8
ZAPATAS
100
AcDbPolyline
 90
4
 70
1
 10
9.5
 20
-6.5
 10
10.5
 20
-6.5
 10
10.5
 20
-5.5
 10
9.5
 20
-5.5
  0
HATCH
  5
9B
330
17
100
AcDbEntity
  8
ZAPATAS
 62
3
100
AcDbHatch
 10
0.0
 20
0.0
 30
0.0
210
0.0
220
0.0
230
1.0
  2
SOLID
 70
1
 71
0
 91
1
 92
3
 72
0
 73
1
 93
4
 10
9.5
 20
-6.5
 10
10.5
 20
-6.5
 10
10.5
 20
-5.5
 10
9.5
 20
-5.5
 97
0
 75
0
 76
1
 98
0
  0
LWPOLYLINE
  5
9C
330
17
100
AcDbEntity
  8
ZAPATAS
100
AcDbPolyline
 90
4
 70
1
 10
9.5
 20
5.5
 10
10.5
 20
5.5
 10
10.5
 20
6.5
 10
9.5
 20
6.5
  0
HATCH
  5
9D
330
17
100
AcDbEntity
  8
ZAPATAS
 62
3
100
AcDbHatch
 10
0.0
 20
0.0
 30
0.0
210
0.0
220
0.0
230
1.0
  2
SOLID
 70
1
 71
0
 91
1
 92
3
 72
0
 73
1
 93
4
 10
9.5
 20
5.5
 10
10.5
 20
5.5
 10
10.5
 20
6.5
 10
9.5
 20
6.5
 97
0
 75
0
 76
1
 98
0
  0
LWPOLYLINE
  5
9E
330
17
100
AcDbEntity
  8
ZAPATAS
100
AcDbPolyline
 90
4
 70
1
 10
19.5
 20
-6.5
 10
20.5
 20
-6.5
 10
20.5
 20
-5.5
 10
19.5
 20
-5.5
  0
HATCH
  5
9F
330
17
100
AcDbEntity
  8
ZAPATAS
 62
3
100
AcDbHatch
 10
0.0
 20
0.0
 30
0.0
210
0.0
220
0.0
230
1.0
  2
SOLID
 70
1
 71
0
 91
1
 92
3
 72
0
 73
1
 93
4
 10
19.5
 20
-6.5
 10
20.5
 20
-6.5
 10
20.5
 20
-5.5
 10
19.5
 20
-5.5
 97
0
 75
0
 76
1
 98
0
  0
LWPOLYLINE
  5
A0
330
17
100
AcDbEntity
  8
ZAPATAS
100
AcDbPolyline
 90
4
 70
1
 10
19.5
 20
5.5
 10
20.5
 20
5.5
 10
20.5
 20
6.5
 10
19.5
 20
6.5
  0
HATCH
  5
A1
330
17
100
AcDbEntity
  8
ZAPATAS
 62
3
100
AcDbHatch
 10
0.0
 20
0.0
 30
0.0
210
0.0
220
0.0
230
1.0
  2
SOLID
 70
1
 71
0
 91
1
 92
3
 72
0
 73
1
 93
4
 10
19.5
 20
5.5
 10
20.5
 20
5.5
 10
20.5
 20
6.5
 10
19.5
 20
6.5
 97
0
 75
0
 76
1
 98
0
  0
LWPOLYLINE
  5
A2
330
17
100
AcDbEntity
  8
ZAPATAS
100
AcDbPolyline
 90
4
 70
1
 10
29.5
 20
-6.5
 10
30.5
 20
-6.5
 10
30.5
 20
-5.5
 10
29.5
 20
-5.5
  0
HATCH
  5
A3
330
17
100
AcDbEntity
  8
ZAPATAS
 62
3
100
AcDbHatch
 10
0.0
 20
0.0
 30
0.0
210
0.0
220
0.0
230
1.0
  2
SOLID
 70
1
 71
0
 91
1
 92
3
 72
0
 73
1
 93
4
 10
29.5
 20
-6.5
 10
30.5
 20
-6.5
 10
30.5
 20
-5.5
 10
29.5
 20
-5.5
 97
0
 75
0
 76
1
 98
0
  0
LWPOLYLINE
  5
A4
330
17
100
AcDbEntity
  8
ZAPATAS
100
AcDbPolyline
 90
4
 70
1
 10
29.5
 20
5.5
 10
30.5
 20
5.5
 10
30.5
 20
6.5
 10
29.5
 20
6.5
  0
HATCH
  5
A5
330
17
100
AcDbEntity
  8
ZAPATAS
 62
3
100
AcDbHatch
 10
0.0
 20
0.0
 30
0.0
210
0.0
220
0.0
230
1.0
  2
SOLID
 70
1
 71
0
 91
1
 92
3
 72
0
 73
1
 93
4
 10
29.5
 20
5.5
 10
30.5
 20
5.5
 10
30.5
 20
6.5
 10
29.5
 20
6.5
 97
0
 75
0
 76
1
 98
0
  0
LWPOLYLINE
  5
A6
330
17
100
AcDbEntity
  8
ZAPATAS
100
AcDbPolyline
 90
4
 70
1
 10
39.5
 20
-6.5
 10
40.5
 20
-6.5
 10
40.5
 20
-5.5
 10
39.5
 20
-5.5
  0
HATCH
  5
A7
330
17
100
AcDbEntity
  8
ZAPATAS
 62
3
100
AcDbHatch
 10
0.0
 20
0.0
 30
0.0
210
0.0
220
0.0
230
1.0
  2
SOLID
 70
1
 71
0
 91
1
 92
3
 72
0
 73
1
 93
4
 10
39.5
 20
-6.5
 10
40.5
 20
-6.5
 10
40.5
 20
-5.5
 10
39.5
 20
-5.5
 97
0
 75
0
 76
1
 98
0
  0
LWPOLYLINE
  5
A8
330
17
100
AcDbEntity
  8
ZAPATAS
100
AcDbPolyline
 90
4
 70
1
 10
39.5
 20
5.5
 10
40.5
 20
5.5
 10
40.5
 20
6.5
 10
39.5
 20
6.5
  0
HATCH
  5
A9
330
17
100
AcDbEntity
  8
ZAPATAS
 62
3
100
AcDbHatch
 10
0.0
 20
0.0
 30
0.0
210
0.0
220
0.0
230
1.0
  2
SOLID
 70
1
 71
0
 91
1
 92
3
 72
0
 73
1
 93
4
 10
39.5
 20
5.5
 10
40.5
 20
5.5
 10
40.5
 20
6.5
 10
39.5
 20
6.5
 97
0
 75
0
 76
1
 98
0
  0
LWPOLYLINE
  5
AA
330
17
100
AcDbEntity
  8
ZAPATAS
100
AcDbPolyline
 90
4
 70
1
 10
49.5
 20
-6.5
 10
50.5
 20
-6.5
 10
50.5
 20
-5.5
 10
49.5
 20
-5.5
  0
HATCH
  5
AB
330
17
100
AcDbEntity
  8
ZAPATAS
 62
3
100
AcDbHatch
 10
0.0
 20
0.0
 30
0.0
210
0.0
220
0.0
230
1.0
  2
SOLID
 70
1
 71
0
 91
1
 92
3
 72
0
 73
1
 93
4
 10
49.5
 20
-6.5
 10
50.5
 20
-6.5
 10
50.5
 20
-5.5
 10
49.5
 20
-5.5
 97
0
 75
0
 76
1
 98
0
  0
LWPOLYLINE
  5
AC
330
17
100
AcDbEntity
  8
ZAPATAS
100
AcDbPolyline
 90
4
 70
1
 10
49.5
 20
5.5
 10
50.5
 20
5.5
 10
50.5
 20
6.5
 10
49.5
 20
6.5
  0
HATCH
  5
AD
330
17
100
AcDbEntity
  8
ZAPATAS
 62
3
100
AcDbHatch
 10
0.0
 20
0.0
 30
0.0
210
0.0
220
0.0
230
1.0
  2
SOLID
 70
1
 71
0
 91
1
 92
3
 72
0
 73
1
 93
4
 10
49.5
 20
5.5
 10
50.5
 20
5.5
 10
50.5
 20
6.5
 10
49.5
 20
6.5
 97
0
 75
0
 76
1
 98
0
  0
LWPOLYLINE
  5
AE
330
17
100
AcDbEntity
  8
ZAPATAS
100
AcDbPolyline
 90
4
 70
1
 10
59.5
 20
-6.5
 10
60.5
 20
-6.5
 10
60.5
 20
-5.5
 10
59.5
 20
-5.5
  0
HATCH
  5
AF
330
17
100
AcDbEntity
  8
ZAPATAS
 62
3
100
AcDbHatch
 10
0.0
 20
0.0
 30
0.0
210
0.0
220
0.0
230
1.0
  2
SOLID
 70
1
 71
0
 91
1
 92
3
 72
0
 73
1
 93
4
 10
59.5
 20
-6.5
 10
60.5
 20
-6.5
 10
60.5
 20
-5.5
 10
59.5
 20
-5.5
 97
0
 75
0
 76
1
 98
0
  0
LWPOLYLINE
  5
B0
330
17
100
AcDbEntity
  8
ZAPATAS
100
AcDbPolyline
 90
4
 70
1
 10
59.5
 20
5.5
 10
60.5
 20
5.5
 10
60.5
 20
6.5
 10
59.5
 20
6.5
  0
HATCH
  5
B1
330
17
100
AcDbEntity
  8
ZAPATAS
 62
3
100
AcDbHatch
 10
0.0
 20
0.0
 30
0.0
210
0.0
220
0.0
230
1.0
  2
SOLID
 70
1
 71
0
 91
1
 92
3
 72
0
 73
1
 93
4
 10
59.5
 20
5.5
 10
60.5
 20
5.5
 10
60.5
 20
6.5
 10
59.5
 20
6.5
 97
0
 75
0
 76
1
 98
0
  0
LWPOLYLINE
  5
B2
330
17
100
AcDbEntity
  8
ZAPATAS
100
AcDbPolyline
 90
4
 70
1
 10
69.5
 20
-6.5
 10
70.5
 20
-6.5
 10
70.5
 20
-5.5
 10
69.5
 20
-5.5
  0
HATCH
  5
B3
330
17
100
AcDbEntity
  8
ZAPATAS
 62
3
100
AcDbHatch
 10
0.0
 20
0.0
 30
0.0
210
0.0
220
0.0
230
1.0
  2
SOLID
 70
1
 71
0
 91
1
 92
3
 72
0
 73
1
 93
4
 10
69.5
 20
-6.5
 10
70.5
 20
-6.5
 10
70.5
 20
-5.5
 10
69.5
 20
-5.5
 97
0
 75
0
 76
1
 98
0
  0
LWPOLYLINE
  5
B4
330
17
100
AcDbEntity
  8
ZAPATAS
100
AcDbPolyline
 90
4
 70
1
 10
69.5
 20
5.5
 10
70.5
 20
5.5
 10
70.5
 20
6.5
 10
69.5
 20
6.5
  0
HATCH
  5
B5
330
17
100
AcDbEntity
  8
ZAPATAS
 62
3
100
AcDbHatch
 10
0.0
 20
0.0
 30
0.0
210
0.0
220
0.0
230
1.0
  2
SOLID
 70
1
 71
0
 91
1
 92
3
 72
0
 73
1
 93
4
 10
69.5
 20
5.5
 10
70.5
 20
5.5
 10
70.5
 20
6.5
 10
69.5
 20
6.5
 97
0
 75
0
 76
1
 98
0
  0
LWPOLYLINE
  5
B6
330
17
100
AcDbEntity
  8
ZAPATAS
100
AcDbPolyline
 90
4
 70
1
 10
79.5
 20
-6.5
 10
80.5
 20
-6.5
 10
80.5
 20
-5.5
 10
79.5
 20
-5.5
  0
HATCH
  5
B7
330
17
100
AcDbEntity
  8
ZAPATAS
 62
3
100
AcDbHatch
 10
0.0
 20
0.0
 30
0.0
210
0.0
220
0.0
230
1.0
  2
SOLID
 70
1
 71
0
 91
1
 92
3
 72
0
 73
1
 93
4
 10
79.5
 20
-6.5
 10
80.5
 20
-6.5
 10
80.5
 20
-5.5
 10
79.5
 20
-5.5
 97
0
 75
0
 76
1
 98
0
  0
LWPOLYLINE
  5
B8
330
17
100
AcDbEntity
  8
ZAPATAS
100
AcDbPolyline
 90
4
 70
1
 10
79.5
 20
5.5
 10
80.5
 20
5.5
 10
80.5
 20
6.5
 10
79.5
 20
6.5
  0
HATCH
  5
B9
330
17
100
AcDbEntity
  8
ZAPATAS
 62
3
100
AcDbHatch
 10
0.0
 20
0.0
 30
0.0
210
0.0
220
0.0
230
1.0
  2
SOLID
 70
1
 71
0
 91
1
 92
3
 72
0
 73
1
 93
4
 10
79.5
 20
5.5
 10
80.5
 20
5.5
 10
80.5
 20
6.5
 10
79.5
 20
6.5
 97
0
 75
0
 76
1
 98
0
  0
LWPOLYLINE
  5
BA
330
17
100
AcDbEntity
  8
ZAPATAS
100
AcDbPolyline
 90
4
 70
1
 10
89.5
 20
-6.5
 10
90.5
 20
-6.5
 10
90.5
 20
-5.5
 10
89.5
 20
-5.5
  0
HATCH
  5
BB
330
17
100
AcDbEntity
  8
ZAPATAS
 62
3
100
AcDbHatch
 10
0.0
 20
0.0
 30
0.0
210
0.0
220
0.0
230
1.0
  2
SOLID
 70
1
 71
0
 91
1
 92
3
 72
0
 73
1
 93
4
 10
89.5
 20
-6.5
 10
90.5
 20
-6.5
 10
90.5
 20
-5.5
 10
89.5
 20
-5.5
 97
0
 75
0
 76
1
 98
0
  0
LWPOLYLINE
  5
BC
330
17
100
AcDbEntity
  8
ZAPATAS
100
AcDbPolyline
 90
4
 70
1
 10
89.5
 20
5.5
 10
90.5
 20
5.5
 10
90.5
 20
6.5
 10
89.5
 20
6.5
  0
HATCH
  5
BD
330
17
100
AcDbEntity
  8
ZAPATAS
 62
3
100
AcDbHatch
 10
0.0
 20
0.0
 30
0.0
210
0.0
220
0.0
230
1.0
  2
SOLID
 70
1
 71
0
 91
1
 92
3
 72
0
 73
1
 93
4
 10
89.5
 20
5.5
 10
90.5
 20
5.5
 10
90.5
 20
6.5
 10
89.5
 20
6.5
 97
0
 75
0
 76
1
 98
0
  0
LWPOLYLINE
  5
BE
330
17
100
AcDbEntity
  8
ZAPATAS
100
AcDbPolyline
 90
4
 70
1
 10
99.5
 20
-6.5
 10
100.5
 20
-6.5
 10
100.5
 20
-5.5
 10
99.5
 20
-5.5
  0
HATCH
  5
BF
330
17
100
AcDbEntity
  8
ZAPATAS
 62
3
100
AcDbHatch
 10
0.0
 20
0.0
 30
0.0
210
0.0
220
0.0
230
1.0
  2
SOLID
 70
1
 71
0
 91
1
 92
3
 72
0
 73
1
 93
4
 10
99.5
 20
-6.5
 10
100.5
 20
-6.5
 10
100.5
 20
-5.5
 10
99.5
 20
-5.5
 97
0
 75
0
 76
1
 98
0
  0
LWPOLYLINE
  5
C0
330
17
100
AcDbEntity
  8
ZAPATAS
100
AcDbPolyline
 90
4
 70
1
 10
99.5
 20
5.5
 10
100.5
 20
5.5
 10
100.5
 20
6.5
 10
99.5
 20
6.5
  0
HATCH
  5
C1
330
17
100
AcDbEntity
  8
ZAPATAS
 62
3
100
AcDbHatch
 10
0.0
 20
0.0
 30
0.0
210
0.0
220
0.0
230
1.0
  2
SOLID
 70
1
 71
0
 91
1
 92
3
 72
0
 73
1
 93
4
 10
99.5
 20
5.5
 10
100.5
 20
5.5
 10
100.5
 20
6.5
 10
99.5
 20
6.5
 97
0
 75
0
 76
1
 98
0
  0
LWPOLYLINE
  5
C2
330
17
100
AcDbEntity
  8
ZAPATAS
100
AcDbPolyline
 90
4
 70
1
 10
109.5
 20
-6.5
 10
110.5
 20
-6.5
 10
110.5
 20
-5.5
 10
109.5
 20
-5.5
  0
HATCH
  5
C3
330
17
100
AcDbEntity
  8
ZAPATAS
 62
3
100
AcDbHatch
 10
0.0
 20
0.0
 30
0.0
210
0.0
220
0.0
230
1.0
  2
SOLID
 70
1
 71
0
 91
1
 92
3
 72
0
 73
1
 93
4
 10
109.5
 20
-6.5
 10
110.5
 20
-6.5
 10
110.5
 20
-5.5
 10
109.5
 20
-5.5
 97
0
 75
0
 76
1
 98
0
  0
LWPOLYLINE
  5
C4
330
17
100
AcDbEntity
  8
ZAPATAS
100
AcDbPolyline
 90
4
 70
1
 10
109.5
 20
5.5
 10
110.5
 20
5.5
 10
110.5
 20
6.5
 10
109.5
 20
6.5
  0
HATCH
  5
C5
330
17
100
AcDbEntity
  8
ZAPATAS
 62
3
100
AcDbHatch
 10
0.0
 20
0.0
 30
0.0
210
0.0
220
0.0
230
1.0
  2
SOLID
 70
1
 71
0
 91
1
 92
3
 72
0
 73
1
 93
4
 10
109.5
 20
5.5
 10
110.5
 20
5.5
 10
110.5
 20
6.5
 10
109.5
 20
6.5
 97
0
 75
0
 76
1
 98
0
  0
LWPOLYLINE
  5
C6
330
17
100
AcDbEntity
  8
ZAPATAS
100
AcDbPolyline
 90
4
 70
1
 10
119.5
 20
-6.5
 10
120.5
 20
-6.5
 10
120.5
 20
-5.5
 10
119.5
 20
-5.5
  0
HATCH
  5
C7
330
17
100
AcDbEntity
  8
ZAPATAS
 62
3
100
AcDbHatch
 10
0.0
 20
0.0
 30
0.0
210
0.0
220
0.0
230
1.0
  2
SOLID
 70
1
 71
0
 91
1
 92
3
 72
0
 73
1
 93
4
 10
119.5
 20
-6.5
 10
120.5
 20
-6.5
 10
120.5
 20
-5.5
 10
119.5
 20
-5.5
 97
0
 75
0
 76
1
 98
0
  0
LWPOLYLINE
  5
C8
330
17
100
AcDbEntity
  8
ZAPATAS
100
AcDbPolyline
 90
4
 70
1
 10
119.5
 20
5.5
 10
120.5
 20
5.5
 10
120.5
 20
6.5
 10
119.5
 20
6.5
  0
HATCH
  5
C9
330
17
100
AcDbEntity
  8
ZAPATAS
 62
3
100
AcDbHatch
 10
0.0
 20
0.0
 30
0.0
210
0.0
220
0.0
230
1.0
  2
SOLID
 70
1
 71
0
 91
1
 92
3
 72
0
 73
1
 93
4
 10
119.5
 20
5.5
 10
120.5
 20
5.5
 10
120.5
 20
6.5
 10
119.5
 20
6.5
 97
0
 75
0
 76
1
 98
0
  0
LWPOLYLINE
  5
CA
330
17
100
AcDbEntity
  8
ZAPATAS
100
AcDbPolyline
 90
4
 70
1
 10
129.5
 20
-6.5
 10
130.5
 20
-6.5
 10
130.5
 20
-5.5
 10
129.5
 20
-5.5
  0
HATCH
  5
CB
330
17
100
AcDbEntity
  8
ZAPATAS
 62
3
100
AcDbHatch
 10
0.0
 20
0.0
 30
0.0
210
0.0
220
0.0
230
1.0
  2
SOLID
 70
1
 71
0
 91
1
 92
3
 72
0
 73
1
 93
4
 10
129.5
 20
-6.5
 10
130.5
 20
-6.5
 10
130.5
 20
-5.5
 10
129.5
 20
-5.5
 97
0
 75
0
 76
1
 98
0
  0
LWPOLYLINE
  5
CC
330
17
100
AcDbEntity
  8
ZAPATAS
100
AcDbPolyline
 90
4
 70
1
 10
129.5
 20
5.5
 10
130.5
 20
5.5
 10
130.5
 20
6.5
 10
129.5
 20
6.5
  0
HATCH
  5
CD
330
17
100
AcDbEntity
  8
ZAPATAS
 62
3
100
AcDbHatch
 10
0.0
 20
0.0
 30
0.0
210
0.0
220
0.0
230
1.0
  2
SOLID
 70
1
 71
0
 91
1
 92
3
 72
0
 73
1
 93
4
 10
129.5
 20
5.5
 10
130.5
 20
5.5
 10
130.5
 20
6.5
 10
129.5
 20
6.5
 97
0
 75
0
 76
1
 98
0
  0
LWPOLYLINE
  5
CE
330
17
100
AcDbEntity
  8
ZAPATAS
100
AcDbPolyline
 90
4
 70
1
 10
139.5
 20
-6.5
 10
140.5
 20
-6.5
 10
140.5
 20
-5.5
 10
139.5
 20
-5.5
  0
HATCH
  5
CF
330
17
100
AcDbEntity
  8
ZAPATAS
 62
3
100
AcDbHatch
 10
0.0
 20
0.0
 30
0.0
210
0.0
220
0.0
230
1.0
  2
SOLID
 70
1
 71
0
 91
1
 92
3
 72
0
 73
1
 93
4
 10
139.5
 20
-6.5
 10
140.5
 20
-6.5
 10
140.5
 20
-5.5
 10
139.5
 20
-5.5
 97
0
 75
0
 76
1
 98
0
  0
LWPOLYLINE
  5
D0
330
17
100
AcDbEntity
  8
ZAPATAS
100
AcDbPolyline
 90
4
 70
1
 10
139.5
 20
5.5
 10
140.5
 20
5.5
 10
140.5
 20
6.5
 10
139.5
 20
6.5
  0
HATCH
  5
D1
330
17
100
AcDbEntity
  8
ZAPATAS
 62
3
100
AcDbHatch
 10
0.0
 20
0.0
 30
0.0
210
0.0
220
0.0
230
1.0
  2
SOLID
 70
1
 71
0
 91
1
 92
3
 72
0
 73
1
 93
4
 10
139.5
 20
5.5
 10
140.5
 20
5.5
 10
140.5
 20
6.5
 10
139.5
 20
6.5
 97
0
 75
0
 76
1
 98
0
  0
LWPOLYLINE
  5
D2
330
17
100
AcDbEntity
  8
ZAPATAS
100
AcDbPolyline
 90
4
 70
1
 10
149.5
 20
-6.5
 10
150.5
 20
-6.5
 10
150.5
 20
-5.5
 10
149.5
 20
-5.5
  0
HATCH
  5
D3
330
17
100
AcDbEntity
  8
ZAPATAS
 62
3
100
AcDbHatch
 10
0.0
 20
0.0
 30
0.0
210
0.0
220
0.0
230
1.0
  2
SOLID
 70
1
 71
0
 91
1
 92
3
 72
0
 73
1
 93
4
 10
149.5
 20
-6.5
 10
150.5
 20
-6.5
 10
150.5
 20
-5.5
 10
149.5
 20
-5.5
 97
0
 75
0
 76
1
 98
0
  0
LWPOLYLINE
  5
D4
330
17
100
AcDbEntity
  8
ZAPATAS
100
AcDbPolyline
 90
4
 70
1
 10
149.5
 20
5.5
 10
150.5
 20
5.5
 10
150.5
 20
6.5
 10
149.5
 20
6.5
  0
HATCH
  5
D5
330
17
100
AcDbEntity
  8
ZAPATAS
 62
3
100
AcDbHatch
 10
0.0
 20
0.0
 30
0.0
210
0.0
220
0.0
230
1.0
  2
SOLID
 70
1
 71
0
 91
1
 92
3
 72
0
 73
1
 93
4
 10
149.5
 20
5.5
 10
150.5
 20
5.5
 10
150.5
 20
6.5
 10
149.5
 20
6.5
 97
0
 75
0
 76
1
 98
0
  0
LWPOLYLINE
  5
D6
330
17
100
AcDbEntity
  8
ZAPATAS
100
AcDbPolyline
 90
4
 70
1
 10
159.5
 20
-6.5
 10
160.5
 20
-6.5
 10
160.5
 20
-5.5
 10
159.5
 20
-5.5
  0
HATCH
  5
D7
330
17
100
AcDbEntity
  8
ZAPATAS
 62
3
100
AcDbHatch
 10
0.0
 20
0.0
 30
0.0
210
0.0
220
0.0
230
1.0
  2
SOLID
 70
1
 71
0
 91
1
 92
3
 72
0
 73
1
 93
4
 10
159.5
 20
-6.5
 10
160.5
 20
-6.5
 10
160.5
 20
-5.5
 10
159.5
 20
-5.5
 97
0
 75
0
 76
1
 98
0
  0
LWPOLYLINE
  5
D8
330
17
100
AcDbEntity
  8
ZAPATAS
100
AcDbPolyline
 90
4
 70
1
 10
159.5
 20
5.5
 10
160.5
 20
5.5
 10
160.5
 20
6.5
 10
159.5
 20
6.5
  0
HATCH
  5
D9
330
17
100
AcDbEntity
  8
ZAPATAS
 62
3
100
AcDbHatch
 10
0.0
 20
0.0
 30
0.0
210
0.0
220
0.0
230
1.0
  2
SOLID
 70
1
 71
0
 91
1
 92
3
 72
0
 73
1
 93
4
 10
159.5
 20
5.5
 10
160.5
 20
5.5
 10
160.5
 20
6.5
 10
159.5
 20
6.5
 97
0
 75
0
 76
1
 98
0
  0
LWPOLYLINE
  5
DA
330
17
100
AcDbEntity
  8
ZAPATAS
100
AcDbPolyline
 90
4
 70
1
 10
169.5
 20
-6.5
 10
170.5
 20
-6.5
 10
170.5
 20
-5.5
 10
169.5
 20
-5.5
  0
HATCH
  5
DB
330
17
100
AcDbEntity
  8
ZAPATAS
 62
3
100
AcDbHatch
 10
0.0
 20
0.0
 30
0.0
210
0.0
220
0.0
230
1.0
  2
SOLID
 70
1
 71
0
 91
1
 92
3
 72
0
 73
1
 93
4
 10
169.5
 20
-6.5
 10
170.5
 20
-6.5
 10
170.5
 20
-5.5
 10
169.5
 20
-5.5
 97
0
 75
0
 76
1
 98
0
  0
LWPOLYLINE
  5
DC
330
17
100
AcDbEntity
  8
ZAPATAS
100
AcDbPolyline
 90
4
 70
1
 10
169.5
 20
5.5
 10
170.5
 20
5.5
 10
170.5
 20
6.5
 10
169.5
 20
6.5
  0
HATCH
  5
DD
330
17
100
AcDbEntity
  8
ZAPATAS
 62
3
100
AcDbHatch
 10
0.0
 20
0.0
 30
0.0
210
0.0
220
0.0
230
1.0
  2
SOLID
 70
1
 71
0
 91
1
 92
3
 72
0
 73
1
 93
4
 10
169.5
 20
5.5
 10
170.5
 20
5.5
 10
170.5
 20
6.5
 10
169.5
 20
6.5
 97
0
 75
0
 76
1
 98
0
  0
LWPOLYLINE
  5
DE
330
17
100
AcDbEntity
  8
ZAPATAS
100
AcDbPolyline
 90
4
 70
1
 10
179.5
 20
-6.5
 10
180.5
 20
-6.5
 10
180.5
 20
-5.5
 10
179.5
 20
-5.5
  0
HATCH
  5
DF
330
17
100
AcDbEntity
  8
ZAPATAS
 62
3
100
AcDbHatch
 10
0.0
 20
0.0
 30
0.0
210
0.0
220
0.0
230
1.0
  2
SOLID
 70
1
 71
0
 91
1
 92
3
 72
0
 73
1
 93
4
 10
179.5
 20
-6.5
 10
180.5
 20
-6.5
 10
180.5
 20
-5.5
 10
179.5
 20
-5.5
 97
0
 75
0
 76
1
 98
0
  0
LWPOLYLINE
  5
E0
330
17
100
AcDbEntity
  8
ZAPATAS
100
AcDbPolyline
 90
4
 70
1
 10
179.5
 20
5.5
 10
180.5
 20
5.5
 10
180.5
 20
6.5
 10
179.5
 20
6.5
  0
HATCH
  5
E1
330
17
100
AcDbEntity
  8
ZAPATAS
 62
3
100
AcDbHatch
 10
0.0
 20
0.0
 30
0.0
210
0.0
220
0.0
230
1.0
  2
SOLID
 70
1
 71
0
 91
1
 92
3
 72
0
 73
1
 93
4
 10
179.5
 20
5.5
 10
180.5
 20
5.5
 10
180.5
 20
6.5
 10
179.5
 20
6.5
 97
0
 75
0
 76
1
 98
0
  0
LWPOLYLINE
  5
E2
330
17
100
AcDbEntity
  8
ZAPATAS
100
AcDbPolyline
 90
4
 70
1
 10
189.5
 20
-6.5
 10
190.5
 20
-6.5
 10
190.5
 20
-5.5
 10
189.5
 20
-5.5
  0
HATCH
  5
E3
330
17
100
AcDbEntity
  8
ZAPATAS
 62
3
100
AcDbHatch
 10
0.0
 20
0.0
 30
0.0
210
0.0
220
0.0
230
1.0
  2
SOLID
 70
1
 71
0
 91
1
 92
3
 72
0
 73
1
 93
4
 10
189.5
 20
-6.5
 10
190.5
 20
-6.5
 10
190.5
 20
-5.5
 10
189.5
 20
-5.5
 97
0
 75
0
 76
1
 98
0
  0
LWPOLYLINE
  5
E4
330
17
100
AcDbEntity
  8
ZAPATAS
100
AcDbPolyline
 90
4
 70
1
 10
189.5
 20
5.5
 10
190.5
 20
5.5
 10
190.5
 20
6.5
 10
189.5
 20
6.5
  0
HATCH
  5
E5
330
17
100
AcDbEntity
  8
ZAPATAS
 62
3
100
AcDbHatch
 10
0.0
 20
0.0
 30
0.0
210
0.0
220
0.0
230
1.0
  2
SOLID
 70
1
 71
0
 91
1
 92
3
 72
0
 73
1
 93
4
 10
189.5
 20
5.5
 10
190.5
 20
5.5
 10
190.5
 20
6.5
 10
189.5
 20
6.5
 97
0
 75
0
 76
1
 98
0
  0
LWPOLYLINE
  5
E6
330
17
100
AcDbEntity
  8
ZAPATAS
100
AcDbPolyline
 90
4
 70
1
 10
199.5
 20
-6.5
 10
200.5
 20
-6.5
 10
200.5
 20
-5.5
 10
199.5
 20
-5.5
  0
HATCH
  5
E7
330
17
100
AcDbEntity
  8
ZAPATAS
 62
3
100
AcDbHatch
 10
0.0
 20
0.0
 30
0.0
210
0.0
220
0.0
230
1.0
  2
SOLID
 70
1
 71
0
 91
1
 92
3
 72
0
 73
1
 93
4
 10
199.5
 20
-6.5
 10
200.5
 20
-6.5
 10
200.5
 20
-5.5
 10
199.5
 20
-5.5
 97
0
 75
0
 76
1
 98
0
  0
LWPOLYLINE
  5
E8
330
17
100
AcDbEntity
  8
ZAPATAS
100
AcDbPolyline
 90
4
 70
1
 10
199.5
 20
5.5
 10
200.5
 20
5.5
 10
200.5
 20
6.5
 10
199.5
 20
6.5
  0
HATCH
  5
E9
330
17
100
AcDbEntity
  8
ZAPATAS
 62
3
100
AcDbHatch
 10
0.0
 20
0.0
 30
0.0
210
0.0
220
0.0
230
1.0
  2
SOLID
 70
1
 71
0
 91
1
 92
3
 72
0
 73
1
 93
4
 10
199.5
 20
5.5
 10
200.5
 20
5.5
 10
200.5
 20
6.5
 10
199.5
 20
6.5
 97
0
 75
0
 76
1
 98
0
  0
LWPOLYLINE
  5
EA
330
17
100
AcDbEntity
  8
ZAPATAS
100
AcDbPolyline
 90
4
 70
1
 10
209.5
 20
-6.5
 10
210.5
 20
-6.5
 10
210.5
 20
-5.5
 10
209.5
 20
-5.5
  0
HATCH
  5
EB
330
17
100
AcDbEntity
  8
ZAPATAS
 62
3
100
AcDbHatch
 10
0.0
 20
0.0
 30
0.0
210
0.0
220
0.0
230
1.0
  2
SOLID
 70
1
 71
0
 91
1
 92
3
 72
0
 73
1
 93
4
 10
209.5
 20
-6.5
 10
210.5
 20
-6.5
 10
210.5
 20
-5.5
 10
209.5
 20
-5.5
 97
0
 75
0
 76
1
 98
0
  0
LWPOLYLINE
  5
EC
330
17
100
AcDbEntity
  8
ZAPATAS
100
AcDbPolyline
 90
4
 70
1
 10
209.5
 20
5.5
 10
210.5
 20
5.5
 10
210.5
 20
6.5
 10
209.5
 20
6.5
  0
HATCH
  5
ED
330
17
100
AcDbEntity
  8
ZAPATAS
 62
3
100
AcDbHatch
 10
0.0
 20
0.0
 30
0.0
210
0.0
220
0.0
230
1.0
  2
SOLID
 70
1
 71
0
 91
1
 92
3
 72
0
 73
1
 93
4
 10
209.5
 20
5.5
 10
210.5
 20
5.5
 10
210.5
 20
6.5
 10
209.5
 20
6.5
 97
0
 75
0
 76
1
 98
0
  0
LWPOLYLINE
  5
EE
330
17
100
AcDbEntity
  8
ZAPATAS
100
AcDbPolyline
 90
4
 70
1
 10
219.5
 20
-6.5
 10
220.5
 20
-6.5
 10
220.5
 20
-5.5
 10
219.5
 20
-5.5
  0
HATCH
  5
EF
330
17
100
AcDbEntity
  8
ZAPATAS
 62
3
100
AcDbHatch
 10
0.0
 20
0.0
 30
0.0
210
0.0
220
0.0
230
1.0
  2
SOLID
 70
1
 71
0
 91
1
 92
3
 72
0
 73
1
 93
4
 10
219.5
 20
-6.5
 10
220.5
 20
-6.5
 10
220.5
 20
-5.5
 10
219.5
 20
-5.5
 97
0
 75
0
 76
1
 98
0
  0
LWPOLYLINE
  5
F0
330
17
100
AcDbEntity
  8
ZAPATAS
100
AcDbPolyline
 90
4
 70
1
 10
219.5
 20
5.5
 10
220.5
 20
5.5
 10
220.5
 20
6.5
 10
219.5
 20
6.5
  0
HATCH
  5
F1
330
17
100
AcDbEntity
  8
ZAPATAS
 62
3
100
AcDbHatch
 10
0.0
 20
0.0
 30
0.0
210
0.0
220
0.0
230
1.0
  2
SOLID
 70
1
 71
0
 91
1
 92
3
 72
0
 73
1
 93
4
 10
219.5
 20
5.5
 10
220.5
 20
5.5
 10
220.5
 20
6.5
 10
219.5
 20
6.5
 97
0
 75
0
 76
1
 98
0
  0
LWPOLYLINE
  5
F2
330
17
100
AcDbEntity
  8
ZAPATAS
100
AcDbPolyline
 90
4
 70
1
 10
229.5
 20
-6.5
 10
230.5
 20
-6.5
 10
230.5
 20
-5.5
 10
229.5
 20
-5.5
  0
HATCH
  5
F3
330
17
100
AcDbEntity
  8
ZAPATAS
 62
3
100
AcDbHatch
 10
0.0
 20
0.0
 30
0.0
210
0.0
220
0.0
230
1.0
  2
SOLID
 70
1
 71
0
 91
1
 92
3
 72
0
 73
1
 93
4
 10
229.5
 20
-6.5
 10
230.5
 20
-6.5
 10
230.5
 20
-5.5
 10
229.5
 20
-5.5
 97
0
 75
0
 76
1
 98
0
  0
LWPOLYLINE
  5
F4
330
17
100
AcDbEntity
  8
ZAPATAS
100
AcDbPolyline
 90
4
 70
1
 10
229.5
 20
5.5
 10
230.5
 20
5.5
 10
230.5
 20
6.5
 10
229.5
 20
6.5
  0
HATCH
  5
F5
330
17
100
AcDbEntity
  8
ZAPATAS
 62
3
100
AcDbHatch
 10
0.0
 20
0.0
 30
0.0
210
0.0
220
0.0
230
1.0
  2
SOLID
 70
1
 71
0
 91
1
 92
3
 72
0
 73
1
 93
4
 10
229.5
 20
5.5
 10
230.5
 20
5.5
 10
230.5
 20
6.5
 10
229.5
 20
6.5
 97
0
 75
0
 76
1
 98
0
  0
LWPOLYLINE
  5
F6
330
17
100
AcDbEntity
  8
ZAPATAS
100
AcDbPolyline
 90
4
 70
1
 10
239.5
 20
-6.5
 10
240.5
 20
-6.5
 10
240.5
 20
-5.5
 10
239.5
 20
-5.5
  0
HATCH
  5
F7
330
17
100
AcDbEntity
  8
ZAPATAS
 62
3
100
AcDbHatch
 10
0.0
 20
0.0
 30
0.0
210
0.0
220
0.0
230
1.0
  2
SOLID
 70
1
 71
0
 91
1
 92
3
 72
0
 73
1
 93
4
 10
239.5
 20
-6.5
 10
240.5
 20
-6.5
 10
240.5
 20
-5.5
 10
239.5
 20
-5.5
 97
0
 75
0
 76
1
 98
0
  0
LWPOLYLINE
  5
F8
330
17
100
AcDbEntity
  8
ZAPATAS
100
AcDbPolyline
 90
4
 70
1
 10
239.5
 20
5.5
 10
240.5
 20
5.5
 10
240.5
 20
6.5
 10
239.5
 20
6.5
  0
HATCH
  5
F9
330
17
100
AcDbEntity
  8
ZAPATAS
 62
3
100
AcDbHatch
 10
0.0
 20
0.0
 30
0.0
210
0.0
220
0.0
230
1.0
  2
SOLID
 70
1
 71
0
 91
1
 92
3
 72
0
 73
1
 93
4
 10
239.5
 20
5.5
 10
240.5
 20
5.5
 10
240.5
 20
6.5
 10
239.5
 20
6.5
 97
0
 75
0
 76
1
 98
0
  0
LWPOLYLINE
  5
FA
330
17
100
AcDbEntity
  8
ZAPATAS
100
AcDbPolyline
 90
4
 70
1
 10
249.5
 20
-6.5
 10
250.5
 20
-6.5
 10
250.5
 20
-5.5
 10
249.5
 20
-5.5
  0
HATCH
  5
FB
330
17
100
AcDbEntity
  8
ZAPATAS
 62
3
100
AcDbHatch
 10
0.0
 20
0.0
 30
0.0
210
0.0
220
0.0
230
1.0
  2
SOLID
 70
1
 71
0
 91
1
 92
3
 72
0
 73
1
 93
4
 10
249.5
 20
-6.5
 10
250.5
 20
-6.5
 10
250.5
 20
-5.5
 10
249.5
 20
-5.5
 97
0
 75
0
 76
1
 98
0
  0
LWPOLYLINE
  5
FC
330
17
100
AcDbEntity
  8
ZAPATAS
100
AcDbPolyline
 90
4
 70
1
 10
249.5
 20
5.5
 10
250.5
 20
5.5
 10
250.5
 20
6.5
 10
249.5
 20
6.5
  0
HATCH
  5
FD
330
17
100
AcDbEntity
  8
ZAPATAS
 62
3
100
AcDbHatch
 10
0.0
 20
0.0
 30
0.0
210
0.0
220
0.0
230
1.0
  2
SOLID
 70
1
 71
0
 91
1
 92
3
 72
0
 73
1
 93
4
 10
249.5
 20
5.5
 10
250.5
 20
5.5
 10
250.5
 20
6.5
 10
249.5
 20
6.5
 97
0
 75
0
 76
1
 98
0
  0
LWPOLYLINE
  5
FE
330
17
100
AcDbEntity
  8
ZAPATAS
100
AcDbPolyline
 90
4
 70
1
 10
259.5
 20
-6.5
 10
260.5
 20
-6.5
 10
260.5
 20
-5.5
 10
259.5
 20
-5.5
  0
HATCH
  5
FF
330
17
100
AcDbEntity
  8
ZAPATAS
 62
3
100
AcDbHatch
 10
0.0
 20
0.0
 30
0.0
210
0.0
220
0.0
230
1.0
  2
SOLID
 70
1
 71
0
 91
1
 92
3
 72
0
 73
1
 93
4
 10
259.5
 20
-6.5
 10
260.5
 20
-6.5
 10
260.5
 20
-5.5
 10
259.5
 20
-5.5
 97
0
 75
0
 76
1
 98
0
  0
LWPOLYLINE
  5
100
330
17
100
AcDbEntity
  8
ZAPATAS
100
AcDbPolyline
 90
4
 70
1
 10
259.5
 20
5.5
 10
260.5
 20
5.5
 10
260.5
 20
6.5
 10
259.5
 20
6.5
  0
HATCH
  5
101
330
17
100
AcDbEntity
  8
ZAPATAS
 62
3
100
AcDbHatch
 10
0.0
 20
0.0
 30
0.0
210
0.0
220
0.0
230
1.0
  2
SOLID
 70
1
 71
0
 91
1
 92
3
 72
0
 73
1
 93
4
 10
259.5
 20
5.5
 10
260.5
 20
5.5
 10
260.5
 20
6.5
 10
259.5
 20
6.5
 97
0
 75
0
 76
1
 98
0
  0
LWPOLYLINE
  5
102
330
17
100
AcDbEntity
  8
ZAPATAS
100
AcDbPolyline
 90
4
 70
1
 10
269.5
 20
-6.5
 10
270.5
 20
-6.5
 10
270.5
 20
-5.5
 10
269.5
 20
-5.5
  0
HATCH
  5
103
330
17
100
AcDbEntity
  8
ZAPATAS
 62
3
100
AcDbHatch
 10
0.0
 20
0.0
 30
0.0
210
0.0
220
0.0
230
1.0
  2
SOLID
 70
1
 71
0
 91
1
 92
3
 72
0
 73
1
 93
4
 10
269.5
 20
-6.5
 10
270.5
 20
-6.5
 10
270.5
 20
-5.5
 10
269.5
 20
-5.5
 97
0
 75
0
 76
1
 98
0
  0
LWPOLYLINE
  5
104
330
17
100
AcDbEntity
  8
ZAPATAS
100
AcDbPolyline
 90
4
 70
1
 10
269.5
 20
5.5
 10
270.5
 20
5.5
 10
270.5
 20
6.5
 10
269.5
 20
6.5
  0
HATCH
  5
105
330
17
100
AcDbEntity
  8
ZAPATAS
 62
3
100
AcDbHatch
 10
0.0
 20
0.0
 30
0.0
210
0.0
220
0.0
230
1.0
  2
SOLID
 70
1
 71
0
 91
1
 92
3
 72
0
 73
1
 93
4
 10
269.5
 20
5.5
 10
270.5
 20
5.5
 10
270.5
 20
6.5
 10
269.5
 20
6.5
 97
0
 75
0
 76
1
 98
0
  0
LWPOLYLINE
  5
106
330
17
100
AcDbEntity
  8
ZAPATAS
100
AcDbPolyline
 90
4
 70
1
 10
279.5
 20
-6.5
 10
280.5
 20
-6.5
 10
280.5
 20
-5.5
 10
279.5
 20
-5.5
  0
HATCH
  5
107
330
17
100
AcDbEntity
  8
ZAPATAS
 62
3
100
AcDbHatch
 10
0.0
 20
0.0
 30
0.0
210
0.0
220
0.0
230
1.0
  2
SOLID
 70
1
 71
0
 91
1
 92
3
 72
0
 73
1
 93
4
 10
279.5
 20
-6.5
 10
280.5
 20
-6.5
 10
280.5
 20
-5.5
 10
279.5
 20
-5.5
 97
0
 75
0
 76
1
 98
0
  0
LWPOLYLINE
  5
108
330
17
100
AcDbEntity
  8
ZAPATAS
100
AcDbPolyline
 90
4
 70
1
 10
279.5
 20
5.5
 10
280.5
 20
5.5
 10
280.5
 20
6.5
 10
279.5
 20
6.5
  0
HATCH
  5
109
330
17
100
AcDbEntity
  8
ZAPATAS
 62
3
100
AcDbHatch
 10
0.0
 20
0.0
 30
0.0
210
0.0
220
0.0
230
1.0
  2
SOLID
 70
1
 71
0
 91
1
 92
3
 72
0
 73
1
 93
4
 10
279.5
 20
5.5
 10
280.5
 20
5.5
 10
280.5
 20
6.5
 10
279.5
 20
6.5
 97
0
 75
0
 76
1
 98
0
  0
LWPOLYLINE
  5
10A
330
17
100
AcDbEntity
  8
ZAPATAS
100
AcDbPolyline
 90
4
 70
1
 10
289.5
 20
-6.5
 10
290.5
 20
-6.5
 10
290.5
 20
-5.5
 10
289.5
 20
-5.5
  0
HATCH
  5
10B
330
17
100
AcDbEntity
  8
ZAPATAS
 62
3
100
AcDbHatch
 10
0.0
 20
0.0
 30
0.0
210
0.0
220
0.0
230
1.0
  2
SOLID
 70
1
 71
0
 91
1
 92
3
 72
0
 73
1
 93
4
 10
289.5
 20
-6.5
 10
290.5
 20
-6.5
 10
290.5
 20
-5.5
 10
289.5
 20
-5.5
 97
0
 75
0
 76
1
 98
0
  0
LWPOLYLINE
  5
10C
330
17
100
AcDbEntity
  8
ZAPATAS
100
AcDbPolyline
 90
4
 70
1
 10
289.5
 20
5.5
 10
290.5
 20
5.5
 10
290.5
 20
6.5
 10
289.5
 20
6.5
  0
HATCH
  5
10D
330
17
100
AcDbEntity
  8
ZAPATAS
 62
3
100
AcDbHatch
 10
0.0
 20
0.0
 30
0.0
210
0.0
220
0.0
230
1.0
  2
SOLID
 70
1
 71
0
 91
1
 92
3
 72
0
 73
1
 93
4
 10
289.5
 20
5.5
 10
290.5
 20
5.5
 10
290.5
 20
6.5
 10
289.5
 20
6.5
 97
0
 75
0
 76
1
 98
0
  0
LWPOLYLINE
  5
10E
330
17
100
AcDbEntity
  8
ZAPATAS
100
AcDbPolyline
 90
4
 70
1
 10
299.5
 20
-6.5
 10
300.5
 20
-6.5
 10
300.5
 20
-5.5
 10
299.5
 20
-5.5
  0
HATCH
  5
10F
330
17
100
AcDbEntity
  8
ZAPATAS
 62
3
100
AcDbHatch
 10
0.0
 20
0.0
 30
0.0
210
0.0
220
0.0
230
1.0
  2
SOLID
 70
1
 71
0
 91
1
 92
3
 72
0
 73
1
 93
4
 10
299.5
 20
-6.5
 10
300.5
 20
-6.5
 10
300.5
 20
-5.5
 10
299.5
 20
-5.5
 97
0
 75
0
 76
1
 98
0
  0
LWPOLYLINE
  5
110
330
17
100
AcDbEntity
  8
ZAPATAS
100
AcDbPolyline
 90
4
 70
1
 10
299.5
 20
5.5
 10
300.5
 20
5.5
 10
300.5
 20
6.5
 10
299.5
 20
6.5
  0
HATCH
  5
111
330
17
100
AcDbEntity
  8
ZAPATAS
 62
3
100
AcDbHatch
 10
0.0
 20
0.0
 30
0.0
210
0.0
220
0.0
230
1.0
  2
SOLID
 70
1
 71
0
 91
1
 92
3
 72
0
 73
1
 93
4
 10
299.5
 20
5.5
 10
300.5
 20
5.5
 10
300.5
 20
6.5
 10
299.5
 20
6.5
 97
0
 75
0
 76
1
 98
0
  0
LWPOLYLINE
  5
112
330
17
100
AcDbEntity
  8
ZAPATAS
100
AcDbPolyline
 90
4
 70
1
 10
309.5
 20
-6.5
 10
310.5
 20
-6.5
 10
310.5
 20
-5.5
 10
309.5
 20
-5.5
  0
HATCH
  5
113
330
17
100
AcDbEntity
  8
ZAPATAS
 62
3
100
AcDbHatch
 10
0.0
 20
0.0
 30
0.0
210
0.0
220
0.0
230
1.0
  2
SOLID
 70
1
 71
0
 91
1
 92
3
 72
0
 73
1
 93
4
 10
309.5
 20
-6.5
 10
310.5
 20
-6.5
 10
310.5
 20
-5.5
 10
309.5
 20
-5.5
 97
0
 75
0
 76
1
 98
0
  0
LWPOLYLINE
  5
114
330
17
100
AcDbEntity
  8
ZAPATAS
100
AcDbPolyline
 90
4
 70
1
 10
309.5
 20
5.5
 10
310.5
 20
5.5
 10
310.5
 20
6.5
 10
309.5
 20
6.5
  0
HATCH
  5
115
330
17
100
AcDbEntity
  8
ZAPATAS
 62
3
100
AcDbHatch
 10
0.0
 20
0.0
 30
0.0
210
0.0
220
0.0
230
1.0
  2
SOLID
 70
1
 71
0
 91
1
 92
3
 72
0
 73
1
 93
4
 10
309.5
 20
5.5
 10
310.5
 20
5.5
 10
310.5
 20
6.5
 10
309.5
 20
6.5
 97
0
 75
0
 76
1
 98
0
  0
LWPOLYLINE
  5
116
330
17
100
AcDbEntity
  8
ZAPATAS
100
AcDbPolyline
 90
4
 70
1
 10
319.5
 20
-6.5
 10
320.5
 20
-6.5
 10
320.5
 20
-5.5
 10
319.5
 20
-5.5
  0
HATCH
  5
117
330
17
100
AcDbEntity
  8
ZAPATAS
 62
3
100
AcDbHatch
 10
0.0
 20
0.0
 30
0.0
210
0.0
220
0.0
230
1.0
  2
SOLID
 70
1
 71
0
 91
1
 92
3
 72
0
 73
1
 93
4
 10
319.5
 20
-6.5
 10
320.5
 20
-6.5
 10
320.5
 20
-5.5
 10
319.5
 20
-5.5
 97
0
 75
0
 76
1
 98
0
  0
LWPOLYLINE
  5
118
330
17
100
AcDbEntity
  8
ZAPATAS
100
AcDbPolyline
 90
4
 70
1
 10
319.5
 20
5.5
 10
320.5
 20
5.5
 10
320.5
 20
6.5
 10
319.5
 20
6.5
  0
HATCH
  5
119
330
17
100
AcDbEntity
  8
ZAPATAS
 62
3
100
AcDbHatch
 10
0.0
 20
0.0
 30
0.0
210
0.0
220
0.0
230
1.0
  2
SOLID
 70
1
 71
0
 91
1
 92
3
 72
0
 73
1
 93
4
 10
319.5
 20
5.5
 10
320.5
 20
5.5
 10
320.5
 20
6.5
 10
319.5
 20
6.5
 97
0
 75
0
 76
1
 98
0
  0
LWPOLYLINE
  5
11A
330
17
100
AcDbEntity
  8
ZAPATAS
100
AcDbPolyline
 90
4
 70
1
 10
329.5
 20
-6.5
 10
330.5
 20
-6.5
 10
330.5
 20
-5.5
 10
329.5
 20
-5.5
  0
HATCH
  5
11B
330
17
100
AcDbEntity
  8
ZAPATAS
 62
3
100
AcDbHatch
 10
0.0
 20
0.0
 30
0.0
210
0.0
220
0.0
230
1.0
  2
SOLID
 70
1
 71
0
 91
1
 92
3
 72
0
 73
1
 93
4
 10
329.5
 20
-6.5
 10
330.5
 20
-6.5
 10
330.5
 20
-5.5
 10
329.5
 20
-5.5
 97
0
 75
0
 76
1
 98
0
  0
LWPOLYLINE
  5
11C
330
17
100
AcDbEntity
  8
ZAPATAS
100
AcDbPolyline
 90
4
 70
1
 10
329.5
 20
5.5
 10
330.5
 20
5.5
 10
330.5
 20
6.5
 10
329.5
 20
6.5
  0
HATCH
  5
11D
330
17
100
AcDbEntity
  8
ZAPATAS
 62
3
100
AcDbHatch
 10
0.0
 20
0.0
 30
0.0
210
0.0
220
0.0
230
1.0
  2
SOLID
 70
1
 71
0
 91
1
 92
3
 72
0
 73
1
 93
4
 10
329.5
 20
5.5
 10
330.5
 20
5.5
 10
330.5
 20
6.5
 10
329.5
 20
6.5
 97
0
 75
0
 76
1
 98
0
  0
LWPOLYLINE
  5
11E
330
17
100
AcDbEntity
  8
ZAPATAS
100
AcDbPolyline
 90
4
 70
1
 10
339.5
 20
-6.5
 10
340.5
 20
-6.5
 10
340.5
 20
-5.5
 10
339.5
 20
-5.5
  0
HATCH
  5
11F
330
17
100
AcDbEntity
  8
ZAPATAS
 62
3
100
AcDbHatch
 10
0.0
 20
0.0
 30
0.0
210
0.0
220
0.0
230
1.0
  2
SOLID
 70
1
 71
0
 91
1
 92
3
 72
0
 73
1
 93
4
 10
339.5
 20
-6.5
 10
340.5
 20
-6.5
 10
340.5
 20
-5.5
 10
339.5
 20
-5.5
 97
0
 75
0
 76
1
 98
0
  0
LWPOLYLINE
  5
120
330
17
100
AcDbEntity
  8
ZAPATAS
100
AcDbPolyline
 90
4
 70
1
 10
339.5
 20
5.5
 10
340.5
 20
5.5
 10
340.5
 20
6.5
 10
339.5
 20
6.5
  0
HATCH
  5
121
330
17
100
AcDbEntity
  8
ZAPATAS
 62
3
100
AcDbHatch
 10
0.0
 20
0.0
 30
0.0
210
0.0
220
0.0
230
1.0
  2
SOLID
 70
1
 71
0
 91
1
 92
3
 72
0
 73
1
 93
4
 10
339.5
 20
5.5
 10
340.5
 20
5.5
 10
340.5
 20
6.5
 10
339.5
 20
6.5
 97
0
 75
0
 76
1
 98
0
  0
LWPOLYLINE
  5
122
330
17
100
AcDbEntity
  8
ZAPATAS
100
AcDbPolyline
 90
4
 70
1
 10
349.5
 20
-6.5
 10
350.5
 20
-6.5
 10
350.5
 20
-5.5
 10
349.5
 20
-5.5
  0
HATCH
  5
123
330
17
100
AcDbEntity
  8
ZAPATAS
 62
3
100
AcDbHatch
 10
0.0
 20
0.0
 30
0.0
210
0.0
220
0.0
230
1.0
  2
SOLID
 70
1
 71
0
 91
1
 92
3
 72
0
 73
1
 93
4
 10
349.5
 20
-6.5
 10
350.5
 20
-6.5
 10
350.5
 20
-5.5
 10
349.5
 20
-5.5
 97
0
 75
0
 76
1
 98
0
  0
LWPOLYLINE
  5
124
330
17
100
AcDbEntity
  8
ZAPATAS
100
AcDbPolyline
 90
4
 70
1
 10
349.5
 20
5.5
 10
350.5
 20
5.5
 10
350.5
 20
6.5
 10
349.5
 20
6.5
  0
HATCH
  5
125
330
17
100
AcDbEntity
  8
ZAPATAS
 62
3
100
AcDbHatch
 10
0.0
 20
0.0
 30
0.0
210
0.0
220
0.0
230
1.0
  2
SOLID
 70
1
 71
0
 91
1
 92
3
 72
0
 73
1
 93
4
 10
349.5
 20
5.5
 10
350.5
 20
5.5
 10
350.5
 20
6.5
 10
349.5
 20
6.5
 97
0
 75
0
 76
1
 98
0
  0
LWPOLYLINE
  5
126
330
17
100
AcDbEntity
  8
ZAPATAS
100
AcDbPolyline
 90
4
 70
1
 10
359.5
 20
-6.5
 10
360.5
 20
-6.5
 10
360.5
 20
-5.5
 10
359.5
 20
-5.5
  0
HATCH
  5
127
330
17
100
AcDbEntity
  8
ZAPATAS
 62
3
100
AcDbHatch
 10
0.0
 20
0.0
 30
0.0
210
0.0
220
0.0
230
1.0
  2
SOLID
 70
1
 71
0
 91
1
 92
3
 72
0
 73
1
 93
4
 10
359.5
 20
-6.5
 10
360.5
 20
-6.5
 10
360.5
 20
-5.5
 10
359.5
 20
-5.5
 97
0
 75
0
 76
1
 98
0
  0
LWPOLYLINE
  5
128
330
17
100
AcDbEntity
  8
ZAPATAS
100
AcDbPolyline
 90
4
 70
1
 10
359.5
 20
5.5
 10
360.5
 20
5.5
 10
360.5
 20
6.5
 10
359.5
 20
6.5
  0
HATCH
  5
129
330
17
100
AcDbEntity
  8
ZAPATAS
 62
3
100
AcDbHatch
 10
0.0
 20
0.0
 30
0.0
210
0.0
220
0.0
230
1.0
  2
SOLID
 70
1
 71
0
 91
1
 92
3
 72
0
 73
1
 93
4
 10
359.5
 20
5.5
 10
360.5
 20
5.5
 10
360.5
 20
6.5
 10
359.5
 20
6.5
 97
0
 75
0
 76
1
 98
0
  0
LWPOLYLINE
  5
12A
330
17
100
AcDbEntity
  8
ZAPATAS
100
AcDbPolyline
 90
4
 70
1
 10
369.5
 20
-6.5
 10
370.5
 20
-6.5
 10
370.5
 20
-5.5
 10
369.5
 20
-5.5
  0
HATCH
  5
12B
330
17
100
AcDbEntity
  8
ZAPATAS
 62
3
100
AcDbHatch
 10
0.0
 20
0.0
 30
0.0
210
0.0
220
0.0
230
1.0
  2
SOLID
 70
1
 71
0
 91
1
 92
3
 72
0
 73
1
 93
4
 10
369.5
 20
-6.5
 10
370.5
 20
-6.5
 10
370.5
 20
-5.5
 10
369.5
 20
-5.5
 97
0
 75
0
 76
1
 98
0
  0
LWPOLYLINE
  5
12C
330
17
100
AcDbEntity
  8
ZAPATAS
100
AcDbPolyline
 90
4
 70
1
 10
369.5
 20
5.5
 10
370.5
 20
5.5
 10
370.5
 20
6.5
 10
369.5
 20
6.5
  0
HATCH
  5
12D
330
17
100
AcDbEntity
  8
ZAPATAS
 62
3
100
AcDbHatch
 10
0.0
 20
0.0
 30
0.0
210
0.0
220
0.0
230
1.0
  2
SOLID
 70
1
 71
0
 91
1
 92
3
 72
0
 73
1
 93
4
 10
369.5
 20
5.5
 10
370.5
 20
5.5
 10
370.5
 20
6.5
 10
369.5
 20
6.5
 97
0
 75
0
 76
1
 98
0
  0
LWPOLYLINE
  5
12E
330
17
100
AcDbEntity
  8
ZAPATAS
100
AcDbPolyline
 90
4
 70
1
 10
379.5
 20
-6.5
 10
380.5
 20
-6.5
 10
380.5
 20
-5.5
 10
379.5
 20
-5.5
  0
HATCH
  5
12F
330
17
100
AcDbEntity
  8
ZAPATAS
 62
3
100
AcDbHatch
 10
0.0
 20
0.0
 30
0.0
210
0.0
220
0.0
230
1.0
  2
SOLID
 70
1
 71
0
 91
1
 92
3
 72
0
 73
1
 93
4
 10
379.5
 20
-6.5
 10
380.5
 20
-6.5
 10
380.5
 20
-5.5
 10
379.5
 20
-5.5
 97
0
 75
0
 76
1
 98
0
  0
LWPOLYLINE
  5
130
330
17
100
AcDbEntity
  8
ZAPATAS
100
AcDbPolyline
 90
4
 70
1
 10
379.5
 20
5.5
 10
380.5
 20
5.5
 10
380.5
 20
6.5
 10
379.5
 20
6.5
  0
HATCH
  5
131
330
17
100
AcDbEntity
  8
ZAPATAS
 62
3
100
AcDbHatch
 10
0.0
 20
0.0
 30
0.0
210
0.0
220
0.0
230
1.0
  2
SOLID
 70
1
 71
0
 91
1
 92
3
 72
0
 73
1
 93
4
 10
379.5
 20
5.5
 10
380.5
 20
5.5
 10
380.5
 20
6.5
 10
379.5
 20
6.5
 97
0
 75
0
 76
1
 98
0
  0
LWPOLYLINE
  5
132
330
17
100
AcDbEntity
  8
ZAPATAS
100
AcDbPolyline
 90
4
 70
1
 10
389.5
 20
-6.5
 10
390.5
 20
-6.5
 10
390.5
 20
-5.5
 10
389.5
 20
-5.5
  0
HATCH
  5
133
330
17
100
AcDbEntity
  8
ZAPATAS
 62
3
100
AcDbHatch
 10
0.0
 20
0.0
 30
0.0
210
0.0
220
0.0
230
1.0
  2
SOLID
 70
1
 71
0
 91
1
 92
3
 72
0
 73
1
 93
4
 10
389.5
 20
-6.5
 10
390.5
 20
-6.5
 10
390.5
 20
-5.5
 10
389.5
 20
-5.5
 97
0
 75
0
 76
1
 98
0
  0
LWPOLYLINE
  5
134
330
17
100
AcDbEntity
  8
ZAPATAS
100
AcDbPolyline
 90
4
 70
1
 10
389.5
 20
5.5
 10
390.5
 20
5.5
 10
390.5
 20
6.5
 10
389.5
 20
6.5
  0
HATCH
  5
135
330
17
100
AcDbEntity
  8
ZAPATAS
 62
3
100
AcDbHatch
 10
0.0
 20
0.0
 30
0.0
210
0.0
220
0.0
230
1.0
  2
SOLID
 70
1
 71
0
 91
1
 92
3
 72
0
 73
1
 93
4
 10
389.5
 20
5.5
 10
390.5
 20
5.5
 10
390.5
 20
6.5
 10
389.5
 20
6.5
 97
0
 75
0
 76
1
 98
0
  0
LWPOLYLINE
  5
136
330
17
100
AcDbEntity
  8
ZAPATAS
100
AcDbPolyline
 90
4
 70
1
 10
399.5
 20
-6.5
 10
400.5
 20
-6.5
 10
400.5
 20
-5.5
 10
399.5
 20
-5.5
  0
HATCH
  5
137
330
17
100
AcDbEntity
  8
ZAPATAS
 62
3
100
AcDbHatch
 10
0.0
 20
0.0
 30
0.0
210
0.0
220
0.0
230
1.0
  2
SOLID
 70
1
 71
0
 91
1
 92
3
 72
0
 73
1
 93
4
 10
399.5
 20
-6.5
 10
400.5
 20
-6.5
 10
400.5
 20
-5.5
 10
399.5
 20
-5.5
 97
0
 75
0
 76
1
 98
0
  0
LWPOLYLINE
  5
138
330
17
100
AcDbEntity
  8
ZAPATAS
100
AcDbPolyline
 90
4
 70
1
 10
399.5
 20
5.5
 10
400.5
 20
5.5
 10
400.5
 20
6.5
 10
399.5
 20
6.5
  0
HATCH
  5
139
330
17
100
AcDbEntity
  8
ZAPATAS
 62
3
100
AcDbHatch
 10
0.0
 20
0.0
 30
0.0
210
0.0
220
0.0
230
1.0
  2
SOLID
 70
1
 71
0
 91
1
 92
3
 72
0
 73
1
 93
4
 10
399.5
 20
5.5
 10
400.5
 20
5.5
 10
400.5
 20
6.5
 10
399.5
 20
6.5
 97
0
 75
0
 76
1
 98
0
  0
LWPOLYLINE
  5
13A
330
17
100
AcDbEntity
  8
ZAPATAS
100
AcDbPolyline
 90
4
 70
1
 10
409.5
 20
-6.5
 10
410.5
 20
-6.5
 10
410.5
 20
-5.5
 10
409.5
 20
-5.5
  0
HATCH
  5
13B
330
17
100
AcDbEntity
  8
ZAPATAS
 62
3
100
AcDbHatch
 10
0.0
 20
0.0
 30
0.0
210
0.0
220
0.0
230
1.0
  2
SOLID
 70
1
 71
0
 91
1
 92
3
 72
0
 73
1
 93
4
 10
409.5
 20
-6.5
 10
410.5
 20
-6.5
 10
410.5
 20
-5.5
 10
409.5
 20
-5.5
 97
0
 75
0
 76
1
 98
0
  0
LWPOLYLINE
  5
13C
330
17
100
AcDbEntity
  8
ZAPATAS
100
AcDbPolyline
 90
4
 70
1
 10
409.5
 20
5.5
 10
410.5
 20
5.5
 10
410.5
 20
6.5
 10
409.5
 20
6.5
  0
HATCH
  5
13D
330
17
100
AcDbEntity
  8
ZAPATAS
 62
3
100
AcDbHatch
 10
0.0
 20
0.0
 30
0.0
210
0.0
220
0.0
230
1.0
  2
SOLID
 70
1
 71
0
 91
1
 92
3
 72
0
 73
1
 93
4
 10
409.5
 20
5.5
 10
410.5
 20
5.5
 10
410.5
 20
6.5
 10
409.5
 20
6.5
 97
0
 75
0
 76
1
 98
0
  0
LWPOLYLINE
  5
13E
330
17
100
AcDbEntity
  8
ZAPATAS
100
AcDbPolyline
 90
4
 70
1
 10
419.5
 20
-6.5
 10
420.5
 20
-6.5
 10
420.5
 20
-5.5
 10
419.5
 20
-5.5
  0
HATCH
  5
13F
330
17
100
AcDbEntity
  8
ZAPATAS
 62
3
100
AcDbHatch
 10
0.0
 20
0.0
 30
0.0
210
0.0
220
0.0
230
1.0
  2
SOLID
 70
1
 71
0
 91
1
 92
3
 72
0
 73
1
 93
4
 10
419.5
 20
-6.5
 10
420.5
 20
-6.5
 10
420.5
 20
-5.5
 10
419.5
 20
-5.5
 97
0
 75
0
 76
1
 98
0
  0
LWPOLYLINE
  5
140
330
17
100
AcDbEntity
  8
ZAPATAS
100
AcDbPolyline
 90
4
 70
1
 10
419.5
 20
5.5
 10
420.5
 20
5.5
 10
420.5
 20
6.5
 10
419.5
 20
6.5
  0
HATCH
  5
141
330
17
100
AcDbEntity
  8
ZAPATAS
 62
3
100
AcDbHatch
 10
0.0
 20
0.0
 30
0.0
210
0.0
220
0.0
230
1.0
  2
SOLID
 70
1
 71
0
 91
1
 92
3
 72
0
 73
1
 93
4
 10
419.5
 20
5.5
 10
420.5
 20
5.5
 10
420.5
 20
6.5
 10
419.5
 20
6.5
 97
0
 75
0
 76
1
 98
0
  0
LWPOLYLINE
  5
142
330
17
100
AcDbEntity
  8
ZAPATAS
100
AcDbPolyline
 90
4
 70
1
 10
429.5
 20
-6.5
 10
430.5
 20
-6.5
 10
430.5
 20
-5.5
 10
429.5
 20
-5.5
  0
HATCH
  5
143
330
17
100
AcDbEntity
  8
ZAPATAS
 62
3
100
AcDbHatch
 10
0.0
 20
0.0
 30
0.0
210
0.0
220
0.0
230
1.0
  2
SOLID
 70
1
 71
0
 91
1
 92
3
 72
0
 73
1
 93
4
 10
429.5
 20
-6.5
 10
430.5
 20
-6.5
 10
430.5
 20
-5.5
 10
429.5
 20
-5.5
 97
0
 75
0
 76
1
 98
0
  0
LWPOLYLINE
  5
144
330
17
100
AcDbEntity
  8
ZAPATAS
100
AcDbPolyline
 90
4
 70
1
 10
429.5
 20
5.5
 10
430.5
 20
5.5
 10
430.5
 20
6.5
 10
429.5
 20
6.5
  0
HATCH
  5
145
330
17
100
AcDbEntity
  8
ZAPATAS
 62
3
100
AcDbHatch
 10
0.0
 20
0.0
 30
0.0
210
0.0
220
0.0
230
1.0
  2
SOLID
 70
1
 71
0
 91
1
 92
3
 72
0
 73
1
 93
4
 10
429.5
 20
5.5
 10
430.5
 20
5.5
 10
430.5
 20
6.5
 10
429.5
 20
6.5
 97
0
 75
0
 76
1
 98
0
  0
LWPOLYLINE
  5
146
330
17
100
AcDbEntity
  8
ZAPATAS
100
AcDbPolyline
 90
4
 70
1
 10
439.5
 20
-6.5
 10
440.5
 20
-6.5
 10
440.5
 20
-5.5
 10
439.5
 20
-5.5
  0
HATCH
  5
147
330
17
100
AcDbEntity
  8
ZAPATAS
 62
3
100
AcDbHatch
 10
0.0
 20
0.0
 30
0.0
210
0.0
220
0.0
230
1.0
  2
SOLID
 70
1
 71
0
 91
1
 92
3
 72
0
 73
1
 93
4
 10
439.5
 20
-6.5
 10
440.5
 20
-6.5
 10
440.5
 20
-5.5
 10
439.5
 20
-5.5
 97
0
 75
0
 76
1
 98
0
  0
LWPOLYLINE
  5
148
330
17
100
AcDbEntity
  8
ZAPATAS
100
AcDbPolyline
 90
4
 70
1
 10
439.5
 20
5.5
 10
440.5
 20
5.5
 10
440.5
 20
6.5
 10
439.5
 20
6.5
  0
HATCH
  5
149
330
17
100
AcDbEntity
  8
ZAPATAS
 62
3
100
AcDbHatch
 10
0.0
 20
0.0
 30
0.0
210
0.0
220
0.0
230
1.0
  2
SOLID
 70
1
 71
0
 91
1
 92
3
 72
0
 73
1
 93
4
 10
439.5
 20
5.5
 10
440.5
 20
5.5
 10
440.5
 20
6.5
 10
439.5
 20
6.5
 97
0
 75
0
 76
1
 98
0
  0
LWPOLYLINE
  5
14A
330
17
100
AcDbEntity
  8
ZAPATAS
100
AcDbPolyline
 90
4
 70
1
 10
449.5
 20
-6.5
 10
450.5
 20
-6.5
 10
450.5
 20
-5.5
 10
449.5
 20
-5.5
  0
HATCH
  5
14B
330
17
100
AcDbEntity
  8
ZAPATAS
 62
3
100
AcDbHatch
 10
0.0
 20
0.0
 30
0.0
210
0.0
220
0.0
230
1.0
  2
SOLID
 70
1
 71
0
 91
1
 92
3
 72
0
 73
1
 93
4
 10
449.5
 20
-6.5
 10
450.5
 20
-6.5
 10
450.5
 20
-5.5
 10
449.5
 20
-5.5
 97
0
 75
0
 76
1
 98
0
  0
LWPOLYLINE
  5
14C
330
17
100
AcDbEntity
  8
ZAPATAS
100
AcDbPolyline
 90
4
 70
1
 10
449.5
 20
5.5
 10
450.5
 20
5.5
 10
450.5
 20
6.5
 10
449.5
 20
6.5
  0
HATCH
  5
14D
330
17
100
AcDbEntity
  8
ZAPATAS
 62
3
100
AcDbHatch
 10
0.0
 20
0.0
 30
0.0
210
0.0
220
0.0
230
1.0
  2
SOLID
 70
1
 71
0
 91
1
 92
3
 72
0
 73
1
 93
4
 10
449.5
 20
5.5
 10
450.5
 20
5.5
 10
450.5
 20
6.5
 10
449.5
 20
6.5
 97
0
 75
0
 76
1
 98
0
  0
LWPOLYLINE
  5
14E
330
17
100
AcDbEntity
  8
ZAPATAS
100
AcDbPolyline
 90
4
 70
1
 10
459.5
 20
-6.5
 10
460.5
 20
-6.5
 10
460.5
 20
-5.5
 10
459.5
 20
-5.5
  0
HATCH
  5
14F
330
17
100
AcDbEntity
  8
ZAPATAS
 62
3
100
AcDbHatch
 10
0.0
 20
0.0
 30
0.0
210
0.0
220
0.0
230
1.0
  2
SOLID
 70
1
 71
0
 91
1
 92
3
 72
0
 73
1
 93
4
 10
459.5
 20
-6.5
 10
460.5
 20
-6.5
 10
460.5
 20
-5.5
 10
459.5
 20
-5.5
 97
0
 75
0
 76
1
 98
0
  0
LWPOLYLINE
  5
150
330
17
100
AcDbEntity
  8
ZAPATAS
100
AcDbPolyline
 90
4
 70
1
 10
459.5
 20
5.5
 10
460.5
 20
5.5
 10
460.5
 20
6.5
 10
459.5
 20
6.5
  0
HATCH
  5
151
330
17
100
AcDbEntity
  8
ZAPATAS
 62
3
100
AcDbHatch
 10
0.0
 20
0.0
 30
0.0
210
0.0
220
0.0
230
1.0
  2
SOLID
 70
1
 71
0
 91
1
 92
3
 72
0
 73
1
 93
4
 10
459.5
 20
5.5
 10
460.5
 20
5.5
 10
460.5
 20
6.5
 10
459.5
 20
6.5
 97
0
 75
0
 76
1
 98
0
  0
LWPOLYLINE
  5
152
330
17
100
AcDbEntity
  8
ZAPATAS
100
AcDbPolyline
 90
4
 70
1
 10
469.5
 20
-6.5
 10
470.5
 20
-6.5
 10
470.5
 20
-5.5
 10
469.5
 20
-5.5
  0
HATCH
  5
153
330
17
100
AcDbEntity
  8
ZAPATAS
 62
3
100
AcDbHatch
 10
0.0
 20
0.0
 30
0.0
210
0.0
220
0.0
230
1.0
  2
SOLID
 70
1
 71
0
 91
1
 92
3
 72
0
 73
1
 93
4
 10
469.5
 20
-6.5
 10
470.5
 20
-6.5
 10
470.5
 20
-5.5
 10
469.5
 20
-5.5
 97
0
 75
0
 76
1
 98
0
  0
LWPOLYLINE
  5
154
330
17
100
AcDbEntity
  8
ZAPATAS
100
AcDbPolyline
 90
4
 70
1
 10
469.5
 20
5.5
 10
470.5
 20
5.5
 10
470.5
 20
6.5
 10
469.5
 20
6.5
  0
HATCH
  5
155
330
17
100
AcDbEntity
  8
ZAPATAS
 62
3
100
AcDbHatch
 10
0.0
 20
0.0
 30
0.0
210
0.0
220
0.0
230
1.0
  2
SOLID
 70
1
 71
0
 91
1
 92
3
 72
0
 73
1
 93
4
 10
469.5
 20
5.5
 10
470.5
 20
5.5
 10
470.5
 20
6.5
 10
469.5
 20
6.5
 97
0
 75
0
 76
1
 98
0
  0
LWPOLYLINE
  5
156
330
17
100
AcDbEntity
  8
ZAPATAS
100
AcDbPolyline
 90
4
 70
1
 10
479.5
 20
-6.5
 10
480.5
 20
-6.5
 10
480.5
 20
-5.5
 10
479.5
 20
-5.5
  0
HATCH
  5
157
330
17
100
AcDbEntity
  8
ZAPATAS
 62
3
100
AcDbHatch
 10
0.0
 20
0.0
 30
0.0
210
0.0
220
0.0
230
1.0
  2
SOLID
 70
1
 71
0
 91
1
 92
3
 72
0
 73
1
 93
4
 10
479.5
 20
-6.5
 10
480.5
 20
-6.5
 10
480.5
 20
-5.5
 10
479.5
 20
-5.5
 97
0
 75
0
 76
1
 98
0
  0
LWPOLYLINE
  5
158
330
17
100
AcDbEntity
  8
ZAPATAS
100
AcDbPolyline
 90
4
 70
1
 10
479.5
 20
5.5
 10
480.5
 20
5.5
 10
480.5
 20
6.5
 10
479.5
 20
6.5
  0
HATCH
  5
159
330
17
100
AcDbEntity
  8
ZAPATAS
 62
3
100
AcDbHatch
 10
0.0
 20
0.0
 30
0.0
210
0.0
220
0.0
230
1.0
  2
SOLID
 70
1
 71
0
 91
1
 92
3
 72
0
 73
1
 93
4
 10
479.5
 20
5.5
 10
480.5
 20
5.5
 10
480.5
 20
6.5
 10
479.5
 20
6.5
 97
0
 75
0
 76
1
 98
0
  0
LWPOLYLINE
  5
15A
330
17
100
AcDbEntity
  8
ZAPATAS
100
AcDbPolyline
 90
4
 70
1
 10
489.5
 20
-6.5
 10
490.5
 20
-6.5
 10
490.5
 20
-5.5
 10
489.5
 20
-5.5
  0
HATCH
  5
15B
330
17
100
AcDbEntity
  8
ZAPATAS
 62
3
100
AcDbHatch
 10
0.0
 20
0.0
 30
0.0
210
0.0
220
0.0
230
1.0
  2
SOLID
 70
1
 71
0
 91
1
 92
3
 72
0
 73
1
 93
4
 10
489.5
 20
-6.5
 10
490.5
 20
-6.5
 10
490.5
 20
-5.5
 10
489.5
 20
-5.5
 97
0
 75
0
 76
1
 98
0
  0
LWPOLYLINE
  5
15C
330
17
100
AcDbEntity
  8
ZAPATAS
100
AcDbPolyline
 90
4
 70
1
 10
489.5
 20
5.5
 10
490.5
 20
5.5
 10
490.5
 20
6.5
 10
489.5
 20
6.5
  0
HATCH
  5
15D
330
17
100
AcDbEntity
  8
ZAPATAS
 62
3
100
AcDbHatch
 10
0.0
 20
0.0
 30
0.0
210
0.0
220
0.0
230
1.0
  2
SOLID
 70
1
 71
0
 91
1
 92
3
 72
0
 73
1
 93
4
 10
489.5
 20
5.5
 10
490.5
 20
5.5
 10
490.5
 20
6.5
 10
489.5
 20
6.5
 97
0
 75
0
 76
1
 98
0
  0
LWPOLYLINE
  5
15E
330
17
100
AcDbEntity
  8
ZAPATAS
100
AcDbPolyline
 90
4
 70
1
 10
499.5
 20
-6.5
 10
500.5
 20
-6.5
 10
500.5
 20
-5.5
 10
499.5
 20
-5.5
  0
HATCH
  5
15F
330
17
100
AcDbEntity
  8
ZAPATAS
 62
3
100
AcDbHatch
 10
0.0
 20
0.0
 30
0.0
210
0.0
220
0.0
230
1.0
  2
SOLID
 70
1
 71
0
 91
1
 92
3
 72
0
 73
1
 93
4
 10
499.5
 20
-6.5
 10
500.5
 20
-6.5
 10
500.5
 20
-5.5
 10
499.5
 20
-5.5
 97
0
 75
0
 76
1
 98
0
  0
LWPOLYLINE
  5
160
330
17
100
AcDbEntity
  8
ZAPATAS
100
AcDbPolyline
 90
4
 70
1
 10
499.5
 20
5.5
 10
500.5
 20
5.5
 10
500.5
 20
6.5
 10
499.5
 20
6.5
  0
HATCH
  5
161
330
17
100
AcDbEntity
  8
ZAPATAS
 62
3
100
AcDbHatch
 10
0.0
 20
0.0
 30
0.0
210
0.0
220
0.0
230
1.0
  2
SOLID
 70
1
 71
0
 91
1
 92
3
 72
0
 73
1
 93
4
 10
499.5
 20
5.5
 10
500.5
 20
5.5
 10
500.5
 20
6.5
 10
499.5
 20
6.5
 97
0
 75
0
 76
1
 98
0
  0
LWPOLYLINE
  5
162
330
17
100
AcDbEntity
  8
ZAPATAS
100
AcDbPolyline
 90
4
 70
1
 10
509.5
 20
-6.5
 10
510.5
 20
-6.5
 10
510.5
 20
-5.5
 10
509.5
 20
-5.5
  0
HATCH
  5
163
330
17
100
AcDbEntity
  8
ZAPATAS
 62
3
100
AcDbHatch
 10
0.0
 20
0.0
 30
0.0
210
0.0
220
0.0
230
1.0
  2
SOLID
 70
1
 71
0
 91
1
 92
3
 72
0
 73
1
 93
4
 10
509.5
 20
-6.5
 10
510.5
 20
-6.5
 10
510.5
 20
-5.5
 10
509.5
 20
-5.5
 97
0
 75
0
 76
1
 98
0
  0
LWPOLYLINE
  5
164
330
17
100
AcDbEntity
  8
ZAPATAS
100
AcDbPolyline
 90
4
 70
1
 10
509.5
 20
5.5
 10
510.5
 20
5.5
 10
510.5
 20
6.5
 10
509.5
 20
6.5
  0
HATCH
  5
165
330
17
100
AcDbEntity
  8
ZAPATAS
 62
3
100
AcDbHatch
 10
0.0
 20
0.0
 30
0.0
210
0.0
220
0.0
230
1.0
  2
SOLID
 70
1
 71
0
 91
1
 92
3
 72
0
 73
1
 93
4
 10
509.5
 20
5.5
 10
510.5
 20
5.5
 10
510.5
 20
6.5
 10
509.5
 20
6.5
 97
0
 75
0
 76
1
 98
0
  0
LWPOLYLINE
  5
166
330
17
100
AcDbEntity
  8
ZAPATAS
100
AcDbPolyline
 90
4
 70
1
 10
519.5
 20
-6.5
 10
520.5
 20
-6.5
 10
520.5
 20
-5.5
 10
519.5
 20
-5.5
  0
HATCH
  5
167
330
17
100
AcDbEntity
  8
ZAPATAS
 62
3
100
AcDbHatch
 10
0.0
 20
0.0
 30
0.0
210
0.0
220
0.0
230
1.0
  2
SOLID
 70
1
 71
0
 91
1
 92
3
 72
0
 73
1
 93
4
 10
519.5
 20
-6.5
 10
520.5
 20
-6.5
 10
520.5
 20
-5.5
 10
519.5
 20
-5.5
 97
0
 75
0
 76
1
 98
0
  0
LWPOLYLINE
  5
168
330
17
100
AcDbEntity
  8
ZAPATAS
100
AcDbPolyline
 90
4
 70
1
 10
519.5
 20
5.5
 10
520.5
 20
5.5
 10
520.5
 20
6.5
 10
519.5
 20
6.5
  0
HATCH
  5
169
330
17
100
AcDbEntity
  8
ZAPATAS
 62
3
100
AcDbHatch
 10
0.0
 20
0.0
 30
0.0
210
0.0
220
0.0
230
1.0
  2
SOLID
 70
1
 71
0
 91
1
 92
3
 72
0
 73
1
 93
4
 10
519.5
 20
5.5
 10
520.5
 20
5.5
 10
520.5
 20
6.5
 10
519.5
 20
6.5
 97
0
 75
0
 76
1
 98
0
  0
LWPOLYLINE
  5
16A
330
17
100
AcDbEntity
  8
ZAPATAS
100
AcDbPolyline
 90
4
 70
1
 10
529.5
 20
-6.5
 10
530.5
 20
-6.5
 10
530.5
 20
-5.5
 10
529.5
 20
-5.5
  0
HATCH
  5
16B
330
17
100
AcDbEntity
  8
ZAPATAS
 62
3
100
AcDbHatch
 10
0.0
 20
0.0
 30
0.0
210
0.0
220
0.0
230
1.0
  2
SOLID
 70
1
 71
0
 91
1
 92
3
 72
0
 73
1
 93
4
 10
529.5
 20
-6.5
 10
530.5
 20
-6.5
 10
530.5
 20
-5.5
 10
529.5
 20
-5.5
 97
0
 75
0
 76
1
 98
0
  0
LWPOLYLINE
  5
16C
330
17
100
AcDbEntity
  8
ZAPATAS
100
AcDbPolyline
 90
4
 70
1
 10
529.5
 20
5.5
 10
530.5
 20
5.5
 10
530.5
 20
6.5
 10
529.5
 20
6.5
  0
HATCH
  5
16D
330
17
100
AcDbEntity
  8
ZAPATAS
 62
3
100
AcDbHatch
 10
0.0
 20
0.0
 30
0.0
210
0.0
220
0.0
230
1.0
  2
SOLID
 70
1
 71
0
 91
1
 92
3
 72
0
 73
1
 93
4
 10
529.5
 20
5.5
 10
530.5
 20
5.5
 10
530.5
 20
6.5
 10
529.5
 20
6.5
 97
0
 75
0
 76
1
 98
0
  0
LWPOLYLINE
  5
16E
330
17
100
AcDbEntity
  8
ZAPATAS
100
AcDbPolyline
 90
4
 70
1
 10
539.5
 20
-6.5
 10
540.5
 20
-6.5
 10
540.5
 20
-5.5
 10
539.5
 20
-5.5
  0
HATCH
  5
16F
330
17
100
AcDbEntity
  8
ZAPATAS
 62
3
100
AcDbHatch
 10
0.0
 20
0.0
 30
0.0
210
0.0
220
0.0
230
1.0
  2
SOLID
 70
1
 71
0
 91
1
 92
3
 72
0
 73
1
 93
4
 10
539.5
 20
-6.5
 10
540.5
 20
-6.5
 10
540.5
 20
-5.5
 10
539.5
 20
-5.5
 97
0
 75
0
 76
1
 98
0
  0
LWPOLYLINE
  5
170
330
17
100
AcDbEntity
  8
ZAPATAS
100
AcDbPolyline
 90
4
 70
1
 10
539.5
 20
5.5
 10
540.5
 20
5.5
 10
540.5
 20
6.5
 10
539.5
 20
6.5
  0
HATCH
  5
171
330
17
100
AcDbEntity
  8
ZAPATAS
 62
3
100
AcDbHatch
 10
0.0
 20
0.0
 30
0.0
210
0.0
220
0.0
230
1.0
  2
SOLID
 70
1
 71
0
 91
1
 92
3
 72
0
 73
1
 93
4
 10
539.5
 20
5.5
 10
540.5
 20
5.5
 10
540.5
 20
6.5
 10
539.5
 20
6.5
 97
0
 75
0
 76
1
 98
0
  0
LWPOLYLINE
  5
172
330
17
100
AcDbEntity
  8
ZAPATAS
100
AcDbPolyline
 90
4
 70
1
 10
549.5
 20
-6.5
 10
550.5
 20
-6.5
 10
550.5
 20
-5.5
 10
549.5
 20
-5.5
  0
HATCH
  5
173
330
17
100
AcDbEntity
  8
ZAPATAS
 62
3
100
AcDbHatch
 10
0.0
 20
0.0
 30
0.0
210
0.0
220
0.0
230
1.0
  2
SOLID
 70
1
 71
0
 91
1
 92
3
 72
0
 73
1
 93
4
 10
549.5
 20
-6.5
 10
550.5
 20
-6.5
 10
550.5
 20
-5.5
 10
549.5
 20
-5.5
 97
0
 75
0
 76
1
 98
0
  0
LWPOLYLINE
  5
174
330
17
100
AcDbEntity
  8
ZAPATAS
100
AcDbPolyline
 90
4
 70
1
 10
549.5
 20
5.5
 10
550.5
 20
5.5
 10
550.5
 20
6.5
 10
549.5
 20
6.5
  0
HATCH
  5
175
330
17
100
AcDbEntity
  8
ZAPATAS
 62
3
100
AcDbHatch
 10
0.0
 20
0.0
 30
0.0
210
0.0
220
0.0
230
1.0
  2
SOLID
 70
1
 71
0
 91
1
 92
3
 72
0
 73
1
 93
4
 10
549.5
 20
5.5
 10
550.5
 20
5.5
 10
550.5
 20
6.5
 10
549.5
 20
6.5
 97
0
 75
0
 76
1
 98
0
  0
LWPOLYLINE
  5
176
330
17
100
AcDbEntity
  8
ZAPATAS
100
AcDbPolyline
 90
4
 70
1
 10
559.5
 20
-6.5
 10
560.5
 20
-6.5
 10
560.5
 20
-5.5
 10
559.5
 20
-5.5
  0
HATCH
  5
177
330
17
100
AcDbEntity
  8
ZAPATAS
 62
3
100
AcDbHatch
 10
0.0
 20
0.0
 30
0.0
210
0.0
220
0.0
230
1.0
  2
SOLID
 70
1
 71
0
 91
1
 92
3
 72
0
 73
1
 93
4
 10
559.5
 20
-6.5
 10
560.5
 20
-6.5
 10
560.5
 20
-5.5
 10
559.5
 20
-5.5
 97
0
 75
0
 76
1
 98
0
  0
LWPOLYLINE
  5
178
330
17
100
AcDbEntity
  8
ZAPATAS
100
AcDbPolyline
 90
4
 70
1
 10
559.5
 20
5.5
 10
560.5
 20
5.5
 10
560.5
 20
6.5
 10
559.5
 20
6.5
  0
HATCH
  5
179
330
17
100
AcDbEntity
  8
ZAPATAS
 62
3
100
AcDbHatch
 10
0.0
 20
0.0
 30
0.0
210
0.0
220
0.0
230
1.0
  2
SOLID
 70
1
 71
0
 91
1
 92
3
 72
0
 73
1
 93
4
 10
559.5
 20
5.5
 10
560.5
 20
5.5
 10
560.5
 20
6.5
 10
559.5
 20
6.5
 97
0
 75
0
 76
1
 98
0
  0
LWPOLYLINE
  5
17A
330
17
100
AcDbEntity
  8
ZAPATAS
100
AcDbPolyline
 90
4
 70
1
 10
569.5
 20
-6.5
 10
570.5
 20
-6.5
 10
570.5
 20
-5.5
 10
569.5
 20
-5.5
  0
HATCH
  5
17B
330
17
100
AcDbEntity
  8
ZAPATAS
 62
3
100
AcDbHatch
 10
0.0
 20
0.0
 30
0.0
210
0.0
220
0.0
230
1.0
  2
SOLID
 70
1
 71
0
 91
1
 92
3
 72
0
 73
1
 93
4
 10
569.5
 20
-6.5
 10
570.5
 20
-6.5
 10
570.5
 20
-5.5
 10
569.5
 20
-5.5
 97
0
 75
0
 76
1
 98
0
  0
LWPOLYLINE
  5
17C
330
17
100
AcDbEntity
  8
ZAPATAS
100
AcDbPolyline
 90
4
 70
1
 10
569.5
 20
5.5
 10
570.5
 20
5.5
 10
570.5
 20
6.5
 10
569.5
 20
6.5
  0
HATCH
  5
17D
330
17
100
AcDbEntity
  8
ZAPATAS
 62
3
100
AcDbHatch
 10
0.0
 20
0.0
 30
0.0
210
0.0
220
0.0
230
1.0
  2
SOLID
 70
1
 71
0
 91
1
 92
3
 72
0
 73
1
 93
4
 10
569.5
 20
5.5
 10
570.5
 20
5.5
 10
570.5
 20
6.5
 10
569.5
 20
6.5
 97
0
 75
0
 76
1
 98
0
  0
LWPOLYLINE
  5
17E
330
17
100
AcDbEntity
  8
ZAPATAS
100
AcDbPolyline
 90
4
 70
1
 10
579.5
 20
-6.5
 10
580.5
 20
-6.5
 10
580.5
 20
-5.5
 10
579.5
 20
-5.5
  0
HATCH
  5
17F
330
17
100
AcDbEntity
  8
ZAPATAS
 62
3
100
AcDbHatch
 10
0.0
 20
0.0
 30
0.0
210
0.0
220
0.0
230
1.0
  2
SOLID
 70
1
 71
0
 91
1
 92
3
 72
0
 73
1
 93
4
 10
579.5
 20
-6.5
 10
580.5
 20
-6.5
 10
580.5
 20
-5.5
 10
579.5
 20
-5.5
 97
0
 75
0
 76
1
 98
0
  0
LWPOLYLINE
  5
180
330
17
100
AcDbEntity
  8
ZAPATAS
100
AcDbPolyline
 90
4
 70
1
 10
579.5
 20
5.5
 10
580.5
 20
5.5
 10
580.5
 20
6.5
 10
579.5
 20
6.5
  0
HATCH
  5
181
330
17
100
AcDbEntity
  8
ZAPATAS
 62
3
100
AcDbHatch
 10
0.0
 20
0.0
 30
0.0
210
0.0
220
0.0
230
1.0
  2
SOLID
 70
1
 71
0
 91
1
 92
3
 72
0
 73
1
 93
4
 10
579.5
 20
5.5
 10
580.5
 20
5.5
 10
580.5
 20
6.5
 10
579.5
 20
6.5
 97
0
 75
0
 76
1
 98
0
  0
LWPOLYLINE
  5
182
330
17
100
AcDbEntity
  8
ZAPATAS
100
AcDbPolyline
 90
4
 70
1
 10
589.5
 20
-6.5
 10
590.5
 20
-6.5
 10
590.5
 20
-5.5
 10
589.5
 20
-5.5
  0
HATCH
  5
183
330
17
100
AcDbEntity
  8
ZAPATAS
 62
3
100
AcDbHatch
 10
0.0
 20
0.0
 30
0.0
210
0.0
220
0.0
230
1.0
  2
SOLID
 70
1
 71
0
 91
1
 92
3
 72
0
 73
1
 93
4
 10
589.5
 20
-6.5
 10
590.5
 20
-6.5
 10
590.5
 20
-5.5
 10
589.5
 20
-5.5
 97
0
 75
0
 76
1
 98
0
  0
LWPOLYLINE
  5
184
330
17
100
AcDbEntity
  8
ZAPATAS
100
AcDbPolyline
 90
4
 70
1
 10
589.5
 20
5.5
 10
590.5
 20
5.5
 10
590.5
 20
6.5
 10
589.5
 20
6.5
  0
HATCH
  5
185
330
17
100
AcDbEntity
  8
ZAPATAS
 62
3
100
AcDbHatch
 10
0.0
 20
0.0
 30
0.0
210
0.0
220
0.0
230
1.0
  2
SOLID
 70
1
 71
0
 91
1
 92
3
 72
0
 73
1
 93
4
 10
589.5
 20
5.5
 10
590.5
 20
5.5
 10
590.5
 20
6.5
 10
589.5
 20
6.5
 97
0
 75
0
 76
1
 98
0
  0
LWPOLYLINE
  5
186
330
17
100
AcDbEntity
  8
ZAPATAS
100
AcDbPolyline
 90
4
 70
1
 10
599.5
 20
-6.5
 10
600.5
 20
-6.5
 10
600.5
 20
-5.5
 10
599.5
 20
-5.5
  0
HATCH
  5
187
330
17
100
AcDbEntity
  8
ZAPATAS
 62
3
100
AcDbHatch
 10
0.0
 20
0.0
 30
0.0
210
0.0
220
0.0
230
1.0
  2
SOLID
 70
1
 71
0
 91
1
 92
3
 72
0
 73
1
 93
4
 10
599.5
 20
-6.5
 10
600.5
 20
-6.5
 10
600.5
 20
-5.5
 10
599.5
 20
-5.5
 97
0
 75
0
 76
1
 98
0
  0
LWPOLYLINE
  5
188
330
17
100
AcDbEntity
  8
ZAPATAS
100
AcDbPolyline
 90
4
 70
1
 10
599.5
 20
5.5
 10
600.5
 20
5.5
 10
600.5
 20
6.5
 10
599.5
 20
6.5
  0
HATCH
  5
189
330
17
100
AcDbEntity
  8
ZAPATAS
 62
3
100
AcDbHatch
 10
0.0
 20
0.0
 30
0.0
210
0.0
220
0.0
230
1.0
  2
SOLID
 70
1
 71
0
 91
1
 92
3
 72
0
 73
1
 93
4
 10
599.5
 20
5.5
 10
600.5
 20
5.5
 10
600.5
 20
6.5
 10
599.5
 20
6.5
 97
0
 75
0
 76
1
 98
0
  0
LWPOLYLINE
  5
18A
330
17
100
AcDbEntity
  8
ZAPATAS
100
AcDbPolyline
 90
4
 70
1
 10
609.5
 20
-6.5
 10
610.5
 20
-6.5
 10
610.5
 20
-5.5
 10
609.5
 20
-5.5
  0
HATCH
  5
18B
330
17
100
AcDbEntity
  8
ZAPATAS
 62
3
100
AcDbHatch
 10
0.0
 20
0.0
 30
0.0
210
0.0
220
0.0
230
1.0
  2
SOLID
 70
1
 71
0
 91
1
 92
3
 72
0
 73
1
 93
4
 10
609.5
 20
-6.5
 10
610.5
 20
-6.5
 10
610.5
 20
-5.5
 10
609.5
 20
-5.5
 97
0
 75
0
 76
1
 98
0
  0
LWPOLYLINE
  5
18C
330
17
100
AcDbEntity
  8
ZAPATAS
100
AcDbPolyline
 90
4
 70
1
 10
609.5
 20
5.5
 10
610.5
 20
5.5
 10
610.5
 20
6.5
 10
609.5
 20
6.5
  0
HATCH
  5
18D
330
17
100
AcDbEntity
  8
ZAPATAS
 62
3
100
AcDbHatch
 10
0.0
 20
0.0
 30
0.0
210
0.0
220
0.0
230
1.0
  2
SOLID
 70
1
 71
0
 91
1
 92
3
 72
0
 73
1
 93
4
 10
609.5
 20
5.5
 10
610.5
 20
5.5
 10
610.5
 20
6.5
 10
609.5
 20
6.5
 97
0
 75
0
 76
1
 98
0
  0
LWPOLYLINE
  5
18E
330
17
100
AcDbEntity
  8
ZAPATAS
100
AcDbPolyline
 90
4
 70
1
 10
619.5
 20
-6.5
 10
620.5
 20
-6.5
 10
620.5
 20
-5.5
 10
619.5
 20
-5.5
  0
HATCH
  5
18F
330
17
100
AcDbEntity
  8
ZAPATAS
 62
3
100
AcDbHatch
 10
0.0
 20
0.0
 30
0.0
210
0.0
220
0.0
230
1.0
  2
SOLID
 70
1
 71
0
 91
1
 92
3
 72
0
 73
1
 93
4
 10
619.5
 20
-6.5
 10
620.5
 20
-6.5
 10
620.5
 20
-5.5
 10
619.5
 20
-5.5
 97
0
 75
0
 76
1
 98
0
  0
LWPOLYLINE
  5
190
330
17
100
AcDbEntity
  8
ZAPATAS
100
AcDbPolyline
 90
4
 70
1
 10
619.5
 20
5.5
 10
620.5
 20
5.5
 10
620.5
 20
6.5
 10
619.5
 20
6.5
  0
HATCH
  5
191
330
17
100
AcDbEntity
  8
ZAPATAS
 62
3
100
AcDbHatch
 10
0.0
 20
0.0
 30
0.0
210
0.0
220
0.0
230
1.0
  2
SOLID
 70
1
 71
0
 91
1
 92
3
 72
0
 73
1
 93
4
 10
619.5
 20
5.5
 10
620.5
 20
5.5
 10
620.5
 20
6.5
 10
619.5
 20
6.5
 97
0
 75
0
 76
1
 98
0
  0
LWPOLYLINE
  5
192
330
17
100
AcDbEntity
  8
ZAPATAS
100
AcDbPolyline
 90
4
 70
1
 10
629.5
 20
-6.5
 10
630.5
 20
-6.5
 10
630.5
 20
-5.5
 10
629.5
 20
-5.5
  0
HATCH
  5
193
330
17
100
AcDbEntity
  8
ZAPATAS
 62
3
100
AcDbHatch
 10
0.0
 20
0.0
 30
0.0
210
0.0
220
0.0
230
1.0
  2
SOLID
 70
1
 71
0
 91
1
 92
3
 72
0
 73
1
 93
4
 10
629.5
 20
-6.5
 10
630.5
 20
-6.5
 10
630.5
 20
-5.5
 10
629.5
 20
-5.5
 97
0
 75
0
 76
1
 98
0
  0
LWPOLYLINE
  5
194
330
17
100
AcDbEntity
  8
ZAPATAS
100
AcDbPolyline
 90
4
 70
1
 10
629.5
 20
5.5
 10
630.5
 20
5.5
 10
630.5
 20
6.5
 10
629.5
 20
6.5
  0
HATCH
  5
195
330
17
100
AcDbEntity
  8
ZAPATAS
 62
3
100
AcDbHatch
 10
0.0
 20
0.0
 30
0.0
210
0.0
220
0.0
230
1.0
  2
SOLID
 70
1
 71
0
 91
1
 92
3
 72
0
 73
1
 93
4
 10
629.5
 20
5.5
 10
630.5
 20
5.5
 10
630.5
 20
6.5
 10
629.5
 20
6.5
 97
0
 75
0
 76
1
 98
0
  0
LWPOLYLINE
  5
196
330
17
100
AcDbEntity
  8
ZAPATAS
100
AcDbPolyline
 90
4
 70
1
 10
639.5
 20
-6.5
 10
640.5
 20
-6.5
 10
640.5
 20
-5.5
 10
639.5
 20
-5.5
  0
HATCH
  5
197
330
17
100
AcDbEntity
  8
ZAPATAS
 62
3
100
AcDbHatch
 10
0.0
 20
0.0
 30
0.0
210
0.0
220
0.0
230
1.0
  2
SOLID
 70
1
 71
0
 91
1
 92
3
 72
0
 73
1
 93
4
 10
639.5
 20
-6.5
 10
640.5
 20
-6.5
 10
640.5
 20
-5.5
 10
639.5
 20
-5.5
 97
0
 75
0
 76
1
 98
0
  0
LWPOLYLINE
  5
198
330
17
100
AcDbEntity
  8
ZAPATAS
100
AcDbPolyline
 90
4
 70
1
 10
639.5
 20
5.5
 10
640.5
 20
5.5
 10
640.5
 20
6.5
 10
639.5
 20
6.5
  0
HATCH
  5
199
330
17
100
AcDbEntity
  8
ZAPATAS
 62
3
100
AcDbHatch
 10
0.0
 20
0.0
 30
0.0
210
0.0
220
0.0
230
1.0
  2
SOLID
 70
1
 71
0
 91
1
 92
3
 72
0
 73
1
 93
4
 10
639.5
 20
5.5
 10
640.5
 20
5.5
 10
640.5
 20
6.5
 10
639.5
 20
6.5
 97
0
 75
0
 76
1
 98
0
  0
LWPOLYLINE
  5
19A
330
17
100
AcDbEntity
  8
ZAPATAS
100
AcDbPolyline
 90
4
 70
1
 10
649.5
 20
-6.5
 10
650.5
 20
-6.5
 10
650.5
 20
-5.5
 10
649.5
 20
-5.5
  0
HATCH
  5
19B
330
17
100
AcDbEntity
  8
ZAPATAS
 62
3
100
AcDbHatch
 10
0.0
 20
0.0
 30
0.0
210
0.0
220
0.0
230
1.0
  2
SOLID
 70
1
 71
0
 91
1
 92
3
 72
0
 73
1
 93
4
 10
649.5
 20
-6.5
 10
650.5
 20
-6.5
 10
650.5
 20
-5.5
 10
649.5
 20
-5.5
 97
0
 75
0
 76
1
 98
0
  0
LWPOLYLINE
  5
19C
330
17
100
AcDbEntity
  8
ZAPATAS
100
AcDbPolyline
 90
4
 70
1
 10
649.5
 20
5.5
 10
650.5
 20
5.5
 10
650.5
 20
6.5
 10
649.5
 20
6.5
  0
HATCH
  5
19D
330
17
100
AcDbEntity
  8
ZAPATAS
 62
3
100
AcDbHatch
 10
0.0
 20
0.0
 30
0.0
210
0.0
220
0.0
230
1.0
  2
SOLID
 70
1
 71
0
 91
1
 92
3
 72
0
 73
1
 93
4
 10
649.5
 20
5.5
 10
650.5
 20
5.5
 10
650.5
 20
6.5
 10
649.5
 20
6.5
 97
0
 75
0
 76
1
 98
0
  0
LWPOLYLINE
  5
19E
330
17
100
AcDbEntity
  8
ZAPATAS
100
AcDbPolyline
 90
4
 70
1
 10
659.5
 20
-6.5
 10
660.5
 20
-6.5
 10
660.5
 20
-5.5
 10
659.5
 20
-5.5
  0
HATCH
  5
19F
330
17
100
AcDbEntity
  8
ZAPATAS
 62
3
100
AcDbHatch
 10
0.0
 20
0.0
 30
0.0
210
0.0
220
0.0
230
1.0
  2
SOLID
 70
1
 71
0
 91
1
 92
3
 72
0
 73
1
 93
4
 10
659.5
 20
-6.5
 10
660.5
 20
-6.5
 10
660.5
 20
-5.5
 10
659.5
 20
-5.5
 97
0
 75
0
 76
1
 98
0
  0
LWPOLYLINE
  5
1A0
330
17
100
AcDbEntity
  8
ZAPATAS
100
AcDbPolyline
 90
4
 70
1
 10
659.5
 20
5.5
 10
660.5
 20
5.5
 10
660.5
 20
6.5
 10
659.5
 20
6.5
  0
HATCH
  5
1A1
330
17
100
AcDbEntity
  8
ZAPATAS
 62
3
100
AcDbHatch
 10
0.0
 20
0.0
 30
0.0
210
0.0
220
0.0
230
1.0
  2
SOLID
 70
1
 71
0
 91
1
 92
3
 72
0
 73
1
 93
4
 10
659.5
 20
5.5
 10
660.5
 20
5.5
 10
660.5
 20
6.5
 10
659.5
 20
6.5
 97
0
 75
0
 76
1
 98
0
  0
LWPOLYLINE
  5
1A2
330
17
100
AcDbEntity
  8
ZAPATAS
100
AcDbPolyline
 90
4
 70
1
 10
669.5
 20
-6.5
 10
670.5
 20
-6.5
 10
670.5
 20
-5.5
 10
669.5
 20
-5.5
  0
HATCH
  5
1A3
330
17
100
AcDbEntity
  8
ZAPATAS
 62
3
100
AcDbHatch
 10
0.0
 20
0.0
 30
0.0
210
0.0
220
0.0
230
1.0
  2
SOLID
 70
1
 71
0
 91
1
 92
3
 72
0
 73
1
 93
4
 10
669.5
 20
-6.5
 10
670.5
 20
-6.5
 10
670.5
 20
-5.5
 10
669.5
 20
-5.5
 97
0
 75
0
 76
1
 98
0
  0
LWPOLYLINE
  5
1A4
330
17
100
AcDbEntity
  8
ZAPATAS
100
AcDbPolyline
 90
4
 70
1
 10
669.5
 20
5.5
 10
670.5
 20
5.5
 10
670.5
 20
6.5
 10
669.5
 20
6.5
  0
HATCH
  5
1A5
330
17
100
AcDbEntity
  8
ZAPATAS
 62
3
100
AcDbHatch
 10
0.0
 20
0.0
 30
0.0
210
0.0
220
0.0
230
1.0
  2
SOLID
 70
1
 71
0
 91
1
 92
3
 72
0
 73
1
 93
4
 10
669.5
 20
5.5
 10
670.5
 20
5.5
 10
670.5
 20
6.5
 10
669.5
 20
6.5
 97
0
 75
0
 76
1
 98
0
  0
LWPOLYLINE
  5
1A6
330
17
100
AcDbEntity
  8
ZAPATAS
100
AcDbPolyline
 90
4
 70
1
 10
679.5
 20
-6.5
 10
680.5
 20
-6.5
 10
680.5
 20
-5.5
 10
679.5
 20
-5.5
  0
HATCH
  5
1A7
330
17
100
AcDbEntity
  8
ZAPATAS
 62
3
100
AcDbHatch
 10
0.0
 20
0.0
 30
0.0
210
0.0
220
0.0
230
1.0
  2
SOLID
 70
1
 71
0
 91
1
 92
3
 72
0
 73
1
 93
4
 10
679.5
 20
-6.5
 10
680.5
 20
-6.5
 10
680.5
 20
-5.5
 10
679.5
 20
-5.5
 97
0
 75
0
 76
1
 98
0
  0
LWPOLYLINE
  5
1A8
330
17
100
AcDbEntity
  8
ZAPATAS
100
AcDbPolyline
 90
4
 70
1
 10
679.5
 20
5.5
 10
680.5
 20
5.5
 10
680.5
 20
6.5
 10
679.5
 20
6.5
  0
HATCH
  5
1A9
330
17
100
AcDbEntity
  8
ZAPATAS
 62
3
100
AcDbHatch
 10
0.0
 20
0.0
 30
0.0
210
0.0
220
0.0
230
1.0
  2
SOLID
 70
1
 71
0
 91
1
 92
3
 72
0
 73
1
 93
4
 10
679.5
 20
5.5
 10
680.5
 20
5.5
 10
680.5
 20
6.5
 10
679.5
 20
6.5
 97
0
 75
0
 76
1
 98
0
  0
LWPOLYLINE
  5
1AA
330
17
100
AcDbEntity
  8
ZAPATAS
100
AcDbPolyline
 90
4
 70
1
 10
689.5
 20
-6.5
 10
690.5
 20
-6.5
 10
690.5
 20
-5.5
 10
689.5
 20
-5.5
  0
HATCH
  5
1AB
330
17
100
AcDbEntity
  8
ZAPATAS
 62
3
100
AcDbHatch
 10
0.0
 20
0.0
 30
0.0
210
0.0
220
0.0
230
1.0
  2
SOLID
 70
1
 71
0
 91
1
 92
3
 72
0
 73
1
 93
4
 10
689.5
 20
-6.5
 10
690.5
 20
-6.5
 10
690.5
 20
-5.5
 10
689.5
 20
-5.5
 97
0
 75
0
 76
1
 98
0
  0
LWPOLYLINE
  5
1AC
330
17
100
AcDbEntity
  8
ZAPATAS
100
AcDbPolyline
 90
4
 70
1
 10
689.5
 20
5.5
 10
690.5
 20
5.5
 10
690.5
 20
6.5
 10
689.5
 20
6.5
  0
HATCH
  5
1AD
330
17
100
AcDbEntity
  8
ZAPATAS
 62
3
100
AcDbHatch
 10
0.0
 20
0.0
 30
0.0
210
0.0
220
0.0
230
1.0
  2
SOLID
 70
1
 71
0
 91
1
 92
3
 72
0
 73
1
 93
4
 10
689.5
 20
5.5
 10
690.5
 20
5.5
 10
690.5
 20
6.5
 10
689.5
 20
6.5
 97
0
 75
0
 76
1
 98
0
  0
LWPOLYLINE
  5
1AE
330
17
100
AcDbEntity
  8
ZAPATAS
100
AcDbPolyline
 90
4
 70
1
 10
699.5
 20
-6.5
 10
700.5
 20
-6.5
 10
700.5
 20
-5.5
 10
699.5
 20
-5.5
  0
HATCH
  5
1AF
330
17
100
AcDbEntity
  8
ZAPATAS
 62
3
100
AcDbHatch
 10
0.0
 20
0.0
 30
0.0
210
0.0
220
0.0
230
1.0
  2
SOLID
 70
1
 71
0
 91
1
 92
3
 72
0
 73
1
 93
4
 10
699.5
 20
-6.5
 10
700.5
 20
-6.5
 10
700.5
 20
-5.5
 10
699.5
 20
-5.5
 97
0
 75
0
 76
1
 98
0
  0
LWPOLYLINE
  5
1B0
330
17
100
AcDbEntity
  8
ZAPATAS
100
AcDbPolyline
 90
4
 70
1
 10
699.5
 20
5.5
 10
700.5
 20
5.5
 10
700.5
 20
6.5
 10
699.5
 20
6.5
  0
HATCH
  5
1B1
330
17
100
AcDbEntity
  8
ZAPATAS
 62
3
100
AcDbHatch
 10
0.0
 20
0.0
 30
0.0
210
0.0
220
0.0
230
1.0
  2
SOLID
 70
1
 71
0
 91
1
 92
3
 72
0
 73
1
 93
4
 10
699.5
 20
5.5
 10
700.5
 20
5.5
 10
700.5
 20
6.5
 10
699.5
 20
6.5
 97
0
 75
0
 76
1
 98
0
  0
LWPOLYLINE
  5
1B2
330
17
100
AcDbEntity
  8
ZAPATAS
100
AcDbPolyline
 90
4
 70
1
 10
709.5
 20
-6.5
 10
710.5
 20
-6.5
 10
710.5
 20
-5.5
 10
709.5
 20
-5.5
  0
HATCH
  5
1B3
330
17
100
AcDbEntity
  8
ZAPATAS
 62
3
100
AcDbHatch
 10
0.0
 20
0.0
 30
0.0
210
0.0
220
0.0
230
1.0
  2
SOLID
 70
1
 71
0
 91
1
 92
3
 72
0
 73
1
 93
4
 10
709.5
 20
-6.5
 10
710.5
 20
-6.5
 10
710.5
 20
-5.5
 10
709.5
 20
-5.5
 97
0
 75
0
 76
1
 98
0
  0
LWPOLYLINE
  5
1B4
330
17
100
AcDbEntity
  8
ZAPATAS
100
AcDbPolyline
 90
4
 70
1
 10
709.5
 20
5.5
 10
710.5
 20
5.5
 10
710.5
 20
6.5
 10
709.5
 20
6.5
  0
HATCH
  5
1B5
330
17
100
AcDbEntity
  8
ZAPATAS
 62
3
100
AcDbHatch
 10
0.0
 20
0.0
 30
0.0
210
0.0
220
0.0
230
1.0
  2
SOLID
 70
1
 71
0
 91
1
 92
3
 72
0
 73
1
 93
4
 10
709.5
 20
5.5
 10
710.5
 20
5.5
 10
710.5
 20
6.5
 10
709.5
 20
6.5
 97
0
 75
0
 76
1
 98
0
  0
LWPOLYLINE
  5
1B6
330
17
100
AcDbEntity
  8
ZAPATAS
100
AcDbPolyline
 90
4
 70
1
 10
719.5
 20
-6.5
 10
720.5
 20
-6.5
 10
720.5
 20
-5.5
 10
719.5
 20
-5.5
  0
HATCH
  5
1B7
330
17
100
AcDbEntity
  8
ZAPATAS
 62
3
100
AcDbHatch
 10
0.0
 20
0.0
 30
0.0
210
0.0
220
0.0
230
1.0
  2
SOLID
 70
1
 71
0
 91
1
 92
3
 72
0
 73
1
 93
4
 10
719.5
 20
-6.5
 10
720.5
 20
-6.5
 10
720.5
 20
-5.5
 10
719.5
 20
-5.5
 97
0
 75
0
 76
1
 98
0
  0
LWPOLYLINE
  5
1B8
330
17
100
AcDbEntity
  8
ZAPATAS
100
AcDbPolyline
 90
4
 70
1
 10
719.5
 20
5.5
 10
720.5
 20
5.5
 10
720.5
 20
6.5
 10
719.5
 20
6.5
  0
HATCH
  5
1B9
330
17
100
AcDbEntity
  8
ZAPATAS
 62
3
100
AcDbHatch
 10
0.0
 20
0.0
 30
0.0
210
0.0
220
0.0
230
1.0
  2
SOLID
 70
1
 71
0
 91
1
 92
3
 72
0
 73
1
 93
4
 10
719.5
 20
5.5
 10
720.5
 20
5.5
 10
720.5
 20
6.5
 10
719.5
 20
6.5
 97
0
 75
0
 76
1
 98
0
  0
LWPOLYLINE
  5
1BA
330
17
100
AcDbEntity
  8
ZAPATAS
100
AcDbPolyline
 90
4
 70
1
 10
729.5
 20
-6.5
 10
730.5
 20
-6.5
 10
730.5
 20
-5.5
 10
729.5
 20
-5.5
  0
HATCH
  5
1BB
330
17
100
AcDbEntity
  8
ZAPATAS
 62
3
100
AcDbHatch
 10
0.0
 20
0.0
 30
0.0
210
0.0
220
0.0
230
1.0
  2
SOLID
 70
1
 71
0
 91
1
 92
3
 72
0
 73
1
 93
4
 10
729.5
 20
-6.5
 10
730.5
 20
-6.5
 10
730.5
 20
-5.5
 10
729.5
 20
-5.5
 97
0
 75
0
 76
1
 98
0
  0
LWPOLYLINE
  5
1BC
330
17
100
AcDbEntity
  8
ZAPATAS
100
AcDbPolyline
 90
4
 70
1
 10
729.5
 20
5.5
 10
730.5
 20
5.5
 10
730.5
 20
6.5
 10
729.5
 20
6.5
  0
HATCH
  5
1BD
330
17
100
AcDbEntity
  8
ZAPATAS
 62
3
100
AcDbHatch
 10
0.0
 20
0.0
 30
0.0
210
0.0
220
0.0
230
1.0
  2
SOLID
 70
1
 71
0
 91
1
 92
3
 72
0
 73
1
 93
4
 10
729.5
 20
5.5
 10
730.5
 20
5.5
 10
730.5
 20
6.5
 10
729.5
 20
6.5
 97
0
 75
0
 76
1
 98
0
  0
LWPOLYLINE
  5
1BE
330
17
100
AcDbEntity
  8
ZAPATAS
100
AcDbPolyline
 90
4
 70
1
 10
739.5
 20
-6.5
 10
740.5
 20
-6.5
 10
740.5
 20
-5.5
 10
739.5
 20
-5.5
  0
HATCH
  5
1BF
330
17
100
AcDbEntity
  8
ZAPATAS
 62
3
100
AcDbHatch
 10
0.0
 20
0.0
 30
0.0
210
0.0
220
0.0
230
1.0
  2
SOLID
 70
1
 71
0
 91
1
 92
3
 72
0
 73
1
 93
4
 10
739.5
 20
-6.5
 10
740.5
 20
-6.5
 10
740.5
 20
-5.5
 10
739.5
 20
-5.5
 97
0
 75
0
 76
1
 98
0
  0
LWPOLYLINE
  5
1C0
330
17
100
AcDbEntity
  8
ZAPATAS
100
AcDbPolyline
 90
4
 70
1
 10
739.5
 20
5.5
 10
740.5
 20
5.5
 10
740.5
 20
6.5
 10
739.5
 20
6.5
  0
HATCH
  5
1C1
330
17
100
AcDbEntity
  8
ZAPATAS
 62
3
100
AcDbHatch
 10
0.0
 20
0.0
 30
0.0
210
0.0
220
0.0
230
1.0
  2
SOLID
 70
1
 71
0
 91
1
 92
3
 72
0
 73
1
 93
4
 10
739.5
 20
5.5
 10
740.5
 20
5.5
 10
740.5
 20
6.5
 10
739.5
 20
6.5
 97
0
 75
0
 76
1
 98
0
  0
LWPOLYLINE
  5
1C2
330
17
100
AcDbEntity
  8
ZAPATAS
100
AcDbPolyline
 90
4
 70
1
 10
749.5
 20
-6.5
 10
750.5
 20
-6.5
 10
750.5
 20
-5.5
 10
749.5
 20
-5.5
  0
HATCH
  5
1C3
330
17
100
AcDbEntity
  8
ZAPATAS
 62
3
100
AcDbHatch
 10
0.0
 20
0.0
 30
0.0
210
0.0
220
0.0
230
1.0
  2
SOLID
 70
1
 71
0
 91
1
 92
3
 72
0
 73
1
 93
4
 10
749.5
 20
-6.5
 10
750.5
 20
-6.5
 10
750.5
 20
-5.5
 10
749.5
 20
-5.5
 97
0
 75
0
 76
1
 98
0
  0
LWPOLYLINE
  5
1C4
330
17
100
AcDbEntity
  8
ZAPATAS
100
AcDbPolyline
 90
4
 70
1
 10
749.5
 20
5.5
 10
750.5
 20
5.5
 10
750.5
 20
6.5
 10
749.5
 20
6.5
  0
HATCH
  5
1C5
330
17
100
AcDbEntity
  8
ZAPATAS
 62
3
100
AcDbHatch
 10
0.0
 20
0.0
 30
0.0
210
0.0
220
0.0
230
1.0
  2
SOLID
 70
1
 71
0
 91
1
 92
3
 72
0
 73
1
 93
4
 10
749.5
 20
5.5
 10
750.5
 20
5.5
 10
750.5
 20
6.5
 10
749.5
 20
6.5
 97
0
 75
0
 76
1
 98
0
  0
LWPOLYLINE
  5
1C6
330
17
100
AcDbEntity
  8
RAMPA
100
AcDbPolyline
 90
4
 70
1
 10
-12.5
 20
-2.0
 10
0.0
 20
-2.0
 10
0.0
 20
2.0
 10
-12.5
 20
2.0
  0
HATCH
  5
1C7
330
17
100
AcDbEntity
  8
RAMPA
 62
30
100
AcDbHatch
 10
0.0
 20
0.0
 30
0.0
210
0.0
220
0.0
230
1.0
  2
SOLID
 70
1
 71
0
 91
1
 92
3
 72
0
 73
1
 93
4
 10
-12.5
 20
-2.0
 10
0.0
 20
-2.0
 10
0.0
 20
2.0
 10
-12.5
 20
2.0
 97
0
 75
0
 76
1
 98
0
  0
LWPOLYLINE
  5
1C8
330
17
100
AcDbEntity
  8
RAMPA
100
AcDbPolyline
 90
4
 70
1
 10
750.0
 20
-2.0
 10
762.5
 20
-2.0
 10
762.5
 20
2.0
 10
750.0
 20
2.0
  0
HATCH
  5
1C9
330
17
100
AcDbEntity
  8
RAMPA
 62
30
100
AcDbHatch
 10
0.0
 20
0.0
 30
0.0
210
0.0
220
0.0
230
1.0
  2
SOLID
 70
1
 71
0
 91
1
 92
3
 72
0
 73
1
 93
4
 10
750.0
 20
-2.0
 10
762.5
 20
-2.0
 10
762.5
 20
2.0
 10
750.0
 20
2.0
 97
0
 75
0
 76
1
 98
0
  0
LWPOLYLINE
  5
1CA
330
17
100
AcDbEntity
  8
EDIFICIO
100
AcDbPolyline
 90
4
 70
1
 10
30.0
 20
20.0
 10
48.0
 20
20.0
 10
48.0
 20
32.0
 10
30.0
 20
32.0
  0
LWPOLYLINE
  5
1CB
330
17
100
AcDbEntity
  8
ZAPATAS
100
AcDbPolyline
 90
4
 70
1
 10
28.75
 20
18.75
 10
31.25
 20
18.75
 10
31.25
 20
21.25
 10
28.75
 20
21.25
  0
HATCH
  5
1CC
330
17
100
AcDbEntity
  8
ZAPATAS
 62
3
100
AcDbHatch
 10
0.0
 20
0.0
 30
0.0
210
0.0
220
0.0
230
1.0
  2
SOLID
 70
1
 71
0
 91
1
 92
3
 72
0
 73
1
 93
4
 10
28.75
 20
18.75
 10
31.25
 20
18.75
 10
31.25
 20
21.25
 10
28.75
 20
21.25
 97
0
 75
0
 76
1
 98
0
  0
LWPOLYLINE
  5
1CD
330
17
100
AcDbEntity
  8
ZAPATAS
100
AcDbPolyline
 90
4
 70
1
 10
28.75
 20
24.75
 10
31.25
 20
24.75
 10
31.25
 20
27.25
 10
28.75
 20
27.25
  0
HATCH
  5
1CE
330
17
100
AcDbEntity
  8
ZAPATAS
 62
3
100
AcDbHatch
 10
0.0
 20
0.0
 30
0.0
210
0.0
220
0.0
230
1.0
  2
SOLID
 70
1
 71
0
 91
1
 92
3
 72
0
 73
1
 93
4
 10
28.75
 20
24.75
 10
31.25
 20
24.75
 10
31.25
 20
27.25
 10
28.75
 20
27.25
 97
0
 75
0
 76
1
 98
0
  0
LWPOLYLINE
  5
1CF
330
17
100
AcDbEntity
  8
ZAPATAS
100
AcDbPolyline
 90
4
 70
1
 10
28.75
 20
30.75
 10
31.25
 20
30.75
 10
31.25
 20
33.25
 10
28.75
 20
33.25
  0
HATCH
  5
1D0
330
17
100
AcDbEntity
  8
ZAPATAS
 62
3
100
AcDbHatch
 10
0.0
 20
0.0
 30
0.0
210
0.0
220
0.0
230
1.0
  2
SOLID
 70
1
 71
0
 91
1
 92
3
 72
0
 73
1
 93
4
 10
28.75
 20
30.75
 10
31.25
 20
30.75
 10
31.25
 20
33.25
 10
28.75
 20
33.25
 97
0
 75
0
 76
1
 98
0
  0
LWPOLYLINE
  5
1D1
330
17
100
AcDbEntity
  8
ZAPATAS
100
AcDbPolyline
 90
4
 70
1
 10
34.75
 20
18.75
 10
37.25
 20
18.75
 10
37.25
 20
21.25
 10
34.75
 20
21.25
  0
HATCH
  5
1D2
330
17
100
AcDbEntity
  8
ZAPATAS
 62
3
100
AcDbHatch
 10
0.0
 20
0.0
 30
0.0
210
0.0
220
0.0
230
1.0
  2
SOLID
 70
1
 71
0
 91
1
 92
3
 72
0
 73
1
 93
4
 10
34.75
 20
18.75
 10
37.25
 20
18.75
 10
37.25
 20
21.25
 10
34.75
 20
21.25
 97
0
 75
0
 76
1
 98
0
  0
LWPOLYLINE
  5
1D3
330
17
100
AcDbEntity
  8
ZAPATAS
100
AcDbPolyline
 90
4
 70
1
 10
34.75
 20
24.75
 10
37.25
 20
24.75
 10
37.25
 20
27.25
 10
34.75
 20
27.25
  0
HATCH
  5
1D4
330
17
100
AcDbEntity
  8
ZAPATAS
 62
3
100
AcDbHatch
 10
0.0
 20
0.0
 30
0.0
210
0.0
220
0.0
230
1.0
  2
SOLID
 70
1
 71
0
 91
1
 92
3
 72
0
 73
1
 93
4
 10
34.75
 20
24.75
 10
37.25
 20
24.75
 10
37.25
 20
27.25
 10
34.75
 20
27.25
 97
0
 75
0
 76
1
 98
0
  0
LWPOLYLINE
  5
1D5
330
17
100
AcDbEntity
  8
ZAPATAS
100
AcDbPolyline
 90
4
 70
1
 10
34.75
 20
30.75
 10
37.25
 20
30.75
 10
37.25
 20
33.25
 10
34.75
 20
33.25
  0
HATCH
  5
1D6
330
17
100
AcDbEntity
  8
ZAPATAS
 62
3
100
AcDbHatch
 10
0.0
 20
0.0
 30
0.0
210
0.0
220
0.0
230
1.0
  2
SOLID
 70
1
 71
0
 91
1
 92
3
 72
0
 73
1
 93
4
 10
34.75
 20
30.75
 10
37.25
 20
30.75
 10
37.25
 20
33.25
 10
34.75
 20
33.25
 97
0
 75
0
 76
1
 98
0
  0
LWPOLYLINE
  5
1D7
330
17
100
AcDbEntity
  8
ZAPATAS
100
AcDbPolyline
 90
4
 70
1
 10
40.75
 20
18.75
 10
43.25
 20
18.75
 10
43.25
 20
21.25
 10
40.75
 20
21.25
  0
HATCH
  5
1D8
330
17
100
AcDbEntity
  8
ZAPATAS
 62
3
100
AcDbHatch
 10
0.0
 20
0.0
 30
0.0
210
0.0
220
0.0
230
1.0
  2
SOLID
 70
1
 71
0
 91
1
 92
3
 72
0
 73
1
 93
4
 10
40.75
 20
18.75
 10
43.25
 20
18.75
 10
43.25
 20
21.25
 10
40.75
 20
21.25
 97
0
 75
0
 76
1
 98
0
  0
LWPOLYLINE
  5
1D9
330
17
100
AcDbEntity
  8
ZAPATAS
100
AcDbPolyline
 90
4
 70
1
 10
40.75
 20
24.75
 10
43.25
 20
24.75
 10
43.25
 20
27.25
 10
40.75
 20
27.25
  0
HATCH
  5
1DA
330
17
100
AcDbEntity
  8
ZAPATAS
 62
3
100
AcDbHatch
 10
0.0
 20
0.0
 30
0.0
210
0.0
220
0.0
230
1.0
  2
SOLID
 70
1
 71
0
 91
1
 92
3
 72
0
 73
1
 93
4
 10
40.75
 20
24.75
 10
43.25
 20
24.75
 10
43.25
 20
27.25
 10
40.75
 20
27.25
 97
0
 75
0
 76
1
 98
0
  0
LWPOLYLINE
  5
1DB
330
17
100
AcDbEntity
  8
ZAPATAS
100
AcDbPolyline
 90
4
 70
1
 10
40.75
 20
30.75
 10
43.25
 20
30.75
 10
43.25
 20
33.25
 10
40.75
 20
33.25
  0
HATCH
  5
1DC
330
17
100
AcDbEntity
  8
ZAPATAS
 62
3
100
AcDbHatch
 10
0.0
 20
0.0
 30
0.0
210
0.0
220
0.0
230
1.0
  2
SOLID
 70
1
 71
0
 91
1
 92
3
 72
0
 73
1
 93
4
 10
40.75
 20
30.75
 10
43.25
 20
30.75
 10
43.25
 20
33.25
 10
40.75
 20
33.25
 97
0
 75
0
 76
1
 98
0
  0
LWPOLYLINE
  5
1DD
330
17
100
AcDbEntity
  8
ZAPATAS
100
AcDbPolyline
 90
4
 70
1
 10
46.75
 20
18.75
 10
49.25
 20
18.75
 10
49.25
 20
21.25
 10
46.75
 20
21.25
  0
HATCH
  5
1DE
330
17
100
AcDbEntity
  8
ZAPATAS
 62
3
100
AcDbHatch
 10
0.0
 20
0.0
 30
0.0
210
0.0
220
0.0
230
1.0
  2
SOLID
 70
1
 71
0
 91
1
 92
3
 72
0
 73
1
 93
4
 10
46.75
 20
18.75
 10
49.25
 20
18.75
 10
49.25
 20
21.25
 10
46.75
 20
21.25
 97
0
 75
0
 76
1
 98
0
  0
LWPOLYLINE
  5
1DF
330
17
100
AcDbEntity
  8
ZAPATAS
100
AcDbPolyline
 90
4
 70
1
 10
46.75
 20
24.75
 10
49.25
 20
24.75
 10
49.25
 20
27.25
 10
46.75
 20
27.25
  0
HATCH
  5
1E0
330
17
100
AcDbEntity
  8
ZAPATAS
 62
3
100
AcDbHatch
 10
0.0
 20
0.0
 30
0.0
210
0.0
220
0.0
230
1.0
  2
SOLID
 70
1
 71
0
 91
1
 92
3
 72
0
 73
1
 93
4
 10
46.75
 20
24.75
 10
49.25
 20
24.75
 10
49.25
 20
27.25
 10
46.75
 20
27.25
 97
0
 75
0
 76
1
 98
0
  0
LWPOLYLINE
  5
1E1
330
17
100
AcDbEntity
  8
ZAPATAS
100
AcDbPolyline
 90
4
 70
1
 10
46.75
 20
30.75
 10
49.25
 20
30.75
 10
49.25
 20
33.25
 10
46.75
 20
33.25
  0
HATCH
  5
1E2
330
17
100
AcDbEntity
  8
ZAPATAS
 62
3
100
AcDbHatch
 10
0.0
 20
0.0
 30
0.0
210
0.0
220
0.0
230
1.0
  2
SOLID
 70
1
 71
0
 91
1
 92
3
 72
0
 73
1
 93
4
 10
46.75
 20
30.75
 10
49.25
 20
30.75
 10
49.25
 20
33.25
 10
46.75
 20
33.25
 97
0
 75
0
 76
1
 98
0
  0
LINE
  5
1E3
330
17
100
AcDbEntity
  8
VIA
  6
DASHED
100
AcDbLine
 10
-42.5
 20
-18.0
 30
0.0
 11
792.5
 21
-18.0
 31
0.0
  0
TEXT
  5
1E4
330
17
100
AcDbEntity
  8
TEXTO
100
AcDbText
 10
375.0
 20
12.0
 30
0.0
 40
5.0
  1
MARQUESINA METÁLICA · 750 m × 12 m · pórticos cada 10 m · zapatas Z-1
 72
1
 11
375.0
 21
12.0
 31
0.0
100
AcDbText
  0
TEXT
  5
1E5
330
17
100
AcDbEntity
  8
TEXTO
100
AcDbText
 10
52.0
 20
26.0
 30
0.0
 40
4.0
  1
EDIFICIO DE CONTROL 18 × 12 mzapatas Z-2
 11
52.0
 21
26.0
 31
0.0
100
AcDbText
  0
TEXT
  5
1E6
330
17
100
AcDbEntity
  8
TEXTO
100
AcDbText
 10
-6.25
 20
-9.0
 30
0.0
 40
5.0
  1
RAMPA R-1
 72
1
 11
-6.25
 21
-9.0
 31
0.0
100
AcDbText
  0
TEXT
  5
1E7
330
17
100
AcDbEntity
  8
TEXTO
100
AcDbText
 10
756.25
 20
-9.0
 30
0.0
 40
5.0
  1
RAMPA R-1
 72
1
 11
756.25
 21
-9.0
 31
0.0
100
AcDbText
  0
TEXT
  5
1E8
330
17
100
AcDbEntity
  8
TEXTO
100
AcDbText
 10
375.0
 20
-13.0
 30
0.0
 40
5.0
  1
Vía de acceso y cola de tractomulas (esquemática)
 72
1
 11
375.0
 21
-13.0
 31
0.0
100
AcDbText
  0
TEXT
  5
1E9
330
17
100
AcDbEntity
  8
TEXTO
100
AcDbText
 10
375.0
 20
1.8
 30
0.0
 40
3.0
  1
Vía férrea
 72
1
 11
375.0
 21
1.8
 31
0.0
100
AcDbText
  0
DIMENSION
  5
1EA
330
17
100
AcDbEntity
  8
COTAS
100
AcDbDimension
280
0
  2
*D1
  3
EZDXF
 10
-0.0002666664296299453
 20
-30.80000017777754
 30
0.0
 11
374.9976000021333
 21
-28.70000159999787
 31
0.0
 70
32
 71
5
  1
750 m (tren de hasta 750 m [F, dia. 23])
100
AcDbAlignedDimension
 13
0.0
 23
-31.0
 33
0.0
 14
750.0
 24
-30.0
 34
0.0
 50
0.07639432741341867
100
AcDbRotatedDimension
1001
ACAD
1000
DSTYLE
1002
{
1070
140
1040
3.0
1070
41
1040
2.0
1002
}
  0
LWPOLYLINE
  5
1F9
330
17
100
AcDbEntity
  8
ZAPATAS
100
AcDbPolyline
 90
4
 70
1
 10
-0.5
 20
-90.5
 10
0.5
 20
-90.5
 10
0.5
 20
-89.5
 10
-0.5
 20
-89.5
  0
LWPOLYLINE
  5
1FA
330
17
100
AcDbEntity
  8
CONCRETO
100
AcDbPolyline
 90
4
 70
1
 10
-0.2
 20
-90.2
 10
0.2
 20
-90.2
 10
0.2
 20
-89.8
 10
-0.2
 20
-89.8
  0
HATCH
  5
1FB
330
17
100
AcDbEntity
  8
CONCRETO
 62
7
100
AcDbHatch
 10
0.0
 20
0.0
 30
0.0
210
0.0
220
0.0
230
1.0
  2
ANSI31
 70
0
 71
0
 91
1
 92
3
 72
0
 73
1
 93
4
 10
-0.2
 20
-90.2
 10
0.2
 20
-90.2
 10
0.2
 20
-89.8
 10
-0.2
 20
-89.8
 97
0
 75
1
 76
1
 52
0.0
 41
0.05
 77
0
 78
1
 53
45.0
 43
0.0
 44
0.0
 45
-0.1122532015
 46
0.1122532015
 79
0
 98
0
  0
DIMENSION
  5
1FC
330
17
100
AcDbEntity
  8
COTAS
100
AcDbDimension
280
0
  2
*D2
  3
EZDXF
 10
-0.5
 20
-90.64999999999999
 30
0.0
 11
0.0
 21
-90.085
 31
0.0
 70
32
 71
5
  1
B (ver cuadro)
100
AcDbAlignedDimension
 13
-0.5
 23
-90.85
 33
0.0
 14
0.5
 24
-90.85
 34
0.0
 50
0.0
100
AcDbRotatedDimension
1001
ACAD
1000
DSTYLE
1002
{
1070
140
1040
0.18
1070
41
1040
0.12
1002
}
  0
TEXT
  5
20B
330
17
100
AcDbEntity
  8
TEXTO
100
AcDbText
 10
0.0
 20
-89.15
 30
0.0
 40
0.22
  1
PLANTA
 72
1
 11
0.0
 21
-89.15
 31
0.0
100
AcDbText
  0
LINE
  5
20C
330
17
100
AcDbEntity
  8
TERRENO
  6
CONTINUOUS
100
AcDbLine
 10
1.3
 20
-90.0
 30
0.0
 11
3.9000000000000004
 21
-90.0
 31
0.0
  0
LWPOLYLINE
  5
20D
330
17
100
AcDbEntity
  8
CONCRETO
100
AcDbPolyline
 90
4
 70
1
 10
2.1
 20
-91.5
 10
3.1
 20
-91.5
 10
3.1
 20
-91.1
 10
2.1
 20
-91.1
  0
HATCH
  5
20E
330
17
100
AcDbEntity
  8
CONCRETO
 62
7
100
AcDbHatch
 10
0.0
 20
0.0
 30
0.0
210
0.0
220
0.0
230
1.0
  2
ANSI31
 70
0
 71
0
 91
1
 92
3
 72
0
 73
1
 93
4
 10
2.1
 20
-91.5
 10
3.1
 20
-91.5
 10
3.1
 20
-91.1
 10
2.1
 20
-91.1
 97
0
 75
1
 76
1
 52
0.0
 41
0.05
 77
0
 78
1
 53
45.0
 43
0.0
 44
0.0
 45
-0.1122532015
 46
0.1122532015
 79
0
 98
0
  0
LWPOLYLINE
  5
20F
330
17
100
AcDbEntity
  8
CONCRETO
100
AcDbPolyline
 90
4
 70
1
 10
2.4
 20
-91.1
 10
2.8
 20
-91.1
 10
2.8
 20
-89.7
 10
2.4
 20
-89.7
  0
HATCH
  5
210
330
17
100
AcDbEntity
  8
CONCRETO
 62
7
100
AcDbHatch
 10
0.0
 20
0.0
 30
0.0
210
0.0
220
0.0
230
1.0
  2
ANSI31
 70
0
 71
0
 91
1
 92
3
 72
0
 73
1
 93
4
 10
2.4
 20
-91.1
 10
2.8
 20
-91.1
 10
2.8
 20
-89.7
 10
2.4
 20
-89.7
 97
0
 75
1
 76
1
 52
0.0
 41
0.05
 77
0
 78
1
 53
45.0
 43
0.0
 44
0.0
 45
-0.1122532015
 46
0.1122532015
 79
0
 98
0
  0
LWPOLYLINE
  5
211
330
17
100
AcDbEntity
  8
TERRENO
100
AcDbPolyline
 90
4
 70
1
 10
2.1
 20
-91.6
 10
3.1
 20
-91.6
 10
3.1
 20
-91.5
 10
2.1
 20
-91.5
  0
HATCH
  5
212
330
17
100
AcDbEntity
  8
TERRENO
 62
7
100
AcDbHatch
 10
0.0
 20
0.0
 30
0.0
210
0.0
220
0.0
230
1.0
  2
AR-SAND
 70
0
 71
0
 91
1
 92
3
 72
0
 73
1
 93
4
 10
2.1
 20
-91.6
 10
3.1
 20
-91.6
 10
3.1
 20
-91.5
 10
2.1
 20
-91.5
 97
0
 75
1
 76
1
 52
0.0
 41
0.05
 77
0
 78
4
 53
37.5
 43
0.0
 44
0.0
 45
-0.0800015648
 46
2.4470661866
 79
6
 49
0.0
 49
-1.9304
 49
0.0
 49
-2.159
 49
0.0
 49
-2.06375
 53
7.5
 43
0.0
 44
0.0
 45
2.2476164157
 46
3.5841255028
 79
6
 49
0.0
 49
-1.0414
 49
0.0
 49
-1.7399
 49
0.0
 49
-0.66675
 53
-32.5
 43
-1.5621
 44
0.0
 45
3.9549618512
 46
0.0071859234
 79
6
 49
0.0
 49
-0.635
 49
0.0
 49
-2.286
 49
0.0
 49
-2.9845
 53
-42.5
 43
-1.5621
 44
0.0
 45
3.8177822624
 46
1.1146466163
 79
6
 49
0.0
 49
-0.3175
 49
0.0
 49
-1.4986
 49
0.0
 49
-1.7145
 98
0
  0
DIMENSION
  5
213
330
17
100
AcDbEntity
  8
COTAS
100
AcDbDimension
280
0
  2
*D3
  3
EZDXF
 10
3.25
 20
-91.5
 30
0.0
 11
2.685
 21
-90.75
 31
0.0
 70
32
 71
5
  1
Df = 1,50 m
100
AcDbAlignedDimension
 13
3.45
 23
-91.5
 33
0.0
 14
3.45
 24
-90.0
 34
0.0
 50
90.0
100
AcDbRotatedDimension
1001
ACAD
1000
DSTYLE
1002
{
1070
140
1040
0.18
1070
41
1040
0.12
1002
}
  0
DIMENSION
  5
222
330
17
100
AcDbEntity
  8
COTAS
100
AcDbDimension
280
0
  2
*D4
  3
EZDXF
 10
1.55
 20
-91.5
 30
0.0
 11
0.9850000000000001
 21
-91.3
 31
0.0
 70
32
 71
5
  1
h = 0,40 m
100
AcDbAlignedDimension
 13
1.75
 23
-91.5
 33
0.0
 14
1.75
 24
-91.1
 34
0.0
 50
90.0
100
AcDbRotatedDimension
1001
ACAD
1000
DSTYLE
1002
{
1070
140
1040
0.18
1070
41
1040
0.12
1002
}
  0
TEXT
  5
231
330
17
100
AcDbEntity
  8
TEXTO
100
AcDbText
 10
2.6
 20
-89.45
 30
0.0
 40
0.22
  1
CORTE
 72
1
 11
2.6
 21
-89.45
 31
0.0
100
AcDbText
  0
TEXT
  5
232
330
17
100
AcDbEntity
  8
TEXTO
100
AcDbText
 10
2.6
 20
-91.95
 30
0.0
 40
0.16
  1
Solado 0,10 m · suelo S1/S2
 72
1
 11
2.6
 21
-91.95
 31
0.0
100
AcDbText
  0
LWPOLYLINE
  5
233
330
17
100
AcDbEntity
  8
ZAPATAS
100
AcDbPolyline
 90
4
 70
1
 10
18.5
 20
-91.5
 10
21.5
 20
-91.5
 10
21.5
 20
-88.5
 10
18.5
 20
-88.5
  0
LWPOLYLINE
  5
234
330
17
100
AcDbEntity
  8
ZAPATAS
100
AcDbPolyline
 90
4
 70
1
 10
18.75
 20
-91.25
 10
21.25
 20
-91.25
 10
21.25
 20
-88.75
 10
18.75
 20
-88.75
  0
LWPOLYLINE
  5
235
330
17
100
AcDbEntity
  8
CONCRETO
100
AcDbPolyline
 90
4
 70
1
 10
19.8
 20
-90.2
 10
20.2
 20
-90.2
 10
20.2
 20
-89.8
 10
19.8
 20
-89.8
  0
HATCH
  5
236
330
17
100
AcDbEntity
  8
CONCRETO
 62
7
100
AcDbHatch
 10
0.0
 20
0.0
 30
0.0
210
0.0
220
0.0
230
1.0
  2
ANSI31
 70
0
 71
0
 91
1
 92
3
 72
0
 73
1
 93
4
 10
19.8
 20
-90.2
 10
20.2
 20
-90.2
 10
20.2
 20
-89.8
 10
19.8
 20
-89.8
 97
0
 75
1
 76
1
 52
0.0
 41
0.05
 77
0
 78
1
 53
45.0
 43
0.0
 44
0.0
 45
-0.1122532015
 46
0.1122532015
 79
0
 98
0
  0
DIMENSION
  5
237
330
17
100
AcDbEntity
  8
COTAS
100
AcDbDimension
280
0
  2
*D5
  3
EZDXF
 10
18.5
 20
-91.64999999999999
 30
0.0
 11
20.0
 21
-91.46
 31
0.0
 70
32
 71
5
  1
B (ver cuadro)
100
AcDbAlignedDimension
 13
18.5
 23
-91.85
 33
0.0
 14
21.5
 24
-91.85
 34
0.0
 50
0.0
100
AcDbRotatedDimension
1001
ACAD
1000
DSTYLE
1002
{
1070
140
1040
0.18
1070
41
1040
0.12
1002
}
  0
TEXT
  5
246
330
17
100
AcDbEntity
  8
TEXTO
100
AcDbText
 10
20.0
 20
-88.15
 30
0.0
 40
0.22
  1
PLANTA
 72
1
 11
20.0
 21
-88.15
 31
0.0
100
AcDbText
  0
LINE
  5
247
330
17
100
AcDbEntity
  8
TERRENO
  6
CONTINUOUS
100
AcDbLine
 10
22.3
 20
-90.0
 30
0.0
 11
26.9
 21
-90.0
 31
0.0
  0
LWPOLYLINE
  5
248
330
17
100
AcDbEntity
  8
CONCRETO
100
AcDbPolyline
 90
4
 70
1
 10
23.1
 20
-91.5
 10
26.1
 20
-91.5
 10
26.1
 20
-90.9
 10
23.1
 20
-90.9
  0
HATCH
  5
249
330
17
100
AcDbEntity
  8
CONCRETO
 62
7
100
AcDbHatch
 10
0.0
 20
0.0
 30
0.0
210
0.0
220
0.0
230
1.0
  2
ANSI31
 70
0
 71
0
 91
1
 92
3
 72
0
 73
1
 93
4
 10
23.1
 20
-91.5
 10
26.1
 20
-91.5
 10
26.1
 20
-90.9
 10
23.1
 20
-90.9
 97
0
 75
1
 76
1
 52
0.0
 41
0.05
 77
0
 78
1
 53
45.0
 43
0.0
 44
0.0
 45
-0.1122532015
 46
0.1122532015
 79
0
 98
0
  0
LWPOLYLINE
  5
24A
330
17
100
AcDbEntity
  8
CONCRETO
100
AcDbPolyline
 90
4
 70
1
 10
24.4
 20
-90.9
 10
24.8
 20
-90.9
 10
24.8
 20
-89.7
 10
24.4
 20
-89.7
  0
HATCH
  5
24B
330
17
100
AcDbEntity
  8
CONCRETO
 62
7
100
AcDbHatch
 10
0.0
 20
0.0
 30
0.0
210
0.0
220
0.0
230
1.0
  2
ANSI31
 70
0
 71
0
 91
1
 92
3
 72
0
 73
1
 93
4
 10
24.4
 20
-90.9
 10
24.8
 20
-90.9
 10
24.8
 20
-89.7
 10
24.4
 20
-89.7
 97
0
 75
1
 76
1
 52
0.0
 41
0.05
 77
0
 78
1
 53
45.0
 43
0.0
 44
0.0
 45
-0.1122532015
 46
0.1122532015
 79
0
 98
0
  0
LWPOLYLINE
  5
24C
330
17
100
AcDbEntity
  8
TERRENO
100
AcDbPolyline
 90
4
 70
1
 10
23.1
 20
-91.6
 10
26.1
 20
-91.6
 10
26.1
 20
-91.5
 10
23.1
 20
-91.5
  0
HATCH
  5
24D
330
17
100
AcDbEntity
  8
TERRENO
 62
7
100
AcDbHatch
 10
0.0
 20
0.0
 30
0.0
210
0.0
220
0.0
230
1.0
  2
AR-SAND
 70
0
 71
0
 91
1
 92
3
 72
0
 73
1
 93
4
 10
23.1
 20
-91.6
 10
26.1
 20
-91.6
 10
26.1
 20
-91.5
 10
23.1
 20
-91.5
 97
0
 75
1
 76
1
 52
0.0
 41
0.05
 77
0
 78
4
 53
37.5
 43
0.0
 44
0.0
 45
-0.0800015648
 46
2.4470661866
 79
6
 49
0.0
 49
-1.9304
 49
0.0
 49
-2.159
 49
0.0
 49
-2.06375
 53
7.5
 43
0.0
 44
0.0
 45
2.2476164157
 46
3.5841255028
 79
6
 49
0.0
 49
-1.0414
 49
0.0
 49
-1.7399
 49
0.0
 49
-0.66675
 53
-32.5
 43
-1.5621
 44
0.0
 45
3.9549618512
 46
0.0071859234
 79
6
 49
0.0
 49
-0.635
 49
0.0
 49
-2.286
 49
0.0
 49
-2.9845
 53
-42.5
 43
-1.5621
 44
0.0
 45
3.8177822624
 46
1.1146466163
 79
6
 49
0.0
 49
-0.3175
 49
0.0
 49
-1.4986
 49
0.0
 49
-1.7145
 98
0
  0
DIMENSION
  5
24E
330
17
100
AcDbEntity
  8
COTAS
100
AcDbDimension
280
0
  2
*D6
  3
EZDXF
 10
26.25
 20
-91.5
 30
0.0
 11
25.685
 21
-90.75
 31
0.0
 70
32
 71
5
  1
Df = 1,50 m
100
AcDbAlignedDimension
 13
26.45
 23
-91.5
 33
0.0
 14
26.45
 24
-90.0
 34
0.0
 50
90.0
100
AcDbRotatedDimension
1001
ACAD
1000
DSTYLE
1002
{
1070
140
1040
0.18
1070
41
1040
0.12
1002
}
  0
DIMENSION
  5
25D
330
17
100
AcDbEntity
  8
COTAS
100
AcDbDimension
280
0
  2
*D7
  3
EZDXF
 10
22.55
 20
-91.5
 30
0.0
 11
21.985
 21
-91.2
 31
0.0
 70
32
 71
5
  1
h = 0,60 m
100
AcDbAlignedDimension
 13
22.75
 23
-91.5
 33
0.0
 14
22.75
 24
-90.9
 34
0.0
 50
90.0
100
AcDbRotatedDimension
1001
ACAD
1000
DSTYLE
1002
{
1070
140
1040
0.18
1070
41
1040
0.12
1002
}
  0
TEXT
  5
26C
330
17
100
AcDbEntity
  8
TEXTO
100
AcDbText
 10
24.6
 20
-89.45
 30
0.0
 40
0.22
  1
CORTE
 72
1
 11
24.6
 21
-89.45
 31
0.0
100
AcDbText
  0
TEXT
  5
26D
330
17
100
AcDbEntity
  8
TEXTO
100
AcDbText
 10
24.6
 20
-91.95
 30
0.0
 40
0.16
  1
Solado 0,10 m · suelo S1/S2
 72
1
 11
24.6
 21
-91.95
 31
0.0
100
AcDbText
  0
LINE
  5
26E
330
17
100
AcDbEntity
  8
TERRENO
  6
CONTINUOUS
100
AcDbLine
 10
41.0
 20
-90.0
 30
0.0
 11
63.5
 21
-90.0
 31
0.0
  0
LWPOLYLINE
  5
26F
330
17
100
AcDbEntity
  8
RAMPA
100
AcDbPolyline
 90
4
 70
1
 10
45.0
 20
-90.0
 10
57.5
 20
-89.0
 10
61.5
 20
-89.0
 10
61.5
 20
-90.0
  0
LWPOLYLINE
  5
270
330
17
100
AcDbEntity
  8
CONCRETO
100
AcDbPolyline
 90
6
 70
1
 10
45.0
 20
-90.0
 10
57.5
 20
-89.0
 10
61.5
 20
-89.0
 10
61.5
 20
-89.25
 10
57.5
 20
-89.25
 10
45.0
 20
-90.25
  0
LWPOLYLINE
  5
271
330
17
100
AcDbEntity
  8
TERRENO
100
AcDbPolyline
 90
6
 70
1
 10
45.0
 20
-90.25
 10
57.5
 20
-89.25
 10
61.5
 20
-89.25
 10
61.5
 20
-89.55
 10
57.5
 20
-89.55
 10
45.0
 20
-90.55
  0
DIMENSION
  5
272
330
17
100
AcDbEntity
  8
COTAS
100
AcDbDimension
280
0
  2
*D8
  3
EZDXF
 10
45.0
 20
-90.89999999999999
 30
0.0
 11
51.25
 21
-90.71
 31
0.0
 70
32
 71
5
  1
12,5 m · pendiente 8 %
100
AcDbAlignedDimension
 13
45.0
 23
-91.1
 33
0.0
 14
57.5
 24
-91.1
 34
0.0
 50
0.0
100
AcDbRotatedDimension
1001
ACAD
1000
DSTYLE
1002
{
1070
140
1040
0.18
1070
41
1040
0.12
1002
}
  0
DIMENSION
  5
281
330
17
100
AcDbEntity
  8
COTAS
100
AcDbDimension
280
0
  2
*D9
  3
EZDXF
 10
61.9
 20
-90.0
 30
0.0
 11
61.335
 21
-89.5
 31
0.0
 70
32
 71
5
  1
1,00 m
100
AcDbAlignedDimension
 13
62.1
 23
-90.0
 33
0.0
 14
62.1
 24
-89.0
 34
0.0
 50
90.0
100
AcDbRotatedDimension
1001
ACAD
1000
DSTYLE
1002
{
1070
140
1040
0.18
1070
41
1040
0.12
1002
}
  0
TEXT
  5
290
330
17
100
AcDbEntity
  8
TEXTO
100
AcDbText
 10
50.25
 20
-88.5
 30
0.0
 40
0.35
  1
Losa 0,25 m sobre base granular 0,30 m (relleno compactado)
 72
1
 11
50.25
 21
-88.5
 31
0.0
100
AcDbText
  0
TEXT
  5
291
330
17
100
AcDbEntity
  8
TEXTO
100
AcDbText
 10
59.5
 20
-88.6
 30
0.0
 40
0.3
  1
Plataforma del vagón
 72
1
 11
59.5
 21
-88.6
 31
0.0
100
AcDbText
  0
TEXT
  5
292
330
17
100
AcDbEntity
  8
TEXTO
100
AcDbText
 10
0.0
 20
-110.0
 30
0.0
 40
0.8
  1
CUADRO DE CIMENTACIONES
 11
0.0
 21
-110.0
 31
0.0
100
AcDbText
  0
TEXT
  5
293
330
17
100
AcDbEntity
  8
TEXTO
100
AcDbText
 10
0.0
 20
-111.2
 30
0.0
 40
0.5
  1
Elemento   |   Estructura   |   P servicio (kN)   |   B oriental S1 (m)   |   B occidental S2 (m)   |   h (m)
 11
0.0
 21
-111.2
 31
0.0
100
AcDbText
  0
TEXT
  5
294
330
17
100
AcDbEntity
  8
TEXTO
100
AcDbText
 10
0.0
 20
-112.4
 30
0.0
 40
0.5
  1
Z-1   |   Marquesina metálica del andén de carga   |   53   |   1,0   |   1,0   |   0,40
 11
0.0
 21
-112.4
 31
0.0
100
AcDbText
  0
TEXT
  5
295
330
17
100
AcDbEntity
  8
TEXTO
100
AcDbText
 10
0.0
 20
-113.60000000000001
 30
0.0
 40
0.5
  1
Z-2   |   Edificio de control, 2 pisos, pórticos de concreto   |   701   |   2,5   |   3,0   |   0,60
 11
0.0
 21
-113.60000000000001
 31
0.0
100
AcDbText
  0
TEXT
  5
296
330
17
100
AcDbEntity
  8
TEXTO
100
AcDbText
 10
0.0
 20
-114.80000000000001
 30
0.0
 40
0.5
  1
R-1   |   Rampa de tractomulas (3S3)   |   42 kPa   |   losa sobre terreno   |   losa sobre terreno   |   0,25
 11
0.0
 21
-114.80000000000001
 31
0.0
100
AcDbText
  0
TEXT
  5
297
330
17
100
AcDbEntity
  8
TEXTO
100
AcDbText
 10
0.0
 20
-117.80000000000001
 30
0.0
 40
0.45
  1
ESQUEMA CONCEPTUAL, NO APTO PARA CONSTRUCCIÓN. Parámetros del suelo análogos (Act 3) y admisible como rango (Act 4).
 11
0.0
 21
-117.80000000000001
 31
0.0
100
AcDbText
  0
TEXT
  5
298
330
17
100
AcDbEntity
  8
TEXTO
100
AcDbText
 10
0.0
 20
-118.80000000000001
 30
0.0
 40
0.45
  1
B adoptado = caso típico con NF en la base; zapatas cuadradas, carga centrada; Df y ρadm = 25 mm de la Act 4.
 11
0.0
 21
-118.80000000000001
 31
0.0
100
AcDbText
  0
TEXT
  5
299
330
17
100
AcDbEntity
  8
TEXTO
100
AcDbText
 10
0.0
 20
-119.80000000000001
 30
0.0
 40
0.45
  1
Con los parámetros MÍNIMOS ninguna zapata aislada ≤ 6 m sirve para el edificio y la rampa exige sustituir el suelo: la exploración (NSR-10 H.3) decide.
 11
0.0
 21
-119.80000000000001
 31
0.0
100
AcDbText
  0
TEXT
  5
29A
330
17
100
AcDbEntity
  8
TEXTO
100
AcDbText
 10
0.0
 20
-120.80000000000001
 30
0.0
 40
0.45
  1
No incluye viento (NSR-10 B.6), que puede gobernar el arranque de la marquesina, ni el diseño estructural (NSR-10 C.15).
 11
0.0
 21
-120.80000000000001
 31
0.0
100
AcDbText
  0
TEXT
  5
29B
330
17
100
AcDbEntity
  8
TEXTO
100
AcDbText
 10
0.0
 20
-122.80000000000001
 30
0.0
 40
0.6
  1
Semillero GEOPAV · Universidad de Ibagué · Ferropista · OE 3 Act 5 · Plano conceptual de cimentación de las terminales Ro-Ro · Unidades: m
 11
0.0
 21
-122.80000000000001
 31
0.0
100
AcDbText
  0
ENDSEC
  0
SECTION
  2
OBJECTS
  0
DICTIONARY
  5
A
330
0
100
AcDbDictionary
281
1
  3
ACAD_COLOR
350
B
  3
ACAD_GROUP
350
C
  3
ACAD_LAYOUT
350
D
  3
ACAD_MATERIAL
350
E
  3
ACAD_MLEADERSTYLE
350
F
  3
ACAD_MLINESTYLE
350
10
  3
ACAD_PLOTSETTINGS
350
11
  3
ACAD_PLOTSTYLENAME
350
12
  3
ACAD_SCALELIST
350
14
  3
ACAD_TABLESTYLE
350
15
  3
ACAD_VISUALSTYLE
350
16
  3
EZDXF_META
350
2D
  0
DICTIONARY
  5
B
330
A
100
AcDbDictionary
281
1
  0
DICTIONARY
  5
C
330
A
100
AcDbDictionary
281
1
  0
DICTIONARY
  5
D
330
A
100
AcDbDictionary
281
1
  3
Model
350
1A
  3
Layout1
350
1E
  0
DICTIONARY
  5
E
330
A
100
AcDbDictionary
281
1
  3
ByBlock
350
1F
  3
ByLayer
350
20
  3
Global
350
21
  0
DICTIONARY
  5
F
330
A
100
AcDbDictionary
281
1
  3
Standard
350
2C
  0
DICTIONARY
  5
10
330
A
100
AcDbDictionary
281
1
  3
Standard
350
22
  0
DICTIONARY
  5
11
330
A
100
AcDbDictionary
281
1
  0
ACDBDICTIONARYWDFLT
  5
12
330
A
100
AcDbDictionary
281
1
  3
Normal
350
13
100
AcDbDictionaryWithDefault
340
13
  0
ACDBPLACEHOLDER
  5
13
330
12
  0
DICTIONARY
  5
14
330
A
100
AcDbDictionary
281
1
  0
DICTIONARY
  5
15
330
A
100
AcDbDictionary
281
1
  0
DICTIONARY
  5
16
330
A
100
AcDbDictionary
281
1
  3
2dWireframe
350
5A
  3
Basic
350
5B
  3
Brighten
350
5C
  3
ColorChange
350
5D
  3
Conceptual
350
5E
  3
Dim
350
5F
  3
EdgeColorOff
350
60
  3
Facepattern
350
61
  3
Flat
350
62
  3
FlatWithEdges
350
63
  3
Gouraud
350
64
  3
GouraudWithEdges
350
65
  3
Hidden
350
66
  3
JitterOff
350
67
  3
Linepattern
350
68
  3
Modeling
350
69
  3
OverhangOff
350
6A
  3
Realistic
350
6B
  3
Shaded
350
6C
  3
Shaded with edges
350
6D
  3
Shades of Gray
350
6E
  3
Sketchy
350
6F
  3
Thicken
350
70
  3
Wireframe
350
71
  3
X-Ray
350
72
  0
LAYOUT
  5
1A
330
D
100
AcDbPlotSettings
  1

  4
A3
  6

 40
7.5
 41
20.0
 42
7.5
 43
20.0
 44
420.0
 45
297.0
 46
0.0
 47
0.0
 48
0.0
 49
0.0
140
0.0
141
0.0
142
1.0
143
1.0
 70
1024
 72
1
 73
0
 74
5
  7

 75
16
 76
0
 77
2
 78
300
147
1.0
148
0.0
149
0.0
100
AcDbLayout
  1
Model
 70
1
 71
0
 10
0.0
 20
0.0
 11
420.0
 21
297.0
 12
0.0
 22
0.0
 32
0.0
 14
1e+20
 24
1e+20
 34
1e+20
 15
-1e+20
 25
-1e+20
 35
-1e+20
146
0.0
 13
0.0
 23
0.0
 33
0.0
 16
1.0
 26
0.0
 36
0.0
 17
0.0
 27
1.0
 37
0.0
 76
1
330
17
  0
LAYOUT
  5
1E
330
D
100
AcDbPlotSettings
  1

  4
A3
  6

 40
7.5
 41
20.0
 42
7.5
 43
20.0
 44
420.0
 45
297.0
 46
0.0
 47
0.0
 48
0.0
 49
0.0
140
0.0
141
0.0
142
1.0
143
1.0
 70
0
 72
1
 73
0
 74
5
  7

 75
16
 76
0
 77
2
 78
300
147
1.0
148
0.0
149
0.0
100
AcDbLayout
  1
Layout1
 70
1
 71
1
 10
0.0
 20
0.0
 11
420.0
 21
297.0
 12
0.0
 22
0.0
 32
0.0
 14
1e+20
 24
1e+20
 34
1e+20
 15
-1e+20
 25
-1e+20
 35
-1e+20
146
0.0
 13
0.0
 23
0.0
 33
0.0
 16
1.0
 26
0.0
 36
0.0
 17
0.0
 27
1.0
 37
0.0
 76
1
330
1B
  0
MATERIAL
  5
1F
102
{ACAD_REACTORS
330
E
102
}
330
E
100
AcDbMaterial
  1
ByBlock
  2

 70
0
 40
1.0
 71
1
 41
1.0
 91
-1023410177
 42
1.0
 72
1
  3

 73
1
 74
1
 75
1
 44
0.5
 73
0
 45
1.0
 46
1.0
 77
1
  4

 78
1
 79
1
170
1
 48
1.0
171
1
  6

172
1
173
1
174
1
140
1.0
141
1.0
175
1
  7

176
1
177
1
178
1
143
1.0
179
1
  8

270
1
271
1
272
1
145
1.0
146
1.0
273
1
  9

274
1
275
1
276
1
 42
1.0
 72
1
  3

 73
1
 74
1
 75
1
 94
63
  0
MATERIAL
  5
20
102
{ACAD_REACTORS
330
E
102
}
330
E
100
AcDbMaterial
  1
ByLayer
  2

 70
0
 40
1.0
 71
1
 41
1.0
 91
-1023410177
 42
1.0
 72
1
  3

 73
1
 74
1
 75
1
 44
0.5
 73
0
 45
1.0
 46
1.0
 77
1
  4

 78
1
 79
1
170
1
 48
1.0
171
1
  6

172
1
173
1
174
1
140
1.0
141
1.0
175
1
  7

176
1
177
1
178
1
143
1.0
179
1
  8

270
1
271
1
272
1
145
1.0
146
1.0
273
1
  9

274
1
275
1
276
1
 42
1.0
 72
1
  3

 73
1
 74
1
 75
1
 94
63
  0
MATERIAL
  5
21
102
{ACAD_REACTORS
330
E
102
}
330
E
100
AcDbMaterial
  1
Global
  2

 70
0
 40
1.0
 71
1
 41
1.0
 91
-1023410177
 42
1.0
 72
1
  3

 73
1
 74
1
 75
1
 44
0.5
 73
0
 45
1.0
 46
1.0
 77
1
  4

 78
1
 79
1
170
1
 48
1.0
171
1
  6

172
1
173
1
174
1
140
1.0
141
1.0
175
1
  7

176
1
177
1
178
1
143
1.0
179
1
  8

270
1
271
1
272
1
145
1.0
146
1.0
273
1
  9

274
1
275
1
276
1
 42
1.0
 72
1
  3

 73
1
 74
1
 75
1
 94
63
  0
MLINESTYLE
  5
22
102
{ACAD_REACTORS
330
10
102
}
330
10
100
AcDbMlineStyle
  2
Standard
 70
0
  3

 62
256
 51
90.0
 52
90.0
 71
2
 49
0.5
 62
256
  6
BYLAYER
 49
-0.5
 62
256
  6
BYLAYER
  0
MLEADERSTYLE
  5
2C
102
{ACAD_REACTORS
330
F
102
}
330
F
100
AcDbMLeaderStyle
179
2
170
2
171
1
172
0
 90
2
 40
0.0
 41
0.0
173
1
 91
-1056964608
 92
-2
290
1
 42
2.0
291
1
 43
8.0
  3
Standard
 44
4.0
300

342
29
174
1
175
1
176
0
178
1
 93
-1056964608
 45
4.0
292
0
297
0
 46
4.0
 94
-1056964608
 47
1.0
 49
1.0
140
1.0
294
1
141
0.0
177
0
142
1.0
295
0
296
0
143
3.75
271
0
272
9
273
9
  0
DICTIONARY
  5
2D
330
A
100
AcDbDictionary
280
1
281
1
  3
CREATED_BY_EZDXF
350
2E
  3
WRITTEN_BY_EZDXF
350
29E
  0
DICTIONARYVAR
  5
2E
330
2D
100
DictionaryVariables
280
0
  1
1.4.4 @ 2026-09-29T01:21:14.526694+00:00
  0
VISUALSTYLE
  5
5A
102
{ACAD_REACTORS
330
16
102
}
330
16
100
AcDbVisualStyle
  2
2dWireframe
 70
4
 90
0
 40
0.6
 62
7
290
0
291
0
  0
VISUALSTYLE
  5
5B
102
{ACAD_REACTORS
330
16
102
}
330
16
100
AcDbVisualStyle
  2
Basic
 70
7
 90
1
 40
0.6
 62
7
290
0
291
1
  0
VISUALSTYLE
  5
5C
102
{ACAD_REACTORS
330
16
102
}
330
16
100
AcDbVisualStyle
  2
Brighten
 70
12
 90
2
 40
0.6
 62
7
290
0
291
1
  0
VISUALSTYLE
  5
5D
102
{ACAD_REACTORS
330
16
102
}
330
16
100
AcDbVisualStyle
  2
ColorChange
 70
16
 90
2
 40
0.6
 62
8
290
0
291
1
  0
VISUALSTYLE
  5
5E
102
{ACAD_REACTORS
330
16
102
}
330
16
100
AcDbVisualStyle
  2
Conceptual
 70
9
 90
3
 40
0.6
 62
7
290
0
291
0
  0
VISUALSTYLE
  5
5F
102
{ACAD_REACTORS
330
16
102
}
330
16
100
AcDbVisualStyle
  2
Dim
 70
11
 90
2
 40
0.6
 62
7
290
0
291
1
  0
VISUALSTYLE
  5
60
102
{ACAD_REACTORS
330
16
102
}
330
16
100
AcDbVisualStyle
  2
EdgeColorOff
 70
22
 90
2
 40
0.6
 62
7
290
0
291
1
  0
VISUALSTYLE
  5
61
102
{ACAD_REACTORS
330
16
102
}
330
16
100
AcDbVisualStyle
  2
Facepattern
 70
15
 90
2
 40
0.6
 62
7
290
0
291
1
  0
VISUALSTYLE
  5
62
102
{ACAD_REACTORS
330
16
102
}
330
16
100
AcDbVisualStyle
  2
Flat
 70
0
 90
2
 40
0.6
 62
7
290
0
291
1
  0
VISUALSTYLE
  5
63
102
{ACAD_REACTORS
330
16
102
}
330
16
100
AcDbVisualStyle
  2
FlatWithEdges
 70
1
 90
2
 40
0.6
 62
7
290
0
291
1
  0
VISUALSTYLE
  5
64
102
{ACAD_REACTORS
330
16
102
}
330
16
100
AcDbVisualStyle
  2
Gouraud
 70
2
 90
2
 40
0.6
 62
7
290
0
291
1
  0
VISUALSTYLE
  5
65
102
{ACAD_REACTORS
330
16
102
}
330
16
100
AcDbVisualStyle
  2
GouraudWithEdges
 70
3
 90
2
 40
0.6
 62
7
290
0
291
1
  0
VISUALSTYLE
  5
66
102
{ACAD_REACTORS
330
16
102
}
330
16
100
AcDbVisualStyle
  2
Hidden
 70
6
 90
1
 40
0.6
 62
7
290
0
291
0
  0
VISUALSTYLE
  5
67
102
{ACAD_REACTORS
330
16
102
}
330
16
100
AcDbVisualStyle
  2
JitterOff
 70
20
 90
2
 40
0.6
 62
7
290
0
291
1
  0
VISUALSTYLE
  5
68
102
{ACAD_REACTORS
330
16
102
}
330
16
100
AcDbVisualStyle
  2
Linepattern
 70
14
 90
2
 40
0.6
 62
7
290
0
291
1
  0
VISUALSTYLE
  5
69
102
{ACAD_REACTORS
330
16
102
}
330
16
100
AcDbVisualStyle
  2
Modeling
 70
10
 90
2
 40
0.6
 62
7
290
0
291
0
  0
VISUALSTYLE
  5
6A
102
{ACAD_REACTORS
330
16
102
}
330
16
100
AcDbVisualStyle
  2
OverhangOff
 70
21
 90
2
 40
0.6
 62
7
290
0
291
1
  0
VISUALSTYLE
  5
6B
102
{ACAD_REACTORS
330
16
102
}
330
16
100
AcDbVisualStyle
  2
Realistic
 70
8
 90
2
 40
0.6
 62
7
290
0
291
0
  0
VISUALSTYLE
  5
6C
102
{ACAD_REACTORS
330
16
102
}
330
16
100
AcDbVisualStyle
  2
Shaded
 70
27
 90
2
 40
0.6
 62
7
290
0
291
0
  0
VISUALSTYLE
  5
6D
102
{ACAD_REACTORS
330
16
102
}
330
16
100
AcDbVisualStyle
  2
Shaded with edges
 70
26
 90
2
 40
0.6
 62
7
290
0
291
0
  0
VISUALSTYLE
  5
6E
102
{ACAD_REACTORS
330
16
102
}
330
16
100
AcDbVisualStyle
  2
Shades of Gray
 70
23
 90
2
 40
0.6
 62
7
290
0
291
0
  0
VISUALSTYLE
  5
6F
102
{ACAD_REACTORS
330
16
102
}
330
16
100
AcDbVisualStyle
  2
Sketchy
 70
24
 90
1
 40
0.6
 62
7
290
0
291
0
  0
VISUALSTYLE
  5
70
102
{ACAD_REACTORS
330
16
102
}
330
16
100
AcDbVisualStyle
  2
Thicken
 70
13
 90
2
 40
0.6
 62
7
290
0
291
1
  0
VISUALSTYLE
  5
71
102
{ACAD_REACTORS
330
16
102
}
330
16
100
AcDbVisualStyle
  2
Wireframe
 70
5
 90
0
 40
0.6
 62
7
290
0
291
0
  0
VISUALSTYLE
  5
72
102
{ACAD_REACTORS
330
16
102
}
330
16
100
AcDbVisualStyle
  2
X-Ray
 70
25
 90
2
 40
0.5
 62
7
290
0
291
0
  0
DICTIONARYVAR
  5
29E
330
2D
100
DictionaryVariables
280
0
  1
1.4.4 @ 2026-09-29T01:21:14.581638+00:00
  0
ENDSEC
  0
EOF
