  0
SECTION
  2
HEADER
  9
$ACADVER
  1
AC1024
  9
$ACADMAINTVER
 70
6
  9
$DWGCODEPAGE
  3
ANSI_1252
  9
$LASTSAVEDBY
  1
ezdxf
  9
$INSBASE
 10
0.0
 20
0.0
 30
0.0
  9
$EXTMIN
 10
1e+20
 20
1e+20
 30
1e+20
  9
$EXTMAX
 10
-1e+20
 20
-1e+20
 30
-1e+20
  9
$LIMMIN
 10
0.0
 20
0.0
  9
$LIMMAX
 10
420.0
 20
297.0
  9
$ORTHOMODE
 70
0
  9
$REGENMODE
 70
1
  9
$FILLMODE
 70
1
  9
$QTEXTMODE
 70
0
  9
$MIRRTEXT
 70
1
  9
$LTSCALE
 40
1.0
  9
$ATTMODE
 70
1
  9
$TEXTSIZE
 40
2.5
  9
$TRACEWID
 40
1.0
  9
$TEXTSTYLE
  7
OpenSans
  9
$CLAYER
  8
0
  9
$CELTYPE
  6
ByLayer
  9
$CECOLOR
 62
256
  9
$CELTSCALE
 40
1.0
  9
$DISPSILH
 70
0
  9
$DIMSCALE
 40
1.0
  9
$DIMASZ
 40
0.175
  9
$DIMEXO
 40
0.125
  9
$DIMDLI
 40
3.75
  9
$DIMRND
 40
0.0
  9
$DIMDLE
 40
0.0
  9
$DIMEXE
 40
0.375
  9
$DIMTP
 40
0.0
  9
$DIMTM
 40
0.0
  9
$DIMTXT
 40
0.25
  9
$DIMCEN
 40
2.5
  9
$DIMTSZ
 40
0.0
  9
$DIMTOL
 70
0
  9
$DIMLIM
 70
0
  9
$DIMTIH
 70
0
  9
$DIMTOH
 70
0
  9
$DIMSE1
 70
0
  9
$DIMSE2
 70
0
  9
$DIMTAD
 70
1
  9
$DIMZIN
 70
12
  9
$DIMBLK
  1
ARCHTICK
  9
$DIMASO
 70
1
  9
$DIMSHO
 70
1
  9
$DIMPOST
  1

  9
$DIMAPOST
  1

  9
$DIMALT
 70
0
  9
$DIMALTD
 70
3
  9
$DIMALTF
 40
0.03937007874
  9
$DIMLFAC
 40
100.0
  9
$DIMTOFL
 70
1
  9
$DIMTVP
 40
0.0
  9
$DIMTIX
 70
0
  9
$DIMSOXD
 70
0
  9
$DIMSAH
 70
0
  9
$DIMBLK1
  1

  9
$DIMBLK2
  1

  9
$DIMSTYLE
  2
EZDXF
  9
$DIMCLRD
 70
0
  9
$DIMCLRE
 70
0
  9
$DIMCLRT
 70
0
  9
$DIMTFAC
 40
0.5
  9
$DIMGAP
 40
0.1
  9
$DIMJUST
 70
0
  9
$DIMSD1
 70
0
  9
$DIMSD2
 70
0
  9
$DIMTOLJ
 70
0
  9
$DIMTZIN
 70
8
  9
$DIMALTZ
 70
0
  9
$DIMALTTZ
 70
0
  9
$DIMUPT
 70
1
  9
$DIMDEC
 70
2
  9
$DIMTDEC
 70
2
  9
$DIMALTU
 70
2
  9
$DIMALTTD
 70
3
  9
$DIMTXSTY
  7
OpenSansCondensed-Light
  9
$DIMAUNIT
 70
0
  9
$DIMADEC
 70
2
  9
$DIMALTRND
 40
0.0
  9
$DIMAZIN
 70
3
  9
$DIMDSEP
 70
46
  9
$DIMATFIT
 70
3
  9
$DIMFRAC
 70
0
  9
$DIMLDRBLK
  1

  9
$DIMLUNIT
 70
2
  9
$DIMLWD
 70
-2
  9
$DIMLWE
 70
-2
  9
$DIMTMOVE
 70
2
  9
$DIMFXL
 40
1.0
  9
$DIMFXLON
 70
0
  9
$DIMJOGANG
 40
0.785398163397
  9
$DIMTFILL
 70
0
  9
$DIMTFILLCLR
 70
0
  9
$DIMARCSYM
 70
0
  9
$DIMLTYPE
  6

  9
$DIMLTEX1
  6

  9
$DIMLTEX2
  6

  9
$DIMTXTDIRECTION
 70
0
  9
$LUNITS
 70
2
  9
$LUPREC
 70
4
  9
$SKETCHINC
 40
1.0
  9
$FILLETRAD
 40
10.0
  9
$AUNITS
 70
0
  9
$AUPREC
 70
2
  9
$MENU
  1
.
  9
$ELEVATION
 40
0.0
  9
$PELEVATION
 40
0.0
  9
$THICKNESS
 40
0.0
  9
$LIMCHECK
 70
0
  9
$CHAMFERA
 40
0.0
  9
$CHAMFERB
 40
0.0
  9
$CHAMFERC
 40
0.0
  9
$CHAMFERD
 40
0.0
  9
$SKPOLY
 70
0
  9
$TDCREATE
 40
2461313.406828704
  9
$TDUCREATE
 40
2458532.153996898
  9
$TDUPDATE
 40
2461313.406828704
  9
$TDUUPDATE
 40
2458532.1544311
  9
$TDINDWG
 40
0.0
  9
$TDUSRTIMER
 40
0.0
  9
$USRTIMER
 70
1
  9
$ANGBASE
 50
0.0
  9
$ANGDIR
 70
0
  9
$PDMODE
 70
0
  9
$PDSIZE
 40
0.0
  9
$PLINEWID
 40
0.0
  9
$SPLFRAME
 70
0
  9
$SPLINETYPE
 70
6
  9
$SPLINESEGS
 70
8
  9
$HANDSEED
  5
116
  9
$SURFTAB1
 70
6
  9
$SURFTAB2
 70
6
  9
$SURFTYPE
 70
6
  9
$SURFU
 70
6
  9
$SURFV
 70
6
  9
$UCSBASE
  2

  9
$UCSNAME
  2

  9
$UCSORG
 10
0.0
 20
0.0
 30
0.0
  9
$UCSXDIR
 10
1.0
 20
0.0
 30
0.0
  9
$UCSYDIR
 10
0.0
 20
1.0
 30
0.0
  9
$UCSORTHOREF
  2

  9
$UCSORTHOVIEW
 70
0
  9
$UCSORGTOP
 10
0.0
 20
0.0
 30
0.0
  9
$UCSORGBOTTOM
 10
0.0
 20
0.0
 30
0.0
  9
$UCSORGLEFT
 10
0.0
 20
0.0
 30
0.0
  9
$UCSORGRIGHT
 10
0.0
 20
0.0
 30
0.0
  9
$UCSORGFRONT
 10
0.0
 20
0.0
 30
0.0
  9
$UCSORGBACK
 10
0.0
 20
0.0
 30
0.0
  9
$PUCSBASE
  2

  9
$PUCSNAME
  2

  9
$PUCSORG
 10
0.0
 20
0.0
 30
0.0
  9
$PUCSXDIR
 10
1.0
 20
0.0
 30
0.0
  9
$PUCSYDIR
 10
0.0
 20
1.0
 30
0.0
  9
$PUCSORTHOREF
  2

  9
$PUCSORTHOVIEW
 70
0
  9
$PUCSORGTOP
 10
0.0
 20
0.0
 30
0.0
  9
$PUCSORGBOTTOM
 10
0.0
 20
0.0
 30
0.0
  9
$PUCSORGLEFT
 10
0.0
 20
0.0
 30
0.0
  9
$PUCSORGRIGHT
 10
0.0
 20
0.0
 30
0.0
  9
$PUCSORGFRONT
 10
0.0
 20
0.0
 30
0.0
  9
$PUCSORGBACK
 10
0.0
 20
0.0
 30
0.0
  9
$USERI1
 70
0
  9
$USERI2
 70
0
  9
$USERI3
 70
0
  9
$USERI4
 70
0
  9
$USERI5
 70
0
  9
$USERR1
 40
0.0
  9
$USERR2
 40
0.0
  9
$USERR3
 40
0.0
  9
$USERR4
 40
0.0
  9
$USERR5
 40
0.0
  9
$WORLDVIEW
 70
1
  9
$SHADEDGE
 70
3
  9
$SHADEDIF
 70
70
  9
$TILEMODE
 70
1
  9
$MAXACTVP
 70
64
  9
$PINSBASE
 10
0.0
 20
0.0
 30
0.0
  9
$PLIMCHECK
 70
0
  9
$PEXTMIN
 10
1e+20
 20
1e+20
 30
1e+20
  9
$PEXTMAX
 10
-1e+20
 20
-1e+20
 30
-1e+20
  9
$PLIMMIN
 10
0.0
 20
0.0
  9
$PLIMMAX
 10
420.0
 20
297.0
  9
$UNITMODE
 70
0
  9
$VISRETAIN
 70
1
  9
$PLINEGEN
 70
0
  9
$PSLTSCALE
 70
1
  9
$TREEDEPTH
 70
3020
  9
$CMLSTYLE
  2
Standard
  9
$CMLJUST
 70
0
  9
$CMLSCALE
 40
20.0
  9
$PROXYGRAPHICS
 70
1
  9
$MEASUREMENT
 70
1
  9
$CELWEIGHT
370
-1
  9
$ENDCAPS
280
0
  9
$JOINSTYLE
280
0
  9
$LWDISPLAY
290
0
  9
$INSUNITS
 70
6
  9
$HYPERLINKBASE
  1

  9
$STYLESHEET
  1

  9
$XEDIT
290
1
  9
$CEPSNTYPE
380
0
  9
$PSTYLEMODE
290
1
  9
$FINGERPRINTGUID
  2
{CEC6FEC0-1D58-4D36-B23D-D7BFECF5049E}
  9
$VERSIONGUID
  2
{BA176152-C018-47F0-99C2-1BD0E19691A0}
  9
$EXTNAMES
290
1
  9
$PSVPSCALE
 40
0.0
  9
$OLESTARTUP
290
0
  9
$SORTENTS
280
127
  9
$INDEXCTL
280
0
  9
$HIDETEXT
280
1
  9
$XCLIPFRAME
280
1
  9
$HALOGAP
280
0
  9
$OBSCOLOR
 70
257
  9
$OBSLTYPE
280
0
  9
$INTERSECTIONDISPLAY
280
0
  9
$INTERSECTIONCOLOR
 70
257
  9
$DIMASSOC
280
2
  9
$PROJECTNAME
  1

  9
$CAMERADISPLAY
290
0
  9
$LENSLENGTH
 40
50.0
  9
$CAMERAHEIGHT
 40
0.0
  9
$STEPSPERSEC
 40
24.0
  9
$STEPSIZE
 40
100.0
  9
$3DDWFPREC
 40
2.0
  9
$PSOLWIDTH
 40
0.005
  9
$PSOLHEIGHT
 40
0.08
  9
$LOFTANG1
 40
1.570796326795
  9
$LOFTANG2
 40
1.570796326795
  9
$LOFTMAG1
 40
0.0
  9
$LOFTMAG2
 40
0.0
  9
$LOFTPARAM
 70
7
  9
$LOFTNORMALS
280
1
  9
$LATITUDE
 40
37.795
  9
$LONGITUDE
 40
-122.394
  9
$NORTHDIRECTION
 40
0.0
  9
$TIMEZONE
 70
-8000
  9
$LIGHTGLYPHDISPLAY
280
1
  9
$TILEMODELIGHTSYNCH
280
1
  9
$CMATERIAL
347
20
  9
$SOLIDHIST
280
0
  9
$SHOWHIST
280
1
  9
$DWFFRAME
280
2
  9
$DGNFRAME
280
2
  9
$REALWORLDSCALE
290
1
  9
$INTERFERECOLOR
 62
256
  9
$CSHADOW
280
0
  9
$SHADOWPLANELOCATION
 40
0.0
  0
ENDSEC
  0
SECTION
  2
CLASSES
  0
CLASS
  1
ACDBDICTIONARYWDFLT
  2
AcDbDictionaryWithDefault
  3
ObjectDBX Classes
 90
0
 91
0
280
0
281
0
  0
CLASS
  1
SUN
  2
AcDbSun
  3
SCENEOE
 90
1153
 91
0
280
0
281
0
  0
CLASS
  1
VISUALSTYLE
  2
AcDbVisualStyle
  3
ObjectDBX Classes
 90
4095
 91
0
280
0
281
0
  0
CLASS
  1
MATERIAL
  2
AcDbMaterial
  3
ObjectDBX Classes
 90
1153
 91
0
280
0
281
0
  0
CLASS
  1
SCALE
  2
AcDbScale
  3
ObjectDBX Classes
 90
1153
 91
0
280
0
281
0
  0
CLASS
  1
TABLESTYLE
  2
AcDbTableStyle
  3
ObjectDBX Classes
 90
4095
 91
0
280
0
281
0
  0
CLASS
  1
MLEADERSTYLE
  2
AcDbMLeaderStyle
  3
ACDB_MLEADERSTYLE_CLASS
 90
4095
 91
0
280
0
281
0
  0
CLASS
  1
DICTIONARYVAR
  2
AcDbDictionaryVar
  3
ObjectDBX Classes
 90
0
 91
0
280
0
281
0
  0
CLASS
  1
CELLSTYLEMAP
  2
AcDbCellStyleMap
  3
ObjectDBX Classes
 90
1152
 91
0
280
0
281
0
  0
CLASS
  1
MENTALRAYRENDERSETTINGS
  2
AcDbMentalRayRenderSettings
  3
SCENEOE
 90
1024
 91
0
280
0
281
0
  0
CLASS
  1
ACDBDETAILVIEWSTYLE
  2
AcDbDetailViewStyle
  3
ObjectDBX Classes
 90
1025
 91
0
280
0
281
0
  0
CLASS
  1
ACDBSECTIONVIEWSTYLE
  2
AcDbSectionViewStyle
  3
ObjectDBX Classes
 90
1025
 91
0
280
0
281
0
  0
CLASS
  1
RASTERVARIABLES
  2
AcDbRasterVariables
  3
ISM
 90
0
 91
0
280
0
281
0
  0
CLASS
  1
LAYOUT
  2
AcDbLayout
  3
ObjectDBX Classes
 90
0
 91
0
280
0
281
0
  0
CLASS
  1
ACDBPLACEHOLDER
  2
AcDbPlaceHolder
  3
ObjectDBX Classes
 90
0
 91
0
280
0
281
0
  0
ENDSEC
  0
SECTION
  2
TABLES
  0
TABLE
  2
VPORT
  5
8
330
0
100
AcDbSymbolTable
 70
1
  0
VPORT
  5
23
330
8
100
AcDbSymbolTableRecord
100
AcDbViewportTableRecord
  2
*Active
 70
0
 10
0.0
 20
0.0
 11
1.0
 21
1.0
 12
0.0
 22
0.0
 13
0.0
 23
0.0
 14
0.5
 24
0.5
 15
0.5
 25
0.5
 16
0.0
 26
0.0
 36
1.0
 17
0.0
 27
0.0
 37
0.0
 40
1000.0
 41
1.34
 42
50.0
 43
0.0
 44
0.0
 50
0.0
 51
0.0
 71
0
 72
1000
 73
1
 74
3
 75
0
 76
0
 77
0
 78
0
281
0
 65
0
146
0.0
  0
ENDTAB
  0
TABLE
  2
LTYPE
  5
2
330
0
100
AcDbSymbolTable
 70
21
  0
LTYPE
  5
24
330
2
100
AcDbSymbolTableRecord
100
AcDbLinetypeTableRecord
  2
ByBlock
 70
0
  3

 72
65
 73
0
 40
0.0
  0
LTYPE
  5
25
330
2
100
AcDbSymbolTableRecord
100
AcDbLinetypeTableRecord
  2
ByLayer
 70
0
  3

 72
65
 73
0
 40
0.0
  0
LTYPE
  5
26
330
2
100
AcDbSymbolTableRecord
100
AcDbLinetypeTableRecord
  2
Continuous
 70
0
  3

 72
65
 73
0
 40
0.0
  0
LTYPE
  5
2F
330
2
100
AcDbSymbolTableRecord
100
AcDbLinetypeTableRecord
  2
CENTER
 70
0
  3
Center ____ _ ____ _ ____ _ ____ _ ____ _ ____
 72
65
 73
4
 40
5.08
 49
3.175
 74
0
 49
-0.635
 74
0
 49
0.635
 74
0
 49
-0.635
 74
0
  0
LTYPE
  5
30
330
2
100
AcDbSymbolTableRecord
100
AcDbLinetypeTableRecord
  2
CENTERX2
 70
0
  3
Center (2x) ________  __  ________  __  ________
 72
65
 73
4
 40
8.89
 49
6.35
 74
0
 49
-0.635
 74
0
 49
1.27
 74
0
 49
-0.635
 74
0
  0
LTYPE
  5
31
330
2
100
AcDbSymbolTableRecord
100
AcDbLinetypeTableRecord
  2
CENTER2
 70
0
  3
Center (.5x) ____ _ ____ _ ____ _ ____ _ ____
 72
65
 73
4
 40
2.54
 49
1.587
 74
0
 49
-0.318
 74
0
 49
0.318
 74
0
 49
-0.318
 74
0
  0
LTYPE
  5
32
330
2
100
AcDbSymbolTableRecord
100
AcDbLinetypeTableRecord
  2
DASHED
 70
0
  3
Dashed __ __ __ __ __ __ __ __ __ __ __ __ __ _
 72
65
 73
2
 40
1.524
 49
1.27
 74
0
 49
-0.254
 74
0
  0
LTYPE
  5
33
330
2
100
AcDbSymbolTableRecord
100
AcDbLinetypeTableRecord
  2
DASHEDX2
 70
0
  3
Dashed (2x) ____  ____  ____  ____  ____  ____
 72
65
 73
2
 40
3.048
 49
2.54
 74
0
 49
-0.508
 74
0
  0
LTYPE
  5
34
330
2
100
AcDbSymbolTableRecord
100
AcDbLinetypeTableRecord
  2
DASHED2
 70
0
  3
Dashed (.5x) _ _ _ _ _ _ _ _ _ _ _ _ _ _
 72
65
 73
2
 40
0.762
 49
0.635
 74
0
 49
-0.127
 74
0
  0
LTYPE
  5
35
330
2
100
AcDbSymbolTableRecord
100
AcDbLinetypeTableRecord
  2
PHANTOM
 70
0
  3
Phantom ______  __  __  ______  __  __  ______
 72
65
 73
6
 40
6.35
 49
3.175
 74
0
 49
-0.635
 74
0
 49
0.635
 74
0
 49
-0.635
 74
0
 49
0.635
 74
0
 49
-0.635
 74
0
  0
LTYPE
  5
36
330
2
100
AcDbSymbolTableRecord
100
AcDbLinetypeTableRecord
  2
PHANTOMX2
 70
0
  3
Phantom (2x)____________    ____    ____    ____________
 72
65
 73
6
 40
10.795
 49
6.35
 74
0
 49
-0.635
 74
0
 49
1.27
 74
0
 49
-0.635
 74
0
 49
1.27
 74
0
 49
-0.635
 74
0
  0
LTYPE
  5
37
330
2
100
AcDbSymbolTableRecord
100
AcDbLinetypeTableRecord
  2
PHANTOM2
 70
0
  3
Phantom (.5x) ___ _ _ ___ _ _ ___ _ _ ___ _ _ ___
 72
65
 73
6
 40
3.175
 49
1.587
 74
0
 49
-0.318
 74
0
 49
0.318
 74
0
 49
-0.318
 74
0
 49
0.318
 74
0
 49
-0.318
 74
0
  0
LTYPE
  5
38
330
2
100
AcDbSymbolTableRecord
100
AcDbLinetypeTableRecord
  2
DASHDOT
 70
0
  3
Dash dot __ . __ . __ . __ . __ . __ . __ . __
 72
65
 73
4
 40
3.556
 49
2.54
 74
0
 49
-0.508
 74
0
 49
0.0
 74
0
 49
-0.508
 74
0
  0
LTYPE
  5
39
330
2
100
AcDbSymbolTableRecord
100
AcDbLinetypeTableRecord
  2
DASHDOTX2
 70
0
  3
Dash dot (2x) ____  .  ____  .  ____  .  ____
 72
65
 73
4
 40
6.096
 49
5.08
 74
0
 49
-0.508
 74
0
 49
0.0
 74
0
 49
-0.508
 74
0
  0
LTYPE
  5
3A
330
2
100
AcDbSymbolTableRecord
100
AcDbLinetypeTableRecord
  2
DASHDOT2
 70
0
  3
Dash dot (.5x) _ . _ . _ . _ . _ . _ . _ . _
 72
65
 73
4
 40
1.778
 49
1.27
 74
0
 49
-0.254
 74
0
 49
0.0
 74
0
 49
-0.254
 74
0
  0
LTYPE
  5
3B
330
2
100
AcDbSymbolTableRecord
100
AcDbLinetypeTableRecord
  2
DOT
 70
0
  3
Dot .  .  .  .  .  .  .  .  .  .  .  .  .  .  .  .
 72
65
 73
2
 40
0.508
 49
0.0
 74
0
 49
-0.508
 74
0
  0
LTYPE
  5
3C
330
2
100
AcDbSymbolTableRecord
100
AcDbLinetypeTableRecord
  2
DOTX2
 70
0
  3
Dot (2x) .    .    .    .    .    .    .    . 
 72
65
 73
2
 40
1.016
 49
0.0
 74
0
 49
-1.016
 74
0
  0
LTYPE
  5
3D
330
2
100
AcDbSymbolTableRecord
100
AcDbLinetypeTableRecord
  2
DOT2
 70
0
  3
Dot (.5) . . . . . . . . . . . . . . . . . . . 
 72
65
 73
2
 40
0.254
 49
0.0
 74
0
 49
-0.254
 74
0
  0
LTYPE
  5
3E
330
2
100
AcDbSymbolTableRecord
100
AcDbLinetypeTableRecord
  2
DIVIDE
 70
0
  3
Divide __ . . __ . . __ . . __ . . __ . . __
 72
65
 73
6
 40
4.064
 49
2.54
 74
0
 49
-0.508
 74
0
 49
0.0
 74
0
 49
-0.508
 74
0
 49
0.0
 74
0
 49
-0.508
 74
0
  0
LTYPE
  5
3F
330
2
100
AcDbSymbolTableRecord
100
AcDbLinetypeTableRecord
  2
DIVIDEX2
 70
0
  3
Divide (2x) ____  . .  ____  . .  ____  . .  ____
 72
65
 73
6
 40
6.604
 49
5.08
 74
0
 49
-0.508
 74
0
 49
0.0
 74
0
 49
-0.508
 74
0
 49
0.0
 74
0
 49
-0.508
 74
0
  0
LTYPE
  5
40
330
2
100
AcDbSymbolTableRecord
100
AcDbLinetypeTableRecord
  2
DIVIDE2
 70
0
  3
Divide(.5x) _ . _ . _ . _ . _ . _ . _ . _
 72
65
 73
6
 40
2.032
 49
1.27
 74
0
 49
-0.254
 74
0
 49
0.0
 74
0
 49
-0.254
 74
0
 49
0.0
 74
0
 49
-0.254
 74
0
  0
ENDTAB
  0
TABLE
  2
LAYER
  5
1
330
0
100
AcDbSymbolTable
 70
10
  0
LAYER
  5
27
330
1
100
AcDbSymbolTableRecord
100
AcDbLayerTableRecord
  2
0
 70
0
 62
7
  6
Continuous
370
-3
390
13
347
21
  0
LAYER
  5
28
330
1
100
AcDbSymbolTableRecord
100
AcDbLayerTableRecord
  2
Defpoints
 70
0
 62
7
  6
Continuous
290
0
370
-3
390
13
347
21
  0
LAYER
  5
8A
330
1
100
AcDbSymbolTableRecord
100
AcDbLayerTableRecord
  2
TERRENO
 70
0
 62
8
  6
Continuous
370
-3
390
13
347
21
  0
LAYER
  5
8B
330
1
100
AcDbSymbolTableRecord
100
AcDbLayerTableRecord
  2
RASANTE
 70
0
 62
5
  6
Continuous
370
-3
390
13
347
21
  0
LAYER
  5
8C
330
1
100
AcDbSymbolTableRecord
100
AcDbLayerTableRecord
  2
FALLAS
 70
0
 62
1
  6
Continuous
370
-3
390
13
347
21
  0
LAYER
  5
8D
330
1
100
AcDbSymbolTableRecord
100
AcDbLayerTableRecord
  2
TRAMOS
 70
0
 62
9
  6
Continuous
370
-3
390
13
347
21
  0
LAYER
  5
8E
330
1
100
AcDbSymbolTableRecord
100
AcDbLayerTableRecord
  2
FAVORABLE
 70
0
 62
3
  6
Continuous
370
-3
390
13
347
21
  0
LAYER
  5
8F
330
1
100
AcDbSymbolTableRecord
100
AcDbLayerTableRecord
  2
CONDICIONADA
 70
0
 62
40
  6
Continuous
370
-3
390
13
347
21
  0
LAYER
  5
90
330
1
100
AcDbSymbolTableRecord
100
AcDbLayerTableRecord
  2
DESFAVORABLE
 70
0
 62
1
  6
Continuous
370
-3
390
13
347
21
  0
LAYER
  5
91
330
1
100
AcDbSymbolTableRecord
100
AcDbLayerTableRecord
  2
TEXTO
 70
0
 62
7
  6
Continuous
370
-3
390
13
347
21
  0
ENDTAB
  0
TABLE
  2
STYLE
  5
5
330
0
100
AcDbSymbolTable
 70
26
  0
STYLE
  5
29
330
5
100
AcDbSymbolTableRecord
100
AcDbTextStyleTableRecord
  2
Standard
 70
0
 40
0.0
 41
1.0
 50
0.0
 71
0
 42
2.5
  3
txt
  4

  0
STYLE
  5
41
330
5
100
AcDbSymbolTableRecord
100
AcDbTextStyleTableRecord
  2
OpenSans-Light
 70
0
 40
0.0
 41
1.0
 50
0.0
 71
0
 42
2.5
  3
OpenSans-Light.ttf
  4

  0
STYLE
  5
42
330
5
100
AcDbSymbolTableRecord
100
AcDbTextStyleTableRecord
  2
OpenSans-Light-Italic
 70
0
 40
0.0
 41
1.0
 50
0.0
 71
0
 42
2.5
  3
OpenSans-LightItalic.ttf
  4

  0
STYLE
  5
43
330
5
100
AcDbSymbolTableRecord
100
AcDbTextStyleTableRecord
  2
OpenSans
 70
0
 40
0.0
 41
1.0
 50
0.0
 71
0
 42
2.5
  3
OpenSans-Regular.ttf
  4

  0
STYLE
  5
44
330
5
100
AcDbSymbolTableRecord
100
AcDbTextStyleTableRecord
  2
OpenSans-Italic
 70
0
 40
0.0
 41
1.0
 50
0.0
 71
0
 42
2.5
  3
OpenSans-Italic.ttf
  4

  0
STYLE
  5
45
330
5
100
AcDbSymbolTableRecord
100
AcDbTextStyleTableRecord
  2
OpenSans-SemiBold
 70
0
 40
0.0
 41
1.0
 50
0.0
 71
0
 42
2.5
  3
OpenSans-SemiBold.ttf
  4

  0
STYLE
  5
46
330
5
100
AcDbSymbolTableRecord
100
AcDbTextStyleTableRecord
  2
OpenSans-SemiBoldItalic
 70
0
 40
0.0
 41
1.0
 50
0.0
 71
0
 42
2.5
  3
OpenSans-SemiBoldItalic.ttf
  4

  0
STYLE
  5
47
330
5
100
AcDbSymbolTableRecord
100
AcDbTextStyleTableRecord
  2
OpenSans-Bold
 70
0
 40
0.0
 41
1.0
 50
0.0
 71
0
 42
2.5
  3
OpenSans-Bold.ttf
  4

  0
STYLE
  5
48
330
5
100
AcDbSymbolTableRecord
100
AcDbTextStyleTableRecord
  2
OpenSans-BoldItalic
 70
0
 40
0.0
 41
1.0
 50
0.0
 71
0
 42
2.5
  3
OpenSans-BoldItalic.ttf
  4

  0
STYLE
  5
49
330
5
100
AcDbSymbolTableRecord
100
AcDbTextStyleTableRecord
  2
OpenSans-ExtraBold
 70
0
 40
0.0
 41
1.0
 50
0.0
 71
0
 42
2.5
  3
OpenSans-ExtraBold.ttf
  4

  0
STYLE
  5
4A
330
5
100
AcDbSymbolTableRecord
100
AcDbTextStyleTableRecord
  2
OpenSans-ExtraBoldItalic
 70
0
 40
0.0
 41
1.0
 50
0.0
 71
0
 42
2.5
  3
OpenSans-ExtraBoldItalic.ttf
  4

  0
STYLE
  5
4B
330
5
100
AcDbSymbolTableRecord
100
AcDbTextStyleTableRecord
  2
OpenSansCondensed-Bold
 70
0
 40
0.0
 41
1.0
 50
0.0
 71
0
 42
2.5
  3
OpenSansCondensed-Bold.ttf
  4

  0
STYLE
  5
4C
330
5
100
AcDbSymbolTableRecord
100
AcDbTextStyleTableRecord
  2
OpenSansCondensed-Light
 70
0
 40
0.0
 41
1.0
 50
0.0
 71
0
 42
2.5
  3
OpenSansCondensed-Light.ttf
  4

  0
STYLE
  5
4D
330
5
100
AcDbSymbolTableRecord
100
AcDbTextStyleTableRecord
  2
OpenSansCondensed-Italic
 70
0
 40
0.0
 41
1.0
 50
0.0
 71
0
 42
2.5
  3
OpenSansCondensed-LightItalic.ttf
  4

  0
STYLE
  5
4E
330
5
100
AcDbSymbolTableRecord
100
AcDbTextStyleTableRecord
  2
LiberationSans
 70
0
 40
0.0
 41
1.0
 50
0.0
 71
0
 42
2.5
  3
LiberationSans-Regular.ttf
  4

  0
STYLE
  5
4F
330
5
100
AcDbSymbolTableRecord
100
AcDbTextStyleTableRecord
  2
LiberationSans-Bold
 70
0
 40
0.0
 41
1.0
 50
0.0
 71
0
 42
2.5
  3
LiberationSans-Bold.ttf
  4

  0
STYLE
  5
50
330
5
100
AcDbSymbolTableRecord
100
AcDbTextStyleTableRecord
  2
LiberationSans-BoldItalic
 70
0
 40
0.0
 41
1.0
 50
0.0
 71
0
 42
2.5
  3
LiberationSans-BoldItalic.ttf
  4

  0
STYLE
  5
51
330
5
100
AcDbSymbolTableRecord
100
AcDbTextStyleTableRecord
  2
LiberationSans-Italic
 70
0
 40
0.0
 41
1.0
 50
0.0
 71
0
 42
2.5
  3
LiberationSans-Italic.ttf
  4

  0
STYLE
  5
52
330
5
100
AcDbSymbolTableRecord
100
AcDbTextStyleTableRecord
  2
LiberationSerif
 70
0
 40
0.0
 41
1.0
 50
0.0
 71
0
 42
2.5
  3
LiberationSerif-Regular.ttf
  4

  0
STYLE
  5
53
330
5
100
AcDbSymbolTableRecord
100
AcDbTextStyleTableRecord
  2
LiberationSerif-Bold
 70
0
 40
0.0
 41
1.0
 50
0.0
 71
0
 42
2.5
  3
LiberationSerif-Bold.ttf
  4

  0
STYLE
  5
54
330
5
100
AcDbSymbolTableRecord
100
AcDbTextStyleTableRecord
  2
LiberationSerif-BoldItalic
 70
0
 40
0.0
 41
1.0
 50
0.0
 71
0
 42
2.5
  3
LiberationSerif-BoldItalic.ttf
  4

  0
STYLE
  5
55
330
5
100
AcDbSymbolTableRecord
100
AcDbTextStyleTableRecord
  2
LiberationSerif-Italic
 70
0
 40
0.0
 41
1.0
 50
0.0
 71
0
 42
2.5
  3
LiberationSerif-Italic.ttf
  4

  0
STYLE
  5
56
330
5
100
AcDbSymbolTableRecord
100
AcDbTextStyleTableRecord
  2
LiberationMono
 70
0
 40
0.0
 41
1.0
 50
0.0
 71
0
 42
2.5
  3
LiberationMono-Regular.ttf
  4

  0
STYLE
  5
57
330
5
100
AcDbSymbolTableRecord
100
AcDbTextStyleTableRecord
  2
LiberationMono-Bold
 70
0
 40
0.0
 41
1.0
 50
0.0
 71
0
 42
2.5
  3
LiberationMono-Bold.ttf
  4

  0
STYLE
  5
58
330
5
100
AcDbSymbolTableRecord
100
AcDbTextStyleTableRecord
  2
LiberationMono-BoldItalic
 70
0
 40
0.0
 41
1.0
 50
0.0
 71
0
 42
2.5
  3
LiberationMono-BoldItalic.ttf
  4

  0
STYLE
  5
59
330
5
100
AcDbSymbolTableRecord
100
AcDbTextStyleTableRecord
  2
LiberationMono-Italic
 70
0
 40
0.0
 41
1.0
 50
0.0
 71
0
 42
2.5
  3
LiberationMono-Italic.ttf
  4

  0
ENDTAB
  0
TABLE
  2
VIEW
  5
7
330
0
100
AcDbSymbolTable
 70
0
  0
ENDTAB
  0
TABLE
  2
UCS
  5
6
330
0
100
AcDbSymbolTable
 70
0
  0
ENDTAB
  0
TABLE
  2
APPID
  5
3
330
0
100
AcDbSymbolTable
 70
3
  0
APPID
  5
2A
330
3
100
AcDbSymbolTableRecord
100
AcDbRegAppTableRecord
  2
ACAD
 70
0
  0
APPID
  5
113
330
3
100
AcDbSymbolTableRecord
100
AcDbRegAppTableRecord
  2
HATCHBACKGROUNDCOLOR
 70
0
  0
APPID
  5
114
330
3
100
AcDbSymbolTableRecord
100
AcDbRegAppTableRecord
  2
EZDXF
 70
0
  0
ENDTAB
  0
TABLE
  2
DIMSTYLE
  5
4
330
0
100
AcDbSymbolTable
 70
12
100
AcDbDimStyleTable
  0
DIMSTYLE
105
2B
330
4
100
AcDbSymbolTableRecord
100
AcDbDimStyleTableRecord
  2
Standard
 70
0
 40
1.0
 41
2.5
 42
0.625
 43
3.75
 44
1.25
 45
0.0
 46
0.0
 47
0.0
 48
0.0
 49
2.5
140
2.5
141
2.5
142
0.0
143
0.03937007874
144
1.0
145
0.0
146
1.0
147
0.625
148
0.0
 69
0
 70
0
 71
0
 72
0
 73
0
 74
0
 75
0
 76
0
 77
1
 78
8
 79
3
170
0
171
3
172
1
173
0
174
0
175
0
176
0
177
0
178
0
179
2
271
2
272
2
273
2
274
3
275
0
276
0
277
2
278
44
279
0
280
0
281
0
282
0
283
0
284
8
285
0
286
0
288
0
289
3
290
0
371
-2
372
-2
  0
DIMSTYLE
105
73
330
4
100
AcDbSymbolTableRecord
100
AcDbDimStyleTableRecord
  2
EZDXF
 70
0
 40
1.0
 41
0.175
 42
0.125
 43
3.75
 44
0.375
 45
0.0
 46
0.0
 47
0.0
 48
0.0
 49
2.5
140
0.25
141
2.5
142
0.0
143
0.03937007874
144
100.0
145
0.0
146
0.5
147
0.1
148
0.0
 69
0
 70
0
 71
0
 72
0
 73
0
 74
0
 75
0
 76
0
 77
1
 78
12
 79
3
170
0
171
3
172
1
173
0
174
0
175
0
176
0
177
0
178
0
179
2
271
2
272
2
273
2
274
3
275
0
276
0
277
2
278
46
279
2
280
0
281
0
282
0
283
0
284
8
285
0
286
0
288
1
289
3
290
0
340
4C
342
74
371
-2
372
-2
  0
DIMSTYLE
105
7C
330
4
100
AcDbSymbolTableRecord
100
AcDbDimStyleTableRecord
  2
EZ_M_100_H25_CM
 70
0
 40
1.0
 41
0.25
 42
0.125
 43
3.75
 44
0.375
 45
0.0
 46
0.0
 47
0.0
 48
0.0
 49
2.5
140
0.25
141
2.5
142
0.125
143
0.03937007874
144
100.0
145
0.0
146
0.5
147
0.1
148
0.0
 69
0
 70
0
 71
0
 72
0
 73
0
 74
0
 75
0
 76
0
 77
1
 78
12
 79
3
170
0
171
3
172
1
173
0
174
0
175
0
176
0
177
0
178
0
179
2
271
2
272
2
273
2
274
3
275
0
276
0
277
2
278
46
279
2
280
0
281
0
282
0
283
0
284
8
285
0
286
0
288
1
289
3
290
0
340
4C
371
-2
372
-2
  0
DIMSTYLE
105
7D
330
4
100
AcDbSymbolTableRecord
100
AcDbDimStyleTableRecord
  2
EZ_M_50_H25_CM
 70
0
 40
1.0
 41
0.125
 42
0.0625
 43
3.75
 44
0.1875
 45
0.0
 46
0.0
 47
0.0
 48
0.0
 49
2.5
140
0.125
141
2.5
142
0.0625
143
0.03937007874
144
100.0
145
0.0
146
0.5
147
0.05
148
0.0
 69
0
 70
0
 71
0
 72
0
 73
0
 74
0
 75
0
 76
0
 77
1
 78
12
 79
3
170
0
171
3
172
1
173
0
174
0
175
0
176
0
177
0
178
0
179
2
271
2
272
2
273
2
274
3
275
0
276
0
277
2
278
46
279
2
280
0
281
0
282
0
283
0
284
8
285
0
286
0
288
1
289
3
290
0
340
4C
371
-2
372
-2
  0
DIMSTYLE
105
7E
330
4
100
AcDbSymbolTableRecord
100
AcDbDimStyleTableRecord
  2
EZ_M_25_H25_CM
 70
0
 40
1.0
 41
0.0625
 42
0.03125
 43
3.75
 44
0.09375
 45
0.0
 46
0.0
 47
0.0
 48
0.0
 49
2.5
140
0.0625
141
2.5
142
0.03125
143
0.03937007874
144
100.0
145
0.0
146
0.5
147
0.025
148
0.0
 69
0
 70
0
 71
0
 72
0
 73
0
 74
0
 75
0
 76
0
 77
1
 78
12
 79
3
170
0
171
3
172
1
173
0
174
0
175
0
176
0
177
0
178
0
179
2
271
2
272
2
273
2
274
3
275
0
276
0
277
2
278
46
279
2
280
0
281
0
282
0
283
0
284
8
285
0
286
0
288
1
289
3
290
0
340
4C
371
-2
372
-2
  0
DIMSTYLE
105
7F
330
4
100
AcDbSymbolTableRecord
100
AcDbDimStyleTableRecord
  2
EZ_M_20_H25_CM
 70
0
 40
1.0
 41
0.05
 42
0.025
 43
3.75
 44
0.07500000000000001
 45
0.0
 46
0.0
 47
0.0
 48
0.0
 49
2.5
140
0.05
141
2.5
142
0.025
143
0.03937007874
144
100.0
145
0.0
146
0.5
147
0.020000000000000004
148
0.0
 69
0
 70
0
 71
0
 72
0
 73
0
 74
0
 75
0
 76
0
 77
1
 78
12
 79
3
170
0
171
3
172
1
173
0
174
0
175
0
176
0
177
0
178
0
179
2
271
2
272
2
273
2
274
3
275
0
276
0
277
2
278
46
279
2
280
0
281
0
282
0
283
0
284
8
285
0
286
0
288
1
289
3
290
0
340
4C
371
-2
372
-2
  0
DIMSTYLE
105
80
330
4
100
AcDbSymbolTableRecord
100
AcDbDimStyleTableRecord
  2
EZ_M_10_H25_CM
 70
0
 40
1.0
 41
0.025
 42
0.0125
 43
3.75
 44
0.037500000000000006
 45
0.0
 46
0.0
 47
0.0
 48
0.0
 49
2.5
140
0.025
141
2.5
142
0.0125
143
0.03937007874
144
100.0
145
0.0
146
0.5
147
0.010000000000000002
148
0.0
 69
0
 70
0
 71
0
 72
0
 73
0
 74
0
 75
0
 76
0
 77
1
 78
12
 79
3
170
0
171
3
172
1
173
0
174
0
175
0
176
0
177
0
178
0
179
2
271
2
272
2
273
2
274
3
275
0
276
0
277
2
278
46
279
2
280
0
281
0
282
0
283
0
284
8
285
0
286
0
288
1
289
3
290
0
340
4C
371
-2
372
-2
  0
DIMSTYLE
105
81
330
4
100
AcDbSymbolTableRecord
100
AcDbDimStyleTableRecord
  2
EZ_M_5_H25_CM
 70
0
 40
1.0
 41
0.0125
 42
0.00625
 43
3.75
 44
0.018750000000000003
 45
0.0
 46
0.0
 47
0.0
 48
0.0
 49
2.5
140
0.0125
141
2.5
142
0.00625
143
0.03937007874
144
100.0
145
0.0
146
0.5
147
0.005000000000000001
148
0.0
 69
0
 70
0
 71
0
 72
0
 73
0
 74
0
 75
0
 76
0
 77
1
 78
12
 79
3
170
0
171
3
172
1
173
0
174
0
175
0
176
0
177
0
178
0
179
2
271
2
272
2
273
2
274
3
275
0
276
0
277
2
278
46
279
2
280
0
281
0
282
0
283
0
284
8
285
0
286
0
288
1
289
3
290
0
340
4C
371
-2
372
-2
  0
DIMSTYLE
105
82
330
4
100
AcDbSymbolTableRecord
100
AcDbDimStyleTableRecord
  2
EZ_M_1_H25_CM
 70
0
 40
1.0
 41
0.0025
 42
0.00125
 43
3.75
 44
0.00375
 45
0.0
 46
0.0
 47
0.0
 48
0.0
 49
2.5
140
0.0025
141
2.5
142
0.00125
143
0.03937007874
144
100.0
145
0.0
146
0.5
147
0.001
148
0.0
 69
0
 70
0
 71
0
 72
0
 73
0
 74
0
 75
0
 76
0
 77
1
 78
12
 79
3
170
0
171
3
172
1
173
0
174
0
175
0
176
0
177
0
178
0
179
2
271
2
272
2
273
2
274
3
275
0
276
0
277
2
278
46
279
2
280
0
281
0
282
0
283
0
284
8
285
0
286
0
288
1
289
3
290
0
340
4C
371
-2
372
-2
  0
DIMSTYLE
105
83
330
4
100
AcDbSymbolTableRecord
100
AcDbDimStyleTableRecord
  2
EZ_RADIUS
 70
0
 40
1.0
 41
0.25
 42
0.125
 43
3.75
 44
0.375
 45
0.0
 46
0.0
 47
0.0
 48
0.0
 49
2.5
140
0.25
141
0.0
142
0.0
143
0.03937007874
144
100.0
145
0.0
146
0.5
147
0.1
148
0.0
 69
0
 70
0
 71
0
 72
0
 73
0
 74
0
 75
0
 76
0
 77
1
 78
12
 79
3
170
0
171
3
172
0
173
0
174
0
175
0
176
0
177
0
178
0
179
2
271
2
272
2
273
2
274
3
275
0
276
0
277
2
278
46
279
1
280
0
281
0
282
0
283
0
284
8
285
0
286
0
288
1
289
3
290
0
340
4C
342
84
371
-2
372
-2
  0
DIMSTYLE
105
88
330
4
100
AcDbSymbolTableRecord
100
AcDbDimStyleTableRecord
  2
EZ_RADIUS_INSIDE
 70
0
 40
1.0
 41
0.25
 42
0.125
 43
3.75
 44
0.375
 45
0.0
 46
0.0
 47
0.0
 48
0.0
 49
2.5
140
0.25
141
0.0
142
0.0
143
0.03937007874
144
100.0
145
0.0
146
0.5
147
0.1
148
0.0
 69
0
 70
0
 71
0
 72
0
 73
0
 74
0
 75
0
 76
0
 77
0
 78
12
 79
3
170
0
171
3
172
0
173
0
174
1
175
0
176
0
177
0
178
0
179
2
271
2
272
2
273
2
274
3
275
0
276
0
277
2
278
46
279
0
280
0
281
0
282
0
283
0
284
8
285
0
286
0
288
1
289
0
290
0
340
4C
342
84
371
-2
372
-2
  0
DIMSTYLE
105
89
330
4
100
AcDbSymbolTableRecord
100
AcDbDimStyleTableRecord
  2
EZ_CURVED
 70
0
 40
1.0
 41
0.25
 42
0.125
 43
3.75
 44
0.375
 45
0.0
 46
0.0
 47
0.0
 48
0.0
 49
2.5
140
0.25
141
2.5
142
0.0
143
0.03937007874
144
100.0
145
0.0
146
0.5
147
0.1
148
0.0
 69
0
 70
0
 71
0
 72
0
 73
0
 74
0
 75
0
 76
0
 77
1
 78
12
 79
2
 90
2
170
0
171
3
172
1
173
0
174
0
175
0
176
0
177
0
178
0
179
2
271
2
272
2
273
2
274
3
275
0
276
0
277
2
278
46
279
2
280
0
281
0
282
0
283
0
284
8
285
0
286
0
288
1
289
3
290
0
340
4C
371
-2
372
-2
  0
ENDTAB
  0
TABLE
  2
BLOCK_RECORD
  5
9
330
0
100
AcDbSymbolTable
 70
5
  0
BLOCK_RECORD
  5
17
330
9
100
AcDbSymbolTableRecord
100
AcDbBlockTableRecord
  2
*Model_Space
340
1A
 70
0
280
1
281
0
  0
BLOCK_RECORD
  5
1B
330
9
100
AcDbSymbolTableRecord
100
AcDbBlockTableRecord
  2
*Paper_Space
340
1E
 70
0
280
1
281
0
  0
BLOCK_RECORD
  5
74
330
9
100
AcDbSymbolTableRecord
100
AcDbBlockTableRecord
  2
_ARCHTICK
340
0
 70
0
280
1
281
0
  0
BLOCK_RECORD
  5
78
330
9
100
AcDbSymbolTableRecord
100
AcDbBlockTableRecord
  2
_CLOSEDFILLED
340
0
 70
0
280
1
281
0
  0
BLOCK_RECORD
  5
84
330
9
100
AcDbSymbolTableRecord
100
AcDbBlockTableRecord
  2
_CLOSEDBLANK
340
0
 70
0
280
1
281
0
  0
ENDTAB
  0
ENDSEC
  0
SECTION
  2
BLOCKS
  0
BLOCK
  5
18
330
17
100
AcDbEntity
  8
0
100
AcDbBlockBegin
  2
*Model_Space
 70
0
 10
0.0
 20
0.0
 30
0.0
  3
*Model_Space
  1

  0
ENDBLK
  5
19
330
17
100
AcDbEntity
  8
0
100
AcDbBlockEnd
  0
BLOCK
  5
1C
330
1B
100
AcDbEntity
  8
0
100
AcDbBlockBegin
  2
*Paper_Space
 70
0
 10
0.0
 20
0.0
 30
0.0
  3
*Paper_Space
  1

  0
ENDBLK
  5
1D
330
1B
100
AcDbEntity
  8
0
100
AcDbBlockEnd
  0
BLOCK
  5
75
330
74
100
AcDbEntity
  8
0
100
AcDbBlockBegin
  2
_ARCHTICK
 70
0
 10
0.0
 20
0.0
 30
0.0
  3
_ARCHTICK
  1

  0
LWPOLYLINE
  5
77
330
74
100
AcDbEntity
  8
0
  6
BYBLOCK
 62
0
100
AcDbPolyline
 90
2
 70
0
 43
0.15
 10
-0.5
 20
-0.5
 10
0.5
 20
0.5
  0
ENDBLK
  5
76
330
74
100
AcDbEntity
  8
0
100
AcDbBlockEnd
  0
BLOCK
  5
79
330
78
100
AcDbEntity
  8
0
100
AcDbBlockBegin
  2
_CLOSEDFILLED
 70
0
 10
0.0
 20
0.0
 30
0.0
  3
_CLOSEDFILLED
  1

  0
SOLID
  5
7B
330
78
100
AcDbEntity
  8
0
  6
BYBLOCK
 62
0
100
AcDbTrace
 10
-1.0
 20
0.16439898372402537
 30
0.0
 11
0.0
 21
0.0
 31
0.0
 12
-1.0
 22
-0.16439898372402537
 32
0.0
 13
-1.0
 23
-0.16439898372402537
 33
0.0
  0
ENDBLK
  5
7A
330
78
100
AcDbEntity
  8
0
100
AcDbBlockEnd
  0
BLOCK
  5
85
330
84
100
AcDbEntity
  8
0
100
AcDbBlockBegin
  2
_CLOSEDBLANK
 70
0
 10
0.0
 20
0.0
 30
0.0
  3
_CLOSEDBLANK
  1

  0
LWPOLYLINE
  5
87
330
84
100
AcDbEntity
  8
0
  6
BYBLOCK
 62
0
100
AcDbPolyline
 90
3
 70
1
 10
-1.0
 20
0.16439898372402537
 10
0.0
 20
0.0
 10
-1.0
 20
-0.16439898372402537
  0
ENDBLK
  5
86
330
84
100
AcDbEntity
  8
0
100
AcDbBlockEnd
  0
ENDSEC
  0
SECTION
  2
ENTITIES
  0
LWPOLYLINE
  5
92
330
17
100
AcDbEntity
  8
TERRENO
100
AcDbPolyline
 90
1500
 70
0
 10
0.0
 20
4755.0
 10
34.8
 20
4771.0
 10
69.7
 20
4783.0
 10
104.5
 20
4779.5
 10
139.3
 20
4794.0
 10
174.2
 20
4793.0
 10
209.0
 20
4802.0
 10
243.8
 20
4814.0
 10
278.6
 20
4804.0
 10
313.5
 20
4833.0
 10
348.3
 20
4831.5
 10
383.1
 20
4816.0
 10
418.0
 20
4906.5
 10
452.8
 20
4899.5
 10
487.6
 20
4893.5
 10
522.5
 20
4940.0
 10
557.3
 20
4930.0
 10
592.1
 20
4910.5
 10
627.0
 20
4877.0
 10
661.8
 20
4910.5
 10
696.6
 20
4891.0
 10
731.5
 20
4926.5
 10
766.3
 20
4921.5
 10
801.1
 20
4935.0
 10
835.9
 20
4950.0
 10
870.8
 20
4961.5
 10
905.6
 20
4943.0
 10
940.4
 20
4951.0
 10
975.3
 20
4945.5
 10
1010.1
 20
4958.0
 10
1044.9
 20
4983.5
 10
1079.8
 20
4955.5
 10
1114.6
 20
4963.0
 10
1149.4
 20
4971.5
 10
1184.3
 20
5015.0
 10
1219.1
 20
5038.5
 10
1253.9
 20
5051.0
 10
1288.8
 20
5054.5
 10
1323.6
 20
5098.5
 10
1358.4
 20
5154.0
 10
1393.2
 20
5233.0
 10
1428.1
 20
5318.0
 10
1462.9
 20
5436.5
 10
1497.7
 20
5502.5
 10
1532.6
 20
5482.5
 10
1567.4
 20
5496.5
 10
1602.2
 20
5493.5
 10
1637.1
 20
5479.5
 10
1671.9
 20
5557.0
 10
1706.7
 20
5589.5
 10
1741.6
 20
5649.0
 10
1776.4
 20
5557.5
 10
1811.2
 20
5529.0
 10
1846.0
 20
5605.5
 10
1880.9
 20
5719.5
 10
1915.7
 20
5634.0
 10
1950.5
 20
5593.5
 10
1985.4
 20
5656.0
 10
2020.2
 20
5773.5
 10
2055.0
 20
5859.0
 10
2089.9
 20
5819.5
 10
2124.7
 20
5774.0
 10
2159.5
 20
5717.5
 10
2194.4
 20
5811.5
 10
2229.2
 20
5795.5
 10
2264.0
 20
5737.0
 10
2298.9
 20
5723.5
 10
2333.7
 20
5732.5
 10
2368.5
 20
5743.5
 10
2403.3
 20
5753.5
 10
2438.2
 20
5801.0
 10
2473.0
 20
5888.5
 10
2507.8
 20
5987.0
 10
2542.7
 20
5998.0
 10
2577.5
 20
6003.0
 10
2612.3
 20
6018.0
 10
2647.2
 20
5918.0
 10
2682.0
 20
5893.5
 10
2716.8
 20
5911.5
 10
2751.7
 20
5944.0
 10
2786.5
 20
5972.0
 10
2821.3
 20
6019.0
 10
2856.2
 20
6084.0
 10
2891.0
 20
6206.0
 10
2925.8
 20
6311.5
 10
2960.6
 20
6407.5
 10
2995.5
 20
6499.0
 10
3030.3
 20
6578.5
 10
3065.1
 20
6564.0
 10
3100.0
 20
6537.0
 10
3134.8
 20
6486.5
 10
3169.6
 20
6502.5
 10
3204.5
 20
6503.0
 10
3239.3
 20
6469.5
 10
3274.1
 20
6270.5
 10
3309.0
 20
6199.0
 10
3343.8
 20
6123.5
 10
3378.6
 20
6059.5
 10
3413.4
 20
5933.5
 10
3448.3
 20
5906.0
 10
3483.1
 20
5884.5
 10
3517.9
 20
5872.5
 10
3552.8
 20
5942.5
 10
3587.6
 20
6049.0
 10
3622.4
 20
6095.5
 10
3657.3
 20
6143.5
 10
3692.1
 20
6064.5
 10
3726.9
 20
5974.0
 10
3761.8
 20
5978.5
 10
3796.6
 20
5973.5
 10
3831.4
 20
6037.0
 10
3866.3
 20
6129.0
 10
3901.1
 20
6255.0
 10
3935.9
 20
6379.0
 10
3970.7
 20
6445.5
 10
4005.6
 20
6487.5
 10
4040.4
 20
6571.0
 10
4075.2
 20
6531.0
 10
4110.1
 20
6489.5
 10
4144.9
 20
6536.5
 10
4179.7
 20
6452.5
 10
4214.6
 20
6403.5
 10
4249.4
 20
6406.5
 10
4284.2
 20
6557.5
 10
4319.1
 20
6669.5
 10
4353.9
 20
6745.5
 10
4388.7
 20
6919.5
 10
4423.5
 20
6942.5
 10
4458.4
 20
7018.0
 10
4493.2
 20
7132.5
 10
4528.0
 20
7287.5
 10
4562.9
 20
7367.5
 10
4597.7
 20
7369.5
 10
4632.5
 20
7343.5
 10
4667.4
 20
7431.0
 10
4702.2
 20
7371.5
 10
4737.0
 20
7258.5
 10
4771.9
 20
7352.5
 10
4806.7
 20
7270.0
 10
4841.5
 20
7248.0
 10
4876.4
 20
7293.5
 10
4911.2
 20
7465.5
 10
4946.0
 20
7511.0
 10
4980.8
 20
7571.5
 10
5015.7
 20
7763.5
 10
5050.5
 20
7861.0
 10
5085.3
 20
7911.0
 10
5120.2
 20
7951.5
 10
5155.0
 20
8040.5
 10
5189.8
 20
8036.0
 10
5224.7
 20
8074.5
 10
5259.5
 20
8204.0
 10
5294.3
 20
8230.5
 10
5329.2
 20
8228.0
 10
5364.0
 20
8226.0
 10
5398.8
 20
8408.5
 10
5433.7
 20
8472.0
 10
5468.5
 20
8589.0
 10
5503.3
 20
8694.5
 10
5538.1
 20
8800.5
 10
5573.0
 20
8732.5
 10
5607.8
 20
8654.5
 10
5642.6
 20
8669.0
 10
5677.5
 20
8566.5
 10
5712.3
 20
8477.5
 10
5747.1
 20
8389.5
 10
5782.0
 20
8272.5
 10
5816.8
 20
8167.0
 10
5851.6
 20
7910.5
 10
5886.5
 20
7757.5
 10
5921.3
 20
7666.5
 10
5956.1
 20
7649.5
 10
5990.9
 20
7698.0
 10
6025.8
 20
7860.5
 10
6060.6
 20
7839.5
 10
6095.4
 20
7852.5
 10
6130.3
 20
7814.0
 10
6165.1
 20
7862.5
 10
6199.9
 20
7819.5
 10
6234.8
 20
7835.0
 10
6269.6
 20
7757.5
 10
6304.4
 20
7624.5
 10
6339.3
 20
7502.0
 10
6374.1
 20
7420.5
 10
6408.9
 20
7402.0
 10
6443.8
 20
7456.5
 10
6478.6
 20
7497.5
 10
6513.4
 20
7594.5
 10
6548.2
 20
7582.5
 10
6583.1
 20
7770.5
 10
6617.9
 20
7867.0
 10
6652.7
 20
8030.5
 10
6687.6
 20
8100.0
 10
6722.4
 20
8049.5
 10
6757.2
 20
7959.5
 10
6792.1
 20
7833.5
 10
6826.9
 20
7711.5
 10
6861.7
 20
7591.5
 10
6896.6
 20
7475.5
 10
6931.4
 20
7355.0
 10
6966.2
 20
7362.5
 10
7001.1
 20
7388.5
 10
7035.9
 20
7496.5
 10
7070.7
 20
7453.0
 10
7105.5
 20
7373.0
 10
7140.4
 20
7441.0
 10
7175.2
 20
7389.5
 10
7210.0
 20
7426.0
 10
7244.9
 20
7533.5
 10
7279.7
 20
7634.0
 10
7314.5
 20
7908.0
 10
7349.4
 20
7975.0
 10
7384.2
 20
8087.5
 10
7419.0
 20
8119.0
 10
7453.9
 20
8160.5
 10
7488.7
 20
8243.0
 10
7523.5
 20
8420.0
 10
7558.3
 20
8486.0
 10
7593.2
 20
8448.0
 10
7628.0
 20
8373.5
 10
7662.8
 20
8335.5
 10
7697.7
 20
8106.0
 10
7732.5
 20
7977.5
 10
7767.3
 20
7795.0
 10
7802.2
 20
7676.0
 10
7837.0
 20
7546.5
 10
7871.8
 20
7432.5
 10
7906.7
 20
7395.5
 10
7941.5
 20
7366.5
 10
7976.3
 20
7323.0
 10
8011.2
 20
7405.0
 10
8046.0
 20
7276.5
 10
8080.8
 20
7181.5
 10
8115.6
 20
7155.5
 10
8150.5
 20
7286.0
 10
8185.3
 20
7278.5
 10
8220.1
 20
7218.0
 10
8255.0
 20
7141.5
 10
8289.8
 20
7144.0
 10
8324.6
 20
7221.0
 10
8359.5
 20
7331.5
 10
8394.3
 20
7415.5
 10
8429.1
 20
7612.5
 10
8464.0
 20
7738.5
 10
8498.8
 20
7862.0
 10
8533.6
 20
7902.5
 10
8568.5
 20
7969.0
 10
8603.3
 20
7977.0
 10
8638.1
 20
8135.0
 10
8672.9
 20
8174.5
 10
8707.8
 20
8150.0
 10
8742.6
 20
8027.0
 10
8777.4
 20
7831.0
 10
8812.3
 20
7734.5
 10
8847.1
 20
7636.0
 10
8881.9
 20
7637.5
 10
8916.8
 20
7701.5
 10
8951.6
 20
7802.0
 10
8986.4
 20
7908.5
 10
9021.3
 20
7989.0
 10
9056.1
 20
7866.0
 10
9090.9
 20
7754.0
 10
9125.7
 20
7666.0
 10
9160.6
 20
7643.0
 10
9195.4
 20
7688.5
 10
9230.2
 20
7696.0
 10
9265.1
 20
7825.5
 10
9299.9
 20
7861.0
 10
9334.7
 20
7874.5
 10
9369.6
 20
7828.0
 10
9404.4
 20
7701.5
 10
9439.2
 20
7572.5
 10
9474.1
 20
7473.5
 10
9508.9
 20
7295.0
 10
9543.7
 20
7273.5
 10
9578.6
 20
7283.0
 10
9613.4
 20
7263.5
 10
9648.2
 20
7292.0
 10
9683.0
 20
7260.0
 10
9717.9
 20
7298.0
 10
9752.7
 20
7304.5
 10
9787.5
 20
7407.5
 10
9822.4
 20
7471.0
 10
9857.2
 20
7578.5
 10
9892.0
 20
7840.0
 10
9926.9
 20
7869.5
 10
9961.7
 20
7816.0
 10
9996.5
 20
7728.0
 10
10031.4
 20
7820.0
 10
10066.2
 20
7741.5
 10
10101.0
 20
7647.5
 10
10135.8
 20
7523.5
 10
10170.7
 20
7418.0
 10
10205.5
 20
7317.0
 10
10240.3
 20
7308.0
 10
10275.2
 20
7466.0
 10
10310.0
 20
7489.0
 10
10344.8
 20
7469.5
 10
10379.7
 20
7419.0
 10
10414.5
 20
7412.0
 10
10449.3
 20
7374.0
 10
10484.2
 20
7293.5
 10
10519.0
 20
7232.0
 10
10553.8
 20
7230.0
 10
10588.7
 20
7189.5
 10
10623.5
 20
6956.0
 10
10658.3
 20
6854.0
 10
10693.1
 20
6748.5
 10
10728.0
 20
6639.0
 10
10762.8
 20
6533.0
 10
10797.6
 20
6414.0
 10
10832.5
 20
6351.5
 10
10867.3
 20
6256.5
 10
10902.1
 20
6178.0
 10
10937.0
 20
6022.5
 10
10971.8
 20
5792.0
 10
11006.6
 20
5649.5
 10
11041.5
 20
5631.0
 10
11076.3
 20
5695.5
 10
11111.1
 20
5797.5
 10
11146.0
 20
5941.5
 10
11180.8
 20
6068.0
 10
11215.6
 20
6165.5
 10
11250.4
 20
6201.5
 10
11285.3
 20
6299.5
 10
11320.1
 20
6298.0
 10
11354.9
 20
6286.0
 10
11389.8
 20
6425.5
 10
11424.6
 20
6440.0
 10
11459.4
 20
6432.0
 10
11494.3
 20
6460.0
 10
11529.1
 20
6585.0
 10
11563.9
 20
6549.5
 10
11598.8
 20
6482.5
 10
11633.6
 20
6515.0
 10
11668.4
 20
6478.5
 10
11703.2
 20
6434.5
 10
11738.1
 20
6466.5
 10
11772.9
 20
6622.5
 10
11807.7
 20
6616.0
 10
11842.6
 20
6594.5
 10
11877.4
 20
6649.5
 10
11912.2
 20
6845.5
 10
11947.1
 20
6880.0
 10
11981.9
 20
6893.5
 10
12016.7
 20
6993.5
 10
12051.6
 20
7078.5
 10
12086.4
 20
7129.5
 10
12121.2
 20
7162.0
 10
12156.1
 20
7225.0
 10
12190.9
 20
7238.0
 10
12225.7
 20
7243.5
 10
12260.5
 20
7120.5
 10
12295.4
 20
7053.5
 10
12330.2
 20
6966.5
 10
12365.0
 20
6914.5
 10
12399.9
 20
6771.5
 10
12434.7
 20
6699.5
 10
12469.5
 20
6713.5
 10
12504.4
 20
6726.0
 10
12539.2
 20
6812.5
 10
12574.0
 20
6861.0
 10
12608.9
 20
6896.5
 10
12643.7
 20
6894.5
 10
12678.5
 20
6925.5
 10
12713.4
 20
6954.0
 10
12748.2
 20
6944.5
 10
12783.0
 20
6778.5
 10
12817.8
 20
6761.5
 10
12852.7
 20
6759.5
 10
12887.5
 20
6690.0
 10
12922.3
 20
6638.5
 10
12957.2
 20
6603.5
 10
12992.0
 20
6566.0
 10
13026.8
 20
6464.0
 10
13061.7
 20
6397.0
 10
13096.5
 20
6329.0
 10
13131.3
 20
6214.0
 10
13166.2
 20
6241.5
 10
13201.0
 20
6246.5
 10
13235.8
 20
6308.5
 10
13270.6
 20
6373.5
 10
13305.5
 20
6466.0
 10
13340.3
 20
6529.5
 10
13375.1
 20
6582.0
 10
13410.0
 20
6670.5
 10
13444.8
 20
6766.0
 10
13479.6
 20
6852.5
 10
13514.5
 20
6953.0
 10
13549.3
 20
7043.0
 10
13584.1
 20
7110.5
 10
13619.0
 20
7155.5
 10
13653.8
 20
7271.0
 10
13688.6
 20
7301.0
 10
13723.5
 20
7352.0
 10
13758.3
 20
7445.5
 10
13793.1
 20
7492.5
 10
13827.9
 20
7517.0
 10
13862.8
 20
7520.5
 10
13897.6
 20
7582.0
 10
13932.4
 20
7571.0
 10
13967.3
 20
7540.0
 10
14002.1
 20
7512.5
 10
14036.9
 20
7615.5
 10
14071.8
 20
7644.5
 10
14106.6
 20
7675.0
 10
14141.4
 20
7770.0
 10
14176.3
 20
7729.0
 10
14211.1
 20
7745.5
 10
14245.9
 20
7770.0
 10
14280.8
 20
7700.0
 10
14315.6
 20
7612.0
 10
14350.4
 20
7589.0
 10
14385.2
 20
7710.5
 10
14420.1
 20
7699.0
 10
14454.9
 20
7695.5
 10
14489.7
 20
7725.5
 10
14524.6
 20
7747.5
 10
14559.4
 20
7750.0
 10
14594.2
 20
7784.0
 10
14629.1
 20
7917.0
 10
14663.9
 20
8019.5
 10
14698.7
 20
8085.0
 10
14733.6
 20
8157.0
 10
14768.4
 20
8193.0
 10
14803.2
 20
8337.5
 10
14838.0
 20
8418.0
 10
14872.9
 20
8416.0
 10
14907.7
 20
8317.5
 10
14942.5
 20
8379.5
 10
14977.4
 20
8470.0
 10
15012.2
 20
8657.5
 10
15047.0
 20
8732.0
 10
15081.9
 20
8788.5
 10
15116.7
 20
8858.0
 10
15151.5
 20
8797.0
 10
15186.4
 20
8798.0
 10
15221.2
 20
8827.0
 10
15256.0
 20
8893.5
 10
15290.9
 20
8951.5
 10
15325.7
 20
9026.0
 10
15360.5
 20
9127.0
 10
15395.3
 20
9307.0
 10
15430.2
 20
9350.5
 10
15465.0
 20
9356.5
 10
15499.8
 20
9359.0
 10
15534.7
 20
9447.0
 10
15569.5
 20
9469.5
 10
15604.3
 20
9518.5
 10
15639.2
 20
9613.5
 10
15674.0
 20
9625.0
 10
15708.8
 20
9650.5
 10
15743.7
 20
9619.5
 10
15778.5
 20
9495.0
 10
15813.3
 20
9505.5
 10
15848.1
 20
9495.5
 10
15883.0
 20
9427.5
 10
15917.8
 20
9410.5
 10
15952.6
 20
9387.5
 10
15987.5
 20
9374.0
 10
16022.3
 20
9256.5
 10
16057.1
 20
9341.5
 10
16092.0
 20
9422.0
 10
16126.8
 20
9638.5
 10
16161.6
 20
9636.5
 10
16196.5
 20
9645.0
 10
16231.3
 20
9619.5
 10
16266.1
 20
9524.0
 10
16301.0
 20
9498.0
 10
16335.8
 20
9489.5
 10
16370.6
 20
9476.0
 10
16405.4
 20
9428.0
 10
16440.3
 20
9491.5
 10
16475.1
 20
9658.5
 10
16509.9
 20
9642.0
 10
16544.8
 20
9774.5
 10
16579.6
 20
9894.0
 10
16614.4
 20
9940.0
 10
16649.3
 20
9912.0
 10
16684.1
 20
9965.0
 10
16718.9
 20
10008.0
 10
16753.8
 20
9992.5
 10
16788.6
 20
10017.0
 10
16823.4
 20
10060.5
 10
16858.3
 20
10076.5
 10
16893.1
 20
9970.0
 10
16927.9
 20
9960.5
 10
16962.7
 20
9983.5
 10
16997.6
 20
10004.5
 10
17032.4
 20
9921.5
 10
17067.2
 20
9930.0
 10
17102.1
 20
9933.0
 10
17136.9
 20
9871.0
 10
17171.7
 20
9921.0
 10
17206.6
 20
10044.5
 10
17241.4
 20
10094.5
 10
17276.2
 20
10118.0
 10
17311.1
 20
10153.0
 10
17345.9
 20
10229.0
 10
17380.7
 20
10223.5
 10
17415.5
 20
10260.5
 10
17450.4
 20
10309.5
 10
17485.2
 20
10389.0
 10
17520.0
 20
10516.0
 10
17554.9
 20
10607.0
 10
17589.7
 20
10650.0
 10
17624.5
 20
10656.0
 10
17659.4
 20
10645.5
 10
17694.2
 20
10585.0
 10
17729.0
 20
10564.5
 10
17763.9
 20
10480.0
 10
17798.7
 20
10443.0
 10
17833.5
 20
10423.5
 10
17868.4
 20
10433.0
 10
17903.2
 20
10358.0
 10
17938.0
 20
10424.5
 10
17972.8
 20
10450.5
 10
18007.7
 20
10413.5
 10
18042.5
 20
10359.5
 10
18077.3
 20
10280.5
 10
18112.2
 20
10189.0
 10
18147.0
 20
10064.0
 10
18181.8
 20
9995.5
 10
18216.7
 20
9913.0
 10
18251.5
 20
9833.5
 10
18286.3
 20
9700.0
 10
18321.2
 20
9544.5
 10
18356.0
 20
9439.0
 10
18390.8
 20
9341.0
 10
18425.7
 20
9243.5
 10
18460.5
 20
9159.0
 10
18495.3
 20
9066.0
 10
18530.1
 20
8927.5
 10
18565.0
 20
8839.5
 10
18599.8
 20
8736.0
 10
18634.6
 20
8629.0
 10
18669.5
 20
8475.0
 10
18704.3
 20
8422.0
 10
18739.1
 20
8381.0
 10
18774.0
 20
8426.5
 10
18808.8
 20
8508.0
 10
18843.6
 20
8569.5
 10
18878.5
 20
8716.0
 10
18913.3
 20
8849.0
 10
18948.1
 20
8966.0
 10
18982.9
 20
9036.5
 10
19017.8
 20
9033.0
 10
19052.6
 20
9178.0
 10
19087.4
 20
9273.5
 10
19122.3
 20
9380.0
 10
19157.1
 20
9458.0
 10
19191.9
 20
9597.0
 10
19226.8
 20
9729.5
 10
19261.6
 20
9812.5
 10
19296.4
 20
9869.5
 10
19331.3
 20
9968.5
 10
19366.1
 20
10068.5
 10
19400.9
 20
10350.5
 10
19435.8
 20
10441.0
 10
19470.6
 20
10440.5
 10
19505.4
 20
10375.0
 10
19540.2
 20
10388.0
 10
19575.1
 20
10402.0
 10
19609.9
 20
10442.5
 10
19644.7
 20
10379.0
 10
19679.6
 20
10308.5
 10
19714.4
 20
10253.5
 10
19749.2
 20
10200.0
 10
19784.1
 20
10034.0
 10
19818.9
 20
9997.0
 10
19853.7
 20
9950.5
 10
19888.6
 20
9814.5
 10
19923.4
 20
9718.0
 10
19958.2
 20
9607.5
 10
19993.1
 20
9516.5
 10
20027.9
 20
9345.5
 10
20062.7
 20
9297.5
 10
20097.5
 20
9297.5
 10
20132.4
 20
9195.0
 10
20167.2
 20
9163.5
 10
20202.0
 20
9104.5
 10
20236.9
 20
9031.0
 10
20271.7
 20
8918.5
 10
20306.5
 20
8831.5
 10
20341.4
 20
8743.5
 10
20376.2
 20
8653.5
 10
20411.0
 20
8547.0
 10
20445.9
 20
8422.5
 10
20480.7
 20
8316.5
 10
20515.5
 20
8262.5
 10
20550.3
 20
8370.0
 10
20585.2
 20
8475.5
 10
20620.0
 20
8584.5
 10
20654.8
 20
8700.0
 10
20689.7
 20
8828.0
 10
20724.5
 20
8974.0
 10
20759.3
 20
9060.5
 10
20794.2
 20
9153.5
 10
20829.0
 20
9231.0
 10
20863.8
 20
9382.0
 10
20898.7
 20
9417.5
 10
20933.5
 20
9428.0
 10
20968.3
 20
9433.5
 10
21003.2
 20
9354.5
 10
21038.0
 20
9380.0
 10
21072.8
 20
9441.5
 10
21107.6
 20
9552.0
 10
21142.5
 20
9659.5
 10
21177.3
 20
9727.0
 10
21212.1
 20
9791.0
 10
21247.0
 20
9885.0
 10
21281.8
 20
9950.0
 10
21316.6
 20
10019.0
 10
21351.5
 20
10084.5
 10
21386.3
 20
10077.5
 10
21421.1
 20
10097.0
 10
21456.0
 20
10028.0
 10
21490.8
 20
9952.5
 10
21525.6
 20
9834.0
 10
21560.4
 20
9748.5
 10
21595.3
 20
9634.0
 10
21630.1
 20
9550.0
 10
21664.9
 20
9547.0
 10
21699.8
 20
9555.5
 10
21734.6
 20
9568.5
 10
21769.4
 20
9499.5
 10
21804.3
 20
9524.0
 10
21839.1
 20
9531.0
 10
21873.9
 20
9503.0
 10
21908.8
 20
9340.0
 10
21943.6
 20
9264.0
 10
21978.4
 20
9141.0
 10
22013.3
 20
9003.0
 10
22048.1
 20
8901.0
 10
22082.9
 20
8798.0
 10
22117.7
 20
8728.5
 10
22152.6
 20
8640.5
 10
22187.4
 20
8606.5
 10
22222.2
 20
8573.0
 10
22257.1
 20
8596.5
 10
22291.9
 20
8522.0
 10
22326.7
 20
8382.5
 10
22361.6
 20
8421.0
 10
22396.4
 20
8427.0
 10
22431.2
 20
8477.0
 10
22466.1
 20
8520.0
 10
22500.9
 20
8578.5
 10
22535.7
 20
8718.0
 10
22570.6
 20
8784.5
 10
22605.4
 20
8838.5
 10
22640.2
 20
8980.5
 10
22675.0
 20
9032.5
 10
22709.9
 20
9136.5
 10
22744.7
 20
9204.5
 10
22779.5
 20
9282.5
 10
22814.4
 20
9380.0
 10
22849.2
 20
9467.5
 10
22884.0
 20
9493.5
 10
22918.9
 20
9498.5
 10
22953.7
 20
9518.5
 10
22988.5
 20
9529.5
 10
23023.4
 20
9450.5
 10
23058.2
 20
9557.0
 10
23093.0
 20
9617.0
 10
23127.8
 20
9653.0
 10
23162.7
 20
9681.5
 10
23197.5
 20
9725.0
 10
23232.3
 20
9808.0
 10
23267.2
 20
9930.0
 10
23302.0
 20
9994.5
 10
23336.8
 20
10089.5
 10
23371.7
 20
10171.5
 10
23406.5
 20
10244.0
 10
23441.3
 20
10386.5
 10
23476.2
 20
10433.5
 10
23511.0
 20
10520.0
 10
23545.8
 20
10603.0
 10
23580.7
 20
10721.5
 10
23615.5
 20
10834.5
 10
23650.3
 20
10946.0
 10
23685.1
 20
11024.5
 10
23720.0
 20
11114.5
 10
23754.8
 20
11238.0
 10
23789.6
 20
11384.5
 10
23824.5
 20
11434.5
 10
23859.3
 20
11536.5
 10
23894.1
 20
11693.5
 10
23929.0
 20
11765.5
 10
23963.8
 20
11828.5
 10
23998.6
 20
11875.0
 10
24033.5
 20
11923.5
 10
24068.3
 20
11963.5
 10
24103.1
 20
11995.5
 10
24138.0
 20
12011.5
 10
24172.8
 20
12049.5
 10
24207.6
 20
12116.5
 10
24242.4
 20
12185.0
 10
24277.3
 20
12246.0
 10
24312.1
 20
12298.5
 10
24346.9
 20
12346.0
 10
24381.8
 20
12432.5
 10
24416.6
 20
12475.0
 10
24451.4
 20
12507.5
 10
24486.3
 20
12459.5
 10
24521.1
 20
12382.5
 10
24555.9
 20
12364.5
 10
24590.8
 20
12341.0
 10
24625.6
 20
12351.0
 10
24660.4
 20
12320.5
 10
24695.2
 20
12302.5
 10
24730.1
 20
12240.5
 10
24764.9
 20
12155.0
 10
24799.7
 20
12105.5
 10
24834.6
 20
12068.0
 10
24869.4
 20
12024.5
 10
24904.2
 20
11908.0
 10
24939.1
 20
11851.5
 10
24973.9
 20
11788.5
 10
25008.7
 20
11725.0
 10
25043.6
 20
11700.5
 10
25078.4
 20
11723.0
 10
25113.2
 20
11710.5
 10
25148.1
 20
11774.0
 10
25182.9
 20
11723.5
 10
25217.7
 20
11662.5
 10
25252.5
 20
11512.0
 10
25287.4
 20
11470.0
 10
25322.2
 20
11412.0
 10
25357.0
 20
11333.0
 10
25391.9
 20
11287.5
 10
25426.7
 20
11262.0
 10
25461.5
 20
11221.5
 10
25496.4
 20
11169.5
 10
25531.2
 20
11020.5
 10
25566.0
 20
10941.0
 10
25600.9
 20
10865.5
 10
25635.7
 20
10595.5
 10
25670.5
 20
10516.0
 10
25705.4
 20
10383.0
 10
25740.2
 20
10255.5
 10
25775.0
 20
10229.5
 10
25809.8
 20
10197.0
 10
25844.7
 20
10162.5
 10
25879.5
 20
10151.5
 10
25914.3
 20
10160.5
 10
25949.2
 20
10161.5
 10
25984.0
 20
10084.0
 10
26018.8
 20
10092.5
 10
26053.7
 20
10046.0
 10
26088.5
 20
10018.0
 10
26123.3
 20
9999.0
 10
26158.2
 20
10019.5
 10
26193.0
 20
10015.0
 10
26227.8
 20
10015.5
 10
26262.6
 20
10018.0
 10
26297.5
 20
9932.0
 10
26332.3
 20
9844.5
 10
26367.1
 20
9687.0
 10
26402.0
 20
9595.0
 10
26436.8
 20
9508.0
 10
26471.6
 20
9409.0
 10
26506.5
 20
9259.0
 10
26541.3
 20
9186.5
 10
26576.1
 20
9121.5
 10
26611.0
 20
9059.0
 10
26645.8
 20
9014.0
 10
26680.6
 20
8951.5
 10
26715.5
 20
8810.5
 10
26750.3
 20
8756.0
 10
26785.1
 20
8717.0
 10
26819.9
 20
8728.5
 10
26854.8
 20
8740.0
 10
26889.6
 20
8739.5
 10
26924.4
 20
8745.5
 10
26959.3
 20
8826.5
 10
26994.1
 20
8899.5
 10
27028.9
 20
8968.0
 10
27063.8
 20
9047.0
 10
27098.6
 20
9169.5
 10
27133.4
 20
9229.0
 10
27168.3
 20
9285.0
 10
27203.1
 20
9360.0
 10
27237.9
 20
9438.5
 10
27272.7
 20
9550.0
 10
27307.6
 20
9618.5
 10
27342.4
 20
9681.0
 10
27377.2
 20
9745.0
 10
27412.1
 20
9818.5
 10
27446.9
 20
9898.0
 10
27481.7
 20
10085.0
 10
27516.6
 20
10068.5
 10
27551.4
 20
10107.0
 10
27586.2
 20
10164.5
 10
27621.1
 20
10278.0
 10
27655.9
 20
10410.0
 10
27690.7
 20
10514.5
 10
27725.6
 20
10610.0
 10
27760.4
 20
10709.5
 10
27795.2
 20
10747.0
 10
27830.0
 20
10872.0
 10
27864.9
 20
10956.0
 10
27899.7
 20
11045.0
 10
27934.5
 20
11104.5
 10
27969.4
 20
11145.5
 10
28004.2
 20
11221.0
 10
28039.0
 20
11270.5
 10
28073.9
 20
11328.0
 10
28108.7
 20
11417.5
 10
28143.5
 20
11565.5
 10
28178.4
 20
11553.5
 10
28213.2
 20
11507.5
 10
28248.0
 20
11543.0
 10
28282.9
 20
11543.0
 10
28317.7
 20
11589.0
 10
28352.5
 20
11611.0
 10
28387.3
 20
11474.5
 10
28422.2
 20
11458.5
 10
28457.0
 20
11450.0
 10
28491.8
 20
11448.5
 10
28526.7
 20
11297.5
 10
28561.5
 20
11270.0
 10
28596.3
 20
11288.5
 10
28631.2
 20
11258.5
 10
28666.0
 20
11275.0
 10
28700.8
 20
11288.0
 10
28735.7
 20
11317.0
 10
28770.5
 20
11286.5
 10
28805.3
 20
11338.0
 10
28840.1
 20
11359.5
 10
28875.0
 20
11337.0
 10
28909.8
 20
11241.5
 10
28944.6
 20
11240.0
 10
28979.5
 20
11189.0
 10
29014.3
 20
11074.0
 10
29049.1
 20
10994.5
 10
29084.0
 20
10892.0
 10
29118.8
 20
10784.0
 10
29153.6
 20
10643.0
 10
29188.5
 20
10575.0
 10
29223.3
 20
10545.0
 10
29258.1
 20
10412.5
 10
29293.0
 20
10315.0
 10
29327.8
 20
10268.0
 10
29362.6
 20
10263.5
 10
29397.4
 20
10196.5
 10
29432.3
 20
10239.5
 10
29467.1
 20
10360.5
 10
29501.9
 20
10435.5
 10
29536.8
 20
10452.0
 10
29571.6
 20
10608.0
 10
29606.4
 20
10720.0
 10
29641.3
 20
10671.5
 10
29676.1
 20
10822.0
 10
29710.9
 20
10886.0
 10
29745.8
 20
10914.0
 10
29780.6
 20
10782.5
 10
29815.4
 20
10687.5
 10
29850.3
 20
10640.5
 10
29885.1
 20
10584.0
 10
29919.9
 20
10589.0
 10
29954.7
 20
10563.5
 10
29989.6
 20
10507.0
 10
30024.4
 20
10421.5
 10
30059.2
 20
10465.0
 10
30094.1
 20
10506.0
 10
30128.9
 20
10538.5
 10
30163.7
 20
10619.0
 10
30198.6
 20
10669.0
 10
30233.4
 20
10724.5
 10
30268.2
 20
10717.0
 10
30303.1
 20
10742.5
 10
30337.9
 20
10737.0
 10
30372.7
 20
10741.5
 10
30407.5
 20
10762.5
 10
30442.4
 20
10730.0
 10
30477.2
 20
10677.0
 10
30512.0
 20
10597.0
 10
30546.9
 20
10588.5
 10
30581.7
 20
10657.0
 10
30616.5
 20
10729.5
 10
30651.4
 20
10613.0
 10
30686.2
 20
10526.0
 10
30721.0
 20
10448.5
 10
30755.9
 20
10326.0
 10
30790.7
 20
10273.5
 10
30825.5
 20
10315.0
 10
30860.4
 20
10404.5
 10
30895.2
 20
10499.0
 10
30930.0
 20
10645.0
 10
30964.8
 20
10747.0
 10
30999.7
 20
10855.0
 10
31034.5
 20
10795.5
 10
31069.3
 20
10812.0
 10
31104.2
 20
10791.0
 10
31139.0
 20
10755.0
 10
31173.8
 20
10784.0
 10
31208.7
 20
10836.5
 10
31243.5
 20
10909.5
 10
31278.3
 20
10978.5
 10
31313.2
 20
11079.5
 10
31348.0
 20
11131.5
 10
31382.8
 20
11044.5
 10
31417.7
 20
11018.0
 10
31452.5
 20
10978.5
 10
31487.3
 20
10830.0
 10
31522.1
 20
10819.0
 10
31557.0
 20
10922.5
 10
31591.8
 20
11008.0
 10
31626.6
 20
11082.5
 10
31661.5
 20
11144.5
 10
31696.3
 20
11244.5
 10
31731.1
 20
11365.5
 10
31766.0
 20
11449.0
 10
31800.8
 20
11536.5
 10
31835.6
 20
11604.5
 10
31870.5
 20
11762.0
 10
31905.3
 20
11681.5
 10
31940.1
 20
11704.5
 10
31974.9
 20
11744.0
 10
32009.8
 20
11559.5
 10
32044.6
 20
11589.0
 10
32079.4
 20
11616.0
 10
32114.3
 20
11639.0
 10
32149.1
 20
11482.0
 10
32183.9
 20
11496.5
 10
32218.8
 20
11525.0
 10
32253.6
 20
11556.5
 10
32288.4
 20
11544.5
 10
32323.3
 20
11666.0
 10
32358.1
 20
11717.0
 10
32392.9
 20
11578.0
 10
32427.8
 20
11486.0
 10
32462.6
 20
11378.0
 10
32497.4
 20
11325.5
 10
32532.2
 20
11267.0
 10
32567.1
 20
11199.5
 10
32601.9
 20
11000.0
 10
32636.7
 20
10962.5
 10
32671.6
 20
11005.5
 10
32706.4
 20
11059.0
 10
32741.2
 20
11114.5
 10
32776.1
 20
11146.0
 10
32810.9
 20
11243.0
 10
32845.7
 20
11269.5
 10
32880.6
 20
11146.5
 10
32915.4
 20
11133.5
 10
32950.2
 20
11101.0
 10
32985.0
 20
11159.0
 10
33019.9
 20
11296.5
 10
33054.7
 20
11371.5
 10
33089.5
 20
11457.5
 10
33124.4
 20
11542.0
 10
33159.2
 20
11720.5
 10
33194.0
 20
11821.5
 10
33228.9
 20
11877.5
 10
33263.7
 20
11843.0
 10
33298.5
 20
11872.5
 10
33333.4
 20
12025.0
 10
33368.2
 20
12086.0
 10
33403.0
 20
12099.0
 10
33437.9
 20
12080.5
 10
33472.7
 20
12022.5
 10
33507.5
 20
11963.5
 10
33542.3
 20
11995.5
 10
33577.2
 20
12082.5
 10
33612.0
 20
12162.0
 10
33646.8
 20
12084.5
 10
33681.7
 20
11951.0
 10
33716.5
 20
11860.5
 10
33751.3
 20
11799.0
 10
33786.2
 20
11633.5
 10
33821.0
 20
11591.0
 10
33855.8
 20
11583.5
 10
33890.7
 20
11513.0
 10
33925.5
 20
11502.5
 10
33960.3
 20
11514.0
 10
33995.2
 20
11548.5
 10
34030.0
 20
11481.0
 10
34064.8
 20
11486.0
 10
34099.6
 20
11461.5
 10
34134.5
 20
11357.5
 10
34169.3
 20
11373.0
 10
34204.1
 20
11431.5
 10
34239.0
 20
11492.0
 10
34273.8
 20
11572.5
 10
34308.6
 20
11644.0
 10
34343.5
 20
11709.5
 10
34378.3
 20
11785.5
 10
34413.1
 20
12013.0
 10
34448.0
 20
12051.5
 10
34482.8
 20
12001.5
 10
34517.6
 20
12023.0
 10
34552.4
 20
11965.5
 10
34587.3
 20
11957.5
 10
34622.1
 20
12005.0
 10
34656.9
 20
12192.5
 10
34691.8
 20
12251.5
 10
34726.6
 20
12340.5
 10
34761.4
 20
12488.0
 10
34796.3
 20
12724.0
 10
34831.1
 20
12785.5
 10
34865.9
 20
12762.0
 10
34900.8
 20
12837.0
 10
34935.6
 20
12746.5
 10
34970.4
 20
12683.5
 10
35005.3
 20
12704.5
 10
35040.1
 20
12853.5
 10
35074.9
 20
12909.5
 10
35109.7
 20
12947.0
 10
35144.6
 20
13089.0
 10
35179.4
 20
13116.0
 10
35214.2
 20
13168.0
 10
35249.1
 20
13207.5
 10
35283.9
 20
13302.5
 10
35318.7
 20
13279.5
 10
35353.6
 20
13198.5
 10
35388.4
 20
13167.5
 10
35423.2
 20
13088.5
 10
35458.1
 20
13026.5
 10
35492.9
 20
12999.0
 10
35527.7
 20
12942.0
 10
35562.6
 20
12896.0
 10
35597.4
 20
12822.0
 10
35632.2
 20
12773.0
 10
35667.0
 20
12710.0
 10
35701.9
 20
12617.5
 10
35736.7
 20
12533.5
 10
35771.5
 20
12566.0
 10
35806.4
 20
12530.0
 10
35841.2
 20
12487.5
 10
35876.0
 20
12364.0
 10
35910.9
 20
12320.0
 10
35945.7
 20
12226.0
 10
35980.5
 20
12162.5
 10
36015.4
 20
12147.0
 10
36050.2
 20
12117.0
 10
36085.0
 20
12124.0
 10
36119.8
 20
12174.5
 10
36154.7
 20
12206.0
 10
36189.5
 20
12215.0
 10
36224.3
 20
12200.0
 10
36259.2
 20
12290.5
 10
36294.0
 20
12318.5
 10
36328.8
 20
12268.5
 10
36363.7
 20
12236.0
 10
36398.5
 20
12265.5
 10
36433.3
 20
12304.0
 10
36468.2
 20
12390.0
 10
36503.0
 20
12478.5
 10
36537.8
 20
12456.5
 10
36572.7
 20
12441.5
 10
36607.5
 20
12480.0
 10
36642.3
 20
12401.5
 10
36677.1
 20
12424.0
 10
36712.0
 20
12454.5
 10
36746.8
 20
12501.5
 10
36781.6
 20
12625.0
 10
36816.5
 20
12615.0
 10
36851.3
 20
12637.5
 10
36886.1
 20
12749.5
 10
36921.0
 20
12775.0
 10
36955.8
 20
12781.0
 10
36990.6
 20
12645.0
 10
37025.5
 20
12727.0
 10
37060.3
 20
12693.0
 10
37095.1
 20
12583.5
 10
37130.0
 20
12543.0
 10
37164.8
 20
12539.5
 10
37199.6
 20
12557.0
 10
37234.4
 20
12662.0
 10
37269.3
 20
12832.0
 10
37304.1
 20
12916.5
 10
37338.9
 20
12924.0
 10
37373.8
 20
12889.0
 10
37408.6
 20
12858.0
 10
37443.4
 20
12859.5
 10
37478.3
 20
12927.0
 10
37513.1
 20
13032.5
 10
37547.9
 20
13152.5
 10
37582.8
 20
13209.5
 10
37617.6
 20
13263.5
 10
37652.4
 20
13154.0
 10
37687.2
 20
13106.0
 10
37722.1
 20
13202.0
 10
37756.9
 20
13269.0
 10
37791.7
 20
13252.0
 10
37826.6
 20
13372.0
 10
37861.4
 20
13440.5
 10
37896.2
 20
13406.0
 10
37931.1
 20
13373.0
 10
37965.9
 20
13339.5
 10
38000.7
 20
13305.5
 10
38035.6
 20
13176.5
 10
38070.4
 20
13125.0
 10
38105.2
 20
13144.5
 10
38140.1
 20
13146.0
 10
38174.9
 20
13157.5
 10
38209.7
 20
13185.0
 10
38244.5
 20
13224.5
 10
38279.4
 20
13352.5
 10
38314.2
 20
13398.0
 10
38349.0
 20
13428.5
 10
38383.9
 20
13540.5
 10
38418.7
 20
13567.5
 10
38453.5
 20
13662.0
 10
38488.4
 20
13709.5
 10
38523.2
 20
13797.0
 10
38558.0
 20
13862.0
 10
38592.9
 20
13901.0
 10
38627.7
 20
13904.5
 10
38662.5
 20
13962.0
 10
38697.3
 20
13969.0
 10
38732.2
 20
13987.0
 10
38767.0
 20
14063.0
 10
38801.8
 20
14107.0
 10
38836.7
 20
14141.5
 10
38871.5
 20
14171.5
 10
38906.3
 20
14157.5
 10
38941.2
 20
14187.0
 10
38976.0
 20
14223.5
 10
39010.8
 20
14193.0
 10
39045.7
 20
14233.5
 10
39080.5
 20
14263.5
 10
39115.3
 20
14263.0
 10
39150.2
 20
14208.0
 10
39185.0
 20
14161.0
 10
39219.8
 20
14151.5
 10
39254.6
 20
14175.0
 10
39289.5
 20
14209.5
 10
39324.3
 20
14254.0
 10
39359.1
 20
14259.0
 10
39394.0
 20
14227.0
 10
39428.8
 20
14246.5
 10
39463.6
 20
14282.5
 10
39498.5
 20
14318.0
 10
39533.3
 20
14378.0
 10
39568.1
 20
14431.5
 10
39603.0
 20
14475.0
 10
39637.8
 20
14493.5
 10
39672.6
 20
14551.0
 10
39707.5
 20
14612.5
 10
39742.3
 20
14657.0
 10
39777.1
 20
14613.0
 10
39811.9
 20
14611.0
 10
39846.8
 20
14629.5
 10
39881.6
 20
14635.5
 10
39916.4
 20
14647.5
 10
39951.3
 20
14666.0
 10
39986.1
 20
14711.0
 10
40020.9
 20
14772.5
 10
40055.8
 20
14827.0
 10
40090.6
 20
14886.0
 10
40125.4
 20
14968.5
 10
40160.3
 20
15020.5
 10
40195.1
 20
15004.0
 10
40229.9
 20
14978.5
 10
40264.7
 20
14828.0
 10
40299.6
 20
14813.0
 10
40334.4
 20
14789.0
 10
40369.2
 20
14743.0
 10
40404.1
 20
14586.5
 10
40438.9
 20
14464.5
 10
40473.7
 20
14379.0
 10
40508.6
 20
14327.0
 10
40543.4
 20
14263.5
 10
40578.2
 20
14276.5
 10
40613.1
 20
14322.0
 10
40647.9
 20
14445.5
 10
40682.7
 20
14501.5
 10
40717.6
 20
14559.0
 10
40752.4
 20
14631.0
 10
40787.2
 20
14727.0
 10
40822.0
 20
14781.0
 10
40856.9
 20
14855.0
 10
40891.7
 20
14900.0
 10
40926.5
 20
14960.0
 10
40961.4
 20
15049.5
 10
40996.2
 20
15216.5
 10
41031.0
 20
15296.5
 10
41065.9
 20
15377.5
 10
41100.7
 20
15457.0
 10
41135.5
 20
15492.5
 10
41170.4
 20
15436.5
 10
41205.2
 20
15445.0
 10
41240.0
 20
15479.5
 10
41274.9
 20
15435.0
 10
41309.7
 20
15451.5
 10
41344.5
 20
15475.0
 10
41379.3
 20
15561.0
 10
41414.2
 20
15570.0
 10
41449.0
 20
15561.0
 10
41483.8
 20
15541.5
 10
41518.7
 20
15525.0
 10
41553.5
 20
15498.5
 10
41588.3
 20
15522.0
 10
41623.2
 20
15642.5
 10
41658.0
 20
15651.0
 10
41692.8
 20
15747.0
 10
41727.7
 20
15874.5
 10
41762.5
 20
15786.5
 10
41797.3
 20
15751.5
 10
41832.1
 20
15755.0
 10
41867.0
 20
15790.5
 10
41901.8
 20
15675.5
 10
41936.6
 20
15685.5
 10
41971.5
 20
15649.5
 10
42006.3
 20
15610.0
 10
42041.1
 20
15478.0
 10
42076.0
 20
15497.5
 10
42110.8
 20
15642.0
 10
42145.6
 20
15754.5
 10
42180.5
 20
15822.5
 10
42215.3
 20
15882.0
 10
42250.1
 20
15913.5
 10
42285.0
 20
15946.0
 10
42319.8
 20
16005.5
 10
42354.6
 20
16085.5
 10
42389.4
 20
16173.0
 10
42424.3
 20
16239.0
 10
42459.1
 20
16360.0
 10
42493.9
 20
16415.0
 10
42528.8
 20
16500.5
 10
42563.6
 20
16561.5
 10
42598.4
 20
16615.5
 10
42633.3
 20
16653.0
 10
42668.1
 20
16728.0
 10
42702.9
 20
16798.5
 10
42737.8
 20
16859.0
 10
42772.6
 20
16898.0
 10
42807.4
 20
16937.5
 10
42842.3
 20
16965.0
 10
42877.1
 20
16870.0
 10
42911.9
 20
16776.5
 10
42946.7
 20
16698.5
 10
42981.6
 20
16598.5
 10
43016.4
 20
16426.5
 10
43051.2
 20
16284.0
 10
43086.1
 20
16235.0
 10
43120.9
 20
16327.5
 10
43155.7
 20
16399.0
 10
43190.6
 20
16580.5
 10
43225.4
 20
16618.0
 10
43260.2
 20
16586.0
 10
43295.1
 20
16447.5
 10
43329.9
 20
16422.0
 10
43364.7
 20
16451.0
 10
43399.5
 20
16394.5
 10
43434.4
 20
16393.5
 10
43469.2
 20
16377.5
 10
43504.0
 20
16358.0
 10
43538.9
 20
16241.5
 10
43573.7
 20
16247.0
 10
43608.5
 20
16279.0
 10
43643.4
 20
16195.0
 10
43678.2
 20
16112.5
 10
43713.0
 20
16051.0
 10
43747.9
 20
16054.0
 10
43782.7
 20
15943.5
 10
43817.5
 20
15868.0
 10
43852.4
 20
15858.5
 10
43887.2
 20
15931.5
 10
43922.0
 20
15872.0
 10
43956.8
 20
15848.0
 10
43991.7
 20
15884.0
 10
44026.5
 20
15849.0
 10
44061.3
 20
15935.5
 10
44096.2
 20
16020.0
 10
44131.0
 20
16100.0
 10
44165.8
 20
16079.5
 10
44200.7
 20
16138.0
 10
44235.5
 20
16179.5
 10
44270.3
 20
16149.0
 10
44305.2
 20
16132.0
 10
44340.0
 20
16037.5
 10
44374.8
 20
15899.0
 10
44409.6
 20
15877.0
 10
44444.5
 20
15789.0
 10
44479.3
 20
15668.0
 10
44514.1
 20
15550.5
 10
44549.0
 20
15452.5
 10
44583.8
 20
15345.5
 10
44618.6
 20
15212.5
 10
44653.5
 20
15078.0
 10
44688.3
 20
14927.0
 10
44723.1
 20
14768.0
 10
44758.0
 20
14659.0
 10
44792.8
 20
14639.5
 10
44827.6
 20
14536.0
 10
44862.5
 20
14494.5
 10
44897.3
 20
14330.5
 10
44932.1
 20
14205.5
 10
44966.9
 20
14065.0
 10
45001.8
 20
13891.0
 10
45036.6
 20
13577.0
 10
45071.4
 20
13502.5
 10
45106.3
 20
13401.0
 10
45141.1
 20
13249.5
 10
45175.9
 20
13177.5
 10
45210.8
 20
13131.5
 10
45245.6
 20
13118.5
 10
45280.4
 20
12980.5
 10
45315.3
 20
12892.0
 10
45350.1
 20
12826.5
 10
45384.9
 20
12752.0
 10
45419.8
 20
12706.0
 10
45454.6
 20
12685.0
 10
45489.4
 20
12644.0
 10
45524.2
 20
12694.5
 10
45559.1
 20
12628.0
 10
45593.9
 20
12607.0
 10
45628.7
 20
12566.0
 10
45663.6
 20
12573.5
 10
45698.4
 20
12535.0
 10
45733.2
 20
12524.5
 10
45768.1
 20
12628.5
 10
45802.9
 20
12624.5
 10
45837.7
 20
12604.0
 10
45872.6
 20
12535.0
 10
45907.4
 20
12450.5
 10
45942.2
 20
12391.0
 10
45977.0
 20
12319.0
 10
46011.9
 20
12252.0
 10
46046.7
 20
12239.0
 10
46081.5
 20
12218.5
 10
46116.4
 20
12106.0
 10
46151.2
 20
12083.5
 10
46186.0
 20
12028.5
 10
46220.9
 20
11978.5
 10
46255.7
 20
11876.5
 10
46290.5
 20
11893.5
 10
46325.4
 20
11846.0
 10
46360.2
 20
11851.0
 10
46395.0
 20
11868.0
 10
46429.9
 20
11787.5
 10
46464.7
 20
11697.0
 10
46499.5
 20
11537.0
 10
46534.3
 20
11511.0
 10
46569.2
 20
11428.0
 10
46604.0
 20
11329.5
 10
46638.8
 20
11203.0
 10
46673.7
 20
11165.0
 10
46708.5
 20
11098.5
 10
46743.3
 20
11047.0
 10
46778.2
 20
11070.0
 10
46813.0
 20
11015.0
 10
46847.8
 20
10980.0
 10
46882.7
 20
10986.5
 10
46917.5
 20
10913.5
 10
46952.3
 20
10893.0
 10
46987.2
 20
10882.0
 10
47022.0
 20
10876.0
 10
47056.8
 20
10912.5
 10
47091.6
 20
10922.5
 10
47126.5
 20
10864.0
 10
47161.3
 20
10878.0
 10
47196.1
 20
10801.0
 10
47231.0
 20
10630.5
 10
47265.8
 20
10606.0
 10
47300.6
 20
10646.0
 10
47335.5
 20
10738.0
 10
47370.3
 20
10780.5
 10
47405.1
 20
10693.5
 10
47440.0
 20
10686.5
 10
47474.8
 20
10704.5
 10
47509.6
 20
10731.5
 10
47544.4
 20
10859.5
 10
47579.3
 20
10999.0
 10
47614.1
 20
11045.0
 10
47648.9
 20
11146.5
 10
47683.8
 20
11219.5
 10
47718.6
 20
11274.5
 10
47753.4
 20
11302.0
 10
47788.3
 20
11162.0
 10
47823.1
 20
11076.5
 10
47857.9
 20
11035.0
 10
47892.8
 20
11006.0
 10
47927.6
 20
10875.5
 10
47962.4
 20
10919.5
 10
47997.3
 20
10999.0
 10
48032.1
 20
11046.5
 10
48066.9
 20
11137.5
 10
48101.7
 20
11231.5
 10
48136.6
 20
11321.5
 10
48171.4
 20
11412.5
 10
48206.2
 20
11491.5
 10
48241.1
 20
11595.0
 10
48275.9
 20
11645.0
 10
48310.7
 20
11530.5
 10
48345.6
 20
11448.5
 10
48380.4
 20
11384.5
 10
48415.2
 20
11291.0
 10
48450.1
 20
11320.0
 10
48484.9
 20
11379.0
 10
48519.7
 20
11405.5
 10
48554.6
 20
11512.0
 10
48589.4
 20
11609.5
 10
48624.2
 20
11713.0
 10
48659.0
 20
11785.0
 10
48693.9
 20
11921.5
 10
48728.7
 20
11981.5
 10
48763.5
 20
12034.5
 10
48798.4
 20
12109.5
 10
48833.2
 20
12129.0
 10
48868.0
 20
12170.0
 10
48902.9
 20
12236.0
 10
48937.7
 20
12284.0
 10
48972.5
 20
12341.0
 10
49007.4
 20
12346.5
 10
49042.2
 20
12327.0
 10
49077.0
 20
12329.0
 10
49111.8
 20
12354.5
 10
49146.7
 20
12403.5
 10
49181.5
 20
12372.5
 10
49216.3
 20
12388.5
 10
49251.2
 20
12384.0
 10
49286.0
 20
12267.0
 10
49320.8
 20
12155.5
 10
49355.7
 20
12042.5
 10
49390.5
 20
11959.5
 10
49425.3
 20
11840.5
 10
49460.2
 20
11726.5
 10
49495.0
 20
11537.0
 10
49529.8
 20
11382.5
 10
49564.7
 20
11248.5
 10
49599.5
 20
11178.5
 10
49634.3
 20
11118.0
 10
49669.1
 20
11048.5
 10
49704.0
 20
10989.5
 10
49738.8
 20
10926.0
 10
49773.6
 20
10764.5
 10
49808.5
 20
10679.0
 10
49843.3
 20
10597.5
 10
49878.1
 20
10506.5
 10
49913.0
 20
10427.0
 10
49947.8
 20
10346.0
 10
49982.6
 20
10274.5
 10
50017.5
 20
10199.0
 10
50052.3
 20
10109.5
 10
50087.1
 20
10041.5
 10
50121.9
 20
9936.5
 10
50156.8
 20
9745.0
 10
50191.6
 20
9671.5
 10
50226.4
 20
9618.5
 10
50261.3
 20
9583.0
 10
50296.1
 20
9535.0
 10
50330.9
 20
9482.0
 10
50365.8
 20
9427.0
 10
50400.6
 20
9377.0
 10
50435.4
 20
9324.5
 10
50470.3
 20
9278.0
 10
50505.1
 20
9215.0
 10
50539.9
 20
9190.0
 10
50574.8
 20
9121.5
 10
50609.6
 20
9070.5
 10
50644.4
 20
9033.0
 10
50679.2
 20
8932.0
 10
50714.1
 20
8848.5
 10
50748.9
 20
8800.5
 10
50783.7
 20
8755.0
 10
50818.6
 20
8726.5
 10
50853.4
 20
8719.5
 10
50888.2
 20
8663.0
 10
50923.1
 20
8573.0
 10
50957.9
 20
8537.0
 10
50992.7
 20
8528.5
 10
51027.6
 20
8472.5
 10
51062.4
 20
8495.5
 10
51097.2
 20
8489.5
 10
51132.1
 20
8417.5
 10
51166.9
 20
8324.0
 10
51201.7
 20
8276.5
 10
51236.5
 20
8207.5
 10
51271.4
 20
8161.5
 10
51306.2
 20
8147.5
 10
51341.0
 20
8096.5
 10
51375.9
 20
8045.0
 10
51410.7
 20
8010.5
 10
51445.5
 20
7988.5
 10
51480.4
 20
7957.5
 10
51515.2
 20
7925.5
 10
51550.0
 20
7852.5
 10
51584.9
 20
7838.0
 10
51619.7
 20
7859.5
 10
51654.5
 20
7785.0
 10
51689.3
 20
7742.0
 10
51724.2
 20
7737.0
 10
51759.0
 20
7735.5
 10
51793.8
 20
7620.5
 10
51828.7
 20
7572.0
 10
51863.5
 20
7531.5
 10
51898.3
 20
7506.0
 10
51933.2
 20
7483.5
 10
51968.0
 20
7368.5
 10
52002.8
 20
7343.5
 10
52037.7
 20
7308.5
 10
52072.5
 20
7305.5
 10
52107.3
 20
7294.5
 10
52142.2
 20
7288.5
 10
52177.0
 20
7270.5
 10
52211.8
 20
7257.5
  0
LWPOLYLINE
  5
93
330
17
100
AcDbEntity
  8
RASANTE
100
AcDbPolyline
 90
1500
 70
0
 10
0.0
 20
4755.0
 10
34.8
 20
4756.5
 10
69.7
 20
4758.5
 10
104.5
 20
4760.0
 10
139.3
 20
4761.5
 10
174.2
 20
4763.5
 10
209.0
 20
4765.0
 10
243.8
 20
4766.5
 10
278.6
 20
4768.5
 10
313.5
 20
4770.0
 10
348.3
 20
4771.5
 10
383.1
 20
4773.5
 10
418.0
 20
4775.0
 10
452.8
 20
4776.5
 10
487.6
 20
4778.5
 10
522.5
 20
4780.0
 10
557.3
 20
4781.5
 10
592.1
 20
4783.5
 10
627.0
 20
4785.0
 10
661.8
 20
4786.5
 10
696.6
 20
4788.5
 10
731.5
 20
4790.0
 10
766.3
 20
4791.5
 10
801.1
 20
4793.5
 10
835.9
 20
4795.0
 10
870.8
 20
4796.5
 10
905.6
 20
4798.5
 10
940.4
 20
4800.0
 10
975.3
 20
4801.5
 10
1010.1
 20
4803.5
 10
1044.9
 20
4805.0
 10
1079.8
 20
4807.0
 10
1114.6
 20
4808.5
 10
1149.4
 20
4810.0
 10
1184.3
 20
4812.0
 10
1219.1
 20
4813.5
 10
1253.9
 20
4815.0
 10
1288.8
 20
4817.0
 10
1323.6
 20
4818.5
 10
1358.4
 20
4820.0
 10
1393.2
 20
4822.0
 10
1428.1
 20
4823.5
 10
1462.9
 20
4825.0
 10
1497.7
 20
4827.0
 10
1532.6
 20
4828.5
 10
1567.4
 20
4830.0
 10
1602.2
 20
4832.0
 10
1637.1
 20
4833.5
 10
1671.9
 20
4835.0
 10
1706.7
 20
4837.0
 10
1741.6
 20
4838.5
 10
1776.4
 20
4840.0
 10
1811.2
 20
4842.0
 10
1846.0
 20
4843.5
 10
1880.9
 20
4845.0
 10
1915.7
 20
4847.0
 10
1950.5
 20
4848.5
 10
1985.4
 20
4850.0
 10
2020.2
 20
4852.0
 10
2055.0
 20
4853.5
 10
2089.9
 20
4855.0
 10
2124.7
 20
4857.0
 10
2159.5
 20
4858.5
 10
2194.4
 20
4860.0
 10
2229.2
 20
4862.0
 10
2264.0
 20
4863.5
 10
2298.9
 20
4865.0
 10
2333.7
 20
4867.0
 10
2368.5
 20
4868.5
 10
2403.3
 20
4870.0
 10
2438.2
 20
4872.0
 10
2473.0
 20
4873.5
 10
2507.8
 20
4875.0
 10
2542.7
 20
4877.0
 10
2577.5
 20
4878.5
 10
2612.3
 20
4880.0
 10
2647.2
 20
4882.0
 10
2682.0
 20
4883.5
 10
2716.8
 20
4885.0
 10
2751.7
 20
4887.0
 10
2786.5
 20
4888.5
 10
2821.3
 20
4890.0
 10
2856.2
 20
4892.0
 10
2891.0
 20
4893.5
 10
2925.8
 20
4895.0
 10
2960.6
 20
4897.0
 10
2995.5
 20
4898.5
 10
3030.3
 20
4900.0
 10
3065.1
 20
4902.0
 10
3100.0
 20
4903.5
 10
3134.8
 20
4905.5
 10
3169.6
 20
4907.0
 10
3204.5
 20
4908.5
 10
3239.3
 20
4910.5
 10
3274.1
 20
4912.0
 10
3309.0
 20
4913.5
 10
3343.8
 20
4915.5
 10
3378.6
 20
4917.0
 10
3413.4
 20
4918.5
 10
3448.3
 20
4920.5
 10
3483.1
 20
4922.0
 10
3517.9
 20
4923.5
 10
3552.8
 20
4925.5
 10
3587.6
 20
4927.0
 10
3622.4
 20
4928.5
 10
3657.3
 20
4930.5
 10
3692.1
 20
4932.0
 10
3726.9
 20
4933.5
 10
3761.8
 20
4935.5
 10
3796.6
 20
4937.0
 10
3831.4
 20
4938.5
 10
3866.3
 20
4940.5
 10
3901.1
 20
4942.0
 10
3935.9
 20
4943.5
 10
3970.7
 20
4945.5
 10
4005.6
 20
4947.0
 10
4040.4
 20
4948.5
 10
4075.2
 20
4950.5
 10
4110.1
 20
4952.0
 10
4144.9
 20
4953.5
 10
4179.7
 20
4955.5
 10
4214.6
 20
4957.0
 10
4249.4
 20
4958.5
 10
4284.2
 20
4960.5
 10
4319.1
 20
4962.0
 10
4353.9
 20
4963.5
 10
4388.7
 20
4965.5
 10
4423.5
 20
4967.0
 10
4458.4
 20
4968.5
 10
4493.2
 20
4970.5
 10
4528.0
 20
4972.0
 10
4562.9
 20
4973.5
 10
4597.7
 20
4975.5
 10
4632.5
 20
4977.0
 10
4667.4
 20
4978.5
 10
4702.2
 20
4980.5
 10
4737.0
 20
4982.0
 10
4771.9
 20
4983.5
 10
4806.7
 20
4985.5
 10
4841.5
 20
4987.0
 10
4876.4
 20
4988.5
 10
4911.2
 20
4990.5
 10
4946.0
 20
4992.0
 10
4980.8
 20
4993.5
 10
5015.7
 20
4995.5
 10
5050.5
 20
4997.0
 10
5085.3
 20
4998.5
 10
5120.2
 20
5000.5
 10
5155.0
 20
5002.0
 10
5189.8
 20
5003.5
 10
5224.7
 20
5005.5
 10
5259.5
 20
5007.0
 10
5294.3
 20
5009.0
 10
5329.2
 20
5010.5
 10
5364.0
 20
5012.0
 10
5398.8
 20
5014.0
 10
5433.7
 20
5015.5
 10
5468.5
 20
5017.0
 10
5503.3
 20
5019.0
 10
5538.1
 20
5020.5
 10
5573.0
 20
5022.0
 10
5607.8
 20
5024.0
 10
5642.6
 20
5025.5
 10
5677.5
 20
5027.0
 10
5712.3
 20
5029.0
 10
5747.1
 20
5030.5
 10
5782.0
 20
5032.0
 10
5816.8
 20
5034.0
 10
5851.6
 20
5035.5
 10
5886.5
 20
5037.0
 10
5921.3
 20
5039.0
 10
5956.1
 20
5040.5
 10
5990.9
 20
5042.0
 10
6025.8
 20
5044.0
 10
6060.6
 20
5045.5
 10
6095.4
 20
5047.0
 10
6130.3
 20
5049.0
 10
6165.1
 20
5050.5
 10
6199.9
 20
5052.0
 10
6234.8
 20
5054.0
 10
6269.6
 20
5055.5
 10
6304.4
 20
5057.0
 10
6339.3
 20
5059.0
 10
6374.1
 20
5060.5
 10
6408.9
 20
5062.0
 10
6443.8
 20
5064.0
 10
6478.6
 20
5065.5
 10
6513.4
 20
5067.0
 10
6548.2
 20
5069.0
 10
6583.1
 20
5070.5
 10
6617.9
 20
5072.0
 10
6652.7
 20
5074.0
 10
6687.6
 20
5075.5
 10
6722.4
 20
5077.0
 10
6757.2
 20
5079.0
 10
6792.1
 20
5080.5
 10
6826.9
 20
5082.0
 10
6861.7
 20
5084.0
 10
6896.6
 20
5085.5
 10
6931.4
 20
5087.0
 10
6966.2
 20
5089.0
 10
7001.1
 20
5090.5
 10
7035.9
 20
5092.0
 10
7070.7
 20
5094.0
 10
7105.5
 20
5095.5
 10
7140.4
 20
5097.0
 10
7175.2
 20
5099.0
 10
7210.0
 20
5100.5
 10
7244.9
 20
5102.0
 10
7279.7
 20
5104.0
 10
7314.5
 20
5105.5
 10
7349.4
 20
5107.5
 10
7384.2
 20
5109.0
 10
7419.0
 20
5110.5
 10
7453.9
 20
5112.5
 10
7488.7
 20
5114.0
 10
7523.5
 20
5115.5
 10
7558.3
 20
5117.5
 10
7593.2
 20
5119.0
 10
7628.0
 20
5120.5
 10
7662.8
 20
5122.5
 10
7697.7
 20
5124.0
 10
7732.5
 20
5125.5
 10
7767.3
 20
5127.5
 10
7802.2
 20
5129.0
 10
7837.0
 20
5130.5
 10
7871.8
 20
5132.5
 10
7906.7
 20
5134.0
 10
7941.5
 20
5135.5
 10
7976.3
 20
5137.5
 10
8011.2
 20
5139.0
 10
8046.0
 20
5140.5
 10
8080.8
 20
5142.5
 10
8115.6
 20
5144.0
 10
8150.5
 20
5145.5
 10
8185.3
 20
5147.5
 10
8220.1
 20
5149.0
 10
8255.0
 20
5150.5
 10
8289.8
 20
5152.5
 10
8324.6
 20
5154.0
 10
8359.5
 20
5155.5
 10
8394.3
 20
5157.5
 10
8429.1
 20
5159.0
 10
8464.0
 20
5160.5
 10
8498.8
 20
5162.5
 10
8533.6
 20
5164.0
 10
8568.5
 20
5165.5
 10
8603.3
 20
5167.5
 10
8638.1
 20
5169.0
 10
8672.9
 20
5170.5
 10
8707.8
 20
5172.5
 10
8742.6
 20
5174.0
 10
8777.4
 20
5175.5
 10
8812.3
 20
5177.5
 10
8847.1
 20
5179.0
 10
8881.9
 20
5180.5
 10
8916.8
 20
5182.5
 10
8951.6
 20
5184.0
 10
8986.4
 20
5185.5
 10
9021.3
 20
5187.5
 10
9056.1
 20
5189.0
 10
9090.9
 20
5190.5
 10
9125.7
 20
5192.5
 10
9160.6
 20
5194.0
 10
9195.4
 20
5195.5
 10
9230.2
 20
5197.5
 10
9265.1
 20
5199.0
 10
9299.9
 20
5200.5
 10
9334.7
 20
5202.5
 10
9369.6
 20
5204.0
 10
9404.4
 20
5206.0
 10
9439.2
 20
5207.5
 10
9474.1
 20
5209.0
 10
9508.9
 20
5211.0
 10
9543.7
 20
5212.5
 10
9578.6
 20
5214.0
 10
9613.4
 20
5216.0
 10
9648.2
 20
5217.5
 10
9683.0
 20
5219.0
 10
9717.9
 20
5221.0
 10
9752.7
 20
5222.5
 10
9787.5
 20
5224.0
 10
9822.4
 20
5226.0
 10
9857.2
 20
5227.5
 10
9892.0
 20
5229.0
 10
9926.9
 20
5231.0
 10
9961.7
 20
5232.5
 10
9996.5
 20
5234.0
 10
10031.4
 20
5236.0
 10
10066.2
 20
5237.5
 10
10101.0
 20
5239.0
 10
10135.8
 20
5241.0
 10
10170.7
 20
5242.5
 10
10205.5
 20
5244.0
 10
10240.3
 20
5246.0
 10
10275.2
 20
5247.5
 10
10310.0
 20
5249.0
 10
10344.8
 20
5251.0
 10
10379.7
 20
5252.5
 10
10414.5
 20
5254.0
 10
10449.3
 20
5256.0
 10
10484.2
 20
5257.5
 10
10519.0
 20
5259.0
 10
10553.8
 20
5261.0
 10
10588.7
 20
5262.5
 10
10623.5
 20
5264.0
 10
10658.3
 20
5266.0
 10
10693.1
 20
5267.5
 10
10728.0
 20
5269.0
 10
10762.8
 20
5271.0
 10
10797.6
 20
5272.5
 10
10832.5
 20
5274.0
 10
10867.3
 20
5276.0
 10
10902.1
 20
5277.5
 10
10937.0
 20
5279.0
 10
10971.8
 20
5281.0
 10
11006.6
 20
5282.5
 10
11041.5
 20
5284.0
 10
11076.3
 20
5286.0
 10
11111.1
 20
5287.5
 10
11146.0
 20
5289.0
 10
11180.8
 20
5291.0
 10
11215.6
 20
5292.5
 10
11250.4
 20
5294.0
 10
11285.3
 20
5296.0
 10
11320.1
 20
5297.5
 10
11354.9
 20
5299.0
 10
11389.8
 20
5301.0
 10
11424.6
 20
5302.5
 10
11459.4
 20
5304.0
 10
11494.3
 20
5306.0
 10
11529.1
 20
5307.5
 10
11563.9
 20
5309.5
 10
11598.8
 20
5311.0
 10
11633.6
 20
5312.5
 10
11668.4
 20
5314.5
 10
11703.2
 20
5316.0
 10
11738.1
 20
5317.5
 10
11772.9
 20
5319.5
 10
11807.7
 20
5321.0
 10
11842.6
 20
5322.5
 10
11877.4
 20
5324.5
 10
11912.2
 20
5326.0
 10
11947.1
 20
5327.5
 10
11981.9
 20
5329.5
 10
12016.7
 20
5331.0
 10
12051.6
 20
5332.5
 10
12086.4
 20
5334.5
 10
12121.2
 20
5336.0
 10
12156.1
 20
5337.5
 10
12190.9
 20
5339.5
 10
12225.7
 20
5341.0
 10
12260.5
 20
5342.5
 10
12295.4
 20
5344.5
 10
12330.2
 20
5346.0
 10
12365.0
 20
5347.5
 10
12399.9
 20
5349.5
 10
12434.7
 20
5351.0
 10
12469.5
 20
5352.5
 10
12504.4
 20
5354.5
 10
12539.2
 20
5356.0
 10
12574.0
 20
5357.5
 10
12608.9
 20
5359.5
 10
12643.7
 20
5361.0
 10
12678.5
 20
5362.5
 10
12713.4
 20
5364.5
 10
12748.2
 20
5366.0
 10
12783.0
 20
5367.5
 10
12817.8
 20
5369.5
 10
12852.7
 20
5371.0
 10
12887.5
 20
5372.5
 10
12922.3
 20
5374.5
 10
12957.2
 20
5376.0
 10
12992.0
 20
5377.5
 10
13026.8
 20
5379.5
 10
13061.7
 20
5381.0
 10
13096.5
 20
5382.5
 10
13131.3
 20
5384.5
 10
13166.2
 20
5386.0
 10
13201.0
 20
5387.5
 10
13235.8
 20
5389.5
 10
13270.6
 20
5391.0
 10
13305.5
 20
5392.5
 10
13340.3
 20
5394.5
 10
13375.1
 20
5396.0
 10
13410.0
 20
5397.5
 10
13444.8
 20
5399.5
 10
13479.6
 20
5401.0
 10
13514.5
 20
5402.5
 10
13549.3
 20
5404.5
 10
13584.1
 20
5406.0
 10
13619.0
 20
5408.0
 10
13653.8
 20
5409.5
 10
13688.6
 20
5411.0
 10
13723.5
 20
5413.0
 10
13758.3
 20
5414.5
 10
13793.1
 20
5416.0
 10
13827.9
 20
5418.0
 10
13862.8
 20
5419.5
 10
13897.6
 20
5421.0
 10
13932.4
 20
5423.0
 10
13967.3
 20
5424.5
 10
14002.1
 20
5426.0
 10
14036.9
 20
5428.0
 10
14071.8
 20
5429.5
 10
14106.6
 20
5431.0
 10
14141.4
 20
5433.0
 10
14176.3
 20
5434.5
 10
14211.1
 20
5436.0
 10
14245.9
 20
5438.0
 10
14280.8
 20
5439.5
 10
14315.6
 20
5441.0
 10
14350.4
 20
5443.0
 10
14385.2
 20
5444.5
 10
14420.1
 20
5446.0
 10
14454.9
 20
5448.0
 10
14489.7
 20
5449.5
 10
14524.6
 20
5451.0
 10
14559.4
 20
5453.0
 10
14594.2
 20
5454.5
 10
14629.1
 20
5456.0
 10
14663.9
 20
5458.0
 10
14698.7
 20
5459.5
 10
14733.6
 20
5461.0
 10
14768.4
 20
5463.0
 10
14803.2
 20
5464.5
 10
14838.0
 20
5466.0
 10
14872.9
 20
5468.0
 10
14907.7
 20
5469.5
 10
14942.5
 20
5471.0
 10
14977.4
 20
5473.0
 10
15012.2
 20
5474.5
 10
15047.0
 20
5476.0
 10
15081.9
 20
5478.0
 10
15116.7
 20
5479.5
 10
15151.5
 20
5481.0
 10
15186.4
 20
5483.0
 10
15221.2
 20
5484.5
 10
15256.0
 20
5486.0
 10
15290.9
 20
5488.0
 10
15325.7
 20
5489.5
 10
15360.5
 20
5491.0
 10
15395.3
 20
5493.0
 10
15430.2
 20
5494.5
 10
15465.0
 20
5496.0
 10
15499.8
 20
5498.0
 10
15534.7
 20
5499.5
 10
15569.5
 20
5501.0
 10
15604.3
 20
5503.0
 10
15639.2
 20
5504.5
 10
15674.0
 20
5506.5
 10
15708.8
 20
5508.0
 10
15743.7
 20
5509.5
 10
15778.5
 20
5511.5
 10
15813.3
 20
5513.0
 10
15848.1
 20
5514.5
 10
15883.0
 20
5516.5
 10
15917.8
 20
5518.0
 10
15952.6
 20
5519.5
 10
15987.5
 20
5521.5
 10
16022.3
 20
5523.0
 10
16057.1
 20
5524.5
 10
16092.0
 20
5526.5
 10
16126.8
 20
5528.0
 10
16161.6
 20
5529.5
 10
16196.5
 20
5531.5
 10
16231.3
 20
5533.0
 10
16266.1
 20
5534.5
 10
16301.0
 20
5536.5
 10
16335.8
 20
5538.0
 10
16370.6
 20
5539.5
 10
16405.4
 20
5541.5
 10
16440.3
 20
5543.0
 10
16475.1
 20
5544.5
 10
16509.9
 20
5546.5
 10
16544.8
 20
5548.0
 10
16579.6
 20
5549.5
 10
16614.4
 20
5551.5
 10
16649.3
 20
5553.0
 10
16684.1
 20
5554.5
 10
16718.9
 20
5556.5
 10
16753.8
 20
5558.0
 10
16788.6
 20
5559.5
 10
16823.4
 20
5561.5
 10
16858.3
 20
5563.0
 10
16893.1
 20
5564.5
 10
16927.9
 20
5566.5
 10
16962.7
 20
5568.0
 10
16997.6
 20
5569.5
 10
17032.4
 20
5571.5
 10
17067.2
 20
5573.0
 10
17102.1
 20
5574.5
 10
17136.9
 20
5576.5
 10
17171.7
 20
5578.0
 10
17206.6
 20
5579.5
 10
17241.4
 20
5581.5
 10
17276.2
 20
5583.0
 10
17311.1
 20
5584.5
 10
17345.9
 20
5586.5
 10
17380.7
 20
5588.0
 10
17415.5
 20
5589.5
 10
17450.4
 20
5591.5
 10
17485.2
 20
5593.0
 10
17520.0
 20
5594.5
 10
17554.9
 20
5596.5
 10
17589.7
 20
5598.0
 10
17624.5
 20
5599.5
 10
17659.4
 20
5601.5
 10
17694.2
 20
5603.0
 10
17729.0
 20
5604.5
 10
17763.9
 20
5606.5
 10
17798.7
 20
5608.0
 10
17833.5
 20
5610.0
 10
17868.4
 20
5611.5
 10
17903.2
 20
5613.0
 10
17938.0
 20
5615.0
 10
17972.8
 20
5616.5
 10
18007.7
 20
5618.0
 10
18042.5
 20
5620.0
 10
18077.3
 20
5621.5
 10
18112.2
 20
5623.0
 10
18147.0
 20
5625.0
 10
18181.8
 20
5626.5
 10
18216.7
 20
5628.0
 10
18251.5
 20
5630.0
 10
18286.3
 20
5631.5
 10
18321.2
 20
5633.0
 10
18356.0
 20
5635.0
 10
18390.8
 20
5636.5
 10
18425.7
 20
5638.0
 10
18460.5
 20
5640.0
 10
18495.3
 20
5641.5
 10
18530.1
 20
5643.0
 10
18565.0
 20
5645.0
 10
18599.8
 20
5646.5
 10
18634.6
 20
5648.0
 10
18669.5
 20
5650.0
 10
18704.3
 20
5651.5
 10
18739.1
 20
5653.0
 10
18774.0
 20
5655.0
 10
18808.8
 20
5656.5
 10
18843.6
 20
5658.0
 10
18878.5
 20
5660.0
 10
18913.3
 20
5661.5
 10
18948.1
 20
5663.0
 10
18982.9
 20
5665.0
 10
19017.8
 20
5666.5
 10
19052.6
 20
5668.0
 10
19087.4
 20
5670.0
 10
19122.3
 20
5671.5
 10
19157.1
 20
5673.0
 10
19191.9
 20
5675.0
 10
19226.8
 20
5676.5
 10
19261.6
 20
5678.0
 10
19296.4
 20
5680.0
 10
19331.3
 20
5681.5
 10
19366.1
 20
5683.0
 10
19400.9
 20
5685.0
 10
19435.8
 20
5686.5
 10
19470.6
 20
5688.0
 10
19505.4
 20
5690.0
 10
19540.2
 20
5691.5
 10
19575.1
 20
5693.0
 10
19609.9
 20
5695.0
 10
19644.7
 20
5696.5
 10
19679.6
 20
5698.0
 10
19714.4
 20
5700.0
 10
19749.2
 20
5701.5
 10
19784.1
 20
5703.0
 10
19818.9
 20
5705.0
 10
19853.7
 20
5706.5
 10
19888.6
 20
5708.5
 10
19923.4
 20
5710.0
 10
19958.2
 20
5711.5
 10
19993.1
 20
5713.5
 10
20027.9
 20
5715.0
 10
20062.7
 20
5716.5
 10
20097.5
 20
5718.5
 10
20132.4
 20
5720.0
 10
20167.2
 20
5721.5
 10
20202.0
 20
5723.5
 10
20236.9
 20
5725.0
 10
20271.7
 20
5726.5
 10
20306.5
 20
5728.5
 10
20341.4
 20
5730.0
 10
20376.2
 20
5731.5
 10
20411.0
 20
5733.5
 10
20445.9
 20
5735.0
 10
20480.7
 20
5736.5
 10
20515.5
 20
5738.5
 10
20550.3
 20
5740.0
 10
20585.2
 20
5741.5
 10
20620.0
 20
5743.5
 10
20654.8
 20
5745.0
 10
20689.7
 20
5746.5
 10
20724.5
 20
5748.5
 10
20759.3
 20
5750.0
 10
20794.2
 20
5751.5
 10
20829.0
 20
5753.5
 10
20863.8
 20
5755.0
 10
20898.7
 20
5756.5
 10
20933.5
 20
5758.5
 10
20968.3
 20
5760.0
 10
21003.2
 20
5761.5
 10
21038.0
 20
5763.5
 10
21072.8
 20
5765.0
 10
21107.6
 20
5766.5
 10
21142.5
 20
5768.5
 10
21177.3
 20
5770.0
 10
21212.1
 20
5771.5
 10
21247.0
 20
5773.5
 10
21281.8
 20
5775.0
 10
21316.6
 20
5776.5
 10
21351.5
 20
5778.5
 10
21386.3
 20
5780.0
 10
21421.1
 20
5781.5
 10
21456.0
 20
5783.5
 10
21490.8
 20
5785.0
 10
21525.6
 20
5786.5
 10
21560.4
 20
5788.5
 10
21595.3
 20
5790.0
 10
21630.1
 20
5791.5
 10
21664.9
 20
5793.5
 10
21699.8
 20
5795.0
 10
21734.6
 20
5796.5
 10
21769.4
 20
5798.5
 10
21804.3
 20
5800.0
 10
21839.1
 20
5801.5
 10
21873.9
 20
5803.5
 10
21908.8
 20
5805.0
 10
21943.6
 20
5807.0
 10
21978.4
 20
5808.5
 10
22013.3
 20
5810.0
 10
22048.1
 20
5812.0
 10
22082.9
 20
5813.5
 10
22117.7
 20
5815.0
 10
22152.6
 20
5817.0
 10
22187.4
 20
5818.5
 10
22222.2
 20
5820.0
 10
22257.1
 20
5822.0
 10
22291.9
 20
5823.5
 10
22326.7
 20
5825.0
 10
22361.6
 20
5827.0
 10
22396.4
 20
5828.5
 10
22431.2
 20
5830.0
 10
22466.1
 20
5832.0
 10
22500.9
 20
5833.5
 10
22535.7
 20
5835.0
 10
22570.6
 20
5837.0
 10
22605.4
 20
5838.5
 10
22640.2
 20
5840.0
 10
22675.0
 20
5842.0
 10
22709.9
 20
5843.5
 10
22744.7
 20
5845.0
 10
22779.5
 20
5847.0
 10
22814.4
 20
5848.5
 10
22849.2
 20
5850.0
 10
22884.0
 20
5852.0
 10
22918.9
 20
5853.5
 10
22953.7
 20
5855.0
 10
22988.5
 20
5857.0
 10
23023.4
 20
5858.5
 10
23058.2
 20
5860.0
 10
23093.0
 20
5862.0
 10
23127.8
 20
5863.5
 10
23162.7
 20
5865.0
 10
23197.5
 20
5867.0
 10
23232.3
 20
5868.5
 10
23267.2
 20
5870.0
 10
23302.0
 20
5872.0
 10
23336.8
 20
5873.5
 10
23371.7
 20
5875.0
 10
23406.5
 20
5877.0
 10
23441.3
 20
5878.5
 10
23476.2
 20
5880.0
 10
23511.0
 20
5882.0
 10
23545.8
 20
5883.5
 10
23580.7
 20
5885.0
 10
23615.5
 20
5887.0
 10
23650.3
 20
5888.5
 10
23685.1
 20
5890.0
 10
23720.0
 20
5892.0
 10
23754.8
 20
5893.5
 10
23789.6
 20
5895.0
 10
23824.5
 20
5897.0
 10
23859.3
 20
5898.5
 10
23894.1
 20
5900.0
 10
23929.0
 20
5902.0
 10
23963.8
 20
5903.5
 10
23998.6
 20
5905.0
 10
24033.5
 20
5907.0
 10
24068.3
 20
5908.5
 10
24103.1
 20
5910.5
 10
24138.0
 20
5912.0
 10
24172.8
 20
5913.5
 10
24207.6
 20
5915.5
 10
24242.4
 20
5917.0
 10
24277.3
 20
5918.5
 10
24312.1
 20
5920.5
 10
24346.9
 20
5922.0
 10
24381.8
 20
5923.5
 10
24416.6
 20
5925.5
 10
24451.4
 20
5927.0
 10
24486.3
 20
5928.5
 10
24521.1
 20
5930.5
 10
24555.9
 20
5932.0
 10
24590.8
 20
5933.5
 10
24625.6
 20
5935.5
 10
24660.4
 20
5937.0
 10
24695.2
 20
5938.5
 10
24730.1
 20
5940.5
 10
24764.9
 20
5942.0
 10
24799.7
 20
5943.5
 10
24834.6
 20
5945.5
 10
24869.4
 20
5947.0
 10
24904.2
 20
5948.5
 10
24939.1
 20
5950.5
 10
24973.9
 20
5952.0
 10
25008.7
 20
5953.5
 10
25043.6
 20
5955.5
 10
25078.4
 20
5957.0
 10
25113.2
 20
5958.5
 10
25148.1
 20
5960.5
 10
25182.9
 20
5962.0
 10
25217.7
 20
5963.5
 10
25252.5
 20
5965.5
 10
25287.4
 20
5967.0
 10
25322.2
 20
5968.5
 10
25357.0
 20
5970.5
 10
25391.9
 20
5972.0
 10
25426.7
 20
5973.5
 10
25461.5
 20
5975.5
 10
25496.4
 20
5977.0
 10
25531.2
 20
5978.5
 10
25566.0
 20
5980.5
 10
25600.9
 20
5982.0
 10
25635.7
 20
5983.5
 10
25670.5
 20
5985.5
 10
25705.4
 20
5987.0
 10
25740.2
 20
5988.5
 10
25775.0
 20
5990.5
 10
25809.8
 20
5992.0
 10
25844.7
 20
5993.5
 10
25879.5
 20
5995.5
 10
25914.3
 20
5997.0
 10
25949.2
 20
5998.5
 10
25984.0
 20
6000.5
 10
26018.8
 20
6002.0
 10
26053.7
 20
6003.5
 10
26088.5
 20
6005.5
 10
26123.3
 20
6007.0
 10
26158.2
 20
6009.0
 10
26193.0
 20
6010.5
 10
26227.8
 20
6012.0
 10
26262.6
 20
6014.0
 10
26297.5
 20
6015.5
 10
26332.3
 20
6017.0
 10
26367.1
 20
6019.0
 10
26402.0
 20
6020.5
 10
26436.8
 20
6022.0
 10
26471.6
 20
6024.0
 10
26506.5
 20
6025.5
 10
26541.3
 20
6027.0
 10
26576.1
 20
6029.0
 10
26611.0
 20
6030.5
 10
26645.8
 20
6032.0
 10
26680.6
 20
6034.0
 10
26715.5
 20
6035.5
 10
26750.3
 20
6037.0
 10
26785.1
 20
6039.0
 10
26819.9
 20
6040.5
 10
26854.8
 20
6042.0
 10
26889.6
 20
6044.0
 10
26924.4
 20
6045.5
 10
26959.3
 20
6047.0
 10
26994.1
 20
6049.0
 10
27028.9
 20
6050.5
 10
27063.8
 20
6052.0
 10
27098.6
 20
6054.0
 10
27133.4
 20
6055.5
 10
27168.3
 20
6057.0
 10
27203.1
 20
6059.0
 10
27237.9
 20
6060.5
 10
27272.7
 20
6062.0
 10
27307.6
 20
6064.0
 10
27342.4
 20
6065.5
 10
27377.2
 20
6067.0
 10
27412.1
 20
6069.0
 10
27446.9
 20
6070.5
 10
27481.7
 20
6072.0
 10
27516.6
 20
6074.0
 10
27551.4
 20
6075.5
 10
27586.2
 20
6077.0
 10
27621.1
 20
6079.0
 10
27655.9
 20
6080.5
 10
27690.7
 20
6082.0
 10
27725.6
 20
6084.0
 10
27760.4
 20
6085.5
 10
27795.2
 20
6087.0
 10
27830.0
 20
6089.0
 10
27864.9
 20
6090.5
 10
27899.7
 20
6092.0
 10
27934.5
 20
6094.0
 10
27969.4
 20
6095.5
 10
28004.2
 20
6097.0
 10
28039.0
 20
6099.0
 10
28073.9
 20
6100.5
 10
28108.7
 20
6102.0
 10
28143.5
 20
6104.0
 10
28178.4
 20
6105.5
 10
28213.2
 20
6107.5
 10
28248.0
 20
6109.0
 10
28282.9
 20
6110.5
 10
28317.7
 20
6112.5
 10
28352.5
 20
6114.0
 10
28387.3
 20
6115.5
 10
28422.2
 20
6117.5
 10
28457.0
 20
6119.0
 10
28491.8
 20
6120.5
 10
28526.7
 20
6122.5
 10
28561.5
 20
6124.0
 10
28596.3
 20
6125.5
 10
28631.2
 20
6127.5
 10
28666.0
 20
6129.0
 10
28700.8
 20
6130.5
 10
28735.7
 20
6132.5
 10
28770.5
 20
6134.0
 10
28805.3
 20
6135.5
 10
28840.1
 20
6137.5
 10
28875.0
 20
6139.0
 10
28909.8
 20
6140.5
 10
28944.6
 20
6142.5
 10
28979.5
 20
6144.0
 10
29014.3
 20
6145.5
 10
29049.1
 20
6147.5
 10
29084.0
 20
6149.0
 10
29118.8
 20
6150.5
 10
29153.6
 20
6152.5
 10
29188.5
 20
6154.0
 10
29223.3
 20
6155.5
 10
29258.1
 20
6157.5
 10
29293.0
 20
6159.0
 10
29327.8
 20
6160.5
 10
29362.6
 20
6162.5
 10
29397.4
 20
6164.0
 10
29432.3
 20
6165.5
 10
29467.1
 20
6167.5
 10
29501.9
 20
6169.0
 10
29536.8
 20
6170.5
 10
29571.6
 20
6172.5
 10
29606.4
 20
6174.0
 10
29641.3
 20
6175.5
 10
29676.1
 20
6177.5
 10
29710.9
 20
6179.0
 10
29745.8
 20
6180.5
 10
29780.6
 20
6182.5
 10
29815.4
 20
6184.0
 10
29850.3
 20
6185.5
 10
29885.1
 20
6187.5
 10
29919.9
 20
6189.0
 10
29954.7
 20
6190.5
 10
29989.6
 20
6192.5
 10
30024.4
 20
6194.0
 10
30059.2
 20
6195.5
 10
30094.1
 20
6197.5
 10
30128.9
 20
6199.0
 10
30163.7
 20
6200.5
 10
30198.6
 20
6202.5
 10
30233.4
 20
6204.0
 10
30268.2
 20
6205.5
 10
30303.1
 20
6207.5
 10
30337.9
 20
6209.0
 10
30372.7
 20
6211.0
 10
30407.5
 20
6212.5
 10
30442.4
 20
6214.0
 10
30477.2
 20
6216.0
 10
30512.0
 20
6217.5
 10
30546.9
 20
6219.0
 10
30581.7
 20
6221.0
 10
30616.5
 20
6222.5
 10
30651.4
 20
6224.0
 10
30686.2
 20
6226.0
 10
30721.0
 20
6227.5
 10
30755.9
 20
6229.0
 10
30790.7
 20
6231.0
 10
30825.5
 20
6232.5
 10
30860.4
 20
6234.0
 10
30895.2
 20
6236.0
 10
30930.0
 20
6237.5
 10
30964.8
 20
6239.0
 10
30999.7
 20
6241.0
 10
31034.5
 20
6242.5
 10
31069.3
 20
6244.0
 10
31104.2
 20
6246.0
 10
31139.0
 20
6247.5
 10
31173.8
 20
6249.0
 10
31208.7
 20
6251.0
 10
31243.5
 20
6252.5
 10
31278.3
 20
6254.0
 10
31313.2
 20
6256.0
 10
31348.0
 20
6257.5
 10
31382.8
 20
6259.0
 10
31417.7
 20
6261.0
 10
31452.5
 20
6262.5
 10
31487.3
 20
6264.0
 10
31522.1
 20
6266.0
 10
31557.0
 20
6267.5
 10
31591.8
 20
6269.0
 10
31626.6
 20
6271.0
 10
31661.5
 20
6272.5
 10
31696.3
 20
6274.0
 10
31731.1
 20
6276.0
 10
31766.0
 20
6277.5
 10
31800.8
 20
6279.0
 10
31835.6
 20
6281.0
 10
31870.5
 20
6282.5
 10
31905.3
 20
6284.0
 10
31940.1
 20
6286.0
 10
31974.9
 20
6287.5
 10
32009.8
 20
6289.0
 10
32044.6
 20
6291.0
 10
32079.4
 20
6292.5
 10
32114.3
 20
6294.0
 10
32149.1
 20
6296.0
 10
32183.9
 20
6297.5
 10
32218.8
 20
6299.0
 10
32253.6
 20
6301.0
 10
32288.4
 20
6302.5
 10
32323.3
 20
6304.0
 10
32358.1
 20
6306.0
 10
32392.9
 20
6307.5
 10
32427.8
 20
6309.5
 10
32462.6
 20
6311.0
 10
32497.4
 20
6312.5
 10
32532.2
 20
6314.5
 10
32567.1
 20
6316.0
 10
32601.9
 20
6317.5
 10
32636.7
 20
6319.5
 10
32671.6
 20
6321.0
 10
32706.4
 20
6322.5
 10
32741.2
 20
6324.5
 10
32776.1
 20
6326.0
 10
32810.9
 20
6327.5
 10
32845.7
 20
6329.5
 10
32880.6
 20
6331.0
 10
32915.4
 20
6332.5
 10
32950.2
 20
6334.5
 10
32985.0
 20
6336.0
 10
33019.9
 20
6337.5
 10
33054.7
 20
6339.5
 10
33089.5
 20
6341.0
 10
33124.4
 20
6342.5
 10
33159.2
 20
6344.5
 10
33194.0
 20
6346.0
 10
33228.9
 20
6347.5
 10
33263.7
 20
6349.5
 10
33298.5
 20
6351.0
 10
33333.4
 20
6352.5
 10
33368.2
 20
6354.5
 10
33403.0
 20
6356.0
 10
33437.9
 20
6357.5
 10
33472.7
 20
6359.5
 10
33507.5
 20
6361.0
 10
33542.3
 20
6362.5
 10
33577.2
 20
6364.5
 10
33612.0
 20
6366.0
 10
33646.8
 20
6367.5
 10
33681.7
 20
6369.5
 10
33716.5
 20
6371.0
 10
33751.3
 20
6372.5
 10
33786.2
 20
6374.5
 10
33821.0
 20
6376.0
 10
33855.8
 20
6377.5
 10
33890.7
 20
6379.5
 10
33925.5
 20
6381.0
 10
33960.3
 20
6382.5
 10
33995.2
 20
6384.5
 10
34030.0
 20
6386.0
 10
34064.8
 20
6387.5
 10
34099.6
 20
6389.5
 10
34134.5
 20
6391.0
 10
34169.3
 20
6392.5
 10
34204.1
 20
6394.5
 10
34239.0
 20
6396.0
 10
34273.8
 20
6397.5
 10
34308.6
 20
6399.5
 10
34343.5
 20
6401.0
 10
34378.3
 20
6402.5
 10
34413.1
 20
6404.5
 10
34448.0
 20
6406.0
 10
34482.8
 20
6408.0
 10
34517.6
 20
6409.5
 10
34552.4
 20
6411.0
 10
34587.3
 20
6413.0
 10
34622.1
 20
6414.5
 10
34656.9
 20
6416.0
 10
34691.8
 20
6418.0
 10
34726.6
 20
6419.5
 10
34761.4
 20
6421.0
 10
34796.3
 20
6423.0
 10
34831.1
 20
6424.5
 10
34865.9
 20
6426.0
 10
34900.8
 20
6428.0
 10
34935.6
 20
6429.5
 10
34970.4
 20
6431.0
 10
35005.3
 20
6433.0
 10
35040.1
 20
6434.5
 10
35074.9
 20
6436.0
 10
35109.7
 20
6438.0
 10
35144.6
 20
6439.5
 10
35179.4
 20
6441.0
 10
35214.2
 20
6443.0
 10
35249.1
 20
6444.5
 10
35283.9
 20
6446.0
 10
35318.7
 20
6448.0
 10
35353.6
 20
6449.5
 10
35388.4
 20
6451.0
 10
35423.2
 20
6453.0
 10
35458.1
 20
6454.5
 10
35492.9
 20
6456.0
 10
35527.7
 20
6458.0
 10
35562.6
 20
6459.5
 10
35597.4
 20
6461.0
 10
35632.2
 20
6463.0
 10
35667.0
 20
6464.5
 10
35701.9
 20
6466.0
 10
35736.7
 20
6468.0
 10
35771.5
 20
6469.5
 10
35806.4
 20
6471.0
 10
35841.2
 20
6473.0
 10
35876.0
 20
6474.5
 10
35910.9
 20
6476.0
 10
35945.7
 20
6478.0
 10
35980.5
 20
6479.5
 10
36015.4
 20
6481.0
 10
36050.2
 20
6483.0
 10
36085.0
 20
6484.5
 10
36119.8
 20
6486.0
 10
36154.7
 20
6488.0
 10
36189.5
 20
6489.5
 10
36224.3
 20
6491.0
 10
36259.2
 20
6493.0
 10
36294.0
 20
6494.5
 10
36328.8
 20
6496.0
 10
36363.7
 20
6498.0
 10
36398.5
 20
6499.5
 10
36433.3
 20
6501.0
 10
36468.2
 20
6503.0
 10
36503.0
 20
6504.5
 10
36537.8
 20
6506.0
 10
36572.7
 20
6508.0
 10
36607.5
 20
6509.5
 10
36642.3
 20
6511.5
 10
36677.1
 20
6513.0
 10
36712.0
 20
6514.5
 10
36746.8
 20
6516.5
 10
36781.6
 20
6518.0
 10
36816.5
 20
6519.5
 10
36851.3
 20
6521.5
 10
36886.1
 20
6523.0
 10
36921.0
 20
6524.5
 10
36955.8
 20
6526.5
 10
36990.6
 20
6528.0
 10
37025.5
 20
6529.5
 10
37060.3
 20
6531.5
 10
37095.1
 20
6533.0
 10
37130.0
 20
6534.5
 10
37164.8
 20
6536.5
 10
37199.6
 20
6538.0
 10
37234.4
 20
6539.5
 10
37269.3
 20
6541.5
 10
37304.1
 20
6543.0
 10
37338.9
 20
6544.5
 10
37373.8
 20
6546.5
 10
37408.6
 20
6548.0
 10
37443.4
 20
6549.5
 10
37478.3
 20
6551.5
 10
37513.1
 20
6553.0
 10
37547.9
 20
6554.5
 10
37582.8
 20
6556.5
 10
37617.6
 20
6558.0
 10
37652.4
 20
6559.5
 10
37687.2
 20
6561.5
 10
37722.1
 20
6563.0
 10
37756.9
 20
6564.5
 10
37791.7
 20
6566.5
 10
37826.6
 20
6568.0
 10
37861.4
 20
6569.5
 10
37896.2
 20
6571.5
 10
37931.1
 20
6573.0
 10
37965.9
 20
6574.5
 10
38000.7
 20
6576.5
 10
38035.6
 20
6578.0
 10
38070.4
 20
6579.5
 10
38105.2
 20
6581.5
 10
38140.1
 20
6583.0
 10
38174.9
 20
6584.5
 10
38209.7
 20
6586.5
 10
38244.5
 20
6588.0
 10
38279.4
 20
6589.5
 10
38314.2
 20
6591.5
 10
38349.0
 20
6593.0
 10
38383.9
 20
6594.5
 10
38418.7
 20
6596.5
 10
38453.5
 20
6598.0
 10
38488.4
 20
6599.5
 10
38523.2
 20
6601.5
 10
38558.0
 20
6603.0
 10
38592.9
 20
6604.5
 10
38627.7
 20
6606.5
 10
38662.5
 20
6608.0
 10
38697.3
 20
6610.0
 10
38732.2
 20
6611.5
 10
38767.0
 20
6613.0
 10
38801.8
 20
6615.0
 10
38836.7
 20
6616.5
 10
38871.5
 20
6618.0
 10
38906.3
 20
6620.0
 10
38941.2
 20
6621.5
 10
38976.0
 20
6623.0
 10
39010.8
 20
6625.0
 10
39045.7
 20
6626.5
 10
39080.5
 20
6628.0
 10
39115.3
 20
6630.0
 10
39150.2
 20
6631.5
 10
39185.0
 20
6633.0
 10
39219.8
 20
6635.0
 10
39254.6
 20
6636.5
 10
39289.5
 20
6638.0
 10
39324.3
 20
6640.0
 10
39359.1
 20
6641.5
 10
39394.0
 20
6643.0
 10
39428.8
 20
6645.0
 10
39463.6
 20
6646.5
 10
39498.5
 20
6648.0
 10
39533.3
 20
6650.0
 10
39568.1
 20
6651.5
 10
39603.0
 20
6653.0
 10
39637.8
 20
6655.0
 10
39672.6
 20
6656.5
 10
39707.5
 20
6658.0
 10
39742.3
 20
6660.0
 10
39777.1
 20
6661.5
 10
39811.9
 20
6663.0
 10
39846.8
 20
6665.0
 10
39881.6
 20
6666.5
 10
39916.4
 20
6668.0
 10
39951.3
 20
6670.0
 10
39986.1
 20
6671.5
 10
40020.9
 20
6673.0
 10
40055.8
 20
6675.0
 10
40090.6
 20
6676.5
 10
40125.4
 20
6678.0
 10
40160.3
 20
6680.0
 10
40195.1
 20
6681.5
 10
40229.9
 20
6683.0
 10
40264.7
 20
6685.0
 10
40299.6
 20
6686.5
 10
40334.4
 20
6688.0
 10
40369.2
 20
6690.0
 10
40404.1
 20
6691.5
 10
40438.9
 20
6693.0
 10
40473.7
 20
6695.0
 10
40508.6
 20
6696.5
 10
40543.4
 20
6698.0
 10
40578.2
 20
6700.0
 10
40613.1
 20
6701.5
 10
40647.9
 20
6703.0
 10
40682.7
 20
6705.0
 10
40717.6
 20
6706.5
 10
40752.4
 20
6708.5
 10
40787.2
 20
6710.0
 10
40822.0
 20
6711.5
 10
40856.9
 20
6713.5
 10
40891.7
 20
6715.0
 10
40926.5
 20
6716.5
 10
40961.4
 20
6718.5
 10
40996.2
 20
6720.0
 10
41031.0
 20
6721.5
 10
41065.9
 20
6723.5
 10
41100.7
 20
6725.0
 10
41135.5
 20
6726.5
 10
41170.4
 20
6728.5
 10
41205.2
 20
6730.0
 10
41240.0
 20
6731.5
 10
41274.9
 20
6733.5
 10
41309.7
 20
6735.0
 10
41344.5
 20
6736.5
 10
41379.3
 20
6738.5
 10
41414.2
 20
6740.0
 10
41449.0
 20
6741.5
 10
41483.8
 20
6743.5
 10
41518.7
 20
6745.0
 10
41553.5
 20
6746.5
 10
41588.3
 20
6748.5
 10
41623.2
 20
6750.0
 10
41658.0
 20
6751.5
 10
41692.8
 20
6753.5
 10
41727.7
 20
6755.0
 10
41762.5
 20
6756.5
 10
41797.3
 20
6758.5
 10
41832.1
 20
6760.0
 10
41867.0
 20
6761.5
 10
41901.8
 20
6763.5
 10
41936.6
 20
6765.0
 10
41971.5
 20
6766.5
 10
42006.3
 20
6768.5
 10
42041.1
 20
6770.0
 10
42076.0
 20
6771.5
 10
42110.8
 20
6773.5
 10
42145.6
 20
6775.0
 10
42180.5
 20
6776.5
 10
42215.3
 20
6778.5
 10
42250.1
 20
6780.0
 10
42285.0
 20
6781.5
 10
42319.8
 20
6783.5
 10
42354.6
 20
6785.0
 10
42389.4
 20
6786.5
 10
42424.3
 20
6788.5
 10
42459.1
 20
6790.0
 10
42493.9
 20
6791.5
 10
42528.8
 20
6793.5
 10
42563.6
 20
6795.0
 10
42598.4
 20
6796.5
 10
42633.3
 20
6798.5
 10
42668.1
 20
6800.0
 10
42702.9
 20
6801.5
 10
42737.8
 20
6803.5
 10
42772.6
 20
6805.0
 10
42807.4
 20
6807.0
 10
42842.3
 20
6808.5
 10
42877.1
 20
6810.0
 10
42911.9
 20
6812.0
 10
42946.7
 20
6813.5
 10
42981.6
 20
6815.0
 10
43016.4
 20
6817.0
 10
43051.2
 20
6818.5
 10
43086.1
 20
6820.0
 10
43120.9
 20
6822.0
 10
43155.7
 20
6823.5
 10
43190.6
 20
6825.0
 10
43225.4
 20
6827.0
 10
43260.2
 20
6828.5
 10
43295.1
 20
6830.0
 10
43329.9
 20
6832.0
 10
43364.7
 20
6833.5
 10
43399.5
 20
6835.0
 10
43434.4
 20
6837.0
 10
43469.2
 20
6838.5
 10
43504.0
 20
6840.0
 10
43538.9
 20
6842.0
 10
43573.7
 20
6843.5
 10
43608.5
 20
6845.0
 10
43643.4
 20
6847.0
 10
43678.2
 20
6848.5
 10
43713.0
 20
6850.0
 10
43747.9
 20
6852.0
 10
43782.7
 20
6853.5
 10
43817.5
 20
6855.0
 10
43852.4
 20
6857.0
 10
43887.2
 20
6858.5
 10
43922.0
 20
6860.0
 10
43956.8
 20
6862.0
 10
43991.7
 20
6863.5
 10
44026.5
 20
6865.0
 10
44061.3
 20
6867.0
 10
44096.2
 20
6868.5
 10
44131.0
 20
6870.0
 10
44165.8
 20
6872.0
 10
44200.7
 20
6873.5
 10
44235.5
 20
6875.0
 10
44270.3
 20
6877.0
 10
44305.2
 20
6878.5
 10
44340.0
 20
6880.0
 10
44374.8
 20
6882.0
 10
44409.6
 20
6883.5
 10
44444.5
 20
6885.0
 10
44479.3
 20
6887.0
 10
44514.1
 20
6888.5
 10
44549.0
 20
6890.0
 10
44583.8
 20
6892.0
 10
44618.6
 20
6893.5
 10
44653.5
 20
6895.0
 10
44688.3
 20
6897.0
 10
44723.1
 20
6898.5
 10
44758.0
 20
6900.0
 10
44792.8
 20
6902.0
 10
44827.6
 20
6903.5
 10
44862.5
 20
6905.0
 10
44897.3
 20
6907.0
 10
44932.1
 20
6908.5
 10
44966.9
 20
6910.5
 10
45001.8
 20
6912.0
 10
45036.6
 20
6913.5
 10
45071.4
 20
6915.5
 10
45106.3
 20
6917.0
 10
45141.1
 20
6918.5
 10
45175.9
 20
6920.5
 10
45210.8
 20
6922.0
 10
45245.6
 20
6923.5
 10
45280.4
 20
6925.5
 10
45315.3
 20
6927.0
 10
45350.1
 20
6928.5
 10
45384.9
 20
6930.5
 10
45419.8
 20
6932.0
 10
45454.6
 20
6933.5
 10
45489.4
 20
6935.5
 10
45524.2
 20
6937.0
 10
45559.1
 20
6938.5
 10
45593.9
 20
6940.5
 10
45628.7
 20
6942.0
 10
45663.6
 20
6943.5
 10
45698.4
 20
6945.5
 10
45733.2
 20
6947.0
 10
45768.1
 20
6948.5
 10
45802.9
 20
6950.5
 10
45837.7
 20
6952.0
 10
45872.6
 20
6953.5
 10
45907.4
 20
6955.5
 10
45942.2
 20
6957.0
 10
45977.0
 20
6958.5
 10
46011.9
 20
6960.5
 10
46046.7
 20
6962.0
 10
46081.5
 20
6963.5
 10
46116.4
 20
6965.5
 10
46151.2
 20
6967.0
 10
46186.0
 20
6968.5
 10
46220.9
 20
6970.5
 10
46255.7
 20
6972.0
 10
46290.5
 20
6973.5
 10
46325.4
 20
6975.5
 10
46360.2
 20
6977.0
 10
46395.0
 20
6978.5
 10
46429.9
 20
6980.5
 10
46464.7
 20
6982.0
 10
46499.5
 20
6983.5
 10
46534.3
 20
6985.5
 10
46569.2
 20
6987.0
 10
46604.0
 20
6988.5
 10
46638.8
 20
6990.5
 10
46673.7
 20
6992.0
 10
46708.5
 20
6993.5
 10
46743.3
 20
6995.5
 10
46778.2
 20
6997.0
 10
46813.0
 20
6998.5
 10
46847.8
 20
7000.5
 10
46882.7
 20
7002.0
 10
46917.5
 20
7003.5
 10
46952.3
 20
7005.5
 10
46987.2
 20
7007.0
 10
47022.0
 20
7009.0
 10
47056.8
 20
7010.5
 10
47091.6
 20
7012.0
 10
47126.5
 20
7014.0
 10
47161.3
 20
7015.5
 10
47196.1
 20
7017.0
 10
47231.0
 20
7019.0
 10
47265.8
 20
7020.5
 10
47300.6
 20
7022.0
 10
47335.5
 20
7024.0
 10
47370.3
 20
7025.5
 10
47405.1
 20
7027.0
 10
47440.0
 20
7029.0
 10
47474.8
 20
7030.5
 10
47509.6
 20
7032.0
 10
47544.4
 20
7034.0
 10
47579.3
 20
7035.5
 10
47614.1
 20
7037.0
 10
47648.9
 20
7039.0
 10
47683.8
 20
7040.5
 10
47718.6
 20
7042.0
 10
47753.4
 20
7044.0
 10
47788.3
 20
7045.5
 10
47823.1
 20
7047.0
 10
47857.9
 20
7049.0
 10
47892.8
 20
7050.5
 10
47927.6
 20
7052.0
 10
47962.4
 20
7054.0
 10
47997.3
 20
7055.5
 10
48032.1
 20
7057.0
 10
48066.9
 20
7059.0
 10
48101.7
 20
7060.5
 10
48136.6
 20
7062.0
 10
48171.4
 20
7064.0
 10
48206.2
 20
7065.5
 10
48241.1
 20
7067.0
 10
48275.9
 20
7069.0
 10
48310.7
 20
7070.5
 10
48345.6
 20
7072.0
 10
48380.4
 20
7074.0
 10
48415.2
 20
7075.5
 10
48450.1
 20
7077.0
 10
48484.9
 20
7079.0
 10
48519.7
 20
7080.5
 10
48554.6
 20
7082.0
 10
48589.4
 20
7084.0
 10
48624.2
 20
7085.5
 10
48659.0
 20
7087.0
 10
48693.9
 20
7089.0
 10
48728.7
 20
7090.5
 10
48763.5
 20
7092.0
 10
48798.4
 20
7094.0
 10
48833.2
 20
7095.5
 10
48868.0
 20
7097.0
 10
48902.9
 20
7099.0
 10
48937.7
 20
7100.5
 10
48972.5
 20
7102.0
 10
49007.4
 20
7104.0
 10
49042.2
 20
7105.5
 10
49077.0
 20
7107.5
 10
49111.8
 20
7109.0
 10
49146.7
 20
7110.5
 10
49181.5
 20
7112.5
 10
49216.3
 20
7114.0
 10
49251.2
 20
7115.5
 10
49286.0
 20
7117.5
 10
49320.8
 20
7119.0
 10
49355.7
 20
7120.5
 10
49390.5
 20
7122.5
 10
49425.3
 20
7124.0
 10
49460.2
 20
7125.5
 10
49495.0
 20
7127.5
 10
49529.8
 20
7129.0
 10
49564.7
 20
7130.5
 10
49599.5
 20
7132.5
 10
49634.3
 20
7134.0
 10
49669.1
 20
7135.5
 10
49704.0
 20
7137.5
 10
49738.8
 20
7139.0
 10
49773.6
 20
7140.5
 10
49808.5
 20
7142.5
 10
49843.3
 20
7144.0
 10
49878.1
 20
7145.5
 10
49913.0
 20
7147.5
 10
49947.8
 20
7149.0
 10
49982.6
 20
7150.5
 10
50017.5
 20
7152.5
 10
50052.3
 20
7154.0
 10
50087.1
 20
7155.5
 10
50121.9
 20
7157.5
 10
50156.8
 20
7159.0
 10
50191.6
 20
7160.5
 10
50226.4
 20
7162.5
 10
50261.3
 20
7164.0
 10
50296.1
 20
7165.5
 10
50330.9
 20
7167.5
 10
50365.8
 20
7169.0
 10
50400.6
 20
7170.5
 10
50435.4
 20
7172.5
 10
50470.3
 20
7174.0
 10
50505.1
 20
7175.5
 10
50539.9
 20
7177.5
 10
50574.8
 20
7179.0
 10
50609.6
 20
7180.5
 10
50644.4
 20
7182.5
 10
50679.2
 20
7184.0
 10
50714.1
 20
7185.5
 10
50748.9
 20
7187.5
 10
50783.7
 20
7189.0
 10
50818.6
 20
7190.5
 10
50853.4
 20
7192.5
 10
50888.2
 20
7194.0
 10
50923.1
 20
7195.5
 10
50957.9
 20
7197.5
 10
50992.7
 20
7199.0
 10
51027.6
 20
7200.5
 10
51062.4
 20
7202.5
 10
51097.2
 20
7204.0
 10
51132.1
 20
7205.5
 10
51166.9
 20
7207.5
 10
51201.7
 20
7209.0
 10
51236.5
 20
7211.0
 10
51271.4
 20
7212.5
 10
51306.2
 20
7214.0
 10
51341.0
 20
7216.0
 10
51375.9
 20
7217.5
 10
51410.7
 20
7219.0
 10
51445.5
 20
7221.0
 10
51480.4
 20
7222.5
 10
51515.2
 20
7224.0
 10
51550.0
 20
7226.0
 10
51584.9
 20
7227.5
 10
51619.7
 20
7229.0
 10
51654.5
 20
7231.0
 10
51689.3
 20
7232.5
 10
51724.2
 20
7234.0
 10
51759.0
 20
7236.0
 10
51793.8
 20
7237.5
 10
51828.7
 20
7239.0
 10
51863.5
 20
7241.0
 10
51898.3
 20
7242.5
 10
51933.2
 20
7244.0
 10
51968.0
 20
7246.0
 10
52002.8
 20
7247.5
 10
52037.7
 20
7249.0
 10
52072.5
 20
7251.0
 10
52107.3
 20
7252.5
 10
52142.2
 20
7254.0
 10
52177.0
 20
7256.0
 10
52211.8
 20
7257.5
  0
LINE
  5
94
330
17
100
AcDbEntity
  8
FALLAS
100
AcDbLine
 10
13107.670703037025
 20
2500.0
 30
0.0
 11
13107.670703037025
 21
18000.0
 31
0.0
  0
TEXT
  5
95
330
17
100
AcDbEntity
  8
FALLAS
100
AcDbText
 10
12987.670703037025
 20
3000.0
 30
0.0
 40
250.0
  1
Falla de Ibagué
 50
90.0
 11
12987.670703037025
 21
3000.0
 31
0.0
100
AcDbText
  0
LINE
  5
96
330
17
100
AcDbEntity
  8
FALLAS
100
AcDbLine
 10
15230.462969809143
 20
2500.0
 30
0.0
 11
15230.462969809143
 21
18000.0
 31
0.0
  0
TEXT
  5
97
330
17
100
AcDbEntity
  8
FALLAS
100
AcDbText
 10
15110.462969809143
 20
3000.0
 30
0.0
 40
250.0
  1
Falla de Chapetón-Pericos
 50
90.0
 11
15110.462969809143
 21
3000.0
 31
0.0
100
AcDbText
  0
LINE
  5
98
330
17
100
AcDbEntity
  8
FALLAS
100
AcDbLine
 10
16377.962134670222
 20
2500.0
 30
0.0
 11
16377.962134670222
 21
18000.0
 31
0.0
  0
TEXT
  5
99
330
17
100
AcDbEntity
  8
FALLAS
100
AcDbText
 10
16257.962134670222
 20
3000.0
 30
0.0
 40
250.0
  1
sin nombre
 50
90.0
 11
16257.962134670222
 21
3000.0
 31
0.0
100
AcDbText
  0
LINE
  5
9A
330
17
100
AcDbEntity
  8
FALLAS
100
AcDbLine
 10
38476.6540751883
 20
2500.0
 30
0.0
 11
38476.6540751883
 21
18000.0
 31
0.0
  0
TEXT
  5
9B
330
17
100
AcDbEntity
  8
FALLAS
100
AcDbText
 10
38356.6540751883
 20
3000.0
 30
0.0
 40
250.0
  1
Falla de Palestina
 50
90.0
 11
38356.6540751883
 21
3000.0
 31
0.0
100
AcDbText
  0
LINE
  5
9C
330
17
100
AcDbEntity
  8
FALLAS
100
AcDbLine
 10
42412.426912224866
 20
2500.0
 30
0.0
 11
42412.426912224866
 21
18000.0
 31
0.0
  0
TEXT
  5
9D
330
17
100
AcDbEntity
  8
FALLAS
100
AcDbText
 10
42292.426912224866
 20
3000.0
 30
0.0
 40
250.0
  1
Falla de San Jerónimo
 50
90.0
 11
42292.426912224866
 21
3000.0
 31
0.0
100
AcDbText
  0
LINE
  5
9E
330
17
100
AcDbEntity
  8
TRAMOS
  6
DASHED
100
AcDbLine
 10
0.0
 20
2500.0
 30
0.0
 11
0.0
 21
18000.0
 31
0.0
  0
TEXT
  5
9F
330
17
100
AcDbEntity
  8
TRAMOS
100
AcDbText
 10
6553.835351518513
 20
18500.0
 30
0.0
 40
250.0
  1
T1 P-Pi
 72
1
 11
6553.835351518513
 21
18500.0
 31
0.0
100
AcDbText
  0
LINE
  5
A0
330
17
100
AcDbEntity
  8
TRAMOS
  6
DASHED
100
AcDbLine
 10
13107.670703037025
 20
2500.0
 30
0.0
 11
13107.670703037025
 21
18000.0
 31
0.0
  0
TEXT
  5
A1
330
17
100
AcDbEntity
  8
TRAMOS
100
AcDbText
 10
14169.066836423084
 20
18500.0
 30
0.0
 40
250.0
  1
T2 J-Pi
 72
1
 11
14169.066836423084
 21
18500.0
 31
0.0
100
AcDbText
  0
LINE
  5
A2
330
17
100
AcDbEntity
  8
TRAMOS
  6
DASHED
100
AcDbLine
 10
15230.462969809143
 20
2500.0
 30
0.0
 11
15230.462969809143
 21
18000.0
 31
0.0
  0
TEXT
  5
A3
330
17
100
AcDbEntity
  8
TRAMOS
100
AcDbText
 10
15804.212552239682
 20
18500.0
 30
0.0
 40
250.0
  1
T3 T-Mmg
 72
1
 11
15804.212552239682
 21
18500.0
 31
0.0
100
AcDbText
  0
LINE
  5
A4
330
17
100
AcDbEntity
  8
TRAMOS
  6
DASHED
100
AcDbLine
 10
16377.962134670222
 20
2500.0
 30
0.0
 11
16377.962134670222
 21
18000.0
 31
0.0
  0
TEXT
  5
A5
330
17
100
AcDbEntity
  8
TRAMOS
100
AcDbText
 10
26553.81018710404
 20
18500.0
 30
0.0
 40
250.0
  1
T4 J3K1?-Mbg
 72
1
 11
26553.81018710404
 21
18500.0
 31
0.0
100
AcDbText
  0
LINE
  5
A6
330
17
100
AcDbEntity
  8
TRAMOS
  6
DASHED
100
AcDbLine
 10
36729.65823953786
 20
2500.0
 30
0.0
 11
36729.65823953786
 21
18000.0
 31
0.0
  0
TEXT
  5
A7
330
17
100
AcDbEntity
  8
TRAMOS
100
AcDbText
 10
37476.8718851218
 20
18500.0
 30
0.0
 40
250.0
  1
T5 n4n6-Hi
 72
1
 11
37476.8718851218
 21
18500.0
 31
0.0
100
AcDbText
  0
LINE
  5
A8
330
17
100
AcDbEntity
  8
TRAMOS
  6
DASHED
100
AcDbLine
 10
38224.085530705735
 20
2500.0
 30
0.0
 11
38224.085530705735
 21
18000.0
 31
0.0
  0
TEXT
  5
A9
330
17
100
AcDbEntity
  8
TRAMOS
100
AcDbText
 10
40318.2562214653
 20
18500.0
 30
0.0
 40
250.0
  1
T6 J3K1?-Mbg
 72
1
 11
40318.2562214653
 21
18500.0
 31
0.0
100
AcDbText
  0
LINE
  5
AA
330
17
100
AcDbEntity
  8
TRAMOS
  6
DASHED
100
AcDbLine
 10
42412.426912224866
 20
2500.0
 30
0.0
 11
42412.426912224866
 21
18000.0
 31
0.0
  0
TEXT
  5
AB
330
17
100
AcDbEntity
  8
TRAMOS
100
AcDbText
 10
47312.113456112435
 20
18500.0
 30
0.0
 40
250.0
  1
T7 b5k4-VCm
 72
1
 11
47312.113456112435
 21
18500.0
 31
0.0
100
AcDbText
  0
TEXT
  5
AC
330
17
100
AcDbEntity
  8
TEXTO
100
AcDbText
 10
-9000.0
 20
1600.0
 30
0.0
 40
220.0
  1
Sectorización · parámetros típico
 11
-9000.0
 21
1600.0
 31
0.0
100
AcDbText
  0
LWPOLYLINE
  5
AD
330
17
100
AcDbEntity
  8
DESFAVORABLE
100
AcDbPolyline
 90
4
 70
1
 10
0.0
 20
1500.0
 10
714.05
 20
1500.0
 10
714.05
 20
1950.0
 10
0.0
 20
1950.0
  0
HATCH
  5
AE
330
17
100
AcDbEntity
  8
DESFAVORABLE
 62
1
100
AcDbHatch
 10
0.0
 20
0.0
 30
0.0
210
0.0
220
0.0
230
1.0
  2
SOLID
 70
1
 71
0
 91
1
 92
3
 72
0
 73
1
 93
4
 10
0.0
 20
1500.0
 10
714.05
 20
1500.0
 10
714.05
 20
1950.0
 10
0.0
 20
1950.0
 97
0
 75
0
 76
1
 98
0
  0
LWPOLYLINE
  5
AF
330
17
100
AcDbEntity
  8
FAVORABLE
100
AcDbPolyline
 90
4
 70
1
 10
714.05
 20
1500.0
 10
12939.75
 20
1500.0
 10
12939.75
 20
1950.0
 10
714.05
 20
1950.0
  0
HATCH
  5
B0
330
17
100
AcDbEntity
  8
FAVORABLE
 62
3
100
AcDbHatch
 10
0.0
 20
0.0
 30
0.0
210
0.0
220
0.0
230
1.0
  2
SOLID
 70
1
 71
0
 91
1
 92
3
 72
0
 73
1
 93
4
 10
714.05
 20
1500.0
 10
12939.75
 20
1500.0
 10
12939.75
 20
1950.0
 10
714.05
 20
1950.0
 97
0
 75
0
 76
1
 98
0
  0
LWPOLYLINE
  5
B1
330
17
100
AcDbEntity
  8
DESFAVORABLE
100
AcDbPolyline
 90
4
 70
1
 10
12939.75
 20
1500.0
 10
13288.05
 20
1500.0
 10
13288.05
 20
1950.0
 10
12939.75
 20
1950.0
  0
HATCH
  5
B2
330
17
100
AcDbEntity
  8
DESFAVORABLE
 62
1
100
AcDbHatch
 10
0.0
 20
0.0
 30
0.0
210
0.0
220
0.0
230
1.0
  2
SOLID
 70
1
 71
0
 91
1
 92
3
 72
0
 73
1
 93
4
 10
12939.75
 20
1500.0
 10
13288.05
 20
1500.0
 10
13288.05
 20
1950.0
 10
12939.75
 20
1950.0
 97
0
 75
0
 76
1
 98
0
  0
LWPOLYLINE
  5
B3
330
17
100
AcDbEntity
  8
FAVORABLE
100
AcDbPolyline
 90
4
 70
1
 10
13288.05
 20
1500.0
 10
15064.45
 20
1500.0
 10
15064.45
 20
1950.0
 10
13288.05
 20
1950.0
  0
HATCH
  5
B4
330
17
100
AcDbEntity
  8
FAVORABLE
 62
3
100
AcDbHatch
 10
0.0
 20
0.0
 30
0.0
210
0.0
220
0.0
230
1.0
  2
SOLID
 70
1
 71
0
 91
1
 92
3
 72
0
 73
1
 93
4
 10
13288.05
 20
1500.0
 10
15064.45
 20
1500.0
 10
15064.45
 20
1950.0
 10
13288.05
 20
1950.0
 97
0
 75
0
 76
1
 98
0
  0
LWPOLYLINE
  5
B5
330
17
100
AcDbEntity
  8
DESFAVORABLE
100
AcDbPolyline
 90
4
 70
1
 10
15064.45
 20
1500.0
 10
15412.75
 20
1500.0
 10
15412.75
 20
1950.0
 10
15064.45
 20
1950.0
  0
HATCH
  5
B6
330
17
100
AcDbEntity
  8
DESFAVORABLE
 62
1
100
AcDbHatch
 10
0.0
 20
0.0
 30
0.0
210
0.0
220
0.0
230
1.0
  2
SOLID
 70
1
 71
0
 91
1
 92
3
 72
0
 73
1
 93
4
 10
15064.45
 20
1500.0
 10
15412.75
 20
1500.0
 10
15412.75
 20
1950.0
 10
15064.45
 20
1950.0
 97
0
 75
0
 76
1
 98
0
  0
LWPOLYLINE
  5
B7
330
17
100
AcDbEntity
  8
FAVORABLE
100
AcDbPolyline
 90
4
 70
1
 10
15412.75
 20
1500.0
 10
16213.9
 20
1500.0
 10
16213.9
 20
1950.0
 10
15412.75
 20
1950.0
  0
HATCH
  5
B8
330
17
100
AcDbEntity
  8
FAVORABLE
 62
3
100
AcDbHatch
 10
0.0
 20
0.0
 30
0.0
210
0.0
220
0.0
230
1.0
  2
SOLID
 70
1
 71
0
 91
1
 92
3
 72
0
 73
1
 93
4
 10
15412.75
 20
1500.0
 10
16213.9
 20
1500.0
 10
16213.9
 20
1950.0
 10
15412.75
 20
1950.0
 97
0
 75
0
 76
1
 98
0
  0
LWPOLYLINE
  5
B9
330
17
100
AcDbEntity
  8
DESFAVORABLE
100
AcDbPolyline
 90
4
 70
1
 10
16213.9
 20
1500.0
 10
36729.4
 20
1500.0
 10
36729.4
 20
1950.0
 10
16213.9
 20
1950.0
  0
HATCH
  5
BA
330
17
100
AcDbEntity
  8
DESFAVORABLE
 62
1
100
AcDbHatch
 10
0.0
 20
0.0
 30
0.0
210
0.0
220
0.0
230
1.0
  2
SOLID
 70
1
 71
0
 91
1
 92
3
 72
0
 73
1
 93
4
 10
16213.9
 20
1500.0
 10
36729.4
 20
1500.0
 10
36729.4
 20
1950.0
 10
16213.9
 20
1950.0
 97
0
 75
0
 76
1
 98
0
  0
LWPOLYLINE
  5
BB
330
17
100
AcDbEntity
  8
FAVORABLE
100
AcDbPolyline
 90
4
 70
1
 10
36729.4
 20
1500.0
 10
38227.1
 20
1500.0
 10
38227.1
 20
1950.0
 10
36729.4
 20
1950.0
  0
HATCH
  5
BC
330
17
100
AcDbEntity
  8
FAVORABLE
 62
3
100
AcDbHatch
 10
0.0
 20
0.0
 30
0.0
210
0.0
220
0.0
230
1.0
  2
SOLID
 70
1
 71
0
 91
1
 92
3
 72
0
 73
1
 93
4
 10
36729.4
 20
1500.0
 10
38227.1
 20
1500.0
 10
38227.1
 20
1950.0
 10
36729.4
 20
1950.0
 97
0
 75
0
 76
1
 98
0
  0
LWPOLYLINE
  5
BD
330
17
100
AcDbEntity
  8
DESFAVORABLE
100
AcDbPolyline
 90
4
 70
1
 10
38227.1
 20
1500.0
 10
50905.649999999994
 20
1500.0
 10
50905.649999999994
 20
1950.0
 10
38227.1
 20
1950.0
  0
HATCH
  5
BE
330
17
100
AcDbEntity
  8
DESFAVORABLE
 62
1
100
AcDbHatch
 10
0.0
 20
0.0
 30
0.0
210
0.0
220
0.0
230
1.0
  2
SOLID
 70
1
 71
0
 91
1
 92
3
 72
0
 73
1
 93
4
 10
38227.1
 20
1500.0
 10
50905.649999999994
 20
1500.0
 10
50905.649999999994
 20
1950.0
 10
38227.1
 20
1950.0
 97
0
 75
0
 76
1
 98
0
  0
LWPOLYLINE
  5
BF
330
17
100
AcDbEntity
  8
CONDICIONADA
100
AcDbPolyline
 90
4
 70
1
 10
50905.649999999994
 20
1500.0
 10
51323.6
 20
1500.0
 10
51323.6
 20
1950.0
 10
50905.649999999994
 20
1950.0
  0
HATCH
  5
C0
330
17
100
AcDbEntity
  8
CONDICIONADA
 62
40
100
AcDbHatch
 10
0.0
 20
0.0
 30
0.0
210
0.0
220
0.0
230
1.0
  2
SOLID
 70
1
 71
0
 91
1
 92
3
 72
0
 73
1
 93
4
 10
50905.649999999994
 20
1500.0
 10
51323.6
 20
1500.0
 10
51323.6
 20
1950.0
 10
50905.649999999994
 20
1950.0
 97
0
 75
0
 76
1
 98
0
  0
LWPOLYLINE
  5
C1
330
17
100
AcDbEntity
  8
FAVORABLE
100
AcDbPolyline
 90
4
 70
1
 10
51323.6
 20
1500.0
 10
51950.6
 20
1500.0
 10
51950.6
 20
1950.0
 10
51323.6
 20
1950.0
  0
HATCH
  5
C2
330
17
100
AcDbEntity
  8
FAVORABLE
 62
3
100
AcDbHatch
 10
0.0
 20
0.0
 30
0.0
210
0.0
220
0.0
230
1.0
  2
SOLID
 70
1
 71
0
 91
1
 92
3
 72
0
 73
1
 93
4
 10
51323.6
 20
1500.0
 10
51950.6
 20
1500.0
 10
51950.6
 20
1950.0
 10
51323.6
 20
1950.0
 97
0
 75
0
 76
1
 98
0
  0
LWPOLYLINE
  5
C3
330
17
100
AcDbEntity
  8
DESFAVORABLE
100
AcDbPolyline
 90
4
 70
1
 10
51950.6
 20
1500.0
 10
52211.8
 20
1500.0
 10
52211.8
 20
1950.0
 10
51950.6
 20
1950.0
  0
HATCH
  5
C4
330
17
100
AcDbEntity
  8
DESFAVORABLE
 62
1
100
AcDbHatch
 10
0.0
 20
0.0
 30
0.0
210
0.0
220
0.0
230
1.0
  2
SOLID
 70
1
 71
0
 91
1
 92
3
 72
0
 73
1
 93
4
 10
51950.6
 20
1500.0
 10
52211.8
 20
1500.0
 10
52211.8
 20
1950.0
 10
51950.6
 20
1950.0
 97
0
 75
0
 76
1
 98
0
  0
TEXT
  5
C5
330
17
100
AcDbEntity
  8
TEXTO
100
AcDbText
 10
-9000.0
 20
900.0
 30
0.0
 40
220.0
  1
Sectorización · parámetros mínimo
 11
-9000.0
 21
900.0
 31
0.0
100
AcDbText
  0
LWPOLYLINE
  5
C6
330
17
100
AcDbEntity
  8
DESFAVORABLE
100
AcDbPolyline
 90
4
 70
1
 10
0.0
 20
800.0
 10
714.05
 20
800.0
 10
714.05
 20
1250.0
 10
0.0
 20
1250.0
  0
HATCH
  5
C7
330
17
100
AcDbEntity
  8
DESFAVORABLE
 62
1
100
AcDbHatch
 10
0.0
 20
0.0
 30
0.0
210
0.0
220
0.0
230
1.0
  2
SOLID
 70
1
 71
0
 91
1
 92
3
 72
0
 73
1
 93
4
 10
0.0
 20
800.0
 10
714.05
 20
800.0
 10
714.05
 20
1250.0
 10
0.0
 20
1250.0
 97
0
 75
0
 76
1
 98
0
  0
LWPOLYLINE
  5
C8
330
17
100
AcDbEntity
  8
FAVORABLE
100
AcDbPolyline
 90
4
 70
1
 10
714.05
 20
800.0
 10
2803.9
 20
800.0
 10
2803.9
 20
1250.0
 10
714.05
 20
1250.0
  0
HATCH
  5
C9
330
17
100
AcDbEntity
  8
FAVORABLE
 62
3
100
AcDbHatch
 10
0.0
 20
0.0
 30
0.0
210
0.0
220
0.0
230
1.0
  2
SOLID
 70
1
 71
0
 91
1
 92
3
 72
0
 73
1
 93
4
 10
714.05
 20
800.0
 10
2803.9
 20
800.0
 10
2803.9
 20
1250.0
 10
714.05
 20
1250.0
 97
0
 75
0
 76
1
 98
0
  0
LWPOLYLINE
  5
CA
330
17
100
AcDbEntity
  8
CONDICIONADA
100
AcDbPolyline
 90
4
 70
1
 10
2803.9
 20
800.0
 10
4336.5
 20
800.0
 10
4336.5
 20
1250.0
 10
2803.9
 20
1250.0
  0
HATCH
  5
CB
330
17
100
AcDbEntity
  8
CONDICIONADA
 62
40
100
AcDbHatch
 10
0.0
 20
0.0
 30
0.0
210
0.0
220
0.0
230
1.0
  2
SOLID
 70
1
 71
0
 91
1
 92
3
 72
0
 73
1
 93
4
 10
2803.9
 20
800.0
 10
4336.5
 20
800.0
 10
4336.5
 20
1250.0
 10
2803.9
 20
1250.0
 97
0
 75
0
 76
1
 98
0
  0
LWPOLYLINE
  5
CC
330
17
100
AcDbEntity
  8
DESFAVORABLE
100
AcDbPolyline
 90
4
 70
1
 10
4336.5
 20
800.0
 10
10606.1
 20
800.0
 10
10606.1
 20
1250.0
 10
4336.5
 20
1250.0
  0
HATCH
  5
CD
330
17
100
AcDbEntity
  8
DESFAVORABLE
 62
1
100
AcDbHatch
 10
0.0
 20
0.0
 30
0.0
210
0.0
220
0.0
230
1.0
  2
SOLID
 70
1
 71
0
 91
1
 92
3
 72
0
 73
1
 93
4
 10
4336.5
 20
800.0
 10
10606.1
 20
800.0
 10
10606.1
 20
1250.0
 10
4336.5
 20
1250.0
 97
0
 75
0
 76
1
 98
0
  0
LWPOLYLINE
  5
CE
330
17
100
AcDbEntity
  8
CONDICIONADA
100
AcDbPolyline
 90
4
 70
1
 10
10606.1
 20
800.0
 10
10815.05
 20
800.0
 10
10815.05
 20
1250.0
 10
10606.1
 20
1250.0
  0
HATCH
  5
CF
330
17
100
AcDbEntity
  8
CONDICIONADA
 62
40
100
AcDbHatch
 10
0.0
 20
0.0
 30
0.0
210
0.0
220
0.0
230
1.0
  2
SOLID
 70
1
 71
0
 91
1
 92
3
 72
0
 73
1
 93
4
 10
10606.1
 20
800.0
 10
10815.05
 20
800.0
 10
10815.05
 20
1250.0
 10
10606.1
 20
1250.0
 97
0
 75
0
 76
1
 98
0
  0
LWPOLYLINE
  5
D0
330
17
100
AcDbEntity
  8
FAVORABLE
100
AcDbPolyline
 90
4
 70
1
 10
10815.05
 20
800.0
 10
11372.349999999999
 20
800.0
 10
11372.349999999999
 20
1250.0
 10
10815.05
 20
1250.0
  0
HATCH
  5
D1
330
17
100
AcDbEntity
  8
FAVORABLE
 62
3
100
AcDbHatch
 10
0.0
 20
0.0
 30
0.0
210
0.0
220
0.0
230
1.0
  2
SOLID
 70
1
 71
0
 91
1
 92
3
 72
0
 73
1
 93
4
 10
10815.05
 20
800.0
 10
11372.349999999999
 20
800.0
 10
11372.349999999999
 20
1250.0
 10
10815.05
 20
1250.0
 97
0
 75
0
 76
1
 98
0
  0
LWPOLYLINE
  5
D2
330
17
100
AcDbEntity
  8
CONDICIONADA
100
AcDbPolyline
 90
4
 70
1
 10
11372.349999999999
 20
800.0
 10
12034.150000000001
 20
800.0
 10
12034.150000000001
 20
1250.0
 10
11372.349999999999
 20
1250.0
  0
HATCH
  5
D3
330
17
100
AcDbEntity
  8
CONDICIONADA
 62
40
100
AcDbHatch
 10
0.0
 20
0.0
 30
0.0
210
0.0
220
0.0
230
1.0
  2
SOLID
 70
1
 71
0
 91
1
 92
3
 72
0
 73
1
 93
4
 10
11372.349999999999
 20
800.0
 10
12034.150000000001
 20
800.0
 10
12034.150000000001
 20
1250.0
 10
11372.349999999999
 20
1250.0
 97
0
 75
0
 76
1
 98
0
  0
LWPOLYLINE
  5
D4
330
17
100
AcDbEntity
  8
DESFAVORABLE
100
AcDbPolyline
 90
4
 70
1
 10
12034.150000000001
 20
800.0
 10
12277.95
 20
800.0
 10
12277.95
 20
1250.0
 10
12034.150000000001
 20
1250.0
  0
HATCH
  5
D5
330
17
100
AcDbEntity
  8
DESFAVORABLE
 62
1
100
AcDbHatch
 10
0.0
 20
0.0
 30
0.0
210
0.0
220
0.0
230
1.0
  2
SOLID
 70
1
 71
0
 91
1
 92
3
 72
0
 73
1
 93
4
 10
12034.150000000001
 20
800.0
 10
12277.95
 20
800.0
 10
12277.95
 20
1250.0
 10
12034.150000000001
 20
1250.0
 97
0
 75
0
 76
1
 98
0
  0
LWPOLYLINE
  5
D6
330
17
100
AcDbEntity
  8
CONDICIONADA
100
AcDbPolyline
 90
4
 70
1
 10
12277.95
 20
800.0
 10
12939.75
 20
800.0
 10
12939.75
 20
1250.0
 10
12277.95
 20
1250.0
  0
HATCH
  5
D7
330
17
100
AcDbEntity
  8
CONDICIONADA
 62
40
100
AcDbHatch
 10
0.0
 20
0.0
 30
0.0
210
0.0
220
0.0
230
1.0
  2
SOLID
 70
1
 71
0
 91
1
 92
3
 72
0
 73
1
 93
4
 10
12277.95
 20
800.0
 10
12939.75
 20
800.0
 10
12939.75
 20
1250.0
 10
12277.95
 20
1250.0
 97
0
 75
0
 76
1
 98
0
  0
LWPOLYLINE
  5
D8
330
17
100
AcDbEntity
  8
DESFAVORABLE
100
AcDbPolyline
 90
4
 70
1
 10
12939.75
 20
800.0
 10
13462.2
 20
800.0
 10
13462.2
 20
1250.0
 10
12939.75
 20
1250.0
  0
HATCH
  5
D9
330
17
100
AcDbEntity
  8
DESFAVORABLE
 62
1
100
AcDbHatch
 10
0.0
 20
0.0
 30
0.0
210
0.0
220
0.0
230
1.0
  2
SOLID
 70
1
 71
0
 91
1
 92
3
 72
0
 73
1
 93
4
 10
12939.75
 20
800.0
 10
13462.2
 20
800.0
 10
13462.2
 20
1250.0
 10
12939.75
 20
1250.0
 97
0
 75
0
 76
1
 98
0
  0
LWPOLYLINE
  5
DA
330
17
100
AcDbEntity
  8
CONDICIONADA
100
AcDbPolyline
 90
4
 70
1
 10
13462.2
 20
800.0
 10
14019.5
 20
800.0
 10
14019.5
 20
1250.0
 10
13462.2
 20
1250.0
  0
HATCH
  5
DB
330
17
100
AcDbEntity
  8
CONDICIONADA
 62
40
100
AcDbHatch
 10
0.0
 20
0.0
 30
0.0
210
0.0
220
0.0
230
1.0
  2
SOLID
 70
1
 71
0
 91
1
 92
3
 72
0
 73
1
 93
4
 10
13462.2
 20
800.0
 10
14019.5
 20
800.0
 10
14019.5
 20
1250.0
 10
13462.2
 20
1250.0
 97
0
 75
0
 76
1
 98
0
  0
LWPOLYLINE
  5
DC
330
17
100
AcDbEntity
  8
DESFAVORABLE
100
AcDbPolyline
 90
4
 70
1
 10
14019.5
 20
800.0
 10
52211.8
 20
800.0
 10
52211.8
 20
1250.0
 10
14019.5
 20
1250.0
  0
HATCH
  5
DD
330
17
100
AcDbEntity
  8
DESFAVORABLE
 62
1
100
AcDbHatch
 10
0.0
 20
0.0
 30
0.0
210
0.0
220
0.0
230
1.0
  2
SOLID
 70
1
 71
0
 91
1
 92
3
 72
0
 73
1
 93
4
 10
14019.5
 20
800.0
 10
52211.8
 20
800.0
 10
52211.8
 20
1250.0
 10
14019.5
 20
1250.0
 97
0
 75
0
 76
1
 98
0
  0
TEXT
  5
DE
330
17
100
AcDbEntity
  8
TEXTO
100
AcDbText
 10
-9000.0
 20
200.0
 30
0.0
 40
220.0
  1
Sectorización · parámetros máximo
 11
-9000.0
 21
200.0
 31
0.0
100
AcDbText
  0
LWPOLYLINE
  5
DF
330
17
100
AcDbEntity
  8
DESFAVORABLE
100
AcDbPolyline
 90
4
 70
1
 10
0.0
 20
100.0
 10
714.05
 20
100.0
 10
714.05
 20
550.0
 10
0.0
 20
550.0
  0
HATCH
  5
E0
330
17
100
AcDbEntity
  8
DESFAVORABLE
 62
1
100
AcDbHatch
 10
0.0
 20
0.0
 30
0.0
210
0.0
220
0.0
230
1.0
  2
SOLID
 70
1
 71
0
 91
1
 92
3
 72
0
 73
1
 93
4
 10
0.0
 20
100.0
 10
714.05
 20
100.0
 10
714.05
 20
550.0
 10
0.0
 20
550.0
 97
0
 75
0
 76
1
 98
0
  0
LWPOLYLINE
  5
E1
330
17
100
AcDbEntity
  8
FAVORABLE
100
AcDbPolyline
 90
4
 70
1
 10
714.05
 20
100.0
 10
12939.75
 20
100.0
 10
12939.75
 20
550.0
 10
714.05
 20
550.0
  0
HATCH
  5
E2
330
17
100
AcDbEntity
  8
FAVORABLE
 62
3
100
AcDbHatch
 10
0.0
 20
0.0
 30
0.0
210
0.0
220
0.0
230
1.0
  2
SOLID
 70
1
 71
0
 91
1
 92
3
 72
0
 73
1
 93
4
 10
714.05
 20
100.0
 10
12939.75
 20
100.0
 10
12939.75
 20
550.0
 10
714.05
 20
550.0
 97
0
 75
0
 76
1
 98
0
  0
LWPOLYLINE
  5
E3
330
17
100
AcDbEntity
  8
DESFAVORABLE
100
AcDbPolyline
 90
4
 70
1
 10
12939.75
 20
100.0
 10
13288.05
 20
100.0
 10
13288.05
 20
550.0
 10
12939.75
 20
550.0
  0
HATCH
  5
E4
330
17
100
AcDbEntity
  8
DESFAVORABLE
 62
1
100
AcDbHatch
 10
0.0
 20
0.0
 30
0.0
210
0.0
220
0.0
230
1.0
  2
SOLID
 70
1
 71
0
 91
1
 92
3
 72
0
 73
1
 93
4
 10
12939.75
 20
100.0
 10
13288.05
 20
100.0
 10
13288.05
 20
550.0
 10
12939.75
 20
550.0
 97
0
 75
0
 76
1
 98
0
  0
LWPOLYLINE
  5
E5
330
17
100
AcDbEntity
  8
FAVORABLE
100
AcDbPolyline
 90
4
 70
1
 10
13288.05
 20
100.0
 10
15064.45
 20
100.0
 10
15064.45
 20
550.0
 10
13288.05
 20
550.0
  0
HATCH
  5
E6
330
17
100
AcDbEntity
  8
FAVORABLE
 62
3
100
AcDbHatch
 10
0.0
 20
0.0
 30
0.0
210
0.0
220
0.0
230
1.0
  2
SOLID
 70
1
 71
0
 91
1
 92
3
 72
0
 73
1
 93
4
 10
13288.05
 20
100.0
 10
15064.45
 20
100.0
 10
15064.45
 20
550.0
 10
13288.05
 20
550.0
 97
0
 75
0
 76
1
 98
0
  0
LWPOLYLINE
  5
E7
330
17
100
AcDbEntity
  8
DESFAVORABLE
100
AcDbPolyline
 90
4
 70
1
 10
15064.45
 20
100.0
 10
15412.75
 20
100.0
 10
15412.75
 20
550.0
 10
15064.45
 20
550.0
  0
HATCH
  5
E8
330
17
100
AcDbEntity
  8
DESFAVORABLE
 62
1
100
AcDbHatch
 10
0.0
 20
0.0
 30
0.0
210
0.0
220
0.0
230
1.0
  2
SOLID
 70
1
 71
0
 91
1
 92
3
 72
0
 73
1
 93
4
 10
15064.45
 20
100.0
 10
15412.75
 20
100.0
 10
15412.75
 20
550.0
 10
15064.45
 20
550.0
 97
0
 75
0
 76
1
 98
0
  0
LWPOLYLINE
  5
E9
330
17
100
AcDbEntity
  8
FAVORABLE
100
AcDbPolyline
 90
4
 70
1
 10
15412.75
 20
100.0
 10
16213.9
 20
100.0
 10
16213.9
 20
550.0
 10
15412.75
 20
550.0
  0
HATCH
  5
EA
330
17
100
AcDbEntity
  8
FAVORABLE
 62
3
100
AcDbHatch
 10
0.0
 20
0.0
 30
0.0
210
0.0
220
0.0
230
1.0
  2
SOLID
 70
1
 71
0
 91
1
 92
3
 72
0
 73
1
 93
4
 10
15412.75
 20
100.0
 10
16213.9
 20
100.0
 10
16213.9
 20
550.0
 10
15412.75
 20
550.0
 97
0
 75
0
 76
1
 98
0
  0
LWPOLYLINE
  5
EB
330
17
100
AcDbEntity
  8
DESFAVORABLE
100
AcDbPolyline
 90
4
 70
1
 10
16213.9
 20
100.0
 10
16562.199999999997
 20
100.0
 10
16562.199999999997
 20
550.0
 10
16213.9
 20
550.0
  0
HATCH
  5
EC
330
17
100
AcDbEntity
  8
DESFAVORABLE
 62
1
100
AcDbHatch
 10
0.0
 20
0.0
 30
0.0
210
0.0
220
0.0
230
1.0
  2
SOLID
 70
1
 71
0
 91
1
 92
3
 72
0
 73
1
 93
4
 10
16213.9
 20
100.0
 10
16562.199999999997
 20
100.0
 10
16562.199999999997
 20
550.0
 10
16213.9
 20
550.0
 97
0
 75
0
 76
1
 98
0
  0
LWPOLYLINE
  5
ED
330
17
100
AcDbEntity
  8
FAVORABLE
100
AcDbPolyline
 90
4
 70
1
 10
16562.199999999997
 20
100.0
 10
24294.699999999997
 20
100.0
 10
24294.699999999997
 20
550.0
 10
16562.199999999997
 20
550.0
  0
HATCH
  5
EE
330
17
100
AcDbEntity
  8
FAVORABLE
 62
3
100
AcDbHatch
 10
0.0
 20
0.0
 30
0.0
210
0.0
220
0.0
230
1.0
  2
SOLID
 70
1
 71
0
 91
1
 92
3
 72
0
 73
1
 93
4
 10
16562.199999999997
 20
100.0
 10
24294.699999999997
 20
100.0
 10
24294.699999999997
 20
550.0
 10
16562.199999999997
 20
550.0
 97
0
 75
0
 76
1
 98
0
  0
LWPOLYLINE
  5
EF
330
17
100
AcDbEntity
  8
CONDICIONADA
100
AcDbPolyline
 90
4
 70
1
 10
24294.699999999997
 20
100.0
 10
24677.800000000003
 20
100.0
 10
24677.800000000003
 20
550.0
 10
24294.699999999997
 20
550.0
  0
HATCH
  5
F0
330
17
100
AcDbEntity
  8
CONDICIONADA
 62
40
100
AcDbHatch
 10
0.0
 20
0.0
 30
0.0
210
0.0
220
0.0
230
1.0
  2
SOLID
 70
1
 71
0
 91
1
 92
3
 72
0
 73
1
 93
4
 10
24294.699999999997
 20
100.0
 10
24677.800000000003
 20
100.0
 10
24677.800000000003
 20
550.0
 10
24294.699999999997
 20
550.0
 97
0
 75
0
 76
1
 98
0
  0
LWPOLYLINE
  5
F1
330
17
100
AcDbEntity
  8
FAVORABLE
100
AcDbPolyline
 90
4
 70
1
 10
24677.800000000003
 20
100.0
 10
35022.7
 20
100.0
 10
35022.7
 20
550.0
 10
24677.800000000003
 20
550.0
  0
HATCH
  5
F2
330
17
100
AcDbEntity
  8
FAVORABLE
 62
3
100
AcDbHatch
 10
0.0
 20
0.0
 30
0.0
210
0.0
220
0.0
230
1.0
  2
SOLID
 70
1
 71
0
 91
1
 92
3
 72
0
 73
1
 93
4
 10
24677.800000000003
 20
100.0
 10
35022.7
 20
100.0
 10
35022.7
 20
550.0
 10
24677.800000000003
 20
550.0
 97
0
 75
0
 76
1
 98
0
  0
LWPOLYLINE
  5
F3
330
17
100
AcDbEntity
  8
CONDICIONADA
100
AcDbPolyline
 90
4
 70
1
 10
35022.7
 20
100.0
 10
35580.0
 20
100.0
 10
35580.0
 20
550.0
 10
35022.7
 20
550.0
  0
HATCH
  5
F4
330
17
100
AcDbEntity
  8
CONDICIONADA
 62
40
100
AcDbHatch
 10
0.0
 20
0.0
 30
0.0
210
0.0
220
0.0
230
1.0
  2
SOLID
 70
1
 71
0
 91
1
 92
3
 72
0
 73
1
 93
4
 10
35022.7
 20
100.0
 10
35580.0
 20
100.0
 10
35580.0
 20
550.0
 10
35022.7
 20
550.0
 97
0
 75
0
 76
1
 98
0
  0
LWPOLYLINE
  5
F5
330
17
100
AcDbEntity
  8
FAVORABLE
100
AcDbPolyline
 90
4
 70
1
 10
35580.0
 20
100.0
 10
38227.1
 20
100.0
 10
38227.1
 20
550.0
 10
35580.0
 20
550.0
  0
HATCH
  5
F6
330
17
100
AcDbEntity
  8
FAVORABLE
 62
3
100
AcDbHatch
 10
0.0
 20
0.0
 30
0.0
210
0.0
220
0.0
230
1.0
  2
SOLID
 70
1
 71
0
 91
1
 92
3
 72
0
 73
1
 93
4
 10
35580.0
 20
100.0
 10
38227.1
 20
100.0
 10
38227.1
 20
550.0
 10
35580.0
 20
550.0
 97
0
 75
0
 76
1
 98
0
  0
LWPOLYLINE
  5
F7
330
17
100
AcDbEntity
  8
DESFAVORABLE
100
AcDbPolyline
 90
4
 70
1
 10
38227.1
 20
100.0
 10
38645.1
 20
100.0
 10
38645.1
 20
550.0
 10
38227.1
 20
550.0
  0
HATCH
  5
F8
330
17
100
AcDbEntity
  8
DESFAVORABLE
 62
1
100
AcDbHatch
 10
0.0
 20
0.0
 30
0.0
210
0.0
220
0.0
230
1.0
  2
SOLID
 70
1
 71
0
 91
1
 92
3
 72
0
 73
1
 93
4
 10
38227.1
 20
100.0
 10
38645.1
 20
100.0
 10
38645.1
 20
550.0
 10
38227.1
 20
550.0
 97
0
 75
0
 76
1
 98
0
  0
LWPOLYLINE
  5
F9
330
17
100
AcDbEntity
  8
CONDICIONADA
100
AcDbPolyline
 90
4
 70
1
 10
38645.1
 20
100.0
 10
42232.7
 20
100.0
 10
42232.7
 20
550.0
 10
38645.1
 20
550.0
  0
HATCH
  5
FA
330
17
100
AcDbEntity
  8
CONDICIONADA
 62
40
100
AcDbHatch
 10
0.0
 20
0.0
 30
0.0
210
0.0
220
0.0
230
1.0
  2
SOLID
 70
1
 71
0
 91
1
 92
3
 72
0
 73
1
 93
4
 10
38645.1
 20
100.0
 10
42232.7
 20
100.0
 10
42232.7
 20
550.0
 10
38645.1
 20
550.0
 97
0
 75
0
 76
1
 98
0
  0
LWPOLYLINE
  5
FB
330
17
100
AcDbEntity
  8
DESFAVORABLE
100
AcDbPolyline
 90
4
 70
1
 10
42232.7
 20
100.0
 10
46238.3
 20
100.0
 10
46238.3
 20
550.0
 10
42232.7
 20
550.0
  0
HATCH
  5
FC
330
17
100
AcDbEntity
  8
DESFAVORABLE
 62
1
100
AcDbHatch
 10
0.0
 20
0.0
 30
0.0
210
0.0
220
0.0
230
1.0
  2
SOLID
 70
1
 71
0
 91
1
 92
3
 72
0
 73
1
 93
4
 10
42232.7
 20
100.0
 10
46238.3
 20
100.0
 10
46238.3
 20
550.0
 10
42232.7
 20
550.0
 97
0
 75
0
 76
1
 98
0
  0
LWPOLYLINE
  5
FD
330
17
100
AcDbEntity
  8
CONDICIONADA
100
AcDbPolyline
 90
4
 70
1
 10
46238.3
 20
100.0
 10
48780.95
 20
100.0
 10
48780.95
 20
550.0
 10
46238.3
 20
550.0
  0
HATCH
  5
FE
330
17
100
AcDbEntity
  8
CONDICIONADA
 62
40
100
AcDbHatch
 10
0.0
 20
0.0
 30
0.0
210
0.0
220
0.0
230
1.0
  2
SOLID
 70
1
 71
0
 91
1
 92
3
 72
0
 73
1
 93
4
 10
46238.3
 20
100.0
 10
48780.95
 20
100.0
 10
48780.95
 20
550.0
 10
46238.3
 20
550.0
 97
0
 75
0
 76
1
 98
0
  0
LWPOLYLINE
  5
FF
330
17
100
AcDbEntity
  8
DESFAVORABLE
100
AcDbPolyline
 90
4
 70
1
 10
48780.95
 20
100.0
 10
49338.25
 20
100.0
 10
49338.25
 20
550.0
 10
48780.95
 20
550.0
  0
HATCH
  5
100
330
17
100
AcDbEntity
  8
DESFAVORABLE
 62
1
100
AcDbHatch
 10
0.0
 20
0.0
 30
0.0
210
0.0
220
0.0
230
1.0
  2
SOLID
 70
1
 71
0
 91
1
 92
3
 72
0
 73
1
 93
4
 10
48780.95
 20
100.0
 10
49338.25
 20
100.0
 10
49338.25
 20
550.0
 10
48780.95
 20
550.0
 97
0
 75
0
 76
1
 98
0
  0
LWPOLYLINE
  5
101
330
17
100
AcDbEntity
  8
CONDICIONADA
100
AcDbPolyline
 90
4
 70
1
 10
49338.25
 20
100.0
 10
49965.2
 20
100.0
 10
49965.2
 20
550.0
 10
49338.25
 20
550.0
  0
HATCH
  5
102
330
17
100
AcDbEntity
  8
CONDICIONADA
 62
40
100
AcDbHatch
 10
0.0
 20
0.0
 30
0.0
210
0.0
220
0.0
230
1.0
  2
SOLID
 70
1
 71
0
 91
1
 92
3
 72
0
 73
1
 93
4
 10
49338.25
 20
100.0
 10
49965.2
 20
100.0
 10
49965.2
 20
550.0
 10
49338.25
 20
550.0
 97
0
 75
0
 76
1
 98
0
  0
LWPOLYLINE
  5
103
330
17
100
AcDbEntity
  8
FAVORABLE
100
AcDbPolyline
 90
4
 70
1
 10
49965.2
 20
100.0
 10
51950.6
 20
100.0
 10
51950.6
 20
550.0
 10
49965.2
 20
550.0
  0
HATCH
  5
104
330
17
100
AcDbEntity
  8
FAVORABLE
 62
3
100
AcDbHatch
 10
0.0
 20
0.0
 30
0.0
210
0.0
220
0.0
230
1.0
  2
SOLID
 70
1
 71
0
 91
1
 92
3
 72
0
 73
1
 93
4
 10
49965.2
 20
100.0
 10
51950.6
 20
100.0
 10
51950.6
 20
550.0
 10
49965.2
 20
550.0
 97
0
 75
0
 76
1
 98
0
  0
LWPOLYLINE
  5
105
330
17
100
AcDbEntity
  8
DESFAVORABLE
100
AcDbPolyline
 90
4
 70
1
 10
51950.6
 20
100.0
 10
52211.8
 20
100.0
 10
52211.8
 20
550.0
 10
51950.6
 20
550.0
  0
HATCH
  5
106
330
17
100
AcDbEntity
  8
DESFAVORABLE
 62
1
100
AcDbHatch
 10
0.0
 20
0.0
 30
0.0
210
0.0
220
0.0
230
1.0
  2
SOLID
 70
1
 71
0
 91
1
 92
3
 72
0
 73
1
 93
4
 10
51950.6
 20
100.0
 10
52211.8
 20
100.0
 10
52211.8
 20
550.0
 10
51950.6
 20
550.0
 97
0
 75
0
 76
1
 98
0
  0
TEXT
  5
107
330
17
100
AcDbEntity
  8
TEXTO
100
AcDbText
 10
0.0
 20
-800.0
 30
0.0
 40
200.0
  1
K0+000
 72
1
 11
0.0
 21
-800.0
 31
0.0
100
AcDbText
  0
TEXT
  5
108
330
17
100
AcDbEntity
  8
TEXTO
100
AcDbText
 10
5000.0
 20
-800.0
 30
0.0
 40
200.0
  1
K5+000
 72
1
 11
5000.0
 21
-800.0
 31
0.0
100
AcDbText
  0
TEXT
  5
109
330
17
100
AcDbEntity
  8
TEXTO
100
AcDbText
 10
10000.0
 20
-800.0
 30
0.0
 40
200.0
  1
K10+000
 72
1
 11
10000.0
 21
-800.0
 31
0.0
100
AcDbText
  0
TEXT
  5
10A
330
17
100
AcDbEntity
  8
TEXTO
100
AcDbText
 10
15000.0
 20
-800.0
 30
0.0
 40
200.0
  1
K15+000
 72
1
 11
15000.0
 21
-800.0
 31
0.0
100
AcDbText
  0
TEXT
  5
10B
330
17
100
AcDbEntity
  8
TEXTO
100
AcDbText
 10
20000.0
 20
-800.0
 30
0.0
 40
200.0
  1
K20+000
 72
1
 11
20000.0
 21
-800.0
 31
0.0
100
AcDbText
  0
TEXT
  5
10C
330
17
100
AcDbEntity
  8
TEXTO
100
AcDbText
 10
25000.0
 20
-800.0
 30
0.0
 40
200.0
  1
K25+000
 72
1
 11
25000.0
 21
-800.0
 31
0.0
100
AcDbText
  0
TEXT
  5
10D
330
17
100
AcDbEntity
  8
TEXTO
100
AcDbText
 10
30000.0
 20
-800.0
 30
0.0
 40
200.0
  1
K30+000
 72
1
 11
30000.0
 21
-800.0
 31
0.0
100
AcDbText
  0
TEXT
  5
10E
330
17
100
AcDbEntity
  8
TEXTO
100
AcDbText
 10
35000.0
 20
-800.0
 30
0.0
 40
200.0
  1
K35+000
 72
1
 11
35000.0
 21
-800.0
 31
0.0
100
AcDbText
  0
TEXT
  5
10F
330
17
100
AcDbEntity
  8
TEXTO
100
AcDbText
 10
40000.0
 20
-800.0
 30
0.0
 40
200.0
  1
K40+000
 72
1
 11
40000.0
 21
-800.0
 31
0.0
100
AcDbText
  0
TEXT
  5
110
330
17
100
AcDbEntity
  8
TEXTO
100
AcDbText
 10
45000.0
 20
-800.0
 30
0.0
 40
200.0
  1
K45+000
 72
1
 11
45000.0
 21
-800.0
 31
0.0
100
AcDbText
  0
TEXT
  5
111
330
17
100
AcDbEntity
  8
TEXTO
100
AcDbText
 10
50000.0
 20
-800.0
 30
0.0
 40
200.0
  1
K50+000
 72
1
 11
50000.0
 21
-800.0
 31
0.0
100
AcDbText
  0
TEXT
  5
112
330
17
100
AcDbEntity
  8
TEXTO
100
AcDbText
 10
0.0
 20
-1700.0
 30
0.0
 40
300.0
  1
Semillero GEOPAV · Universidad de Ibagué · Ferropista · OE 4 Act 2 · Sectorización para tuneladora · Horizontal en m, vertical ×5 · Esquema conceptual
 11
0.0
 21
-1700.0
 31
0.0
100
AcDbText
  0
ENDSEC
  0
SECTION
  2
OBJECTS
  0
DICTIONARY
  5
A
330
0
100
AcDbDictionary
281
1
  3
ACAD_COLOR
350
B
  3
ACAD_GROUP
350
C
  3
ACAD_LAYOUT
350
D
  3
ACAD_MATERIAL
350
E
  3
ACAD_MLEADERSTYLE
350
F
  3
ACAD_MLINESTYLE
350
10
  3
ACAD_PLOTSETTINGS
350
11
  3
ACAD_PLOTSTYLENAME
350
12
  3
ACAD_SCALELIST
350
14
  3
ACAD_TABLESTYLE
350
15
  3
ACAD_VISUALSTYLE
350
16
  3
EZDXF_META
350
2D
  0
DICTIONARY
  5
B
330
A
100
AcDbDictionary
281
1
  0
DICTIONARY
  5
C
330
A
100
AcDbDictionary
281
1
  0
DICTIONARY
  5
D
330
A
100
AcDbDictionary
281
1
  3
Model
350
1A
  3
Layout1
350
1E
  0
DICTIONARY
  5
E
330
A
100
AcDbDictionary
281
1
  3
ByBlock
350
1F
  3
ByLayer
350
20
  3
Global
350
21
  0
DICTIONARY
  5
F
330
A
100
AcDbDictionary
281
1
  3
Standard
350
2C
  0
DICTIONARY
  5
10
330
A
100
AcDbDictionary
281
1
  3
Standard
350
22
  0
DICTIONARY
  5
11
330
A
100
AcDbDictionary
281
1
  0
ACDBDICTIONARYWDFLT
  5
12
330
A
100
AcDbDictionary
281
1
  3
Normal
350
13
100
AcDbDictionaryWithDefault
340
13
  0
ACDBPLACEHOLDER
  5
13
330
12
  0
DICTIONARY
  5
14
330
A
100
AcDbDictionary
281
1
  0
DICTIONARY
  5
15
330
A
100
AcDbDictionary
281
1
  0
DICTIONARY
  5
16
330
A
100
AcDbDictionary
281
1
  3
2dWireframe
350
5A
  3
Basic
350
5B
  3
Brighten
350
5C
  3
ColorChange
350
5D
  3
Conceptual
350
5E
  3
Dim
350
5F
  3
EdgeColorOff
350
60
  3
Facepattern
350
61
  3
Flat
350
62
  3
FlatWithEdges
350
63
  3
Gouraud
350
64
  3
GouraudWithEdges
350
65
  3
Hidden
350
66
  3
JitterOff
350
67
  3
Linepattern
350
68
  3
Modeling
350
69
  3
OverhangOff
350
6A
  3
Realistic
350
6B
  3
Shaded
350
6C
  3
Shaded with edges
350
6D
  3
Shades of Gray
350
6E
  3
Sketchy
350
6F
  3
Thicken
350
70
  3
Wireframe
350
71
  3
X-Ray
350
72
  0
LAYOUT
  5
1A
330
D
100
AcDbPlotSettings
  1

  4
A3
  6

 40
7.5
 41
20.0
 42
7.5
 43
20.0
 44
420.0
 45
297.0
 46
0.0
 47
0.0
 48
0.0
 49
0.0
140
0.0
141
0.0
142
1.0
143
1.0
 70
1024
 72
1
 73
0
 74
5
  7

 75
16
 76
0
 77
2
 78
300
147
1.0
148
0.0
149
0.0
100
AcDbLayout
  1
Model
 70
1
 71
0
 10
0.0
 20
0.0
 11
420.0
 21
297.0
 12
0.0
 22
0.0
 32
0.0
 14
1e+20
 24
1e+20
 34
1e+20
 15
-1e+20
 25
-1e+20
 35
-1e+20
146
0.0
 13
0.0
 23
0.0
 33
0.0
 16
1.0
 26
0.0
 36
0.0
 17
0.0
 27
1.0
 37
0.0
 76
1
330
17
  0
LAYOUT
  5
1E
330
D
100
AcDbPlotSettings
  1

  4
A3
  6

 40
7.5
 41
20.0
 42
7.5
 43
20.0
 44
420.0
 45
297.0
 46
0.0
 47
0.0
 48
0.0
 49
0.0
140
0.0
141
0.0
142
1.0
143
1.0
 70
0
 72
1
 73
0
 74
5
  7

 75
16
 76
0
 77
2
 78
300
147
1.0
148
0.0
149
0.0
100
AcDbLayout
  1
Layout1
 70
1
 71
1
 10
0.0
 20
0.0
 11
420.0
 21
297.0
 12
0.0
 22
0.0
 32
0.0
 14
1e+20
 24
1e+20
 34
1e+20
 15
-1e+20
 25
-1e+20
 35
-1e+20
146
0.0
 13
0.0
 23
0.0
 33
0.0
 16
1.0
 26
0.0
 36
0.0
 17
0.0
 27
1.0
 37
0.0
 76
1
330
1B
  0
MATERIAL
  5
1F
102
{ACAD_REACTORS
330
E
102
}
330
E
100
AcDbMaterial
  1
ByBlock
  2

 70
0
 40
1.0
 71
1
 41
1.0
 91
-1023410177
 42
1.0
 72
1
  3

 73
1
 74
1
 75
1
 44
0.5
 73
0
 45
1.0
 46
1.0
 77
1
  4

 78
1
 79
1
170
1
 48
1.0
171
1
  6

172
1
173
1
174
1
140
1.0
141
1.0
175
1
  7

176
1
177
1
178
1
143
1.0
179
1
  8

270
1
271
1
272
1
145
1.0
146
1.0
273
1
  9

274
1
275
1
276
1
 42
1.0
 72
1
  3

 73
1
 74
1
 75
1
 94
63
  0
MATERIAL
  5
20
102
{ACAD_REACTORS
330
E
102
}
330
E
100
AcDbMaterial
  1
ByLayer
  2

 70
0
 40
1.0
 71
1
 41
1.0
 91
-1023410177
 42
1.0
 72
1
  3

 73
1
 74
1
 75
1
 44
0.5
 73
0
 45
1.0
 46
1.0
 77
1
  4

 78
1
 79
1
170
1
 48
1.0
171
1
  6

172
1
173
1
174
1
140
1.0
141
1.0
175
1
  7

176
1
177
1
178
1
143
1.0
179
1
  8

270
1
271
1
272
1
145
1.0
146
1.0
273
1
  9

274
1
275
1
276
1
 42
1.0
 72
1
  3

 73
1
 74
1
 75
1
 94
63
  0
MATERIAL
  5
21
102
{ACAD_REACTORS
330
E
102
}
330
E
100
AcDbMaterial
  1
Global
  2

 70
0
 40
1.0
 71
1
 41
1.0
 91
-1023410177
 42
1.0
 72
1
  3

 73
1
 74
1
 75
1
 44
0.5
 73
0
 45
1.0
 46
1.0
 77
1
  4

 78
1
 79
1
170
1
 48
1.0
171
1
  6

172
1
173
1
174
1
140
1.0
141
1.0
175
1
  7

176
1
177
1
178
1
143
1.0
179
1
  8

270
1
271
1
272
1
145
1.0
146
1.0
273
1
  9

274
1
275
1
276
1
 42
1.0
 72
1
  3

 73
1
 74
1
 75
1
 94
63
  0
MLINESTYLE
  5
22
102
{ACAD_REACTORS
330
10
102
}
330
10
100
AcDbMlineStyle
  2
Standard
 70
0
  3

 62
256
 51
90.0
 52
90.0
 71
2
 49
0.5
 62
256
  6
BYLAYER
 49
-0.5
 62
256
  6
BYLAYER
  0
MLEADERSTYLE
  5
2C
102
{ACAD_REACTORS
330
F
102
}
330
F
100
AcDbMLeaderStyle
179
2
170
2
171
1
172
0
 90
2
 40
0.0
 41
0.0
173
1
 91
-1056964608
 92
-2
290
1
 42
2.0
291
1
 43
8.0
  3
Standard
 44
4.0
300

342
29
174
1
175
1
176
0
178
1
 93
-1056964608
 45
4.0
292
0
297
0
 46
4.0
 94
-1056964608
 47
1.0
 49
1.0
140
1.0
294
1
141
0.0
177
0
142
1.0
295
0
296
0
143
3.75
271
0
272
9
273
9
  0
DICTIONARY
  5
2D
330
A
100
AcDbDictionary
280
1
281
1
  3
CREATED_BY_EZDXF
350
2E
  3
WRITTEN_BY_EZDXF
350
115
  0
DICTIONARYVAR
  5
2E
330
2D
100
DictionaryVariables
280
0
  1
1.4.4 @ 2026-09-29T14:45:50.595726+00:00
  0
VISUALSTYLE
  5
5A
102
{ACAD_REACTORS
330
16
102
}
330
16
100
AcDbVisualStyle
  2
2dWireframe
 70
4
 90
0
 40
0.6
 62
7
290
0
291
0
  0
VISUALSTYLE
  5
5B
102
{ACAD_REACTORS
330
16
102
}
330
16
100
AcDbVisualStyle
  2
Basic
 70
7
 90
1
 40
0.6
 62
7
290
0
291
1
  0
VISUALSTYLE
  5
5C
102
{ACAD_REACTORS
330
16
102
}
330
16
100
AcDbVisualStyle
  2
Brighten
 70
12
 90
2
 40
0.6
 62
7
290
0
291
1
  0
VISUALSTYLE
  5
5D
102
{ACAD_REACTORS
330
16
102
}
330
16
100
AcDbVisualStyle
  2
ColorChange
 70
16
 90
2
 40
0.6
 62
8
290
0
291
1
  0
VISUALSTYLE
  5
5E
102
{ACAD_REACTORS
330
16
102
}
330
16
100
AcDbVisualStyle
  2
Conceptual
 70
9
 90
3
 40
0.6
 62
7
290
0
291
0
  0
VISUALSTYLE
  5
5F
102
{ACAD_REACTORS
330
16
102
}
330
16
100
AcDbVisualStyle
  2
Dim
 70
11
 90
2
 40
0.6
 62
7
290
0
291
1
  0
VISUALSTYLE
  5
60
102
{ACAD_REACTORS
330
16
102
}
330
16
100
AcDbVisualStyle
  2
EdgeColorOff
 70
22
 90
2
 40
0.6
 62
7
290
0
291
1
  0
VISUALSTYLE
  5
61
102
{ACAD_REACTORS
330
16
102
}
330
16
100
AcDbVisualStyle
  2
Facepattern
 70
15
 90
2
 40
0.6
 62
7
290
0
291
1
  0
VISUALSTYLE
  5
62
102
{ACAD_REACTORS
330
16
102
}
330
16
100
AcDbVisualStyle
  2
Flat
 70
0
 90
2
 40
0.6
 62
7
290
0
291
1
  0
VISUALSTYLE
  5
63
102
{ACAD_REACTORS
330
16
102
}
330
16
100
AcDbVisualStyle
  2
FlatWithEdges
 70
1
 90
2
 40
0.6
 62
7
290
0
291
1
  0
VISUALSTYLE
  5
64
102
{ACAD_REACTORS
330
16
102
}
330
16
100
AcDbVisualStyle
  2
Gouraud
 70
2
 90
2
 40
0.6
 62
7
290
0
291
1
  0
VISUALSTYLE
  5
65
102
{ACAD_REACTORS
330
16
102
}
330
16
100
AcDbVisualStyle
  2
GouraudWithEdges
 70
3
 90
2
 40
0.6
 62
7
290
0
291
1
  0
VISUALSTYLE
  5
66
102
{ACAD_REACTORS
330
16
102
}
330
16
100
AcDbVisualStyle
  2
Hidden
 70
6
 90
1
 40
0.6
 62
7
290
0
291
0
  0
VISUALSTYLE
  5
67
102
{ACAD_REACTORS
330
16
102
}
330
16
100
AcDbVisualStyle
  2
JitterOff
 70
20
 90
2
 40
0.6
 62
7
290
0
291
1
  0
VISUALSTYLE
  5
68
102
{ACAD_REACTORS
330
16
102
}
330
16
100
AcDbVisualStyle
  2
Linepattern
 70
14
 90
2
 40
0.6
 62
7
290
0
291
1
  0
VISUALSTYLE
  5
69
102
{ACAD_REACTORS
330
16
102
}
330
16
100
AcDbVisualStyle
  2
Modeling
 70
10
 90
2
 40
0.6
 62
7
290
0
291
0
  0
VISUALSTYLE
  5
6A
102
{ACAD_REACTORS
330
16
102
}
330
16
100
AcDbVisualStyle
  2
OverhangOff
 70
21
 90
2
 40
0.6
 62
7
290
0
291
1
  0
VISUALSTYLE
  5
6B
102
{ACAD_REACTORS
330
16
102
}
330
16
100
AcDbVisualStyle
  2
Realistic
 70
8
 90
2
 40
0.6
 62
7
290
0
291
0
  0
VISUALSTYLE
  5
6C
102
{ACAD_REACTORS
330
16
102
}
330
16
100
AcDbVisualStyle
  2
Shaded
 70
27
 90
2
 40
0.6
 62
7
290
0
291
0
  0
VISUALSTYLE
  5
6D
102
{ACAD_REACTORS
330
16
102
}
330
16
100
AcDbVisualStyle
  2
Shaded with edges
 70
26
 90
2
 40
0.6
 62
7
290
0
291
0
  0
VISUALSTYLE
  5
6E
102
{ACAD_REACTORS
330
16
102
}
330
16
100
AcDbVisualStyle
  2
Shades of Gray
 70
23
 90
2
 40
0.6
 62
7
290
0
291
0
  0
VISUALSTYLE
  5
6F
102
{ACAD_REACTORS
330
16
102
}
330
16
100
AcDbVisualStyle
  2
Sketchy
 70
24
 90
1
 40
0.6
 62
7
290
0
291
0
  0
VISUALSTYLE
  5
70
102
{ACAD_REACTORS
330
16
102
}
330
16
100
AcDbVisualStyle
  2
Thicken
 70
13
 90
2
 40
0.6
 62
7
290
0
291
1
  0
VISUALSTYLE
  5
71
102
{ACAD_REACTORS
330
16
102
}
330
16
100
AcDbVisualStyle
  2
Wireframe
 70
5
 90
0
 40
0.6
 62
7
290
0
291
0
  0
VISUALSTYLE
  5
72
102
{ACAD_REACTORS
330
16
102
}
330
16
100
AcDbVisualStyle
  2
X-Ray
 70
25
 90
2
 40
0.5
 62
7
290
0
291
0
  0
DICTIONARYVAR
  5
115
330
2D
100
DictionaryVariables
280
0
  1
1.4.4 @ 2026-09-29T14:45:50.616606+00:00
  0
ENDSEC
  0
EOF
